<?xml version="1.0" encoding="utf-8"?>
<!-- Generator: Adobe Illustrator 25.4.1, SVG Export Plug-In . SVG Version: 6.00 Build 0)  -->
<svg version="1.1" id="Capa_1" xmlns="http://www.w3.org/2000/svg" xmlns:xlink="http://www.w3.org/1999/xlink" x="0px" y="0px"
	 viewBox="0 0 1242 1298" style="enable-background:new 0 0 1242 1298;" xml:space="preserve">
<style type="text/css">
	.st0{fill:#62381A;}
</style>
<g>
	<path class="st0" d="M440.1,866.4c-20.4,2.8-51.7,13.6-58.4,41.7c3.4-26.9,32.5-39.2,53.6-42.7c5-0.8,10.4-1.4,15.8-1.8
		c15.8-17.8,34.7-25.3,44.2-27.3c29-6.2,42.1,9.1,26,21c-10.9,8-38.2,6.7-62.9,7.7c-14.8,16.7-20.7,33.7-21,51.5
		c-0.3,18.2,7.6,30.8,29,16.2c26.2-17.6,41.2-57.7,44.5-62.7c2.1-3.1,7.3,2,6,4.8c-2.5,5-9.9,20-14,33.7c-12.2,41.3,11.9,60.2,47,51
		c12.2-3.2,27.6-15.1,27.6-15.1c-22.7,22.3-65.2,28-79.8-0.3c-6.9-13.4-5.7-29.7,0.6-45.8c-7.3,17.1-24.4,34.4-37.7,40.2
		c-19.5,8.3-26.9-1.1-29.5-14.3c-1.1-5.5-4.3-18.5,8.5-44.9c2.9-5.2,6.3-9.8,9.8-13.9C446.3,865.6,443.2,866,440.1,866.4z
		 M464.6,858.8c-1.5,1.4-2.8,2.8-4.2,4.2c21.7-1,43.3-0.3,51.9-3.5c22.1-8.3,13.7-20.7-0.3-22.1C496.8,836,476.5,847.4,464.6,858.8z
		"/>
	<path class="st0" d="M533.2,902c-0.6,2-0.6,4.9,1.3,8c2.5,4.3,5.2,8,6.3,11.3c14-6.9,17.4-10.9,24.5-20.3
		c-3.1,9.5-12.9,16.4-24.1,21.7c2.1,6.6,1.8,11.9-2.4,18.5c-7.1,11.3-22.4,15-27.3,9c-6.7-8.4,3.9-17.5,19.5-24.5
		c2.2-1,4.1-2,5.9-2.8c-0.4-2.7-1.5-5.3-3.4-8.3c-6.7-10.5-5.6-11.8-5.5-14.1c0.3-4.5,5.6-9.1,5.6-9.1c3.1-2.2,3.9,2.2,3.2,4.9
		C535.3,898,533.8,900.1,533.2,902z M535,925.1c-13,5.6-24.5,13-23.5,20.2c0.7,4.9,4.9,6.4,10.1,3.5c5.3-2.9,16.7-12.2,15.5-24.4
		C536.4,924.6,535.7,924.8,535,925.1z"/>
	<path class="st0" d="M576.1,917.5c-6.4,8.5-11.5,13.9-16.9,12.2c-8.7-2.8-1.4-24.5,4.8-28.6c2.8-1.4,4.2,0.1,3.8,2.4
		c-0.6,3.5-4.3,8.7-5.9,14.8c-1.1,4.6-2.5,9.9,1,9.5c4.3-0.4,12.3-12.7,17.9-19.6c4.6-5.7,6-7.4,9-7.4
		C585.4,902.9,581.9,909.8,576.1,917.5z M569.3,895.2c-1.7-0.6-1.8-1.5-0.6-3.9c1.4-2.7,0.6-3.2,2.8-4.5c1.5-0.8,6.6-0.3,4.9,3.2
		C574.7,893.8,571.3,895.8,569.3,895.2z"/>
	<path class="st0" d="M590.2,902c-0.6,2-0.6,4.9,1.3,8c2.5,4.3,5.2,8,6.3,11.3c14-6.9,17.4-10.9,24.5-20.3
		c-3.1,9.5-12.9,16.4-24.1,21.7c2.1,6.6,1.8,11.9-2.4,18.5c-7.1,11.3-22.4,15-27.3,9c-6.7-8.4,3.9-17.5,19.5-24.5
		c2.2-1,4.1-2,5.9-2.8c-0.4-2.7-1.5-5.3-3.4-8.3c-6.7-10.5-5.6-11.8-5.5-14.1c0.3-4.5,5.6-9.1,5.6-9.1c3.1-2.2,3.9,2.2,3.2,4.9
		C592.3,898,590.8,900.1,590.2,902z M592,925.1c-13,5.6-24.5,13-23.5,20.2c0.7,4.9,4.9,6.4,10.1,3.5c5.3-2.9,16.7-12.2,15.5-24.4
		C593.4,924.6,592.7,924.8,592,925.1z"/>
	<path class="st0" d="M588.9,846.7c-3.5,2.4-6.4,7-2.7,10.8c6.7,6.7,26,6,49,3.6c5.9-10.9,9.1-13.9,9.1-13.9c1.4-2.2,6,2.8,4.6,5.2
		c-1.5,2.5-3.1,5-4.6,7.7c31.9-3.8,68-9.7,86-4.2c6.7,2.1,9.2,4.5,8.5,7.8c-0.3,1.8-2.2,2.9-3.1,1.1c-0.7-1.5,2.9-5.2-6.3-7.8
		c-18.5-5.2-54.3,0.8-86.1,4.6c-9.2,15.8-18.9,35.8-26.9,64.1c-5.7,20.3-0.6,29.5,8.7,17.9c10.4-13,20.3-41,31.4-42.8
		c-8.8,7.8-11.9,13.7-20.2,29.1c-11.6,21.8-18.2,23.1-22.8,19.3c-5.9-4.8-9-16.9,6.3-54.7c5.9-14.4,10.8-24.8,14.6-31.9
		c-23.1,2.4-42.6,2.8-49.6-4.6c-3.5-3.8-2.1-10.4,2.5-13.4C588.8,843.6,592.6,844.3,588.9,846.7z"/>
	<path class="st0" d="M650.1,915c-2.2,10.8,3.6,15,9.8,12.5c10.4-4.1,20.2-26.7,27.4-26.6c-7.1,6.6-7.7,8.7-12.6,15
		c-6.4,8.3-13.2,15.4-21.1,14.6c-10.5-1.1-11.8-14.3-9.1-20.4c2.8-6.4,8.4-13.7,17.2-14.3c7.3-0.4,10.1,6.4,3.1,12.3
		c-4.2,3.5-10.4,5.2-14.4,5.9C650.4,914.1,650.1,914.7,650.1,915z M656.1,910.9c11.3-3.8,13.3-12.3,7.4-10.9c0,0-9.2,1.1-12.7,12.3
		C652.2,912,654.2,911.6,656.1,910.9z"/>
	<path class="st0" d="M693,905.3c0.1,4.6-1.4,6.9-3.9,12.2c5.9-8.4,19.5-21.8,28.7-24.4c5.3-1.4,7.7,3.5,7.3,7.1
		c-0.7,5.5-16.2,26.7-18.2,34.6c-2.8,11.6,4.5,7.8,6.7,6.2c6.7-5,19.3-27.7,25.1-34.3c7-8.1,9.7-5.5,9.7-5.5
		c-11.1,2.7-24.5,38.4-36.8,43.3c-3.6,1.5-9.2,0.6-10.9-5.3c-3.2-11.8,18.1-38.9,18.8-43c0.7-4.6-12.9,3.6-22.4,14.6
		c-6.4,7.4-9.8,13-12.6,17.4c-0.6,1-3.8,1-5.2-1.4c-0.6-1-2.2-3.2,2.9-13.9c5.7-11.6,3.4-11.2,3.4-11.2
		C686.7,899.9,692.8,900.8,693,905.3z"/>
	<path class="st0" d="M743.6,911.8c-3.6,4.9-6.3,10.9-4.6,17.9c0.7,3.4,5.9,5.7,11.9,1.8c11.6-7.6,22.1-26.2,31.1-30.7
		c-6.4,5.3-13.3,16.5-23.4,26.3c-9.2,9-16.1,11.2-21.8,6.4c-6.7-5.6-4.5-19.3,1.1-26.2c6.4-8,14.3-12.2,21.6-10.1
		c7.7,2.1,4.9,8.5,2.7,11.8c-2.2,3.2-5.5,6.2-8.5,3.6c-3.1-2.5,1.1-5.2,2-4.9c0.8,0.3,3.6,0,5.6-2.2c2.7-2.9,0.4-5.3-2.9-4.8
		C756.1,901.1,750.2,902.9,743.6,911.8z"/>
	<path class="st0" d="M791.1,917.5c-6.4,8.5-11.5,13.9-16.9,12.2c-8.7-2.8-1.4-24.5,4.8-28.6c2.8-1.4,4.2,0.1,3.8,2.4
		c-0.6,3.5-4.3,8.7-5.9,14.8c-1.1,4.6-2.5,9.9,1,9.5c4.3-0.4,12.3-12.7,17.9-19.6c4.6-5.7,6-7.4,9-7.4
		C800.5,902.9,797,909.8,791.1,917.5z M784.4,895.2c-1.7-0.6-1.8-1.5-0.6-3.9c1.4-2.7,0.6-3.2,2.8-4.5c1.5-0.8,6.6-0.3,4.9,3.2
		C789.7,893.8,786.3,895.8,784.4,895.2z"/>
	<path class="st0" d="M820.9,934c8-11.8,17.8-31.8,24.6-33.3c-7,8-8.8,11.6-12.9,18.1c-7.7,12.5-11.9,20.9-16.4,20.2
		c-5-0.8-9.7-7.4-4.5-21.6c0.1-0.6,0.4-1.1,0.6-1.7c-5.7,7-11.2,13.7-16.5,7.7c-5.5-6.2-0.1-17.2,4.9-21.8
		c3.6-3.4,10.5-6.3,17.8-4.5c8.1,2.1,2,2.1,2,2.1s-10.4-2.2-17.8,9.7c-5.5,8.8-2.4,16.8,2,12.7c2.4-2.2,7.6-8.8,11.6-14
		c2.1-3.4,4.3-7.4,6.4-7.4c2.1-0.1,7.3,0.6,2.7,6.4C812.7,923.1,812.4,946.5,820.9,934z"/>
</g>
<g id="XMLID_6662_">
	<path class="st0" d="M220,1088.8h19.1l3-10.2c0.5-2,0.9-3.5,0.9-4.6c0-0.5-0.1-1-0.4-1.4c-0.2-0.3-0.6-0.6-1.2-0.9
		s-1.6-0.3-3.1-0.3l0.3-1.2h16.6l-0.4,1.2c-1.4,0-2.5,0.1-3.1,0.4c-1,0.4-1.7,1-2.3,1.7c-0.6,1-1.3,2.7-2,5l-7.3,25
		c-0.6,2-0.9,3.5-0.9,4.5c0,0.8,0.3,1.3,0.9,1.7c0.5,0.4,1.8,0.6,3.9,0.8l-0.3,1.2h-16.1l0.4-1.2c1.6,0,2.7-0.2,3.2-0.4
		c0.9-0.4,1.4-0.9,1.8-1.4c0.5-0.8,1.2-2.5,1.9-5.2l3.8-12.7h-19.2l-3.8,12.7c-0.5,2-0.9,3.5-0.9,4.5c0,0.8,0.2,1.3,0.8,1.7
		c0.5,0.4,1.8,0.6,3.9,0.8l-0.2,1.2H203l0.4-1.2c1.6,0,2.7-0.2,3.2-0.4c0.9-0.4,1.4-0.9,1.8-1.4c0.5-0.9,1.2-2.6,1.9-5.2l7.3-25
		c0.5-2,0.9-3.6,0.9-4.6c0-0.5-0.1-1-0.4-1.4c-0.2-0.3-0.6-0.6-1.2-0.9s-1.6-0.3-3.2-0.3l0.4-1.2h16.3l-0.3,1.2
		c-1.4,0-2.4,0.1-3,0.4c-1,0.4-1.6,1-2,1.6c-0.6,0.9-1.3,2.6-2,5L220,1088.8z"/>
	<path class="st0" d="M277.2,1084.2l-6,20.7l-0.6,2.8c0,0.2-0.1,0.4-0.1,0.6c0,0.3,0.1,0.6,0.3,0.9c0.1,0.2,0.3,0.2,0.6,0.2
		s0.6-0.2,1.1-0.5c0.8-0.5,1.8-1.8,3.2-3.6l1.1,0.8c-1.4,2.1-2.8,3.8-4.3,4.8c-1.5,1.1-2.9,1.6-4.2,1.6c-0.9,0-1.5-0.2-1.9-0.6
		c-0.4-0.4-0.6-1.1-0.6-1.9c0-1,0.2-2.4,0.6-4l0.6-2.4c-2.7,3.5-5.2,5.9-7.4,7.3c-1.6,1-3.2,1.5-4.7,1.5c-1.5,0-2.8-0.6-3.9-1.8
		s-1.6-2.9-1.6-5c0-3.2,1-6.7,2.9-10.3c1.9-3.6,4.4-6.4,7.4-8.6c2.4-1.7,4.5-2.6,6.7-2.6c1.3,0,2.4,0.3,3.1,1
		c0.9,0.6,1.4,1.7,1.9,3.2l1.1-3.5L277.2,1084.2z M266.3,1085.7c-1.3,0-2.7,0.6-4.2,1.8c-2.1,1.7-4,4.3-5.6,7.7
		c-1.6,3.4-2.5,6.4-2.5,9.2c0,1.4,0.3,2.5,1.1,3.2c0.8,0.8,1.5,1.2,2.4,1.2c2.3,0,4.6-1.6,7.2-4.9c3.5-4.4,5.3-8.8,5.3-13.4
		c0-1.7-0.3-3-1-3.8C268.3,1086,267.4,1085.7,266.3,1085.7z"/>
	<path class="st0" d="M282.4,1084.9h19.4v0.8l-21.1,22h8.9c2.1,0,3.4-0.1,4.1-0.2c0.6-0.1,1.1-0.5,1.6-1.1c0.4-0.5,1-1.5,1.6-2.9
		h1.2l-2.7,8.3h-20v-0.9l21.1-22h-8.8c-1.8,0-3,0-3.3,0.1c-0.5,0.1-1.2,0.4-1.7,1c-0.5,0.5-1.1,1.4-1.7,2.6h-1.2L282.4,1084.9z"/>
	<path class="st0" d="M337.4,1105.2c-2.1,2.6-4.3,4.4-6.4,5.6c-2.1,1.2-4.4,1.8-6.9,1.8c-2.9,0-5.2-0.9-6.8-2.5
		c-1.6-1.6-2.5-3.8-2.5-6.5c0-3.1,0.9-6.2,2.6-9.2c1.7-3,4.1-5.5,7-7.4c2.9-1.9,5.8-2.8,8.7-2.8c2.3,0,3.9,0.4,5,1.4
		c1.1,1,1.6,2,1.6,3.4c0,1.3-0.4,2.4-1.2,3.2c-0.5,0.8-1.3,1.1-2,1.1c-0.6,0-1.2-0.2-1.6-0.6s-0.6-1-0.6-1.5c0-0.4,0.1-0.8,0.2-1.1
		c0.1-0.3,0.4-0.8,1-1.2c0.4-0.4,0.8-0.8,0.9-1c0.1-0.2,0.1-0.4,0.1-0.6c0-0.4-0.2-0.8-0.5-1.1c-0.6-0.4-1.4-0.6-2.5-0.6
		c-2,0-4,0.8-5.9,2.1c-1.9,1.4-3.6,3.4-5,6c-1.7,3.1-2.5,6.2-2.5,9.4c0,2,0.6,3.8,1.8,4.9c1.2,1.2,2.8,1.8,4.8,1.8
		c1.6,0,3.1-0.4,4.6-1.2c1.5-0.8,3.2-2.3,5.2-4.3L337.4,1105.2z"/>
	<path class="st0" d="M357.7,1068.3l-10.4,36.4c-0.5,1.8-0.8,2.9-0.8,3.3c0,0.3,0.1,0.5,0.3,0.8c0.2,0.2,0.4,0.3,0.8,0.3
		c0.4,0,0.9-0.2,1.3-0.5c1.1-0.9,2.1-2.1,3.3-3.9l0.9,1c-1.9,2.7-3.8,4.6-5.4,5.7c-1.2,0.8-2.4,1.2-3.4,1.2c-0.8,0-1.4-0.2-1.9-0.8
		c-0.5-0.5-0.8-1.2-0.8-1.8c0-0.8,0.3-2.3,1-4.5l8.3-28.7c0.6-2.4,1-3.6,1-4c0-0.5-0.2-1-0.5-1.2c-0.3-0.2-1-0.4-1.8-0.4
		c-0.4,0-1.2,0.1-2.1,0.2v-1.2L357.7,1068.3z"/>
	<path class="st0" d="M369,1084.2l-6,21.5c-0.4,1.4-0.6,2.3-0.6,2.6s0.1,0.6,0.3,0.8c0.2,0.2,0.4,0.3,0.6,0.3c0.3,0,0.6-0.2,1.1-0.5
		c1.2-0.9,2.4-2.3,3.5-3.9l1.1,0.8c-1.4,2.1-3,3.9-4.9,5.4c-1.4,1.1-2.7,1.6-4,1.6c-0.9,0-1.5-0.2-2-0.8c-0.5-0.5-0.8-1.1-0.8-1.9
		c0-0.8,0.2-2,0.8-3.8l4-13.7c0.6-2.3,1-3.6,1-4.2c0-0.4-0.1-0.8-0.4-1.1c-0.3-0.3-0.8-0.4-1.3-0.4c-0.4,0-1.4,0.1-2.8,0.3v-1.2
		L369,1084.2z M368.5,1072c0.9,0,1.6,0.3,2.1,0.9c0.5,0.6,0.9,1.3,0.9,2.1s-0.3,1.6-0.9,2.1c-0.5,0.5-1.3,0.9-2.1,0.9
		c-0.9,0-1.6-0.3-2.1-0.9c-0.6-0.6-0.9-1.3-0.9-2.1s0.3-1.5,0.9-2.1C366.9,1072.4,367.7,1072,368.5,1072z"/>
	<path class="st0" d="M394.2,1105.2c-2.1,2.6-4.3,4.4-6.4,5.6c-2.1,1.2-4.4,1.8-6.9,1.8c-2.9,0-5.2-0.9-6.8-2.5s-2.5-3.8-2.5-6.5
		c0-3.1,0.9-6.2,2.6-9.2c1.7-3,4.1-5.5,7-7.4c2.9-1.9,5.8-2.8,8.7-2.8c2.3,0,3.9,0.4,5,1.4c1.1,1,1.6,2,1.6,3.4
		c0,1.3-0.4,2.4-1.2,3.2c-0.5,0.8-1.3,1.1-2,1.1c-0.6,0-1.2-0.2-1.6-0.6s-0.6-1-0.6-1.5c0-0.4,0.1-0.8,0.2-1.1
		c0.1-0.3,0.4-0.8,1-1.2c0.4-0.4,0.8-0.8,0.9-1s0.1-0.4,0.1-0.6c0-0.4-0.2-0.8-0.5-1.1c-0.6-0.4-1.4-0.6-2.5-0.6c-2,0-4,0.8-5.9,2.1
		c-1.9,1.4-3.6,3.4-5,6c-1.7,3.1-2.5,6.2-2.5,9.4c0,2,0.6,3.8,1.8,4.9c1.2,1.2,2.8,1.8,4.8,1.8c1.6,0,3.1-0.4,4.6-1.2
		c1.5-0.8,3.2-2.3,5.2-4.3L394.2,1105.2z"/>
	<path class="st0" d="M416.9,1100.3c-0.1,1-0.2,1.8-0.2,2.5c0,1.8,0.6,3.3,1.9,4.6c1.3,1.3,2.8,1.9,4.7,1.9c1.5,0,2.9-0.3,4.2-0.9
		c1.4-0.6,3.3-1.9,6-4l0.6,0.9c-4.8,4.8-9.4,7.2-13.8,7.2c-3,0-5.2-1-6.7-2.8c-1.5-1.8-2.3-4-2.3-6.2c0-3,1-6.1,2.8-9.3
		c1.8-3.2,4.2-5.7,7.1-7.4c2.8-1.7,5.7-2.7,8.8-2.7c2.1,0,3.8,0.4,4.8,1.3c1.1,0.9,1.5,1.9,1.5,3.1c0,1.7-0.6,3.3-2,4.8
		c-1.8,2-4.4,3.6-7.8,4.9C424.3,1099.2,421.1,1099.8,416.9,1100.3z M417.1,1098.8c3-0.3,5.5-1,7.4-1.8c2.5-1.1,4.4-2.5,5.7-4
		c1.3-1.6,1.9-3,1.9-4.5c0-0.9-0.3-1.5-0.9-2c-0.5-0.5-1.3-0.8-2.3-0.8c-2,0-4.3,1.1-6.7,3.3C420,1091.1,418.3,1094.5,417.1,1098.8z
		"/>
	<path class="st0" d="M449.1,1084.2l-4.1,14c3.8-5.7,6.8-9.4,8.8-11.3c2-1.8,4-2.7,5.9-2.7c1,0,1.8,0.3,2.5,1.1c0.6,0.6,1,1.6,1,2.6
		c0,1.3-0.3,2.9-0.9,4.9l-3.8,12.9c-0.4,1.5-0.6,2.4-0.6,2.7s0.1,0.5,0.2,0.8c0.2,0.2,0.3,0.3,0.5,0.3c0.2,0,0.5-0.1,0.9-0.4
		c1.1-0.9,2.3-2.1,3.5-3.9l1,0.5c-1.9,2.7-3.6,4.6-5.4,5.8c-1.2,0.8-2.3,1.2-3.2,1.2c-0.8,0-1.4-0.2-1.8-0.6
		c-0.4-0.4-0.6-1.1-0.6-1.8c0-1,0.3-2.7,1.1-5l3.5-12.3c0.4-1.5,0.6-2.7,0.6-3.5c0-0.4-0.1-0.8-0.4-1c-0.2-0.2-0.5-0.4-1-0.4
		c-0.5,0-1.3,0.2-2,0.8c-1.5,0.9-3,2.5-4.7,4.5c-1.6,2.1-3.3,4.8-5.2,8c-1,1.7-1.7,3.6-2.4,5.7l-1.5,5h-4.6l5.6-19.1
		c0.6-2.3,1-3.6,1-4.2c0-0.4-0.2-0.9-0.5-1.2c-0.3-0.3-0.8-0.5-1.3-0.5c-0.2,0-0.6,0-1.3,0.1l-1.2,0.1l-0.2-1.1L449.1,1084.2z"/>
	<path class="st0" d="M497,1068.3l-10.4,36.4c-0.5,1.8-0.8,2.9-0.8,3.3c0,0.3,0.1,0.5,0.3,0.8c0.2,0.2,0.4,0.3,0.8,0.3
		c0.4,0,0.9-0.2,1.3-0.5c1.1-0.9,2.1-2.1,3.3-3.9l0.9,1c-1.9,2.7-3.8,4.6-5.4,5.7c-1.2,0.8-2.4,1.2-3.4,1.2c-0.8,0-1.4-0.2-1.9-0.8
		c-0.5-0.5-0.8-1.2-0.8-1.8c0-0.8,0.3-2.3,1-4.5l8.3-28.7c0.6-2.4,1-3.6,1-4c0-0.5-0.2-1-0.5-1.2c-0.3-0.2-1-0.4-1.8-0.4
		c-0.4,0-1.2,0.1-2.1,0.2v-1.2L497,1068.3z"/>
	<path class="st0" d="M523.2,1084.2l-6,20.7l-0.6,2.8c0,0.2-0.1,0.4-0.1,0.6c0,0.3,0.1,0.6,0.3,0.9c0.1,0.2,0.3,0.2,0.6,0.2
		s0.6-0.2,1.1-0.5c0.8-0.5,1.8-1.8,3.2-3.6l1.1,0.8c-1.4,2.1-2.8,3.8-4.3,4.8s-2.9,1.6-4.2,1.6c-0.9,0-1.5-0.2-1.9-0.6
		c-0.4-0.4-0.6-1.1-0.6-1.9c0-1,0.2-2.4,0.6-4l0.6-2.4c-2.7,3.5-5.2,5.9-7.4,7.3c-1.6,1-3.2,1.5-4.7,1.5s-2.8-0.6-3.9-1.8
		s-1.6-2.9-1.6-5c0-3.2,1-6.7,2.9-10.3c1.9-3.6,4.4-6.4,7.4-8.6c2.4-1.7,4.5-2.6,6.7-2.6c1.3,0,2.4,0.3,3.1,1
		c0.9,0.6,1.4,1.7,1.9,3.2l1.1-3.5L523.2,1084.2z M512.2,1085.7c-1.3,0-2.7,0.6-4.2,1.8c-2.1,1.7-4,4.3-5.6,7.7
		c-1.6,3.4-2.5,6.4-2.5,9.2c0,1.4,0.3,2.5,1.1,3.2c0.8,0.8,1.5,1.2,2.4,1.2c2.3,0,4.6-1.6,7.2-4.9c3.5-4.4,5.3-8.8,5.3-13.4
		c0-1.7-0.3-3-1-3.8C514.3,1086,513.4,1085.7,512.2,1085.7z"/>
	<path class="st0" d="M551.2,1084.2l-6,21.5c-0.4,1.4-0.6,2.3-0.6,2.6s0.1,0.6,0.3,0.8c0.2,0.2,0.4,0.3,0.6,0.3
		c0.3,0,0.6-0.2,1.1-0.5c1.2-0.9,2.4-2.3,3.5-3.9l1.1,0.8c-1.4,2.1-3,3.9-4.9,5.4c-1.4,1.1-2.7,1.6-4,1.6c-0.9,0-1.5-0.2-2-0.8
		c-0.5-0.5-0.8-1.1-0.8-1.9c0-0.8,0.2-2,0.8-3.8l4-13.7c0.6-2.3,1-3.6,1-4.2c0-0.4-0.1-0.8-0.4-1.1c-0.3-0.3-0.8-0.4-1.3-0.4
		c-0.4,0-1.4,0.1-2.8,0.3v-1.2L551.2,1084.2z M550.8,1072c0.9,0,1.6,0.3,2.1,0.9c0.5,0.6,0.9,1.3,0.9,2.1s-0.3,1.6-0.9,2.1
		c-0.6,0.6-1.3,0.9-2.1,0.9c-0.9,0-1.6-0.3-2.1-0.9c-0.6-0.6-0.9-1.3-0.9-2.1s0.3-1.5,0.9-2.1C549.2,1072.4,550,1072,550.8,1072z"/>
	<path class="st0" d="M565.8,1084.2l-4,13.8c1.8-3.2,3.3-5.7,4.5-7.3c1.9-2.6,3.8-4.4,5.7-5.5c1.1-0.6,2.3-1,3.3-1
		c1,0,1.8,0.3,2.6,1c0.6,0.6,1.1,1.5,1.1,2.5s-0.2,2.4-0.8,3.9l-2.1,7.7c3.3-6.2,6.4-10.6,9.4-13.1c1.6-1.4,3.2-2,4.8-2
		c1,0,1.7,0.3,2.4,1c0.6,0.6,0.9,1.6,0.9,3c0,1.2-0.2,2.5-0.5,3.8l-3.3,11.9c-0.8,2.6-1.1,4.1-1.1,4.3c0,0.3,0.1,0.5,0.2,0.8
		c0.1,0.1,0.3,0.2,0.5,0.2c0.2,0,0.5-0.2,1.1-0.5c1.2-0.9,2.3-2.1,3.2-3.5l1.1,0.6c-0.5,0.9-1.4,1.9-2.7,3.3
		c-1.3,1.4-2.4,2.4-3.3,2.9c-1,0.5-1.7,0.8-2.6,0.8c-0.8,0-1.3-0.2-1.8-0.8c-0.5-0.5-0.8-1.1-0.8-1.8c0-1,0.4-3,1.3-5.9l2.8-9.8
		c0.6-2.3,1-3.5,1-3.8c0.1-0.4,0.1-0.8,0.1-1.2c0-0.5-0.1-0.9-0.3-1.2c-0.2-0.3-0.5-0.4-0.9-0.4c-0.9,0-1.7,0.4-2.7,1.3
		c-2.8,2.6-5.5,6.2-7.9,10.8c-1.6,3.1-3.1,7.1-4.5,11.8h-4.6l5.3-18.5c0.5-2,0.9-3.3,0.9-4c0-0.5-0.1-1-0.3-1.2
		c-0.2-0.2-0.5-0.4-0.9-0.4c-0.6,0-1.4,0.2-2.1,0.8c-1.2,0.9-2.8,2.5-4.7,5.2c-1.9,2.6-3.4,5.2-4.5,7.5c-0.5,1.1-1.7,4.7-3.6,10.7
		h-4.4l5.7-19.9l0.8-2.6c0.1-0.4,0.2-0.6,0.2-0.9c0-0.4-0.2-0.9-0.6-1.2c-0.4-0.3-1-0.5-1.5-0.5c-0.3,0-1,0.1-2.3,0.4l-0.2-1.2
		L565.8,1084.2z"/>
	<path class="st0" d="M624.9,1084.2l-6,20.7l-0.6,2.8c0,0.2-0.1,0.4-0.1,0.6c0,0.3,0.1,0.6,0.3,0.9c0.1,0.2,0.3,0.2,0.6,0.2
		c0.2,0,0.6-0.2,1.1-0.5c0.8-0.5,1.8-1.8,3.2-3.6l1.1,0.8c-1.4,2.1-2.8,3.8-4.3,4.8s-2.9,1.6-4.2,1.6c-0.9,0-1.5-0.2-1.9-0.6
		c-0.4-0.4-0.6-1.1-0.6-1.9c0-1,0.2-2.4,0.6-4l0.6-2.4c-2.7,3.5-5.2,5.9-7.4,7.3c-1.6,1-3.2,1.5-4.7,1.5s-2.8-0.6-3.9-1.8
		s-1.6-2.9-1.6-5c0-3.2,1-6.7,2.9-10.3c1.9-3.6,4.4-6.4,7.4-8.6c2.4-1.7,4.5-2.6,6.7-2.6c1.3,0,2.4,0.3,3.1,1
		c0.9,0.6,1.4,1.7,1.9,3.2l1.1-3.5L624.9,1084.2z M613.9,1085.7c-1.3,0-2.7,0.6-4.2,1.8c-2.1,1.7-4,4.3-5.6,7.7
		c-1.6,3.4-2.5,6.4-2.5,9.2c0,1.4,0.3,2.5,1.1,3.2c0.8,0.8,1.5,1.2,2.4,1.2c2.3,0,4.6-1.6,7.2-4.9c3.5-4.4,5.3-8.8,5.3-13.4
		c0-1.7-0.3-3-1-3.8C616.1,1086.1,615.1,1085.7,613.9,1085.7z"/>
	<path class="st0" d="M657.4,1086l-0.9,3.2h-5.2c0.4,1.1,0.5,2.1,0.5,3.1c0,2.7-1.2,5.2-3.4,7.2c-2.3,2-5.5,3.2-9.4,3.4
		c-2.1,0.6-3.8,1.4-4.8,2.4c-0.4,0.3-0.6,0.6-0.6,1c0,0.4,0.2,0.8,0.5,1.1c0.3,0.3,1.3,0.6,2.8,1l6,1.4c3.2,0.8,5.5,1.7,6.4,2.7
		c1.1,1.1,1.5,2.4,1.5,3.8c0,1.7-0.6,3.2-1.8,4.6s-3,2.5-5.4,3.2c-2.4,0.8-5,1.2-7.8,1.2c-2.6,0-4.8-0.3-6.9-0.9
		c-2-0.6-3.5-1.4-4.5-2.5c-0.9-1-1.4-2-1.4-3.1c0-0.9,0.3-1.7,0.9-2.7c0.5-1,1.3-1.7,2.1-2.4c0.5-0.4,2.1-1.3,4.6-2.8
		c-1-0.8-1.4-1.5-1.4-2.5c0-0.9,0.4-1.7,1.3-2.6c0.9-0.9,2.6-1.9,5.3-3c-2.3-0.4-4.1-1.4-5.4-2.8c-1.3-1.4-1.9-3-1.9-4.8
		c0-2.9,1.3-5.5,3.8-7.7c2.6-2.3,5.9-3.4,10.1-3.4c1.5,0,2.8,0.1,3.8,0.4s1.9,0.8,2.9,1.4h8.4V1086z M632.2,1111.7
		c-1.6,0.8-2.9,1.7-3.8,2.9c-0.9,1.2-1.3,2.4-1.3,3.4c0,1.3,0.6,2.5,1.8,3.3c1.8,1.3,4.3,1.9,7.7,1.9c2.9,0,5.4-0.5,7.5-1.5
		c2-1,3.1-2.3,3.1-3.9c0-0.9-0.4-1.6-1.2-2.3c-0.8-0.6-2.3-1.3-4.5-1.7C640.5,1113.8,637.3,1113,632.2,1111.7z M646.8,1090.8
		c0-1.6-0.4-2.9-1.4-3.9c-0.9-1-2.1-1.4-3.5-1.4c-2.3,0-4.2,1.2-5.7,3.4c-1.5,2.4-2.3,4.7-2.3,7.2c0,1.6,0.4,2.9,1.4,3.9
		s2.1,1.5,3.4,1.5c1.1,0,2.1-0.3,3.1-0.9c1-0.6,1.8-1.4,2.6-2.5c0.6-1.1,1.2-2.4,1.6-4C646.6,1092.7,646.8,1091.6,646.8,1090.8z"/>
	<path class="st0" d="M661.6,1100.3c-0.1,1-0.2,1.8-0.2,2.5c0,1.8,0.6,3.3,1.9,4.6c1.3,1.3,2.8,1.9,4.7,1.9c1.5,0,2.9-0.3,4.2-0.9
		c1.4-0.6,3.3-1.9,6-4l0.6,0.9c-4.8,4.8-9.4,7.2-13.8,7.2c-3,0-5.2-1-6.7-2.8c-1.5-1.8-2.3-4-2.3-6.2c0-3,1-6.1,2.8-9.3
		c1.8-3.2,4.2-5.7,7.1-7.4c2.8-1.7,5.7-2.7,8.8-2.7c2.1,0,3.8,0.4,4.8,1.3c1.1,0.9,1.5,1.9,1.5,3.1c0,1.7-0.6,3.3-2,4.8
		c-1.8,2-4.4,3.6-7.8,4.9C668.9,1099.2,665.8,1099.8,661.6,1100.3z M661.8,1098.8c3-0.3,5.5-1,7.4-1.8c2.5-1.1,4.4-2.5,5.7-4
		c1.3-1.6,1.9-3,1.9-4.5c0-0.9-0.3-1.5-0.9-2c-0.5-0.5-1.3-0.8-2.3-0.8c-2,0-4.3,1.1-6.7,3.3
		C664.6,1091.1,662.9,1094.5,661.8,1098.8z"/>
	<path class="st0" d="M693.8,1084.2l-4.1,14c3.8-5.7,6.8-9.4,8.8-11.3c2-1.8,4-2.7,5.9-2.7c1,0,1.8,0.3,2.5,1.1c0.6,0.8,1,1.6,1,2.6
		c0,1.3-0.3,2.9-0.9,4.9l-3.8,12.9c-0.4,1.5-0.6,2.4-0.6,2.7s0.1,0.5,0.2,0.8c0.1,0.2,0.3,0.3,0.5,0.3c0.2,0,0.5-0.1,0.9-0.4
		c1.1-0.9,2.3-2.1,3.5-3.9l1,0.5c-1.9,2.7-3.6,4.6-5.4,5.8c-1.2,0.8-2.3,1.2-3.2,1.2c-0.8,0-1.4-0.2-1.8-0.6
		c-0.4-0.4-0.6-1.1-0.6-1.8c0-1,0.3-2.7,1.1-5l3.5-12.3c0.4-1.5,0.6-2.7,0.6-3.5c0-0.4-0.1-0.8-0.4-1c-0.2-0.2-0.5-0.4-1-0.4
		c-0.5,0-1.3,0.2-2,0.8c-1.5,0.9-3,2.5-4.7,4.5c-1.6,2.1-3.3,4.8-5.2,8c-1,1.7-1.7,3.6-2.4,5.7l-1.5,5h-4.6l5.6-19.1
		c0.6-2.3,1-3.6,1-4.2c0-0.4-0.2-0.9-0.5-1.2c-0.3-0.3-0.8-0.5-1.3-0.5c-0.2,0-0.6,0-1.3,0.1l-1.2,0.1l-0.2-1.1L693.8,1084.2z"/>
	<path class="st0" d="M756.9,1068.3l-10.5,36.1c-0.5,1.9-0.9,3.2-0.9,3.9c0,0.2,0.1,0.4,0.2,0.5c0.1,0.1,0.3,0.2,0.5,0.2
		c0.3,0,0.6-0.1,1-0.4c0.8-0.5,1.8-1.7,3.5-3.6l1.1,0.6c-1.5,2-3,3.6-4.5,4.9c-1.5,1.3-2.9,1.9-4.2,1.9c-0.8,0-1.3-0.2-1.7-0.8
		c-0.4-0.4-0.6-1.2-0.6-2c0-1.2,0.3-2.7,0.9-4.6l1.2-3.8c-2.9,4.6-5.6,7.7-8,9.4c-1.7,1.2-3.2,1.8-4.8,1.8s-2.9-0.6-4.1-2
		c-1.2-1.4-1.7-3.2-1.7-5.6c0-3,1-6.2,2.9-9.8c1.9-3.4,4.5-6.2,7.7-8.4c2.5-1.7,4.8-2.6,6.9-2.6c1.1,0,2,0.2,2.8,0.6
		c0.8,0.4,1.6,1.2,2.4,2.3l3-10.6c0.2-0.8,0.4-1.4,0.5-1.8c0.2-0.9,0.4-1.5,0.4-2c0-0.4-0.1-0.8-0.4-1.1c-0.4-0.3-1-0.5-1.7-0.5
		c-0.4,0-1.2,0.1-2.4,0.2v-1.2L756.9,1068.3z M745.5,1090.1c0-1.3-0.3-2.4-1.1-3.1c-0.8-0.8-1.7-1.2-2.9-1.2c-2.6,0-5.3,2.1-8,6.3
		c-2.8,4.2-4.2,8.3-4.2,12.1c0,1.5,0.3,2.7,1,3.5c0.6,0.8,1.5,1.2,2.4,1.2c2.1,0,4.8-2.3,7.9-6.9
		C743.9,1097.5,745.5,1093.5,745.5,1090.1z"/>
	<path class="st0" d="M759.8,1100.3c-0.1,1-0.2,1.8-0.2,2.5c0,1.8,0.6,3.3,1.9,4.6c1.3,1.3,2.8,1.9,4.7,1.9c1.5,0,2.9-0.3,4.2-0.9
		c1.4-0.6,3.3-1.9,6-4l0.6,0.9c-4.8,4.8-9.4,7.2-13.8,7.2c-3,0-5.2-1-6.7-2.8c-1.5-1.8-2.3-4-2.3-6.2c0-3,1-6.1,2.8-9.3
		c1.8-3.2,4.2-5.7,7.1-7.4c2.8-1.7,5.7-2.7,8.8-2.7c2.1,0,3.8,0.4,4.8,1.3c1.1,0.9,1.5,1.9,1.5,3.1c0,1.7-0.6,3.3-2,4.8
		c-1.8,2-4.4,3.6-7.8,4.9C767.1,1099.2,763.9,1099.8,759.8,1100.3z M760,1098.8c3-0.3,5.5-1,7.4-1.8c2.5-1.1,4.4-2.5,5.7-4
		c1.3-1.6,1.9-3,1.9-4.5c0-0.9-0.3-1.5-0.9-2c-0.5-0.5-1.3-0.8-2.3-0.8c-2,0-4.3,1.1-6.7,3.3C762.8,1091.1,761.1,1094.5,760,1098.8z
		"/>
	<path class="st0" d="M796.7,1068.3l-10.4,36.4c-0.5,1.8-0.8,2.9-0.8,3.3c0,0.3,0.1,0.5,0.3,0.8c0.2,0.2,0.4,0.3,0.8,0.3
		c0.4,0,0.9-0.2,1.3-0.5c1.1-0.9,2.1-2.1,3.3-3.9l0.9,1c-1.9,2.7-3.8,4.6-5.4,5.7c-1.2,0.8-2.4,1.2-3.4,1.2c-0.8,0-1.4-0.2-1.9-0.8
		c-0.5-0.5-0.8-1.2-0.8-1.8c0-0.8,0.3-2.3,1-4.5l8.3-28.7c0.6-2.4,1-3.6,1-4c0-0.5-0.2-1-0.5-1.2c-0.3-0.2-1-0.4-1.8-0.4
		c-0.4,0-1.2,0.1-2.1,0.2v-1.2L796.7,1068.3z"/>
	<path class="st0" d="M821.2,1084.2l-2.1,7.1c2.3-2.6,4.2-4.4,6-5.5c1.7-1.1,3.5-1.6,5.4-1.6c1.8,0,3.3,0.8,4.6,2.1
		c1.3,1.4,1.9,3.3,1.9,5.6c0,4.5-1.8,9-5.5,13.6c-3.6,4.6-7.9,7-12.8,7c-1,0-1.9-0.1-2.7-0.3c-0.8-0.2-1.6-0.6-2.6-1.2l-2.3,7.9
		c-0.4,1.5-0.6,2.6-0.6,3c0,0.4,0.1,0.9,0.3,1.2c0.2,0.3,0.6,0.5,1.2,0.8s1.6,0.2,3.1,0.2l-0.2,1.2h-14.4l0.3-1.2
		c1.9-0.1,3.2-0.4,3.9-1c0.6-0.5,1.4-2.1,2-4.7l7.7-26.7c0.4-1.7,0.6-2.8,0.6-3.1c0-0.5-0.1-1-0.4-1.3c-0.3-0.3-0.8-0.4-1.4-0.4
		s-1.4,0.1-2.5,0.2v-1.2L821.2,1084.2z M814,1108.5c1.3,1.5,3,2.3,5.2,2.3c1.1,0,2.1-0.3,3.2-0.9c1.1-0.6,2.1-1.5,3.2-2.6
		c1.1-1.2,2-2.5,2.8-4c0.9-1.5,1.6-3.3,2.3-5.4s1-4.1,1-6.1c0-1.6-0.3-2.9-1.1-3.8c-0.8-0.9-1.6-1.3-2.7-1.3c-2.3,0-4.4,1.3-6.5,3.8
		s-3.8,5.5-4.7,8.9L814,1108.5z"/>
	<path class="st0" d="M866,1084.2l-6,20.7l-0.6,2.8c0,0.2-0.1,0.4-0.1,0.6c0,0.3,0.1,0.6,0.3,0.9c0.1,0.2,0.3,0.2,0.6,0.2
		c0.2,0,0.6-0.2,1.1-0.5c0.8-0.5,1.8-1.8,3.2-3.6l1.1,0.8c-1.4,2.1-2.8,3.8-4.3,4.8s-2.9,1.6-4.2,1.6c-0.9,0-1.5-0.2-1.9-0.6
		c-0.4-0.4-0.6-1.1-0.6-1.9c0-1,0.2-2.4,0.6-4l0.6-2.4c-2.7,3.5-5.2,5.9-7.4,7.3c-1.6,1-3.2,1.5-4.7,1.5c-1.5,0-2.8-0.6-3.9-1.8
		s-1.6-2.9-1.6-5c0-3.2,1-6.7,2.9-10.3c1.9-3.6,4.4-6.4,7.4-8.6c2.4-1.7,4.5-2.6,6.7-2.6c1.3,0,2.4,0.3,3.1,1
		c0.9,0.6,1.4,1.7,1.9,3.2l1.1-3.5L866,1084.2z M855.1,1085.7c-1.3,0-2.7,0.6-4.2,1.8c-2.1,1.7-4,4.3-5.6,7.7
		c-1.6,3.4-2.5,6.4-2.5,9.2c0,1.4,0.3,2.5,1.1,3.2c0.8,0.8,1.5,1.2,2.4,1.2c2.3,0,4.6-1.6,7.2-4.9c3.5-4.4,5.3-8.8,5.3-13.4
		c0-1.7-0.3-3-1-3.8C857.2,1086.1,856.3,1085.7,855.1,1085.7z"/>
	<path class="st0" d="M888.7,1084.2l-1.8,9.4h-1.2c-0.1-2.7-0.6-4.7-1.7-6s-2.4-1.8-4-1.8c-1.3,0-2.3,0.3-3,1.1
		c-0.8,0.8-1.1,1.5-1.1,2.5c0,0.6,0.1,1.3,0.4,1.9c0.3,0.6,1,1.5,1.9,2.6c2.7,2.9,4.3,5,5.2,6.5c0.8,1.5,1.2,2.8,1.2,4.2
		c0,2.1-0.9,4-2.7,5.7c-1.8,1.7-4,2.5-6.7,2.5c-1.5,0-3.1-0.3-5-1.1c-0.6-0.2-1.2-0.4-1.5-0.4c-0.9,0-1.6,0.4-2,1.4h-1.1l1.8-9.9
		h1.2c0.1,3.1,0.8,5.3,1.9,6.5c1.2,1.3,2.8,1.9,4.8,1.9c1.5,0,2.8-0.4,3.6-1.3c0.9-0.9,1.4-1.9,1.4-3.2c0-0.9-0.2-1.6-0.5-2.3
		c-0.5-1.2-1.8-2.9-3.6-5c-1.8-2.1-3-3.8-3.5-4.8s-0.8-2.1-0.8-3.2c0-1.9,0.8-3.6,2.1-5s3.3-2,5.6-2c0.6,0,1.3,0,1.8,0.1
		c0.3,0.1,1,0.3,2,0.8c1.1,0.4,1.7,0.5,2.1,0.5c0.9,0,1.6-0.4,2.3-1.4h0.8V1084.2z"/>
	<path class="st0" d="M917.7,1084.2l-6,20.7l-0.6,2.8c0,0.2-0.1,0.4-0.1,0.6c0,0.3,0.1,0.6,0.3,0.9c0.1,0.2,0.3,0.2,0.6,0.2
		c0.2,0,0.6-0.2,1.1-0.5c0.8-0.5,1.8-1.8,3.2-3.6l1.1,0.8c-1.4,2.1-2.8,3.8-4.3,4.8s-2.9,1.6-4.2,1.6c-0.9,0-1.5-0.2-1.9-0.6
		c-0.4-0.4-0.6-1.1-0.6-1.9c0-1,0.2-2.4,0.6-4l0.6-2.4c-2.7,3.5-5.2,5.9-7.4,7.3c-1.6,1-3.2,1.5-4.7,1.5s-2.8-0.6-3.9-1.8
		s-1.6-2.9-1.6-5c0-3.2,1-6.7,2.9-10.3c1.9-3.6,4.4-6.4,7.4-8.6c2.4-1.7,4.5-2.6,6.7-2.6c1.3,0,2.4,0.3,3.1,1
		c0.9,0.6,1.4,1.7,1.9,3.2l1.1-3.5L917.7,1084.2z M906.8,1085.7c-1.3,0-2.7,0.6-4.2,1.8c-2.1,1.7-4,4.3-5.6,7.7
		c-1.6,3.4-2.5,6.4-2.5,9.2c0,1.4,0.3,2.5,1.1,3.2c0.8,0.8,1.5,1.2,2.4,1.2c2.3,0,4.6-1.6,7.2-4.9c3.5-4.4,5.3-8.8,5.3-13.4
		c0-1.7-0.3-3-1-3.8C908.9,1086.1,908,1085.7,906.8,1085.7z"/>
	<path class="st0" d="M931.5,1084.2l-2.1,7.1c2.3-2.6,4.2-4.4,6-5.5c1.7-1.1,3.5-1.6,5.4-1.6c1.8,0,3.3,0.8,4.6,2.1
		c1.3,1.4,1.9,3.3,1.9,5.6c0,4.5-1.8,9-5.5,13.6c-3.6,4.6-7.9,7-12.8,7c-1,0-1.9-0.1-2.7-0.3c-0.8-0.2-1.6-0.6-2.6-1.2l-2.3,7.9
		c-0.4,1.5-0.6,2.6-0.6,3c0,0.4,0.1,0.9,0.3,1.2c0.2,0.3,0.6,0.5,1.2,0.8s1.6,0.2,3.1,0.2l-0.2,1.2h-14.4l0.3-1.2
		c1.9-0.1,3.2-0.4,3.9-1c0.6-0.5,1.4-2.1,2-4.7l7.7-26.7c0.4-1.7,0.6-2.8,0.6-3.1c0-0.5-0.1-1-0.4-1.3c-0.3-0.3-0.8-0.4-1.4-0.4
		c-0.6,0-1.4,0.1-2.5,0.2v-1.2L931.5,1084.2z M924.4,1108.5c1.3,1.5,3,2.3,5.2,2.3c1.1,0,2.1-0.3,3.2-0.9c1.1-0.6,2.1-1.5,3.2-2.6
		c1.1-1.2,2-2.5,2.8-4c0.9-1.5,1.6-3.3,2.3-5.4s1-4.1,1-6.1c0-1.6-0.3-2.9-1.1-3.8c-0.8-0.9-1.6-1.3-2.7-1.3c-2.3,0-4.4,1.3-6.5,3.8
		s-3.8,5.5-4.7,8.9L924.4,1108.5z"/>
	<path class="st0" d="M975.9,1093.7c0,3.1-0.9,6.1-2.5,9.1s-3.9,5.4-6.8,7.1c-2.9,1.7-5.7,2.6-8.5,2.6s-5-0.9-6.9-2.7
		c-1.8-1.8-2.7-4.1-2.7-6.9c0-3,0.9-6,2.6-9c1.7-3,4-5.4,6.9-7.2c2.9-1.8,5.7-2.7,8.4-2.7s4.9,0.9,6.7,2.7
		C975,1088.6,975.9,1090.9,975.9,1093.7z M970.9,1091.6c0-1.9-0.4-3.3-1.4-4.4c-1-1-2.1-1.5-3.6-1.5c-3,0-5.7,2.1-8.3,6.4
		c-2.6,4.3-3.8,8.6-3.8,12.8c0,1.9,0.5,3.4,1.5,4.5c1,1.1,2.3,1.6,3.6,1.6c2.9,0,5.6-2.1,8-6.4
		C969.6,1100.4,970.9,1096,970.9,1091.6z"/>
	<path class="st0" d="M979.6,1085.9l10.5-1.7l-4.3,14.8c3.5-6.1,6.8-10.4,9.8-12.8c1.6-1.4,3-2,4-2c0.6,0,1.2,0.2,1.6,0.6
		c0.4,0.4,0.5,1,0.5,1.7c0,1.3-0.3,2.6-1.1,3.9c-0.4,0.9-1.2,1.4-2.1,1.4c-0.4,0-0.9-0.1-1.2-0.4c-0.3-0.3-0.5-0.8-0.6-1.4
		c0-0.4-0.1-0.6-0.2-0.8c-0.2-0.1-0.3-0.2-0.5-0.2c-0.3,0-0.6,0.1-1,0.2c-0.5,0.3-1.3,1.1-2.5,2.4c-1.7,2-3.5,4.6-5.5,7.7
		c-0.9,1.3-1.6,2.9-2.3,4.5c-0.9,2.4-1.3,3.8-1.4,4.2l-1,3.9h-4.6l5.7-19c0.6-2.3,1-3.8,1-4.7c0-0.3-0.1-0.6-0.4-0.9
		c-0.4-0.3-1-0.5-1.6-0.5c-0.4,0-1.2,0.1-2.4,0.2L979.6,1085.9z"/>
	<path class="st0" d="M1015,1076.5l-2.4,8.3h4.8l-0.5,1.9h-4.7l-5.3,18c-0.5,1.9-0.9,3.2-0.9,3.8c0,0.3,0.1,0.6,0.2,0.9
		s0.3,0.3,0.5,0.3c0.5,0,1.2-0.3,2-1.1c0.5-0.4,1.6-1.6,3.3-3.8l1,0.8c-1.8,2.7-3.6,4.6-5.4,5.8c-1.2,0.8-2.3,1.2-3.4,1.2
		c-0.9,0-1.6-0.3-2.1-0.9c-0.5-0.5-0.9-1.3-0.9-2.1c0-1.1,0.3-2.8,1-5l5.2-17.7h-4.6l0.3-1.2c2.3-0.6,4.1-1.5,5.6-2.7
		c1.5-1.2,3.1-3.3,5-6.3h1.2V1076.5z"/>
	<path class="st0" d="M1021.6,1100.3c-0.1,1-0.2,1.8-0.2,2.5c0,1.8,0.6,3.3,1.9,4.6s2.8,1.9,4.7,1.9c1.5,0,2.9-0.3,4.2-0.9
		c1.4-0.6,3.3-1.9,6-4l0.6,0.9c-4.8,4.8-9.4,7.2-13.8,7.2c-3,0-5.2-1-6.7-2.8c-1.5-1.8-2.3-4-2.3-6.2c0-3,1-6.1,2.8-9.3
		c1.8-3.2,4.2-5.7,7.1-7.4c2.8-1.7,5.7-2.7,8.8-2.7c2.1,0,3.8,0.4,4.8,1.3c1.1,0.9,1.5,1.9,1.5,3.1c0,1.7-0.6,3.3-2,4.8
		c-1.8,2-4.4,3.6-7.8,4.9C1029,1099.2,1025.8,1099.8,1021.6,1100.3z M1021.8,1098.8c3-0.3,5.5-1,7.4-1.8c2.5-1.1,4.4-2.5,5.7-4
		c1.3-1.6,1.9-3,1.9-4.5c0-0.9-0.3-1.5-0.9-2c-0.5-0.5-1.3-0.8-2.3-0.8c-2,0-4.3,1.1-6.7,3.3
		C1024.7,1091.1,1023,1094.5,1021.8,1098.8z"/>
	<path class="st0" d="M308.8,1177.4l-2.1,7.1c2.3-2.6,4.2-4.4,6-5.5c1.7-1.1,3.5-1.6,5.4-1.6s3.3,0.8,4.6,2.1s1.9,3.3,1.9,5.6
		c0,4.5-1.8,9-5.5,13.6s-7.9,7-12.8,7c-1,0-1.9-0.1-2.7-0.3c-0.8-0.2-1.6-0.6-2.6-1.2l-2.3,7.9c-0.4,1.5-0.6,2.6-0.6,3
		c0,0.4,0.1,0.9,0.3,1.2c0.2,0.3,0.6,0.5,1.2,0.8s1.6,0.2,3.1,0.2l-0.2,1.2h-14.4l0.3-1.2c1.9-0.1,3.2-0.4,3.9-1
		c0.6-0.5,1.4-2.1,2-4.7l7.7-26.7c0.4-1.7,0.6-2.8,0.6-3.1c0-0.5-0.1-1-0.4-1.3c-0.3-0.3-0.8-0.4-1.4-0.4c-0.6,0-1.4,0.1-2.5,0.2
		v-1.2L308.8,1177.4z M301.7,1201.8c1.3,1.5,3,2.3,5.2,2.3c1.1,0,2.1-0.3,3.2-0.9c1.1-0.5,2.1-1.5,3.2-2.6c1.1-1.2,2-2.5,2.8-4
		c0.9-1.5,1.6-3.3,2.3-5.4c0.6-2,1-4.1,1-6.1c0-1.6-0.3-2.9-1.1-3.8c-0.8-0.9-1.6-1.3-2.7-1.3c-2.3,0-4.4,1.3-6.5,3.8
		s-3.8,5.5-4.7,8.9L301.7,1201.8z"/>
	<path class="st0" d="M353.6,1177.4l-6,20.7l-0.6,2.8c0,0.2-0.1,0.4-0.1,0.6c0,0.3,0.1,0.6,0.3,0.9c0.1,0.2,0.3,0.2,0.6,0.2
		c0.2,0,0.6-0.2,1.1-0.5c0.8-0.5,1.8-1.8,3.2-3.6l1.1,0.8c-1.4,2.1-2.8,3.8-4.3,4.8c-1.5,1.1-2.9,1.6-4.2,1.6
		c-0.9,0-1.5-0.2-1.9-0.6c-0.4-0.4-0.6-1.1-0.6-1.9c0-1,0.2-2.4,0.6-4l0.6-2.4c-2.7,3.5-5.2,5.9-7.4,7.3c-1.6,1-3.2,1.5-4.7,1.5
		s-2.8-0.6-3.9-1.8s-1.6-2.9-1.6-5c0-3.2,1-6.7,2.9-10.3c1.9-3.6,4.4-6.4,7.4-8.6c2.4-1.7,4.5-2.6,6.7-2.6c1.3,0,2.4,0.3,3.1,1
		c0.9,0.6,1.4,1.7,1.9,3.2l1.1-3.5L353.6,1177.4z M342.8,1179c-1.3,0-2.7,0.6-4.2,1.8c-2.1,1.7-4,4.3-5.6,7.7
		c-1.6,3.4-2.5,6.4-2.5,9.2c0,1.4,0.3,2.5,1.1,3.2c0.6,0.9,1.5,1.2,2.4,1.2c2.3,0,4.6-1.6,7.2-4.9c3.5-4.4,5.3-8.8,5.3-13.4
		c0-1.7-0.3-3-1-3.8C344.8,1179.3,343.8,1179,342.8,1179z"/>
	<path class="st0" d="M356.8,1179.1l10.5-1.7l-4.4,14.9c3.5-6.1,6.8-10.4,9.8-12.8c1.6-1.4,3-2,4-2c0.6,0,1.2,0.2,1.6,0.6
		c0.4,0.4,0.5,1,0.5,1.7c0,1.3-0.3,2.6-1.1,3.9c-0.4,0.9-1.2,1.4-2.1,1.4c-0.4,0-0.9-0.1-1.2-0.4c-0.3-0.3-0.5-0.8-0.6-1.4
		c0-0.4-0.1-0.6-0.2-0.8c-0.2-0.1-0.3-0.2-0.5-0.2c-0.3,0-0.6,0.1-1,0.2c-0.5,0.3-1.3,1.1-2.5,2.4c-1.7,2-3.5,4.6-5.5,7.7
		c-0.9,1.3-1.6,2.9-2.3,4.5c-0.9,2.4-1.3,3.8-1.4,4.2l-1,3.9h-4.6l5.7-19c0.6-2.3,1-3.8,1-4.7c0-0.3-0.1-0.6-0.4-0.9
		c-0.4-0.3-1-0.5-1.6-0.5c-0.4,0-1.2,0.1-2.4,0.2L356.8,1179.1z"/>
	<path class="st0" d="M405.3,1177.4l-6,20.7l-0.6,2.8c0,0.2-0.1,0.4-0.1,0.6c0,0.3,0.1,0.6,0.3,0.9c0.1,0.2,0.3,0.2,0.6,0.2
		c0.2,0,0.6-0.2,1.1-0.5c0.8-0.5,1.8-1.8,3.2-3.6l1.1,0.8c-1.4,2.1-2.8,3.8-4.3,4.8c-1.5,1.1-2.9,1.6-4.2,1.6
		c-0.9,0-1.5-0.2-1.9-0.6c-0.4-0.4-0.6-1.1-0.6-1.9c0-1,0.2-2.4,0.6-4l0.6-2.4c-2.7,3.5-5.2,5.9-7.4,7.3c-1.6,1-3.2,1.5-4.7,1.5
		c-1.5,0-2.8-0.6-3.9-1.8s-1.6-2.9-1.6-5c0-3.2,1-6.7,2.9-10.3c1.9-3.6,4.4-6.4,7.4-8.6c2.4-1.7,4.5-2.6,6.7-2.6
		c1.3,0,2.4,0.3,3.1,1c0.9,0.6,1.4,1.7,1.9,3.2l1.1-3.5L405.3,1177.4z M394.5,1179c-1.3,0-2.7,0.6-4.2,1.8c-2.1,1.7-4,4.3-5.6,7.7
		c-1.6,3.4-2.5,6.4-2.5,9.2c0,1.4,0.3,2.5,1.1,3.2c0.6,0.9,1.5,1.2,2.4,1.2c2.3,0,4.6-1.6,7.2-4.9c3.5-4.4,5.3-8.8,5.3-13.4
		c0-1.7-0.3-3-1-3.8C396.5,1179.3,395.7,1179,394.5,1179z"/>
	<path class="st0" d="M443.2,1198.5c-2.1,2.6-4.3,4.4-6.4,5.6c-2.1,1.2-4.4,1.8-6.9,1.8c-2.9,0-5.2-0.9-6.8-2.5
		c-1.6-1.6-2.5-3.8-2.5-6.5c0-3.1,0.9-6.2,2.6-9.2c1.7-3,4.1-5.5,7-7.4c2.9-1.9,5.8-2.8,8.7-2.8c2.3,0,3.9,0.4,5,1.4
		c1.1,1,1.6,2,1.6,3.4c0,1.3-0.4,2.4-1.2,3.2c-0.5,0.8-1.3,1.1-2,1.1c-0.6,0-1.2-0.2-1.6-0.6c-0.4-0.4-0.6-1-0.6-1.5
		c0-0.4,0.1-0.8,0.2-1.1c0.1-0.3,0.4-0.8,1-1.2c0.4-0.4,0.8-0.8,0.9-1c0.1-0.2,0.1-0.4,0.1-0.6c0-0.4-0.2-0.8-0.5-1.1
		c-0.6-0.4-1.4-0.6-2.5-0.6c-2,0-4,0.8-5.9,2.1c-1.9,1.4-3.6,3.4-5,6c-1.7,3.1-2.5,6.2-2.5,9.4c0,2,0.6,3.8,1.8,4.9
		c1.2,1.2,2.8,1.8,4.8,1.8c1.6,0,3.1-0.4,4.6-1.2c1.5-0.8,3.2-2.3,5.2-4.3L443.2,1198.5z"/>
	<path class="st0" d="M473.8,1187c0,3.1-0.9,6.1-2.5,9.1c-1.6,3-3.9,5.4-6.8,7.1c-2.9,1.7-5.7,2.6-8.4,2.6c-2.8,0-5-0.9-6.9-2.7
		c-1.8-1.8-2.7-4.1-2.7-6.9c0-3,0.9-6,2.6-9s4-5.4,6.9-7.2c2.9-1.8,5.7-2.7,8.4-2.7c2.7,0,4.9,0.9,6.7,2.7
		C472.8,1181.8,473.8,1184.2,473.8,1187z M468.8,1184.8c0-1.9-0.4-3.3-1.4-4.4c-1-1-2.1-1.5-3.6-1.5c-3,0-5.7,2.1-8.3,6.4
		c-2.5,4.3-3.8,8.6-3.8,12.8c0,1.9,0.5,3.4,1.5,4.5c1,1.1,2.3,1.6,3.6,1.6c2.9,0,5.6-2.1,8-6.4
		C467.5,1193.6,468.8,1189.2,468.8,1184.8z"/>
	<path class="st0" d="M488,1177.4l-4.1,14c3.8-5.7,6.8-9.4,8.8-11.3c2-1.8,4-2.7,5.9-2.7c1,0,1.8,0.3,2.5,1.1s1,1.6,1,2.6
		c0,1.3-0.3,2.9-0.9,4.9l-3.8,12.9c-0.4,1.5-0.6,2.4-0.6,2.7s0.1,0.5,0.2,0.8c0.1,0.2,0.3,0.3,0.5,0.3s0.5-0.1,0.9-0.4
		c1.1-0.9,2.3-2.1,3.5-3.9l1,0.5c-1.9,2.7-3.6,4.6-5.4,5.8c-1.2,0.8-2.3,1.2-3.2,1.2c-0.8,0-1.4-0.2-1.8-0.6
		c-0.4-0.4-0.6-1.1-0.6-1.8c0-1,0.3-2.7,1.1-5l3.5-12.3c0.4-1.5,0.6-2.7,0.6-3.5c0-0.4-0.1-0.8-0.4-1c-0.2-0.2-0.5-0.4-1-0.4
		c-0.5,0-1.3,0.2-2,0.8c-1.5,0.9-3,2.5-4.7,4.5c-1.6,2.1-3.3,4.8-5.2,8c-1,1.7-1.7,3.6-2.4,5.7l-1.5,5h-4.6l5.6-19.1
		c0.6-2.3,1-3.6,1-4.2c0-0.4-0.2-0.9-0.5-1.2s-0.8-0.5-1.3-0.5c-0.2,0-0.6,0-1.3,0.1l-1.2,0.1l-0.2-1.1L488,1177.4z"/>
	<path class="st0" d="M522.1,1178.2l-0.5,2h-4.4l-3.3,13.3c-1.5,5.9-3,10.4-4.5,13.6c-2.1,4.5-4.4,7.6-6.9,9.3c-1.8,1.3-3.8,2-5.6,2
		c-1.3,0-2.3-0.3-3.1-1.1c-0.6-0.5-1-1.2-1-1.9c0-0.6,0.2-1.2,0.8-1.7c0.5-0.4,1.2-0.8,1.9-0.8c0.5,0,1.1,0.2,1.4,0.5
		c0.3,0.3,0.5,0.8,0.5,1.2c0,0.4-0.2,0.9-0.6,1.3c-0.3,0.3-0.5,0.5-0.5,0.6c0,0.2,0.1,0.3,0.2,0.4c0.2,0.1,0.4,0.2,0.9,0.2
		c0.9,0,1.8-0.3,2.8-0.9c1-0.5,1.8-1.4,2.6-2.5c0.8-1.1,1.5-2.7,2.1-4.7c0.3-0.9,1.1-3.6,2.3-8.5l5.4-20.7h-5.4l0.4-2
		c1.7,0,2.9-0.1,3.5-0.3c0.6-0.2,1.3-0.6,1.8-1.4c0.5-0.6,1.3-1.9,2.3-3.8c1.2-2.5,2.4-4.3,3.4-5.7c1.5-1.8,3.1-3.2,4.7-4.1
		c1.7-0.9,3.2-1.4,4.7-1.4s2.8,0.4,3.8,1.2c1,0.8,1.4,1.6,1.4,2.6c0,0.8-0.2,1.3-0.8,1.8c-0.4,0.4-1.1,0.8-1.8,0.8
		c-0.6,0-1.2-0.2-1.6-0.5c-0.4-0.3-0.6-0.8-0.6-1.3c0-0.3,0.1-0.8,0.4-1.2c0.2-0.4,0.4-0.8,0.4-1c0-0.3-0.1-0.5-0.2-0.6
		c-0.2-0.2-0.6-0.3-1.2-0.3c-1.3,0-2.5,0.4-3.4,1.2c-1.4,1.1-2.6,2.8-3.6,5c-0.5,1.2-1.6,4.2-3,8.9h4.4V1178.2z"/>
	<path class="st0" d="M533.4,1177.4l-6,21.5c-0.4,1.4-0.6,2.3-0.6,2.6s0.1,0.6,0.3,0.8c0.2,0.2,0.4,0.3,0.6,0.3
		c0.3,0,0.6-0.2,1.1-0.5c1.2-0.9,2.4-2.3,3.5-3.9l1.1,0.8c-1.4,2.1-3,3.9-4.9,5.4c-1.4,1.1-2.7,1.6-4,1.6c-0.9,0-1.5-0.2-2-0.8
		c-0.5-0.5-0.8-1.1-0.8-1.9c0-0.8,0.2-2,0.8-3.8l4-13.7c0.6-2.3,1-3.6,1-4.2c0-0.4-0.1-0.8-0.4-1.1c-0.3-0.3-0.8-0.4-1.3-0.4
		c-0.4,0-1.4,0.1-2.8,0.3v-1.2L533.4,1177.4z M532.9,1165.3c0.9,0,1.6,0.3,2.1,0.9c0.5,0.6,0.9,1.3,0.9,2.1s-0.3,1.6-0.9,2.1
		s-1.3,0.9-2.1,0.9s-1.5-0.3-2.1-0.9s-0.9-1.3-0.9-2.1s0.3-1.5,0.9-2.1C531.3,1165.6,532.1,1165.3,532.9,1165.3z"/>
	<path class="st0" d="M537.6,1179.1l10.5-1.7l-4.4,14.9c3.5-6.1,6.8-10.4,9.8-12.8c1.6-1.4,3-2,4-2c0.6,0,1.2,0.2,1.6,0.6
		c0.4,0.4,0.5,1,0.5,1.7c0,1.3-0.3,2.6-1.1,3.9c-0.4,0.9-1.2,1.4-2.1,1.4c-0.4,0-0.9-0.1-1.2-0.4s-0.5-0.8-0.6-1.4
		c0-0.4-0.1-0.6-0.2-0.8c-0.2-0.1-0.3-0.2-0.5-0.2c-0.3,0-0.6,0.1-1,0.2c-0.5,0.3-1.3,1.1-2.5,2.4c-1.7,2-3.5,4.6-5.5,7.7
		c-0.9,1.3-1.6,2.9-2.3,4.5c-0.9,2.4-1.3,3.8-1.4,4.2l-1,3.9h-4.6l5.7-19c0.6-2.3,1-3.8,1-4.7c0-0.3-0.1-0.6-0.4-0.9
		c-0.4-0.3-1-0.5-1.6-0.5c-0.4,0-1.2,0.1-2.4,0.2L537.6,1179.1z"/>
	<path class="st0" d="M570.4,1177.4l-4,13.8c1.8-3.2,3.3-5.7,4.5-7.3c1.9-2.6,3.8-4.4,5.7-5.5c1.1-0.6,2.3-1,3.3-1
		c1,0,1.8,0.3,2.6,1c0.6,0.6,1.1,1.5,1.1,2.5s-0.2,2.4-0.8,3.9l-2.1,7.7c3.3-6.2,6.4-10.6,9.4-13.1c1.6-1.4,3.2-2,4.8-2
		c1,0,1.7,0.3,2.4,1c0.6,0.6,0.9,1.6,0.9,3c0,1.2-0.2,2.5-0.5,3.8l-3.3,11.9c-0.8,2.6-1.1,4.1-1.1,4.3c0,0.3,0.1,0.5,0.2,0.8
		c0.1,0.1,0.3,0.2,0.5,0.2c0.2,0,0.5-0.2,1.1-0.5c1.2-0.9,2.3-2.1,3.2-3.5l1.1,0.6c-0.5,0.9-1.4,1.9-2.7,3.3
		c-1.3,1.4-2.4,2.4-3.3,2.9c-1,0.5-1.7,0.8-2.6,0.8c-0.8,0-1.3-0.2-1.8-0.8c-0.5-0.5-0.8-1.1-0.8-1.8c0-1,0.4-3,1.3-5.9l2.8-9.8
		c0.6-2.3,1-3.5,1-3.8c0.1-0.4,0.1-0.8,0.1-1.2c0-0.5-0.1-0.9-0.3-1.2c-0.2-0.3-0.5-0.4-0.9-0.4c-0.9,0-1.7,0.4-2.7,1.3
		c-2.8,2.6-5.5,6.2-7.9,10.8c-1.6,3.1-3.1,7.1-4.5,11.8h-4.6l5.3-18.5c0.5-2,0.9-3.3,0.9-4c0-0.5-0.1-1-0.3-1.2
		c-0.2-0.2-0.5-0.4-0.9-0.4c-0.6,0-1.4,0.2-2.1,0.8c-1.2,0.9-2.8,2.5-4.7,5.2c-1.9,2.6-3.4,5.2-4.5,7.5c-0.5,1.1-1.7,4.7-3.6,10.7
		h-4.5l5.7-19.9l0.8-2.6c0.1-0.4,0.2-0.6,0.2-0.9c0-0.4-0.2-0.9-0.6-1.2c-0.4-0.3-1-0.5-1.5-0.5c-0.3,0-1,0.1-2.3,0.4l-0.2-1.2
		L570.4,1177.4z"/>
	<path class="st0" d="M629.4,1177.4l-6,20.7l-0.6,2.8c0,0.2-0.1,0.4-0.1,0.6c0,0.3,0.1,0.6,0.3,0.9c0.1,0.2,0.3,0.2,0.6,0.2
		c0.2,0,0.6-0.2,1.1-0.5c0.8-0.5,1.8-1.8,3.2-3.6l1.1,0.8c-1.4,2.1-2.8,3.8-4.3,4.8c-1.5,1.1-2.9,1.6-4.2,1.6
		c-0.9,0-1.5-0.2-1.9-0.6c-0.4-0.4-0.6-1.1-0.6-1.9c0-1,0.2-2.4,0.6-4l0.6-2.4c-2.7,3.5-5.2,5.9-7.4,7.3c-1.6,1-3.2,1.5-4.7,1.5
		s-2.8-0.6-3.9-1.8c-1.1-1.2-1.6-2.9-1.6-5c0-3.2,1-6.7,2.9-10.3c1.9-3.6,4.4-6.4,7.4-8.6c2.4-1.7,4.5-2.6,6.7-2.6
		c1.3,0,2.4,0.3,3.1,1c0.9,0.6,1.4,1.7,1.9,3.2l1.1-3.5L629.4,1177.4z M618.6,1179c-1.3,0-2.7,0.6-4.2,1.8c-2.1,1.7-4,4.3-5.6,7.7
		c-1.6,3.4-2.5,6.4-2.5,9.2c0,1.4,0.3,2.5,1.1,3.2c0.8,0.8,1.5,1.2,2.4,1.2c2.3,0,4.6-1.6,7.2-4.9c3.5-4.4,5.3-8.8,5.3-13.4
		c0-1.7-0.3-3-1-3.8S619.6,1179,618.6,1179z"/>
	<path class="st0" d="M632.6,1179.1l10.5-1.7l-4.4,14.9c3.5-6.1,6.8-10.4,9.8-12.8c1.6-1.4,3-2,4-2c0.6,0,1.2,0.2,1.6,0.6
		c0.4,0.4,0.5,1,0.5,1.7c0,1.3-0.3,2.6-1.1,3.9c-0.4,0.9-1.2,1.4-2.1,1.4c-0.4,0-0.9-0.1-1.2-0.4c-0.3-0.3-0.5-0.8-0.6-1.4
		c0-0.4-0.1-0.6-0.2-0.8c-0.2-0.1-0.3-0.2-0.5-0.2c-0.3,0-0.6,0.1-1,0.2c-0.5,0.3-1.3,1.1-2.5,2.4c-1.7,2-3.5,4.6-5.5,7.7
		c-0.9,1.3-1.6,2.9-2.3,4.5c-0.9,2.4-1.3,3.8-1.4,4.2l-1,3.9h-4.6l5.7-19c0.6-2.3,1-3.8,1-4.7c0-0.3-0.1-0.6-0.4-0.9
		c-0.4-0.3-1-0.5-1.6-0.5c-0.4,0-1.2,0.1-2.4,0.2L632.6,1179.1z"/>
	<path class="st0" d="M681.7,1169.8l-2.4,8.3h4.8l-0.5,1.9h-4.7l-5.3,18c-0.5,1.9-0.9,3.2-0.9,3.8c0,0.3,0.1,0.6,0.2,0.9
		s0.3,0.3,0.5,0.3c0.5,0,1.2-0.3,2-1.1c0.5-0.4,1.6-1.6,3.3-3.8l1,0.8c-1.8,2.7-3.6,4.6-5.4,5.8c-1.2,0.8-2.3,1.2-3.4,1.2
		c-0.9,0-1.6-0.3-2.1-0.9c-0.5-0.5-0.9-1.3-0.9-2.1c0-1.1,0.3-2.8,1-5l5.2-17.7h-4.6l0.3-1.2c2.3-0.6,4.1-1.5,5.6-2.7
		c1.5-1.2,3.1-3.3,5-6.3h1.2V1169.8z"/>
	<path class="st0" d="M710.3,1178.2l-5.4,18.2c-0.8,2.7-1.2,4.4-1.2,5.2c0,0.3,0.1,0.6,0.2,0.8c0.1,0.2,0.3,0.2,0.5,0.2
		c0.3,0,0.8-0.1,1.2-0.4c0.4-0.3,1.5-1.6,3.1-3.8l1,0.8c-1.6,2.6-3.3,4.4-4.9,5.6c-1.1,0.8-2.1,1.2-3.2,1.2c-0.9,0-1.4-0.2-1.9-0.6
		c-0.4-0.4-0.6-1-0.6-1.7s0.1-1.6,0.4-2.8c0.3-1.5,1.3-4.7,2.8-9.9c-3.4,5.7-6.3,9.7-8.7,11.8s-4.5,3.2-6.4,3.2c-1,0-1.7-0.3-2.4-1
		c-0.6-0.6-1-1.5-1-2.5c0-1.5,0.4-3.9,1.3-7l2.7-9.4c0.6-2.3,1-3.6,1-4.2c0-0.2-0.1-0.4-0.2-0.6c-0.1-0.2-0.3-0.2-0.5-0.2
		c-0.4,0-0.9,0.1-1.3,0.4c-0.4,0.3-1.4,1.4-2.9,3.3l-1-0.6c1.5-2.4,3.1-4.1,4.8-5.3c1.3-0.9,2.5-1.3,3.6-1.3c0.8,0,1.4,0.2,1.8,0.8
		c0.4,0.4,0.8,1.1,0.8,1.8c0,1.1-0.4,3.1-1.2,5.9l-2.9,9.9c-0.8,2.7-1.2,4.4-1.2,5.2c0,0.4,0.1,0.6,0.4,1c0.3,0.3,0.6,0.3,1.1,0.3
		c0.6,0,1.5-0.3,2.6-1s2.6-2.1,4.3-4.5c1.8-2.4,3.3-4.5,4.5-6.5c1.2-2,2.5-5.3,3.8-9.7l0.6-2.4h4.4V1178.2z"/>
	<path class="st0" d="M737.8,1177.4l-2.1,7.1c2.3-2.6,4.2-4.4,6-5.5c1.7-1.1,3.5-1.6,5.4-1.6c1.8,0,3.3,0.8,4.6,2.1
		c1.3,1.4,1.9,3.3,1.9,5.6c0,4.5-1.8,9-5.5,13.6c-3.6,4.6-7.9,7-12.8,7c-1,0-1.9-0.1-2.7-0.3c-0.8-0.2-1.6-0.6-2.6-1.2l-2.3,7.9
		c-0.4,1.5-0.6,2.6-0.6,3c0,0.4,0.1,0.9,0.3,1.2c0.2,0.3,0.6,0.5,1.2,0.8s1.6,0.2,3.1,0.2l-0.2,1.2h-14.4l0.3-1.2
		c1.9-0.1,3.2-0.4,3.9-1c0.6-0.5,1.4-2.1,2-4.7l7.7-26.7c0.4-1.7,0.6-2.8,0.6-3.1c0-0.5-0.1-1-0.4-1.3c-0.3-0.3-0.8-0.4-1.4-0.4
		s-1.4,0.1-2.5,0.2v-1.2L737.8,1177.4z M730.6,1201.8c1.3,1.5,3,2.3,5.2,2.3c1.1,0,2.1-0.3,3.2-0.9c1.1-0.6,2.1-1.5,3.2-2.6
		c1.1-1.2,2-2.5,2.8-4c0.9-1.5,1.6-3.3,2.3-5.4c0.6-2,1-4.1,1-6.1c0-1.6-0.3-2.9-1.1-3.8c-0.8-0.9-1.6-1.3-2.7-1.3
		c-2.3,0-4.4,1.3-6.5,3.8s-3.8,5.5-4.7,8.9L730.6,1201.8z"/>
	<path class="st0" d="M756.6,1179.1l10.5-1.7l-4.4,14.9c3.5-6.1,6.8-10.4,9.8-12.8c1.6-1.4,3-2,4-2c0.6,0,1.2,0.2,1.6,0.6
		c0.4,0.4,0.5,1,0.5,1.7c0,1.3-0.3,2.6-1.1,3.9c-0.4,0.9-1.2,1.4-2.1,1.4c-0.4,0-0.9-0.1-1.2-0.4c-0.3-0.3-0.5-0.8-0.6-1.4
		c0-0.4-0.1-0.6-0.2-0.8c-0.2-0.1-0.3-0.2-0.5-0.2c-0.3,0-0.6,0.1-1,0.2c-0.5,0.3-1.3,1.1-2.5,2.4c-1.7,2-3.5,4.6-5.5,7.7
		c-0.9,1.3-1.6,2.9-2.3,4.5c-0.9,2.4-1.3,3.8-1.4,4.2l-1,3.9h-4.6l5.7-19c0.6-2.3,1-3.8,1-4.7c0-0.3-0.1-0.6-0.4-0.9
		c-0.4-0.3-1-0.5-1.6-0.5c-0.4,0-1.2,0.1-2.4,0.2L756.6,1179.1z"/>
	<path class="st0" d="M783.1,1193.5c-0.1,1-0.2,1.8-0.2,2.5c0,1.8,0.6,3.3,1.9,4.6c1.3,1.3,2.8,1.9,4.7,1.9c1.5,0,2.9-0.3,4.2-0.9
		c1.4-0.6,3.3-1.9,6-4l0.6,0.9c-4.8,4.8-9.4,7.2-13.8,7.2c-3,0-5.2-1-6.7-2.8c-1.5-1.8-2.3-4-2.3-6.2c0-3,1-6.1,2.8-9.3
		s4.2-5.7,7.1-7.4c2.8-1.7,5.7-2.7,8.8-2.7c2.1,0,3.8,0.4,4.8,1.3c1.1,0.9,1.5,1.9,1.5,3.1c0,1.7-0.6,3.3-2,4.8
		c-1.8,2-4.4,3.6-7.8,4.9C790.5,1192.4,787.3,1193.1,783.1,1193.5z M783.3,1192c3-0.3,5.5-1,7.4-1.8c2.5-1.1,4.4-2.5,5.7-4
		c1.3-1.6,1.9-3,1.9-4.5c0-0.9-0.3-1.5-0.9-2c-0.5-0.5-1.3-0.8-2.3-0.8c-2,0-4.3,1.1-6.7,3.3C786.2,1184.4,784.5,1187.7,783.3,1192z
		"/>
	<path class="st0" d="M824.2,1177.4l-1.8,9.4h-1.2c-0.1-2.7-0.6-4.7-1.7-6c-1.1-1.3-2.4-1.8-4-1.8c-1.3,0-2.3,0.3-3,1.1
		c-0.8,0.8-1.1,1.5-1.1,2.5c0,0.6,0.1,1.3,0.4,1.9c0.3,0.6,1,1.5,1.9,2.6c2.7,2.9,4.3,5,5.2,6.5c0.8,1.5,1.2,2.8,1.2,4.2
		c0,2.1-0.9,4-2.7,5.7c-1.8,1.7-4,2.5-6.7,2.5c-1.5,0-3.1-0.3-5-1.1c-0.6-0.2-1.2-0.4-1.5-0.4c-0.9,0-1.6,0.4-2,1.4h-1.1l1.8-9.9
		h1.2c0.1,3.1,0.8,5.3,1.9,6.5s2.8,1.9,4.8,1.9c1.5,0,2.8-0.4,3.6-1.3c0.9-0.9,1.4-1.9,1.4-3.2c0-0.9-0.2-1.6-0.5-2.3
		c-0.5-1.2-1.8-2.9-3.6-5c-1.8-2.1-3-3.8-3.5-4.8c-0.5-1.1-0.8-2.1-0.8-3.2c0-1.9,0.8-3.6,2.1-5c1.4-1.4,3.3-2,5.6-2
		c0.6,0,1.3,0,1.8,0.1c0.3,0.1,1,0.3,2,0.8s1.7,0.5,2.1,0.5c0.9,0,1.6-0.4,2.3-1.4h0.8V1177.4z"/>
	<path class="st0" d="M831.4,1193.5c-0.1,1-0.2,1.8-0.2,2.5c0,1.8,0.6,3.3,1.9,4.6c1.3,1.3,2.8,1.9,4.7,1.9c1.5,0,2.9-0.3,4.2-0.9
		c1.4-0.6,3.3-1.9,6-4l0.6,0.9c-4.8,4.8-9.4,7.2-13.8,7.2c-3,0-5.2-1-6.7-2.8c-1.5-1.8-2.3-4-2.3-6.2c0-3,1-6.1,2.8-9.3
		c1.8-3.2,4.2-5.7,7.1-7.4c2.8-1.7,5.7-2.7,8.8-2.7c2.1,0,3.8,0.4,4.8,1.3c1.1,0.9,1.5,1.9,1.5,3.1c0,1.7-0.6,3.3-2,4.8
		c-1.8,2-4.4,3.6-7.8,4.9C838.8,1192.4,835.5,1193.1,831.4,1193.5z M831.6,1192c3-0.3,5.5-1,7.4-1.8c2.5-1.1,4.4-2.5,5.7-4
		c1.3-1.6,1.9-3,1.9-4.5c0-0.9-0.3-1.5-0.9-2c-0.5-0.5-1.3-0.8-2.3-0.8c-2,0-4.3,1.1-6.7,3.3C834.5,1184.4,832.8,1187.7,831.6,1192z
		"/>
	<path class="st0" d="M863.6,1177.4l-4.1,14c3.8-5.7,6.8-9.4,8.8-11.3c2-1.8,4-2.7,5.9-2.7c1,0,1.8,0.3,2.5,1.1s1,1.6,1,2.6
		c0,1.3-0.3,2.9-0.9,4.9l-3.8,12.9c-0.4,1.5-0.6,2.4-0.6,2.7s0.1,0.5,0.2,0.8s0.3,0.3,0.5,0.3s0.5-0.1,0.9-0.4
		c1.1-0.9,2.3-2.1,3.5-3.9l1,0.5c-1.9,2.7-3.6,4.6-5.4,5.8c-1.2,0.8-2.3,1.2-3.2,1.2c-0.8,0-1.4-0.2-1.8-0.6
		c-0.4-0.4-0.6-1.1-0.6-1.8c0-1,0.3-2.7,1.1-5l3.5-12.3c0.4-1.5,0.6-2.7,0.6-3.5c0-0.4-0.1-0.8-0.4-1c-0.2-0.2-0.5-0.4-1-0.4
		c-0.5,0-1.3,0.2-2,0.8c-1.5,0.9-3,2.5-4.7,4.5c-1.6,2.1-3.3,4.8-5.2,8c-1,1.7-1.7,3.6-2.4,5.7l-1.5,5h-4.6l5.6-19.1
		c0.6-2.3,1-3.6,1-4.2c0-0.4-0.2-0.9-0.5-1.2s-0.8-0.5-1.3-0.5c-0.2,0-0.6,0-1.3,0.1l-1.2,0.1l-0.2-1.1L863.6,1177.4z"/>
	<path class="st0" d="M903.3,1198.5c-2.1,2.6-4.3,4.4-6.4,5.6c-2.1,1.2-4.4,1.8-6.9,1.8c-2.9,0-5.2-0.9-6.8-2.5
		c-1.6-1.6-2.5-3.8-2.5-6.5c0-3.1,0.9-6.2,2.6-9.2c1.7-3,4.1-5.5,7-7.4c2.9-1.9,5.8-2.8,8.7-2.8c2.3,0,3.9,0.4,5,1.4
		c1.1,1,1.6,2,1.6,3.4c0,1.3-0.4,2.4-1.2,3.2c-0.5,0.8-1.3,1.1-2,1.1c-0.6,0-1.2-0.2-1.6-0.6c-0.4-0.4-0.6-1-0.6-1.5
		c0-0.4,0.1-0.8,0.2-1.1c0.1-0.3,0.4-0.8,1-1.2c0.4-0.4,0.8-0.8,0.9-1s0.1-0.4,0.1-0.6c0-0.4-0.2-0.8-0.5-1.1
		c-0.6-0.4-1.4-0.6-2.5-0.6c-2,0-4,0.8-5.9,2.1c-1.9,1.4-3.6,3.4-5,6c-1.7,3.1-2.5,6.2-2.5,9.4c0,2,0.6,3.8,1.8,4.9
		c1.2,1.2,2.8,1.8,4.8,1.8c1.6,0,3.1-0.4,4.6-1.2c1.5-0.8,3.2-2.3,5.2-4.3L903.3,1198.5z"/>
	<path class="st0" d="M919.4,1177.4l-6,21.5c-0.4,1.4-0.6,2.3-0.6,2.6s0.1,0.6,0.3,0.8c0.2,0.2,0.4,0.3,0.6,0.3
		c0.3,0,0.6-0.2,1.1-0.5c1.2-0.9,2.4-2.3,3.5-3.9l1.1,0.8c-1.4,2.1-3,3.9-4.9,5.4c-1.4,1.1-2.7,1.6-4,1.6c-0.9,0-1.5-0.2-2-0.8
		c-0.5-0.5-0.8-1.1-0.8-1.9c0-0.8,0.2-2,0.8-3.8l4-13.7c0.6-2.3,1-3.6,1-4.2c0-0.4-0.1-0.8-0.4-1.1c-0.3-0.3-0.8-0.4-1.3-0.4
		c-0.4,0-1.4,0.1-2.8,0.3v-1.2L919.4,1177.4z M918.9,1165.3c0.9,0,1.6,0.3,2.1,0.9c0.5,0.6,0.9,1.3,0.9,2.1s-0.3,1.6-0.9,2.1
		c-0.6,0.6-1.3,0.9-2.1,0.9c-0.9,0-1.6-0.3-2.1-0.9c-0.6-0.6-0.9-1.3-0.9-2.1s0.3-1.5,0.9-2.1
		C917.3,1165.6,918.1,1165.3,918.9,1165.3z"/>
	<path class="st0" d="M949.7,1177.4l-6,20.7l-0.6,2.8c0,0.2-0.1,0.4-0.1,0.6c0,0.3,0.1,0.6,0.3,0.9c0.1,0.2,0.3,0.2,0.6,0.2
		c0.2,0,0.6-0.2,1.1-0.5c0.8-0.5,1.8-1.8,3.2-3.6l1.1,0.8c-1.4,2.1-2.8,3.8-4.3,4.8c-1.5,1.1-2.9,1.6-4.2,1.6
		c-0.9,0-1.5-0.2-1.9-0.6c-0.4-0.4-0.6-1.1-0.6-1.9c0-1,0.2-2.4,0.6-4l0.6-2.4c-2.7,3.5-5.2,5.9-7.4,7.3c-1.6,1-3.2,1.5-4.7,1.5
		s-2.8-0.6-3.9-1.8s-1.6-2.9-1.6-5c0-3.2,1-6.7,2.9-10.3c1.9-3.6,4.4-6.4,7.4-8.6c2.4-1.7,4.5-2.6,6.7-2.6c1.3,0,2.4,0.3,3.1,1
		c0.9,0.6,1.4,1.7,1.9,3.2l1.1-3.5L949.7,1177.4z M938.9,1179c-1.3,0-2.7,0.6-4.2,1.8c-2.1,1.7-4,4.3-5.6,7.7
		c-1.6,3.4-2.5,6.4-2.5,9.2c0,1.4,0.3,2.5,1.1,3.2c0.8,0.8,1.5,1.2,2.4,1.2c2.3,0,4.6-1.6,7.2-4.9c3.5-4.4,5.3-8.8,5.3-13.4
		c0-1.7-0.3-3-1-3.8C940.9,1179.3,940,1179,938.9,1179z"/>
</g>
</svg>
