<?xml version="1.0" encoding="utf-8"?>
<!-- Generator: Adobe Illustrator 25.4.1, SVG Export Plug-In . SVG Version: 6.00 Build 0)  -->
<svg version="1.1" id="Capa_1" xmlns="http://www.w3.org/2000/svg" xmlns:xlink="http://www.w3.org/1999/xlink" x="0px" y="0px"
	 viewBox="0 0 1242 2208" style="enable-background:new 0 0 1242 2208;" xml:space="preserve">
<style type="text/css">
	.st0{display:none;}
	.st1{fill:#775F3B;}
	.st2{fill:#62391B;}
	.st3{fill:#A63434;stroke:#A63434;stroke-miterlimit:10;}
	.st4{fill:none;}
</style>
<g id="Fondo" class="st0">
</g>
<g id="mapa">
</g>
<g id="sello_onda">
</g>
<g id="sello_ciculo">
</g>
<g id="mapa_1_">
</g>
<g id="brujula">
</g>
<g id="onda_sola_grande">
	<g id="_x35_">
		<g>
			<path class="st1" d="M-20.7,1949.9c0.6,0.7,1.4,1.1,2.3,1.6c8.8-3.5,17.4-7.4,25.9-11.7c0.2-0.6,0.3-1.1,0.3-1.6l-2.5-2.1
				c1.9,0.4,2.5,1.1,2.5,2.1l1.1,0.9c0.6-0.3,1.2-0.6,1.7-0.9c1.6-3,2.5-5.1,7.5-7.6c0.2,1.5,0.9,2.3,2,2.6
				c69.5-37.5,134.4-91.4,216.3-67.5c8.4-4.4-0.7-3.5,9.5-6.4c-107-26.1-180.3,53.3-266.4,88.2c0.4,0.2,0.8,0.7,1.4,1.4
				L-20.7,1949.9z"/>
			<path class="st1" d="M-135.9,1957.6c-2.8,2,5.1,1.7,9.3,2.2c2.4,0.7,4.8,1.3,7.2,1.8c0-0.2,0.1-0.4,0.1-0.6
				C-124.8,1960.2-130.3,1959.1-135.9,1957.6z"/>
			<path class="st1" d="M-69.6,1964.1c0.1,0.2,0.1,0.4,0.2,0.6c16.4-1.7,32.3-6,47.7-11.8c-0.7-0.3-1.5-0.6-2.3-0.8
				c1.3-0.8,1.6-2.8,2.1-3.9c-6.5,2.6-13,4.9-19.6,6.9c0.2,1.2-1.1,1-2.5,0.7c-5.6,1.6-11.3,3-17,4.1l2.1,2.9l-4.3-2.4
				c-1.2,0.2-2.4,0.4-3.6,0.6c0.6,0.7,1.2,1.4,1.7,2C-66,1963.5-68.3,1963.5-69.6,1964.1z"/>
			<path class="st1" d="M-69.6,1964.1c-0.4-0.9-0.9-1.7-1.6-2.5c-6.8,0.9-13.7,1.4-20.8,1.5c-0.2,0.2-0.5,0.4-0.7,0.6l2.9,1.8
				c6.6,0.2,13,0,19.4-0.7C-70.3,1964.4-70,1964.2-69.6,1964.1z"/>
			<path class="st1" d="M-125.4,2009.2c2.3,0.6,4.7,1.1,7,1.6C-113.6,2007.7-116.4,2007.6-125.4,2009.2z"/>
			<path class="st1" d="M117.5,1934.4c41.4-19.5,85.6-31.4,137.6-18.8c-5.3-1.5,3.4-3.7-6.6-3.7c-41.7-12.5-79.3-4.1-115.8,12.3
				l0.4,1.1l-2.5,1.5l0.2-1.8c-5.2,2.4-10.3,4.9-15.5,7.5C116.5,1932.9,117.3,1933.3,117.5,1934.4z"/>
			<path class="st1" d="M49.9,1971.5c4.2-2.4,8.4-4.9,12.6-7.3c-0.3-0.5-0.6-0.9-0.9-1.3c-4.3,2.5-8.5,4.9-12.8,7.4
				C49.2,1970.5,49.6,1970.9,49.9,1971.5z"/>
			<path class="st1" d="M114.6,1935.7c-0.6-0.3-0.9-1.2-1-2.3c-16.1,8.3-32.1,17.8-48.2,27.2c-0.2,0.8-0.3,1.5-0.5,2.1
				C81.3,1953.3,97.8,1943.9,114.6,1935.7z"/>
			<path class="st1" d="M-18.7,2004.6c1.2-0.8,3.3-2.4,5.4-3.1c-0.2-0.3-0.3-0.5-0.5-0.8c-3.6,1.3-7.2,2.6-10.8,3.8
				c1.3,0.4,2.5,1.4,3.6,2.2c1.3-0.5,2.7-1,4-1.5C-17.2,2004.9-17.7,2004.7-18.7,2004.6z"/>
			<path class="st1" d="M-118.4,2010.8c-1.1,0.7-2.6,1.6-4.5,2.6c16.4,4.3,32,5.7,47.1,5c1.4-1.4,2.7-2.9,3.8-4.5
				C-86.8,2014.9-102.3,2014.1-118.4,2010.8z"/>
			<path class="st1" d="M37.5,1976.6c0,0.4,0.3,0.8,1.2,1.3c1.8-1,3.7-2.1,5.5-3.1c-0.4-0.4-0.8-0.8-1.2-1.2
				C41.1,1974.6,39.3,1975.6,37.5,1976.6z"/>
			<path class="st1" d="M-70.6,2013.8c-0.4,1.3-0.8,2.5-1.5,3.4c0.6,0.3,1.2,0.6,1.7,0.9c3.1-0.3,6.2-0.6,9.3-1
				c0.8-1.3,1.4-2.9,2-4.5C-62.9,2013.1-66.7,2013.5-70.6,2013.8z"/>
			<path class="st1" d="M-8.5,1998.7c-0.9,0.3-1.7,0.7-2.6,1c0.2,0.5,0.5,1.1,0.8,1.6c0.5,0.1,0.9,0.3,1.3,0.6
				c0.7-0.3,1.4-0.6,2-0.9C-7.2,2000.2-7.7,1999.3-8.5,1998.7z"/>
			<path class="st1" d="M-27.5,2005.4c-0.8,0.3-1.6,0.5-2.4,0.8c-0.3,1.2-0.5,2.4-0.7,3.6c0.1,0.1,0.3,0.1,0.4,0.1
				c1.6-0.5,3.1-1,4.7-1.5c0.4-0.3,0.7-0.7,0.9-1.2L-27.5,2005.4z"/>
			<path class="st1" d="M-2.4,1997.1c-1.8,0.7-2.5,1.9-2.6,3.2c1-0.4,2-0.9,3-1.3c0.4-0.5,0.7-1,1-1.6
				C-1.4,1997.2-1.9,1997.1-2.4,1997.1z"/>
			<path class="st1" d="M108.9,1997.1l0.8,0.3c15.6-8.8,31.1-16.9,47-23.2c0-0.1-0.1-0.2-0.1-0.2c0.1,0.1,0.2,0.1,0.2,0.2
				c29-11.5,59-16.9,91.9-9.7c-0.1-0.9,0.4-2.1,2-3.5c0.3,0.9,0.3,4.1,2.3,4.1c0.9-1.5,0.2-3.3-0.2-4.9
				c-37.6-7.4-71.2-0.1-103.4,13.4c-0.8,1.5-2,2.4-4.3,1.8c-0.2,0.1-0.5,0.2-0.7,0.3c0,0.1,0.1,0.2,0.1,0.3l-0.1-0.3
				c-12.1,5.3-23.9,11.5-35.7,18.1c0.1,0,0.1,0,0.2,0C109.4,1995.7,109.4,1995.7,108.9,1997.1z"/>
			<path class="st1" d="M67.4,2022c0-0.2-0.1-0.4-0.1-0.6c-0.2-1.1-0.4-2.3-0.6-3.5c-15.2,8.7-30.5,17.2-46.2,24.5l2.3,3.3
				C38.1,2038.7,52.9,2030.5,67.4,2022z"/>
			<path class="st1" d="M-10.8,2054.9c-2.1,0.7-4.1,1.3-6.2,1.9c0.8,0.5,1,1.2-0.5,2.7c-4.7-1-7.7,1.1-9.8,3.7
				c7.3-1.7,14.5-3.7,21.6-6.1c-1.5,0.4-3.3,0.3-5.8-0.2C-11.2,2056.3-11,2055.6-10.8,2054.9z"/>
			<path class="st1" d="M76,2017c-0.3-1.2-0.5-2.4,0.9-3.2c0,0.9,0.2,1.7,0.3,2.5c10.2-6,20.4-12.1,30.5-17.8l-2.4-0.2
				c0.5-1.3,0.8-2.4,1.2-3.2c-12.2,6.8-24.3,14-36.6,21.1c0.8,1.1,1.7,2.2,2.7,2.9C73.7,2018.3,74.9,2017.7,76,2017z"/>
			<path class="st1" d="M3.1,2054.1c3.8-1.4,7.5-3,11.3-4.6c-1.3-0.2-2.3-1-2.6-3.1c-3.7,1.6-7.4,3.1-11.1,4.5
				c-0.1,0.2-0.3,0.4-0.4,0.7L3.1,2054.1z"/>
			<path class="st1" d="M18.1,2043.6c-0.6,0.3-1.2,0.5-1.8,0.8C17,2044.4,17.7,2044.2,18.1,2043.6z"/>
			<path class="st1" d="M-4.5,2056.8c1.5-0.5,3-1,4.5-1.6c0.2-1.1,0.4-2.3,0-3.4C-1.4,2054.1-2.5,2055.9-4.5,2056.8z"/>
			<path class="st1" d="M254,1962.3l-0.9,3.3c2.4,0.6,4.9,1.3,7.4,2c3.5-1.8-1.8-2.4,3.8-4.8c-1.9-0.5-3.8-1-5.7-1.4
				c-0.1,0.5-0.2,1-0.4,1.5C256.8,1964.8,256.3,1963.1,254,1962.3z"/>
			<path class="st1" d="M2.5,2109.3c-0.5-0.9-0.9-1.8-1.4-2.7c-3.8,1.2-7.7,2.2-11.5,3.2l-2,3.8C-7.3,2112.4-2.4,2110.9,2.5,2109.3z
				"/>
			<path class="st1" d="M155.6,2030.6c36.9-16.5,76.7-25.9,123.5-16.4c-1.1-0.4-1.6-1,0.2-2c-44-12.7-82.9-3.4-120.3,13.9
				C158.2,2027.5,156.9,2029,155.6,2030.6z"/>
			<path class="st1" d="M6.9,2107.8c51-18,96-53.2,146-76c-0.3-0.8-0.6-1.6-0.9-2.5c-41.2,20.1-80.8,48.7-123.9,67.3
				c-0.9,0.9-2,1.3-3.2,1.4c-5.3,2.2-10.7,4.3-16.2,6.2c0,0.1,0,0.3,0,0.4C7.6,2105.1,7.1,2106.4,6.9,2107.8z"/>
			<path class="st1" d="M-32,2117.5c0.5-0.1,1-0.2,1.5-0.2c2.5-1.7,5.8-2.7,8-4.9c-4.6,0.8-9.3,1.4-14.1,1.9
				C-35.2,2115.7-33.6,2116.8-32,2117.5z"/>
			<path class="st1" d="M281.1,2014.6c0.7,0.1,1.3,0.3,2,0.4C283.3,2014.8,282.3,2014.8,281.1,2014.6z"/>
			<path class="st1" d="M279,2014.2c0.6,0.2,1.4,0.3,2.1,0.4C280.4,2014.4,279.7,2014.3,279,2014.2z"/>
			<path class="st1" d="M285.5,2064.7c1.3,0.6,7.1,1.7,14.5,1.2c-8.8-2-17.3-3.3-25.7-4.1C278,2062.6,281.7,2063.5,285.5,2064.7z"/>
			<path class="st1" d="M-58.1,2167.1c0.6-1.2,1.2-2,2-2.4c-1.6-0.2-3.2-0.4-4.8-0.7C-60.3,2165.7-59.6,2167.2-58.1,2167.1z"/>
			<path class="st1" d="M200.6,2065.8c-29.6,8.9-58.2,25.1-87,41.9c-0.8,1.9-2.9,3.8-2.6,5.2c28.2-16.3,56.7-32.4,87.5-42.2
				C199.6,2069.3,200.8,2067.7,200.6,2065.8z"/>
			<path class="st1" d="M200.7,2065.8l1.2,3.8c22.6-6.8,46.5-10.3,72.4-7.9C248.8,2056.1,224.5,2058.6,200.7,2065.8z"/>
			<path class="st1" d="M-80,2160.8c-4.7,1.9,3,0.6-2.1,4.3c1.4,0.3,2.7,0.6,4.1,0.9C-78.4,2163.7-79,2161.7-80,2160.8z"/>
			<path class="st1" d="M-20.4,2164.9c1.6,1.1,7.1-2,8.7,2.2c44.1-7.8,83.1-31.2,122.6-54.1l-2.4-2.3
				C67,2135,25.1,2159.7-20.4,2164.9z"/>
			<path class="st1" d="M-44.2,2166.8c2.2-0.6,4.4-1.8,3.7,2.4c0.2,0.3,0.5,0.4,0.7,0.6c0.7,0,1.3,0,2,0c0.7-0.8,1.1-2.4,1.5-3.9
				c-3.7,0-7.4-0.1-11.1-0.3C-46.9,2167.2-45.6,2167.1-44.2,2166.8z"/>
			<path class="st1" d="M-69.1,2164.8c-1.8-2.1-2.7,0-3.5,2.2c1.6,0.3,3.2,0.6,4.8,0.8C-68.1,2166.6-68.5,2165.6-69.1,2164.8z"/>
		</g>
	</g>
</g>
<g>
	<g>
		<g>
			<path class="st2" d="M622.1,682.3c-3.4,0-6.5-1.9-8.2-4.9l-54.7-105.8c-9.9-21.7-8.4-46.8,3.9-67.1c12.1-19.9,32.2-32,55.1-33.2
				l0,0c2.5-0.1,5.1-0.1,7.7,0c22.9,1.2,43,13.2,55.1,33.2c12.4,20.4,13.9,45.4,4,66.9l-54.8,106
				C628.6,680.4,625.5,682.3,622.1,682.3L622.1,682.3z M618.6,478.6c-20.5,1-38.4,11.9-49.2,29.7c-11.1,18.3-12.5,40.8-3.6,60.2
				L620.4,674c0.5,0.9,1.4,1,1.7,1c0.4,0,1.3-0.1,1.8-1.1l54.6-105.7c8.8-19.2,7.4-41.7-3.7-60c-10.8-17.8-28.8-28.6-49.2-29.7
				C623.3,478.4,620.9,478.4,618.6,478.6L618.6,478.6z"/>
		</g>
		<path class="st3" d="M641.5,520c-7-1.6-14.6,1.5-19.4,7.9c-4.8-6.4-12.4-9.6-19.4-7.9c-7.7,1.8-12.8,8.5-13,17.1
			c-0.4,24.2,31.7,44,32,44.1c0.1,0,0.2,0.1,0.4,0.1c0.1,0,0.2,0,0.4-0.1c0.3-0.1,32.4-20,32-44.1
			C654.3,528.5,649.2,521.8,641.5,520z"/>
	</g>
</g>
<g id="texto2">
</g>
<g>
	<g>
		<g>
			<path class="st2" d="M325.6,1580.5c3.8-21.6,26.6-32.1,45.2-34.3c1.7-0.3,3.5-0.4,5.5-0.4c10.6-12.9,24.7-17.2,31.1-18.2
				c16.4-2.5,25.1,6.9,16.1,13.3c-6.4,4.5-26.5,5-41.7,5.9c-8.4,10.5-11.9,21.4-10.5,28.6c2,9.7,8.4,12.3,24.5,5.9
				c12.3-4.9,24.1-22.4,28.2-29.4c0.6-1.3,1-2,1-2c1.8-1.1,3.4,0.4,2.8,6.3c0,0-9.7,26.2-19.9,47.8c5.3,0.8,10.6,1.8,19.1,2.5
				c16.8,1.4,25.5-1.3,35.4-5c-9.8,4.5-20.3,9.2-53.1,3.6c-0.6-0.1-1.3-0.3-2-0.4c-4.3,9.2-9,17.5-12.9,22.6
				c-9.1,11.3-20.3,14.1-28.7,13.4c-14.4-1.1-14.8-14-10.6-21c6.2-10.6,22.3-16.5,37-16.9c4.1-0.1,7.6,0,10.6,0.4
				c1.5-3.5,2.8-7.1,4.3-10.9c5.2-13.4,9.8-24,12.9-31c-5.9,9.1-15.5,18.9-27.3,22.8c-27.5,9.1-30-15.5-21-31.2
				c1.1-2,2.4-3.8,3.8-5.6C348.9,1549.2,331.9,1561.1,325.6,1580.5z M364.4,1612.1c-14.1,9.1-13.2,25.9,0.6,27.3
				c17.8,1.7,27.7-13.6,37-35.3C385,1602.6,373.4,1606.5,364.4,1612.1z M387.1,1540.8c-1.5,1.4-2.8,2.9-4.2,4.5
				c13-0.8,28.9-1.4,34.9-3.4c13.9-4.3,6.3-12.9-2-13.2C404.2,1528.2,394.4,1533.7,387.1,1540.8z"/>
			<path class="st2" d="M438,1566.7c4.5-0.1,8.3,2.7,8.3,9.9c0,2.1-0.4,5.2-1.3,8c1.4-0.6,2.9-1.5,4.5-2.8c6-4.9,7.6-9.9,10.6-9.5
				c-3.4,2.5-6.2,8.5-12,12c-1.1,0.7-2.4,1.1-3.6,1.7c-2.2,6.7-6.6,13.7-11.6,13.4c-7.1-0.3-7.7-9.7-4.3-16.2
				c0.4-0.8,0.8-1.7,1.1-2.4C425.6,1573,432.4,1566.9,438,1566.7z M433.2,1584.7c-1.1,1.8-1.8,3.6-2.4,5.5c-1.3,5,1.1,10.5,5.6,6.6
				c2.1-2,4.5-5.9,6.3-10.5C439.5,1587.1,436,1586.6,433.2,1584.7z M436.4,1572.5c2.8-0.4,3.1,2.2,2.8,3.8c0,0.1-2.9,3.2-5.3,7.4
				c2.4,1.8,5.7,2.5,9.4,1.7c2.1-6,2.8-12.9-0.8-15.7c-4.8-4.1-10.6,0.6-11.5,4.1c-0.4,2-0.4,3.8,0,5.5
				C433.5,1574.9,435.6,1572.5,436.4,1572.5z"/>
			<path class="st2" d="M460.2,1566.7c4.5-0.1,8.3,2.7,8.3,9.9c0,2.1-0.4,5.2-1.3,8c1.4-0.6,2.9-1.5,4.5-2.8c6-4.9,7.6-9.9,10.6-9.5
				c-3.4,2.5-6.2,8.5-12,12c-1.1,0.7-2.4,1.1-3.6,1.7c-2.2,6.7-6.6,13.7-11.6,13.4c-7.1-0.3-7.7-9.7-4.3-16.2
				c0.4-0.8,0.8-1.7,1.1-2.4C447.9,1573,454.6,1566.9,460.2,1566.7z M455.5,1584.7c-1.1,1.8-1.8,3.6-2.4,5.5
				c-1.3,5,1.1,10.5,5.6,6.6c2.1-2,4.5-5.9,6.3-10.5C461.6,1587.1,458.1,1586.6,455.5,1584.7z M458.7,1572.5
				c2.8-0.4,3.1,2.2,2.8,3.8c0,0.1-2.9,3.2-5.3,7.4c2.4,1.8,5.7,2.5,9.4,1.7c2.1-6,2.8-12.9-0.8-15.7c-4.8-4.1-10.6,0.6-11.5,4.1
				c-0.4,2-0.4,3.8,0,5.5C455.8,1574.9,457.9,1572.5,458.7,1572.5z"/>
			<path class="st2" d="M483.9,1590.7c3.9-1.1,7.1-1,9.5,0.3c9.8-6.2,15.4-10.5,19.9-18.6c-1,6.6-8.8,13-18.6,19.3
				c4.3,2.9,5.3,9.5,4.3,14.7c-2,9.7-7.7,17.8-18.2,24.5c-8,5-18.6,6.2-22.8,3.4c-10.6-7.4,4.5-23.8,16-31.1
				c7-4.5,12.9-8.3,17.7-11.2c-1.8-0.7-3.9-1-6.9-0.4c-4.8,1.1-8.1,2.5-8.1,2.5S479.6,1591.8,483.9,1590.7z M474.8,1604.3
				c-24.5,16.2-24.1,36.1-4.1,27c22.7-10.6,25.8-26.5,24.8-33.3c-0.4-1.8-1.1-3.8-2.8-5C487.1,1596.6,480.8,1600.2,474.8,1604.3z
				 M493.7,1570.9c0.4,0.4,1.1,0.8,1.4,1.7c1.8,5.2-4.3,13.2-11.6,17.1c-6.6,3.6-11.1,2.1-12-3.5c-1.7-9.1,9.1-16.2,13.9-17.5
				c2.1-0.6,3.8-0.7,5.2-0.7C493.7,1568.4,494.6,1570.1,493.7,1570.9z M479.7,1577.5c-5.2,5.6-6.4,12.5-2.2,12.2
				c4.3-0.4,9-3.5,13-8.5c3.2-4.1,3.1-8.3,2.1-9.9C490.8,1571.2,485,1572.3,479.7,1577.5z"/>
			<path class="st2" d="M507.3,1600.9c-0.4,2.9,0.1,5.2,2.8,1.5c8-11.2,17.7-26.5,25.9-30c-5.6,5.2-12.9,13.4-18.6,22
				c-8,11.8-9.1,12.5-11.3,11.3c-4.2-2.1-2.1-14.3,0.4-22.6c3.1-9.9,11.2-29.7,20.2-42.9c4.3-6.3,8.3-11.3,12.2-13.9
				c3.1-2.1,6.9-2.9,9.1,0.1c4.5,6.7-20.7,35.6-28.3,42.4c-1.4,1.3-2.4,2.2-3.2,2.8C509.6,1586.9,507.9,1595.5,507.3,1600.9z
				 M520.5,1562.1c-1.1,2.5-2.4,5-3.4,7.3c3.9-4.1,11.3-11.9,15.5-17.4c9.9-12.6,12.9-18.9,13.6-21.7c1.8-7.1-5.5,0.4-7.6,2.5
				C535.5,1536.6,528.9,1544.9,520.5,1562.1z"/>
			<path class="st2" d="M531,1582.7c-1.7,8,2.7,10.9,7.1,9.1c7.6-2.9,14.7-19.5,20-19.3c-5.2,4.8-5.6,6.3-9.2,10.9
				c-4.6,5.9-9.7,11.3-15.4,10.6c-7.7-0.8-8.5-10.5-6.6-14.8c2-4.6,6-9.9,12.6-10.5c5.2-0.4,7.4,4.6,2.2,9.1
				c-3.1,2.5-7.6,3.8-10.6,4.3C531.1,1582,531,1582.4,531,1582.7z M535.3,1579.6c8.3-2.8,9.8-9.1,5.3-8c0,0-6.7,0.8-9.2,9.1
				C532.5,1580.5,533.9,1580.2,535.3,1579.6z"/>
			<path class="st2" d="M597.7,1576.8c0.1,2.1-2.4,7-2.8,8c0.4,0,1.1-1.4,3.4-4.2c2.8-3.5,5.9-5.9,8.1-5.6c3.2,1.1,3.5,3.8,2.1,6.9
				c-1.3,3.1-2.8,9.1,0.4,5.2c2.4-2.9,12.9-16.7,17.1-18.6c3.5-1.7,7.6,1,5.2,7.6c-0.7,2.5-3.1,6.7-7,12.9
				c-5.9,8.8-5.9,17.7,0.4,12.5c9.9-8,14-29.3,23.4-28.9c-7.7,3.5-10.6,13.4-14,19.1c-6.3,10.9-11.6,14.4-15.4,11.8
				c-3.8-2.7-4.8-7.3-0.3-14.7c6.3-10.2,11.5-22.6,6.7-18.6c-6.6,5.6-14.1,16.5-16.2,18.6c-1.8,1.8-3.6,1.8-5,0.4
				c-1.1-1.1-1.8-3.8,0.7-9.9c2.2-5.5-0.7-2.8-3.1-0.7c-4.3,3.9-10.1,15.3-11.5,17.4c-2.2,3.5-5.3-1-4.1-4.5
				c0.3-0.6,7.6-16.7,6.6-18.5C593.9,1571.9,597.5,1571.8,597.7,1576.8z"/>
			<path class="st2" d="M660,1596.6c5.9-8.5,13-23.3,17.9-24.4c-5.2,5.9-6.4,8.5-9.4,13.2c-5.6,9.1-8.7,15.3-12,14.7
				c-3.6-0.6-7-5.3-3.2-15.7c0.1-0.4,0.4-0.8,0.4-1.1c-4.2,5.2-8.3,9.9-12.2,5.6c-3.9-4.5-0.1-12.6,3.5-16c2.7-2.5,7.7-4.5,13-3.2
				c5.9,1.5,1.4,1.5,1.4,1.5s-7.6-1.7-13,7c-3.9,6.4-1.8,12.3,1.4,9.2c1.8-1.7,5.5-6.4,8.5-10.2c1.5-2.5,3.1-5.3,4.6-5.3
				c1.5-0.1,5.2,0.4,2,4.6C653.8,1588.6,653.7,1605.7,660,1596.6z"/>
			<path class="st2" d="M635.8,1636.8c-1-13.4,23.8-35.6,27.9-39.2c1.5-1.4,2.8-2.5,3.8-3.1c1.8-5.9,2.9-10.2,3.5-11.5
				c3.2-9.5,5.2-10.8,6.6-10.4c1.8,0.8,1.7,2.8,0.6,5.9c3.2-3.9,7.6-8,13.3-8c7-0.3,9.1,6.6,6.7,14.6c5.3-1.8,10.6-4.9,15.4-12.3
				c-2.5,8.1-9,11.2-15.8,13.4c-0.8,2.4-2.1,5-3.8,7.4c-7.6,10.6-17.1,9.2-18.2,5.9c-1-2.9,1-5.6,4.1-7.7c4.3-2.8,9-3.8,13.4-5.2
				c2.4-6.3,2.9-13.9-1.5-14.3c-5.9-0.6-11.1,4.6-14.7,9.5c-1.7,4.2-4.1,9.8-5.9,16.2c-3.5,12-8.5,26.5-14.7,36
				C648.1,1646.5,636.5,1646.2,635.8,1636.8z M660.7,1602.5c-8.5,8-14.3,14.6-19.3,23.1c-5.5,9.2-4.5,16.9,0.4,16.4
				c10.6-1,20-28.4,25.2-45.7C665.6,1597.6,663.6,1599.5,660.7,1602.5z M680.6,1592.2c-3.6,2.4-4.5,5.3-3.6,6.7
				c2.1,3.5,8.7-0.7,13-7c1-1.1,1.8-2.7,2.4-4.3C688.4,1589,684.2,1590.1,680.6,1592.2z"/>
			<path class="st2" d="M715.6,1573.3c-0.4,1.4-0.4,3.5,1,5.9c1.8,3.1,3.8,5.9,4.5,8.3c10.2-5,12.7-8,17.8-14.7
				c-2.2,6.9-9.4,12-17.7,15.8c1.5,4.8,1.3,8.7-1.8,13.4c-5.2,8.3-16.2,10.9-19.9,6.6c-4.9-6,2.8-12.9,14.1-17.8
				c1.7-0.7,2.9-1.4,4.3-2c-0.4-2-1.1-3.8-2.4-5.9c-4.9-7.7-4.1-8.5-3.9-10.4c0.3-3.2,4.1-6.6,4.1-6.6c2.2-1.7,2.8,1.7,2.4,3.5
				C717.2,1570.2,716,1571.8,715.6,1573.3z M717,1590c-9.5,4.1-17.8,9.5-17.1,14.7c0.4,3.5,3.5,4.6,7.4,2.5
				c3.8-2.1,12.2-9,11.3-17.8C718,1589.9,717.4,1589.9,717,1590z"/>
			<path class="st2" d="M769.3,1600.9c-0.4,2.9,0.1,5.2,2.8,1.5c8-11.2,17.7-26.5,25.9-30c-5.6,5.2-12.9,13.4-18.6,22
				c-8,11.8-9.1,12.5-11.3,11.3c-4.2-2.1-2.1-14.3,0.4-22.6c3.1-9.9,11.2-29.7,20.2-42.9c4.3-6.3,8.3-11.3,12.2-13.9
				c3.1-2.1,6.9-2.9,9.1,0.1c4.5,6.7-20.7,35.6-28.3,42.4c-1.4,1.3-2.4,2.2-3.2,2.8C771.8,1586.9,770,1595.5,769.3,1600.9z
				 M782.7,1562.1c-1.1,2.5-2.4,5-3.4,7.3c3.9-4.1,11.3-11.9,15.5-17.4c9.9-12.6,12.9-18.9,13.6-21.7c1.8-7.1-5.5,0.4-7.6,2.5
				C797.6,1536.6,791.1,1544.9,782.7,1562.1z"/>
			<path class="st2" d="M804.8,1584.4c-4.6,6.2-8.4,10.1-12.3,9c-6.3-2-1-17.8,3.5-20.9c2-1,3.1,0.1,2.8,1.7
				c-0.4,2.5-3.1,6.3-4.3,10.8c-0.8,3.4-1.8,7.3,0.7,6.9c3.1-0.4,9.1-9.2,13-14.3c3.4-4.2,4.3-5.3,6.6-5.3
				C811.6,1574,809,1578.8,804.8,1584.4z M799.8,1568.3c-1.1-0.4-1.3-1.1-0.4-2.8c1-2,0.4-2.4,2-3.2c1.1-0.6,4.8-0.3,3.5,2.4
				C803.7,1567.2,801.2,1568.6,799.8,1568.3z"/>
			<path class="st2" d="M818.1,1575.7c0.1,3.4-1,5-2.8,9c4.3-6,14.1-16,21-17.8c3.8-1,5.6,2.5,5.2,5.2c-0.4,3.9-11.9,19.5-13.3,25.2
				c-2,8.5,3.2,5.7,4.9,4.5c4.9-3.6,14.1-20.2,18.2-25.1c5.2-5.9,7-3.9,7-3.9c-8.1,2-17.8,28-26.9,31.5c-2.7,1.1-6.7,0.4-8-3.8
				c-2.4-8.5,13.2-28.4,13.7-31.4c0.4-3.4-9.4,2.7-16.2,10.6c-4.6,5.3-7.1,9.5-9.2,12.7c-0.4,0.7-2.8,0.7-3.8-1
				c-0.4-0.7-1.7-2.4,2.1-10.1c4.2-8.5,2.4-8.3,2.4-8.3C813.5,1571.6,818.1,1572.5,818.1,1575.7z"/>
			<path class="st2" d="M895.6,1529.2c-1,12.2-27.3,37.1-36,44c-2.1,3.8-2.4,5.9-3.9,10.1c1.5-2.8,10.9-14.3,18.5-12.9
				c7,1.4,4.3,9.2-1.1,12.3c-3.8,2.1-10.8,4.6-11.1,5.5c7.7,3.4,1.8,12.6,5.2,16.2c5.9,3.8,15.4-25.6,27.3-32.1
				c-1.3,1.1-2.4,3.1-4.2,5.2c-8.5,9.5-12.9,21.4-17.8,26.5c-2.4,2.4-5.2,2.1-6.4,1.3c-8-4.5-0.6-15.1-5.9-16.2
				c-1.1-0.3-2.1-2.1-0.8-3.5c2-2.1,8.8-4.1,13.4-7.6c7.7-5.5,1.7-9.2-5.9-3.9c-9.7,6.7-11.3,12.9-14.6,22.6c-4.3,0-4.2-3.6-3.5-7.6
				c0.3-1,9.9-30.5,19.3-44.5c9.1-14.7,17.2-18.9,19.1-19.6C892.1,1523.3,895.9,1525.7,895.6,1529.2z M888.9,1528.6
				c-12.3,8-23.4,29.1-28.7,42.2c13.2-10.9,32.5-32.9,33.6-40.2C894.5,1527.4,892,1526.7,888.9,1528.6z"/>
		</g>
	</g>
</g>
<g>
	<g>
		<g>
			<path class="st2" d="M586.1,1909.6v0.8c-2.2-1.1-4.1-2.4-5.5-3.9c-2.1-2.1-3.8-4.6-4.9-7.6s-1.7-5.9-1.7-9
				c0-4.5,1.1-8.7,3.4-12.5c2.2-3.8,5.2-6.4,8.7-8v1c-1.8,1-3.2,2.4-4.3,4.1s-2.1,3.9-2.5,6.6c-0.6,2.7-0.8,5.3-0.8,8.3
				c0,3.2,0.3,6,0.7,8.5c0.4,2.1,0.8,3.6,1.4,4.9c0.4,1.3,1.3,2.4,2.2,3.5C583.4,1907.5,584.7,1908.6,586.1,1909.6z"/>
			<path class="st2" d="M606.1,1893.2c-0.4,2.7-1.5,4.8-3.2,6c-1.5,1.4-3.2,2.2-5.2,2.2c-2.4,0-4.2-1-6-2.9c-1.7-2-2.5-4.5-2.5-7.8
				c0-3.2,1-5.7,2.8-7.7s4.2-2.9,6.9-2.9c2,0,3.6,0.4,4.9,1.5c1.3,1.1,2,2.2,2,3.2c0,0.6-0.1,1-0.4,1.4c-0.4,0.4-0.8,0.4-1.4,0.4
				c-0.8,0-1.4-0.3-2-0.8c-0.3-0.4-0.4-0.8-0.4-1.7c-0.1-0.8-0.4-1.5-0.8-2s-1.3-0.6-2.1-0.6c-1.4,0-2.7,0.4-3.5,1.5
				c-1.3,1.4-1.8,3.2-1.8,5.7c0,2.4,0.6,4.5,1.7,6.3c1.3,1.8,2.8,2.8,4.8,2.8c1.4,0,2.7-0.4,3.9-1.4c0.8-0.7,1.5-2,2.4-3.6
				L606.1,1893.2z"/>
			<path class="st2" d="M616.5,1869.7v26.6c0,1.3,0.1,2.1,0.3,2.5c0.1,0.4,0.4,0.7,0.8,1c0.4,0.3,1.1,0.4,2.1,0.4v0.7h-9.8v-0.7
				c1,0,1.5-0.1,2-0.3c0.4-0.3,0.6-0.4,0.7-1c0.1-0.6,0.3-1.4,0.3-2.5v-18.2c0-2.4,0-3.6-0.1-4.1c-0.1-0.4-0.3-0.8-0.4-1.1
				c-0.3-0.3-0.4-0.3-0.8-0.3c-0.4,0-0.8,0.1-1.4,0.4l-0.4-0.7l6-2.4h1.1L616.5,1869.7L616.5,1869.7z"/>
			<path class="st2" d="M629.5,1880.2v16.2c0,1.3,0.1,2.1,0.3,2.5c0.1,0.4,0.4,0.7,0.8,1s1,0.4,2,0.4v0.7h-9.8v-0.7
				c1,0,1.5-0.1,2-0.3c0.4-0.3,0.6-0.4,0.7-1c0.3-0.4,0.3-1.4,0.3-2.5v-7.8c0-2.2-0.1-3.5-0.3-4.2c-0.1-0.4-0.3-0.8-0.4-1
				c-0.3-0.1-0.4-0.3-0.8-0.3s-0.8,0.1-1.4,0.4l-0.4-0.7l6-2.4h1.1L629.5,1880.2L629.5,1880.2z M627.7,1869.7c0.6,0,1.1,0.3,1.5,0.6
				c0.4,0.4,0.6,1,0.6,1.5c0,0.6-0.3,1.1-0.6,1.5c-0.4,0.4-1,0.6-1.5,0.6c-0.6,0-1.1-0.3-1.5-0.6c-0.4-0.4-0.6-1-0.6-1.5
				c0-0.6,0.3-1.1,0.6-1.5C626.4,1869.9,627.1,1869.7,627.7,1869.7z"/>
			<path class="st2" d="M652.6,1893.2c-0.4,2.7-1.5,4.8-3.2,6c-1.5,1.4-3.2,2.2-5.2,2.2c-2.4,0-4.2-1-6-2.9c-1.7-2-2.5-4.5-2.5-7.8
				c0-3.2,1-5.7,2.8-7.7s4.2-2.9,6.9-2.9c2,0,3.6,0.4,4.9,1.5c1.3,1.1,2,2.2,2,3.2c0,0.6-0.1,1-0.4,1.4c-0.4,0.4-0.8,0.4-1.4,0.4
				c-0.8,0-1.4-0.3-2-0.8c-0.3-0.4-0.4-0.8-0.4-1.7c-0.1-0.8-0.4-1.5-0.8-2s-1.3-0.6-2.1-0.6c-1.4,0-2.7,0.4-3.5,1.5
				c-1.3,1.4-1.8,3.2-1.8,5.7c0,2.4,0.6,4.5,1.7,6.3c1.3,1.8,2.8,2.8,4.8,2.8c1.4,0,2.7-0.4,3.9-1.4c0.8-0.7,1.5-2,2.4-3.6
				L652.6,1893.2z"/>
			<path class="st2" d="M654.7,1870.5v-1c2.2,1.1,4.1,2.4,5.6,3.9c2.1,2.1,3.6,4.6,4.9,7.6c1.1,2.9,1.7,5.9,1.7,9
				c0,4.5-1.1,8.7-3.2,12.5c-2.2,3.8-5.2,6.4-8.7,8v-0.8c1.8-1,3.2-2.4,4.3-4.1c1.3-1.7,2.1-3.9,2.5-6.6c0.6-2.7,0.8-5.5,0.8-8.3
				c0-3.2-0.3-6-0.7-8.5c-0.4-2.1-0.8-3.6-1.4-4.9c-0.4-1.3-1.3-2.4-2.2-3.5C657.3,1872.7,656.2,1871.6,654.7,1870.5z"/>
		</g>
	</g>
	<a xlink:href="https://goo.gl/maps/T9kzeFgPbDyRSniN8"  pointer-events="all" target="_blank">
		<rect x="521.7" y="1670.2" class="st4" width="203" height="252.1"/>
		<path class="st2" d="M708.5,1712.2c-12.7-28.9-51.3-36.1-73.7-14c-1,0.8-1.8,1.3-3.1,1.3c-22.4,0-44.8,0-67.2,0
			c-12.2,0-21.6,9.4-21.6,21.6c0,37.5,0,74.8,0,112.3c0,1.4,0.1,3.1,0.4,4.5c2.4,10.5,10.6,17.1,21.4,17.1c18.6,0,37.1,0,55.8,0
			s37.1,0,55.8,0c2.4,0,5-0.4,7.3-1.1c9.1-3.1,14.7-10.9,14.7-20.6c0-21.6,0-43.1,0-64.6c0-1,0.4-2,0.8-2.8
			c2.2-3.5,4.5-6.9,6.6-10.6C713.6,1741.2,715.1,1726.9,708.5,1712.2z M638,1767.1c10.5,14.3,19.5,29.7,23.7,47.6
			c-12-12-24-24-35.7-35.6C629.9,1775.1,633.9,1771.2,638,1767.1z M554.2,1839.3c-0.4,0.4-0.7,0.8-1.4,1.3c-0.1-0.8-0.1-1.1-0.1-1.7
			c0-40.5,0-81,0-121.7c0-5,3.2-8.3,8.1-8.3c22,0,44.3,0,66.3,0c0.4,0,0.7,0,0.8,0c-1,3.9-2.2,7.7-2.8,11.6c-2.1,12,0.6,23.5,6.3,34
			c0.6,1,0.8,2.1,1.7,2.8c1.3,1.5,0.7,2.5-0.6,3.9C606.2,1787.3,580.3,1813.3,554.2,1839.3z M559.8,1846.4
			c20-20,40.2-40.2,60.4-60.2c19.8,19.8,39.9,39.9,60.2,60.2C640,1846.4,599.6,1846.4,559.8,1846.4z M689.1,1835.6
			c0,1.7-0.6,3.4-1,4.9c-8.3-8.3-16.2-16.2-24.2-24.2c0.8-0.1,1.7-0.1,2.7-0.3c6.2-1.1,9.2-5.2,10.5-10.9
			c2.2-9.8,5.7-19.2,10.4-28.2c0.3-0.7,0.7-1.4,1.3-2.2c0.1,0.8,0.3,1.3,0.3,1.7C689.3,1796,689.3,1815.7,689.1,1835.6z
			 M696.8,1745.3c-3.1,5.6-6.6,10.8-10.1,16.1c-7.7,11.2-14.3,23-19.3,35.6c-0.1,0.4-0.4,0.7-0.6,1.3c-1.7-3.8-3.2-7.3-4.8-10.8
			c-5.2-11.3-12-21.6-19.1-31.8c-3.8-5.5-7.1-11.2-9.1-17.7c-5.7-19.1,7-39.9,26.8-43.3c18.2-3.2,34.9,7.4,39.6,25.4
			C702.4,1728.7,701.2,1737.3,696.8,1745.3z"/>
		<path class="st2" d="M600.3,1726.6c-1.7,1.7-3.2,3.2-5,4.9c-7.4-4.9-13.2-5.2-18.5-1c-4.9,3.8-6.7,10.1-4.6,16
			c2,5.6,7.6,9.4,13.4,9.2c4.9-0.1,10.5-3.2,11.5-7c-3.9,0-7.7,0-11.6,0c0-2.4,0-4.6,0-7c7,0,13.9,0,20.9,0
			c1.8,5.9-4.8,16.1-12.5,19.3c-9.9,4.3-21.7,0.4-27-9.1s-2.5-21.4,6.4-27.7C582.5,1718.1,594.3,1720.3,600.3,1726.6z"/>
		<path class="st2" d="M656.2,1731c0-5.9,4.8-10.6,10.6-10.5c5.9,0,10.5,4.8,10.5,10.6s-4.8,10.6-10.6,10.6
			C660.8,1741.8,656.1,1737,656.2,1731z"/>
	</a>
</g>
<g>
	<path class="st2" d="M324.9,1088.8h24.6l3.9-13.1c0.7-2.6,1.1-4.6,1.1-6c0-0.7-0.2-1.3-0.5-1.7c-0.3-0.5-0.8-0.8-1.5-1.1
		s-2-0.4-4-0.4l0.4-1.5h21.4l-0.5,1.5c-1.8,0-3.1,0.1-4,0.5c-1.3,0.6-2.2,1.3-2.8,2.1c-0.8,1.2-1.7,3.4-2.6,6.5l-9.4,32.2
		c-0.8,2.7-1.2,4.6-1.2,5.8c0,1,0.3,1.7,1,2.2s2.4,0.9,5,1l-0.4,1.5h-20.8l0.5-1.5c2.1,0,3.4-0.2,4.1-0.5c1-0.5,1.8-1.1,2.3-1.8
		c0.7-1,1.5-3.2,2.5-6.7l4.8-16.3H324l-4.8,16.3c-0.7,2.6-1.1,4.6-1.1,5.8c0,1,0.3,1.7,1,2.2s2.3,0.9,4.9,1l-0.3,1.5h-20.9l0.5-1.5
		c2.1,0,3.5-0.2,4.2-0.5c1-0.5,1.8-1.1,2.3-1.8c0.7-1.1,1.5-3.3,2.5-6.7l9.4-32.2c0.7-2.6,1.1-4.6,1.1-6c0-0.7-0.2-1.3-0.5-1.7
		c-0.3-0.5-0.8-0.8-1.5-1.1c-0.7-0.2-2.1-0.4-4.1-0.4l0.5-1.5h21l-0.4,1.5c-1.8,0-3.1,0.1-3.9,0.5c-1.2,0.6-2.1,1.3-2.7,2.1
		c-0.8,1.2-1.7,3.4-2.6,6.5L324.9,1088.8z"/>
	<path class="st2" d="M400.4,1095.1c0,3.9-1,7.8-3.1,11.7c-2.1,3.9-5,6.9-8.7,9.2s-7.3,3.4-10.8,3.4c-3.6,0-6.5-1.1-8.8-3.4
		s-3.4-5.2-3.4-8.9c0-3.9,1.1-7.7,3.3-11.6c2.2-3.9,5.2-6.9,8.9-9.2c3.7-2.3,7.3-3.4,10.7-3.4c3.5,0,6.3,1.1,8.6,3.4
		C399.3,1088.5,400.4,1091.5,400.4,1095.1z M393.9,1092.4c0-2.4-0.6-4.3-1.8-5.6c-1.2-1.3-2.8-2-4.6-2c-3.8,0-7.4,2.8-10.6,8.3
		s-4.9,11-4.9,16.5c0,2.5,0.6,4.4,1.9,5.7c1.3,1.4,2.8,2,4.7,2c3.7,0,7.2-2.7,10.4-8.2C392.3,1103.6,393.9,1098.1,393.9,1092.4z"/>
	<path class="st2" d="M424.3,1073.1l-3.1,10.7h6.2l-0.7,2.5h-6.1l-6.8,23.1c-0.7,2.5-1.1,4.1-1.1,4.8c0,0.5,0.1,0.8,0.3,1
		s0.4,0.4,0.7,0.4c0.7,0,1.5-0.5,2.6-1.4c0.7-0.5,2.1-2.1,4.2-4.8l1.3,1c-2.4,3.5-4.7,6-6.8,7.4c-1.5,1-2.9,1.5-4.4,1.5
		c-1.1,0-2.1-0.4-2.8-1.1s-1.1-1.6-1.1-2.8c0-1.4,0.4-3.5,1.2-6.4l6.6-22.8h-6l0.4-1.6c2.9-0.8,5.3-2,7.2-3.5s4-4.3,6.4-8.1h1.8
		L424.3,1073.1L424.3,1073.1z"/>
	<path class="st2" d="M435.3,1103.6c-0.2,1.3-0.2,2.4-0.2,3.2c0,2.3,0.8,4.3,2.5,6c1.6,1.6,3.7,2.5,6,2.5c1.9,0,3.7-0.4,5.4-1.2
		c1.7-0.8,4.3-2.5,7.7-5.1l0.8,1.1c-6.2,6.2-12.1,9.2-17.8,9.2c-3.8,0-6.7-1.2-8.6-3.6s-2.9-5.1-2.9-8c0-3.9,1.2-7.9,3.6-12
		s5.4-7.3,9.1-9.5c3.6-2.3,7.4-3.4,11.3-3.4c2.8,0,4.8,0.6,6.2,1.7c1.3,1.1,2,2.5,2,4c0,2.2-0.9,4.3-2.6,6.2
		c-2.3,2.6-5.6,4.7-10.1,6.3C444.8,1102.1,440.7,1103,435.3,1103.6z M435.6,1101.6c3.9-0.5,7-1.2,9.5-2.3c3.2-1.4,5.6-3.1,7.3-5.2
		s2.4-3.9,2.4-5.7c0-1.1-0.4-2-1-2.6c-0.7-0.7-1.7-1-3-1c-2.7,0-5.5,1.4-8.5,4.2C439.3,1091.9,437.1,1096.1,435.6,1101.6z"/>
	<path class="st2" d="M485.4,1062.5l-13.4,46.8c-0.7,2.3-1,3.8-1,4.3c0,0.4,0.1,0.7,0.4,1c0.2,0.3,0.5,0.4,0.9,0.4
		c0.5,0,1.1-0.2,1.6-0.7c1.4-1.1,2.8-2.7,4.3-5l1.2,1.2c-2.5,3.5-4.8,6-6.9,7.4c-1.5,1-3,1.5-4.4,1.5c-1,0-1.8-0.3-2.5-1
		s-1-1.5-1-2.3c0-0.9,0.4-2.9,1.2-5.8l10.7-36.9c0.8-3,1.3-4.8,1.3-5.2c0-0.7-0.3-1.2-0.8-1.6s-1.3-0.6-2.3-0.6
		c-0.6,0-1.5,0.1-2.7,0.3v-1.5L485.4,1062.5z"/>
	<path class="st2" d="M529.5,1065.1l4.9,42.9l31-42.9h13v1.5c-2.8,0.2-4.5,0.4-5,0.5c-0.9,0.4-1.7,1-2.4,2.1c-0.7,1-1.5,3-2.3,5.9
		l-9.9,33.8c-0.6,2-0.9,3.5-0.9,4.6c0,1,0.4,1.8,1.1,2.3c1,0.7,2.6,1.1,4.7,1.1h0.9l-0.3,1.5h-22.5l0.4-1.5h1.1c2,0,3.5-0.3,4.5-0.8
		c0.8-0.4,1.5-1.2,2.2-2.4c0.7-1.2,1.5-3.8,2.7-7.8l8.8-30.9l-31.1,43.4h-1.6l-5-43.4l-9.5,33c-0.8,2.8-1.2,4.7-1.2,5.7
		s0.3,1.7,1,2.2s2.4,0.9,5.2,1l-0.4,1.5h-17.6l0.4-1.5h1.1c2.6,0,4.4-0.7,5.6-2c0.8-0.9,1.7-3,2.6-6.2l11.6-39.7
		c-0.8-0.9-1.7-1.5-2.5-1.8s-2.3-0.6-4.4-0.8l0.4-1.5h13.4L529.5,1065.1L529.5,1065.1z"/>
	<path class="st2" d="M608.8,1082.8l-7.7,26.7l-0.9,3.6c-0.1,0.3-0.1,0.6-0.1,0.8c0,0.4,0.1,0.8,0.4,1.1c0.2,0.2,0.5,0.3,0.8,0.3
		s0.8-0.2,1.3-0.6c1-0.7,2.4-2.3,4.1-4.7l1.3,0.9c-1.8,2.7-3.6,4.8-5.6,6.2c-1.9,1.4-3.7,2.1-5.3,2.1c-1.1,0-1.9-0.3-2.5-0.8
		c-0.6-0.6-0.9-1.4-0.9-2.4c0-1.3,0.3-3,0.9-5.1l0.8-3c-3.5,4.5-6.6,7.6-9.5,9.4c-2.1,1.3-4.1,1.9-6.1,1.9c-1.9,0-3.6-0.8-5-2.4
		s-2.1-3.8-2.1-6.5c0-4.2,1.2-8.6,3.7-13.2s5.7-8.3,9.5-11.1c3-2.2,5.8-3.3,8.5-3.3c1.6,0,3,0.4,4,1.3c1.1,0.8,1.9,2.2,2.4,4.2
		l1.4-4.5L608.8,1082.8z M594.8,1084.8c-1.7,0-3.4,0.8-5.3,2.4c-2.7,2.2-5.1,5.5-7.2,9.9c-2.1,4.4-3.1,8.3-3.1,11.9
		c0,1.8,0.4,3.2,1.3,4.2c0.9,1,1.9,1.6,3.1,1.6c2.8,0,5.9-2.1,9.3-6.3c4.5-5.6,6.7-11.3,6.7-17.2c0-2.2-0.4-3.8-1.3-4.8
		C597.5,1085.3,596.3,1084.8,594.8,1084.8z"/>
	<path class="st2" d="M640.5,1082.8l-2.4,12.1h-1.5c-0.1-3.5-0.9-6.1-2.2-7.7c-1.4-1.6-3.1-2.4-5.1-2.4c-1.6,0-2.9,0.4-3.8,1.3
		c-1,0.9-1.4,2-1.4,3.2c0,0.8,0.2,1.7,0.6,2.5c0.4,0.8,1.2,1.9,2.5,3.3c3.4,3.7,5.6,6.6,6.6,8.4c1,1.9,1.5,3.7,1.5,5.3
		c0,2.7-1.1,5.2-3.4,7.3c-2.3,2.1-5.1,3.1-8.6,3.1c-1.9,0-4.1-0.4-6.5-1.3c-0.8-0.3-1.5-0.5-2-0.5c-1.2,0-2.1,0.6-2.7,1.8h-1.4
		l2.4-12.7h1.5c0.1,4,0.9,6.8,2.4,8.5c1.5,1.6,3.5,2.5,6.2,2.5c2,0,3.6-0.6,4.7-1.7c1.2-1.1,1.8-2.5,1.8-4.1c0-1-0.2-2-0.6-2.9
		c-0.7-1.6-2.3-3.7-4.6-6.5s-3.8-4.9-4.5-6.2c-0.7-1.4-1-2.8-1-4.2c0-2.5,0.9-4.7,2.8-6.4s4.2-2.6,7.1-2.6c0.8,0,1.6,0.1,2.3,0.2
		c0.4,0.1,1.2,0.4,2.6,0.9c1.4,0.5,2.3,0.8,2.7,0.8c1.1,0,2.1-0.6,2.8-1.9h1.2L640.5,1082.8L640.5,1082.8z"/>
	<path class="st2" d="M674.6,1065.1H715l-4.4,14.2h-1.5c0.5-2.1,0.7-3.9,0.7-5.5c0-1.9-0.6-3.4-1.8-4.3c-0.9-0.7-3.2-1.1-6.9-1.1
		h-4.2l-10.5,36.7c-1.3,4.6-2,7.5-2,8.5s0.4,1.8,1.2,2.5s2.3,1,4.5,1h1.8l-0.5,1.5h-23.2l0.4-1.5h1c2.1,0,3.6-0.3,4.7-1
		c0.7-0.5,1.4-1.3,2.1-2.4c0.6-1.2,1.5-3.6,2.5-7.4l11.1-37.8h-3c-3.1,0-5.5,0.4-7.4,1.2c-1.9,0.8-3.4,1.9-4.5,3.4
		c-1.2,1.5-2.1,3.6-2.8,6.3h-1.5L674.6,1065.1z"/>
	<path class="st2" d="M745.3,1082.8l-7.7,26.7l-0.9,3.6c-0.1,0.3-0.1,0.6-0.1,0.8c0,0.4,0.1,0.8,0.4,1.1c0.2,0.2,0.5,0.3,0.8,0.3
		s0.8-0.2,1.3-0.6c1-0.7,2.4-2.3,4.1-4.7l1.3,0.9c-1.8,2.7-3.6,4.8-5.6,6.2c-1.9,1.4-3.7,2.1-5.3,2.1c-1.1,0-1.9-0.3-2.5-0.8
		c-0.6-0.6-0.9-1.4-0.9-2.4c0-1.3,0.3-3,0.9-5.1l0.8-3c-3.5,4.5-6.6,7.6-9.5,9.4c-2.1,1.3-4.1,1.9-6.1,1.9c-1.9,0-3.6-0.8-5-2.4
		s-2.1-3.8-2.1-6.5c0-4.2,1.2-8.6,3.7-13.2s5.7-8.3,9.5-11.1c3-2.2,5.8-3.3,8.5-3.3c1.6,0,3,0.4,4,1.3c1.1,0.8,1.9,2.2,2.4,4.2
		l1.4-4.5L745.3,1082.8z M731.3,1084.8c-1.7,0-3.4,0.8-5.3,2.4c-2.7,2.2-5.1,5.5-7.2,9.9c-2.1,4.4-3.1,8.3-3.1,11.9
		c0,1.8,0.4,3.2,1.3,4.2c0.9,1,1.9,1.6,3.1,1.6c2.8,0,5.9-2.1,9.3-6.3c4.5-5.6,6.7-11.3,6.7-17.2c0-2.2-0.4-3.8-1.3-4.8
		C734,1085.3,732.8,1084.8,731.3,1084.8z"/>
	<path class="st2" d="M765.6,1082.8l-2.7,9.1c2.9-3.4,5.4-5.7,7.7-7.1c2.2-1.4,4.5-2,6.8-2s4.3,0.9,6,2.8c1.6,1.9,2.5,4.3,2.5,7.2
		c0,5.8-2.3,11.6-7,17.6s-10.2,8.9-16.4,8.9c-1.3,0-2.5-0.1-3.5-0.4s-2.1-0.8-3.4-1.5l-2.9,10.2c-0.6,2-0.9,3.3-0.9,3.9
		s0.2,1.1,0.5,1.5s0.8,0.7,1.5,1c0.7,0.2,2,0.3,4,0.3l-0.3,1.5H739l0.4-1.5c2.4-0.1,4.1-0.5,4.9-1.2c0.8-0.7,1.7-2.8,2.7-6.1
		l10-34.4c0.6-2.2,0.9-3.5,0.9-4.1c0-0.7-0.2-1.3-0.6-1.7s-1-0.6-1.9-0.6c-0.8,0-1.8,0.1-3.2,0.3v-1.5L765.6,1082.8z M756.4,1114.2
		c1.6,2,3.8,2.9,6.6,2.9c1.3,0,2.7-0.4,4.1-1.1c1.4-0.8,2.8-1.9,4.2-3.4s2.6-3.2,3.6-5.2s2-4.3,2.9-6.9c0.9-2.7,1.3-5.3,1.3-7.9
		c0-2.1-0.5-3.7-1.4-4.8c-1-1.1-2.1-1.7-3.4-1.7c-2.8,0-5.6,1.6-8.4,4.9c-2.8,3.2-4.8,7-6.1,11.4L756.4,1114.2z"/>
	<path class="st2" d="M806.5,1082.8l-7.8,27.6c-0.5,1.9-0.8,3-0.8,3.3c0,0.4,0.1,0.8,0.4,1c0.2,0.3,0.5,0.4,0.9,0.4s0.9-0.2,1.4-0.6
		c1.5-1.2,3-2.8,4.5-5l1.4,0.9c-1.8,2.7-3.9,5-6.3,6.9c-1.8,1.4-3.5,2.1-5.1,2.1c-1.1,0-2-0.3-2.6-1s-1-1.4-1-2.4s0.3-2.6,1-4.8
		l5.1-17.6c0.8-2.9,1.2-4.7,1.2-5.4c0-0.6-0.2-1-0.6-1.4c-0.4-0.4-1-0.6-1.6-0.6s-1.8,0.1-3.6,0.4v-1.5L806.5,1082.8z M806,1067.2
		c1.1,0,2,0.4,2.8,1.1c0.7,0.8,1.1,1.7,1.1,2.8s-0.4,2-1.1,2.8c-0.8,0.8-1.7,1.2-2.8,1.2s-2-0.4-2.8-1.2s-1.2-1.7-1.2-2.8
		s0.4-2,1.1-2.8C804,1067.6,804.9,1067.2,806,1067.2z"/>
	<path class="st2" d="M847.5,1095.1c0,3.9-1,7.8-3.1,11.7c-2.1,3.9-5,6.9-8.7,9.2s-7.3,3.4-10.8,3.4c-3.6,0-6.5-1.1-8.8-3.4
		s-3.4-5.2-3.4-8.9c0-3.9,1.1-7.7,3.3-11.6s5.2-6.9,8.9-9.2c3.7-2.3,7.3-3.4,10.7-3.4c3.5,0,6.3,1.1,8.6,3.4
		C846.4,1088.5,847.5,1091.5,847.5,1095.1z M841.1,1092.4c0-2.4-0.6-4.3-1.8-5.6c-1.2-1.3-2.8-2-4.6-2c-3.8,0-7.4,2.8-10.6,8.3
		c-3.2,5.5-4.9,11-4.9,16.5c0,2.5,0.6,4.4,1.9,5.7c1.3,1.4,2.8,2,4.7,2c3.7,0,7.2-2.7,10.4-8.2
		C839.4,1103.6,841.1,1098.1,841.1,1092.4z"/>
	<path class="st2" d="M874.5,1062.5l-13.4,46.8c-0.7,2.3-1,3.8-1,4.3c0,0.4,0.1,0.7,0.4,1c0.2,0.3,0.5,0.4,0.9,0.4
		c0.5,0,1.1-0.2,1.6-0.7c1.4-1.1,2.8-2.7,4.3-5l1.2,1.2c-2.5,3.5-4.8,6-6.9,7.4c-1.5,1-3,1.5-4.4,1.5c-1,0-1.8-0.3-2.5-1
		s-1-1.5-1-2.3c0-0.9,0.4-2.9,1.2-5.8l10.7-36.9c0.8-3,1.3-4.8,1.3-5.2c0-0.7-0.3-1.2-0.8-1.6s-1.3-0.6-2.3-0.6
		c-0.6,0-1.5,0.1-2.7,0.3v-1.5L874.5,1062.5z"/>
	<path class="st2" d="M910.7,1082.8l-7.7,26.7l-0.9,3.6c-0.1,0.3-0.1,0.6-0.1,0.8c0,0.4,0.1,0.8,0.4,1.1c0.2,0.2,0.5,0.3,0.8,0.3
		s0.8-0.2,1.3-0.6c1-0.7,2.4-2.3,4.1-4.7l1.3,0.9c-1.8,2.7-3.6,4.8-5.6,6.2c-1.9,1.4-3.7,2.1-5.3,2.1c-1.1,0-1.9-0.3-2.5-0.8
		c-0.6-0.6-0.9-1.4-0.9-2.4c0-1.3,0.3-3,0.9-5.1l0.8-3c-3.5,4.5-6.6,7.6-9.5,9.4c-2.1,1.3-4.1,1.9-6.1,1.9c-1.9,0-3.6-0.8-5-2.4
		s-2.1-3.8-2.1-6.5c0-4.2,1.2-8.6,3.7-13.2s5.7-8.3,9.5-11.1c3-2.2,5.8-3.3,8.5-3.3c1.6,0,3,0.4,4,1.3c1.1,0.8,1.9,2.2,2.4,4.2
		l1.4-4.5L910.7,1082.8z M896.7,1084.8c-1.7,0-3.4,0.8-5.3,2.4c-2.7,2.2-5.1,5.5-7.2,9.9c-2.1,4.4-3.1,8.3-3.1,11.9
		c0,1.8,0.4,3.2,1.3,4.2c0.9,1,1.9,1.6,3.1,1.6c2.8,0,5.9-2.1,9.3-6.3c4.5-5.6,6.7-11.3,6.7-17.2c0-2.2-0.4-3.8-1.3-4.8
		C899.4,1085.3,898.2,1084.8,896.7,1084.8z"/>
	<path class="st2" d="M942.4,1082.8l-2.4,12.1h-1.5c-0.1-3.5-0.9-6.1-2.2-7.7c-1.4-1.6-3.1-2.4-5.1-2.4c-1.6,0-2.9,0.4-3.8,1.3
		c-1,0.9-1.4,2-1.4,3.2c0,0.8,0.2,1.7,0.6,2.5c0.4,0.8,1.2,1.9,2.5,3.3c3.4,3.7,5.6,6.6,6.6,8.4c1,1.9,1.5,3.7,1.5,5.3
		c0,2.7-1.1,5.2-3.4,7.3c-2.3,2.1-5.1,3.1-8.6,3.1c-1.9,0-4.1-0.4-6.5-1.3c-0.8-0.3-1.5-0.5-2-0.5c-1.2,0-2.1,0.6-2.7,1.8h-1.4
		l2.4-12.7h1.5c0.1,4,0.9,6.8,2.4,8.5c1.5,1.6,3.5,2.5,6.2,2.5c2,0,3.6-0.6,4.7-1.7c1.2-1.1,1.8-2.5,1.8-4.1c0-1-0.2-2-0.6-2.9
		c-0.7-1.6-2.3-3.7-4.6-6.5s-3.8-4.9-4.5-6.2c-0.7-1.4-1-2.8-1-4.2c0-2.5,0.9-4.7,2.8-6.4s4.2-2.6,7.1-2.6c0.8,0,1.6,0.1,2.3,0.2
		c0.4,0.1,1.2,0.4,2.6,0.9c1.4,0.5,2.3,0.8,2.7,0.8c1.1,0,2.1-0.6,2.8-1.9h1.2L942.4,1082.8L942.4,1082.8z"/>
</g>
<g>
	<path class="st2" d="M162.7,1201.2l0.9,13.1h-0.9c-1.2-3.9-2.8-6.7-5-8.5c-2.2-1.7-4.8-2.6-7.8-2.6c-2.6,0-4.9,0.7-6.9,2
		c-2.1,1.3-3.7,3.4-4.9,6.2c-1.2,2.8-1.8,6.3-1.8,10.6c0,3.5,0.6,6.5,1.7,9c1.1,2.5,2.8,4.5,5,5.9s4.8,2,7.6,2
		c2.5,0,4.7-0.5,6.6-1.6s4-3.2,6.3-6.3l0.8,0.6c-1.9,3.4-4.2,5.9-6.7,7.5s-5.6,2.4-9.1,2.4c-6.4,0-11.3-2.4-14.8-7.1
		c-2.6-3.5-3.9-7.7-3.9-12.4c0-3.8,0.9-7.3,2.6-10.5c1.7-3.2,4.1-5.7,7.1-7.5s6.3-2.7,9.9-2.7c2.8,0,5.5,0.7,8.2,2
		c0.8,0.4,1.4,0.6,1.7,0.6c0.5,0,1-0.2,1.3-0.5c0.5-0.5,0.8-1.2,1-2.1L162.7,1201.2L162.7,1201.2z"/>
	<path class="st2" d="M182.9,1236.7c-2.6,2-4.3,3.2-5,3.6c-1,0.5-2.1,0.7-3.3,0.7c-1.8,0-3.3-0.6-4.4-1.8s-1.7-2.8-1.7-4.9
		c0-1.3,0.3-2.4,0.8-3.3c0.8-1.3,2.1-2.5,4-3.6s5.1-2.5,9.5-4.1v-1c0-2.6-0.4-4.3-1.2-5.3s-2-1.4-3.6-1.4c-1.2,0-2.1,0.3-2.8,0.9
		c-0.7,0.7-1.1,1.4-1.1,2.2l0.1,1.7c0,0.9-0.2,1.5-0.7,2c-0.4,0.5-1,0.7-1.7,0.7s-1.3-0.2-1.7-0.7s-0.7-1.2-0.7-2
		c0-1.6,0.8-3.1,2.5-4.5s4-2,7-2c2.3,0,4.2,0.4,5.7,1.2c1.1,0.6,1.9,1.5,2.5,2.7c0.3,0.8,0.5,2.5,0.5,5v8.8c0,2.5,0,4,0.1,4.5
		c0.1,0.6,0.3,0.9,0.5,1.1s0.5,0.3,0.8,0.3s0.6-0.1,0.8-0.2c0.4-0.2,1.2-0.9,2.3-2v1.6c-2.1,2.8-4.2,4.2-6.1,4.2
		c-0.9,0-1.6-0.3-2.2-0.9C183.2,1239.3,182.9,1238.2,182.9,1236.7z M182.9,1234.8v-9.9c-2.8,1.1-4.7,2-5.5,2.4
		c-1.5,0.8-2.5,1.7-3.2,2.6c-0.6,0.9-1,1.9-1,3c0,1.4,0.4,2.5,1.2,3.4s1.7,1.4,2.8,1.4C178.7,1237.7,180.6,1236.7,182.9,1234.8z"/>
	<path class="st2" d="M201.6,1213.7v5.8c2.2-3.9,4.4-5.8,6.7-5.8c1.1,0,1.9,0.3,2.6,0.9s1,1.4,1,2.2c0,0.8-0.2,1.4-0.7,1.9
		s-1.1,0.8-1.7,0.8c-0.7,0-1.4-0.3-2.2-1c-0.8-0.6-1.4-1-1.8-1c-0.4,0-0.7,0.2-1.1,0.6c-0.8,0.8-1.7,2-2.6,3.8v12.4
		c0,1.4,0.2,2.5,0.6,3.2c0.2,0.5,0.7,0.9,1.3,1.3c0.6,0.3,1.5,0.5,2.7,0.5v1h-13.3v-1c1.3,0,2.3-0.2,2.9-0.6c0.5-0.3,0.8-0.8,1-1.4
		c0.1-0.3,0.1-1.2,0.1-2.7v-10.1c0-3-0.1-4.8-0.2-5.4c-0.1-0.6-0.3-1-0.7-1.3c-0.3-0.3-0.7-0.4-1.2-0.4c-0.6,0-1.2,0.1-2,0.4l-0.3-1
		l7.8-3.2L201.6,1213.7L201.6,1213.7z"/>
	<path class="st2" d="M220.9,1213.7v5.8c2.2-3.9,4.4-5.8,6.7-5.8c1.1,0,1.9,0.3,2.6,0.9s1,1.4,1,2.2c0,0.8-0.2,1.4-0.7,1.9
		s-1.1,0.8-1.7,0.8s-1.4-0.3-2.2-1c-0.8-0.6-1.4-1-1.8-1c-0.4,0-0.7,0.2-1.1,0.6c-0.8,0.8-1.7,2-2.6,3.8v12.4c0,1.4,0.2,2.5,0.6,3.2
		c0.2,0.5,0.7,0.9,1.3,1.3c0.6,0.3,1.5,0.5,2.7,0.5v1h-13.3v-1c1.3,0,2.3-0.2,2.9-0.6c0.5-0.3,0.8-0.8,1-1.4
		c0.1-0.3,0.1-1.2,0.1-2.7v-10.1c0-3-0.1-4.8-0.2-5.4c-0.1-0.6-0.3-1-0.7-1.3c-0.3-0.3-0.7-0.4-1.2-0.4c-0.6,0-1.2,0.1-2,0.4l-0.3-1
		l7.8-3.2L220.9,1213.7L220.9,1213.7z"/>
	<path class="st2" d="M236.9,1224.3c0,3.9,0.9,6.9,2.8,9.1c1.9,2.2,4.1,3.3,6.6,3.3c1.7,0,3.2-0.5,4.4-1.4s2.3-2.5,3.1-4.8l0.9,0.6
		c-0.4,2.6-1.5,4.9-3.4,7.1s-4.3,3.2-7.2,3.2c-3.1,0-5.8-1.2-8-3.6s-3.3-5.7-3.3-9.8c0-4.4,1.1-7.9,3.4-10.4s5.1-3.7,8.6-3.7
		c2.9,0,5.3,1,7.2,2.9s2.8,4.5,2.8,7.7h-17.9L236.9,1224.3L236.9,1224.3z M236.9,1222.6h12c-0.1-1.7-0.3-2.8-0.6-3.5
		c-0.5-1.1-1.2-1.9-2.1-2.5s-1.9-0.9-2.9-0.9c-1.6,0-3,0.6-4.2,1.8S237.1,1220.5,236.9,1222.6z"/>
	<path class="st2" d="M265.9,1206v8.5h6v2h-6v16.8c0,1.7,0.2,2.8,0.7,3.4s1.1,0.9,1.8,0.9c0.6,0,1.2-0.2,1.8-0.6s1-1,1.4-1.7h1.1
		c-0.7,1.9-1.6,3.2-2.8,4.2s-2.4,1.4-3.7,1.4c-0.9,0-1.7-0.2-2.6-0.7s-1.4-1.2-1.8-2.1s-0.6-2.3-0.6-4.1v-17.4h-4.1v-0.9
		c1-0.4,2.1-1.1,3.2-2.1s2.1-2.2,2.9-3.5c0.4-0.7,1.1-2,1.8-3.9h0.9L265.9,1206L265.9,1206z"/>
	<path class="st2" d="M278.8,1224.3c0,3.9,0.9,6.9,2.8,9.1s4.1,3.3,6.6,3.3c1.7,0,3.2-0.5,4.4-1.4s2.3-2.5,3.1-4.8l0.9,0.6
		c-0.4,2.6-1.5,4.9-3.4,7.1s-4.3,3.2-7.2,3.2c-3.1,0-5.8-1.2-8-3.6s-3.3-5.7-3.3-9.8c0-4.4,1.1-7.9,3.4-10.4s5.1-3.7,8.6-3.7
		c2.9,0,5.3,1,7.2,2.9s2.8,4.5,2.8,7.7h-17.9V1224.3z M278.8,1222.6h12c-0.1-1.7-0.3-2.8-0.6-3.5c-0.5-1.1-1.2-1.9-2.1-2.5
		s-1.9-0.9-2.9-0.9c-1.6,0-3,0.6-4.2,1.8S279,1220.5,278.8,1222.6z"/>
	<path class="st2" d="M307.7,1213.7v5.8c2.2-3.9,4.4-5.8,6.7-5.8c1.1,0,1.9,0.3,2.6,0.9s1,1.4,1,2.2c0,0.8-0.2,1.4-0.7,1.9
		s-1.1,0.8-1.7,0.8s-1.4-0.3-2.2-1s-1.4-1-1.8-1s-0.7,0.2-1.1,0.6c-0.8,0.8-1.7,2-2.6,3.8v12.4c0,1.4,0.2,2.5,0.6,3.2
		c0.2,0.5,0.7,0.9,1.3,1.3s1.5,0.5,2.7,0.5v1H299v-1c1.3,0,2.3-0.2,2.9-0.6c0.5-0.3,0.8-0.8,1-1.4c0.1-0.3,0.1-1.2,0.1-2.7v-10.1
		c0-3-0.1-4.8-0.2-5.4s-0.3-1-0.7-1.3s-0.7-0.4-1.2-0.4c-0.6,0-1.2,0.1-2,0.4l-0.3-1l7.8-3.2L307.7,1213.7L307.7,1213.7z"/>
	<path class="st2" d="M334.1,1236.7c-2.6,2-4.3,3.2-5,3.6c-1,0.5-2.1,0.7-3.3,0.7c-1.8,0-3.3-0.6-4.4-1.8s-1.7-2.8-1.7-4.9
		c0-1.3,0.3-2.4,0.8-3.3c0.8-1.3,2.1-2.5,4-3.6s5.1-2.5,9.5-4.1v-1c0-2.6-0.4-4.3-1.2-5.3s-2-1.4-3.6-1.4c-1.2,0-2.1,0.3-2.8,0.9
		c-0.7,0.7-1.1,1.4-1.1,2.2l0.1,1.7c0,0.9-0.2,1.5-0.7,2s-1,0.7-1.7,0.7s-1.3-0.2-1.7-0.7s-0.7-1.2-0.7-2c0-1.6,0.8-3.1,2.5-4.5
		s4-2,7-2c2.3,0,4.2,0.4,5.7,1.2c1.1,0.6,1.9,1.5,2.5,2.7c0.3,0.8,0.5,2.5,0.5,5v8.8c0,2.5,0,4,0.1,4.5s0.3,0.9,0.5,1.1
		s0.5,0.3,0.8,0.3s0.6-0.1,0.8-0.2c0.4-0.2,1.2-0.9,2.3-2v1.6c-2.1,2.8-4.2,4.2-6.1,4.2c-0.9,0-1.6-0.3-2.2-0.9
		S334.1,1238.2,334.1,1236.7z M334.1,1234.8v-9.9c-2.8,1.1-4.7,2-5.5,2.4c-1.5,0.8-2.5,1.7-3.2,2.6s-1,1.9-1,3
		c0,1.4,0.4,2.5,1.2,3.4s1.7,1.4,2.8,1.4C329.9,1237.7,331.8,1236.7,334.1,1234.8z"/>
	<path class="st2" d="M392.8,1201.2l0.9,13.1h-0.9c-1.2-3.9-2.8-6.7-5-8.5s-4.8-2.6-7.8-2.6c-2.6,0-4.9,0.7-6.9,2s-3.7,3.4-4.9,6.2
		s-1.8,6.3-1.8,10.6c0,3.5,0.6,6.5,1.7,9s2.8,4.5,5,5.9s4.8,2,7.6,2c2.5,0,4.7-0.5,6.6-1.6s4-3.2,6.3-6.3l0.8,0.6
		c-1.9,3.4-4.2,5.9-6.7,7.5s-5.6,2.4-9.1,2.4c-6.4,0-11.3-2.4-14.8-7.1c-2.6-3.5-3.9-7.7-3.9-12.4c0-3.8,0.9-7.3,2.6-10.5
		s4.1-5.7,7.1-7.5s6.3-2.7,9.9-2.7c2.8,0,5.5,0.7,8.2,2c0.8,0.4,1.4,0.6,1.7,0.6c0.5,0,1-0.2,1.3-0.5c0.5-0.5,0.8-1.2,1-2.1
		L392.8,1201.2L392.8,1201.2z"/>
	<path class="st2" d="M422.5,1201.3v1.1c-2.5,0.2-4.5,0.7-6.1,1.5s-3.1,1.9-4.7,3.4s-2.8,3.2-3.8,5.1s-1.9,4.1-2.5,6.7
		c2.7-1.9,5.4-2.8,8.2-2.8c2.6,0,4.9,1.1,6.8,3.2s2.9,4.8,2.9,8.2c0,3.2-1,6.1-2.9,8.8c-2.3,3.2-5.4,4.8-9.3,4.8
		c-2.6,0-4.9-0.9-6.7-2.6c-3.6-3.4-5.4-7.7-5.4-13.1c0-3.4,0.7-6.7,2.1-9.8s3.3-5.8,5.9-8.2s5-4,7.3-4.8s4.5-1.2,6.5-1.2h1.7V1201.3
		z M404.9,1221.1c-0.3,2.6-0.5,4.6-0.5,6.2c0,1.8,0.3,3.8,1,5.9s1.7,3.8,3,5c1,0.9,2.1,1.3,3.5,1.3c1.6,0,3.1-0.8,4.4-2.3
		s1.9-3.8,1.9-6.6c0-3.2-0.6-6-1.9-8.4s-3.1-3.5-5.5-3.5c-0.7,0-1.5,0.2-2.3,0.5S406.5,1220.1,404.9,1221.1z"/>
	<path class="st2" d="M450.7,1202l-2.2,4.8h-11.6l-2.5,5.2c5,0.7,9,2.6,11.9,5.6c2.5,2.6,3.8,5.6,3.8,9.1c0,2-0.4,3.9-1.2,5.6
		s-1.9,3.2-3.1,4.4s-2.6,2.2-4.2,2.9c-2.2,1-4.4,1.5-6.7,1.5s-4-0.4-5-1.2s-1.6-1.6-1.6-2.6c0-0.5,0.2-1,0.7-1.4s1-0.6,1.6-0.6
		c0.5,0,0.9,0.1,1.3,0.2s1,0.5,1.9,1.2c1.4,1,2.9,1.4,4.3,1.4c2.2,0,4.1-0.8,5.8-2.5s2.5-3.7,2.5-6.1c0-2.3-0.7-4.5-2.2-6.5
		s-3.5-3.6-6.2-4.6c-2.1-0.9-4.9-1.4-8.4-1.5l7.3-14.9H450.7z"/>
	<path class="st2" d="M486.3,1219.2l14.1,14.1c2.3,2.3,4.3,3.9,5.9,4.7s3.3,1.3,4.9,1.4v1.1H493v-1.1c1.1,0,1.9-0.2,2.4-0.5
		s0.7-0.8,0.7-1.2c0-0.4-0.1-0.8-0.3-1.2s-0.8-1-1.8-2l-13.3-13.1v12.4c0,1.9,0.1,3.2,0.4,3.8c0.2,0.5,0.6,0.9,1.2,1.2
		c0.8,0.4,1.7,0.7,2.6,0.7h1.3v1.1h-16.4v-1.1h1.4c1.6,0,2.7-0.5,3.4-1.4c0.5-0.6,0.7-2.1,0.7-4.4v-24.8c0-1.9-0.1-3.2-0.4-3.9
		c-0.2-0.4-0.6-0.8-1.2-1.2c-0.8-0.5-1.7-0.7-2.6-0.7h-1.4v-1.1h16.4v1.1H485c-0.9,0-1.8,0.2-2.6,0.7c-0.6,0.3-1,0.8-1.2,1.4
		s-0.3,1.8-0.3,3.7v11.7c0.4-0.4,1.7-1.6,3.9-3.6c5.6-5.1,9-8.6,10.2-10.3c0.5-0.8,0.8-1.4,0.8-2c0-0.4-0.2-0.8-0.6-1.2
		s-1.1-0.5-2-0.5h-0.9v-1.1h14.1v1.1c-0.8,0-1.6,0.1-2.2,0.4s-1.5,0.6-2.5,1.2s-2.2,1.5-3.6,2.9c-0.4,0.4-2.3,2.3-5.8,5.8
		L486.3,1219.2z"/>
	<path class="st2" d="M520.3,1219.3c1.9-1.9,3-3,3.3-3.3c0.9-0.7,1.8-1.3,2.8-1.7s1.9-0.6,2.9-0.6c1.6,0,3,0.5,4.2,1.4
		s1.9,2.3,2.3,4.1c1.9-2.3,3.6-3.8,4.9-4.5s2.7-1.1,4.1-1.1c1.4,0,2.6,0.4,3.7,1.1s1.9,1.9,2.5,3.5c0.4,1.1,0.6,2.8,0.6,5.1v11.1
		c0,1.6,0.1,2.8,0.4,3.3c0.2,0.4,0.6,0.8,1.1,1.1s1.3,0.4,2.5,0.4v1h-12.8v-1h0.6c1.1,0,2-0.2,2.6-0.6c0.4-0.3,0.7-0.8,0.9-1.5
		c0.1-0.3,0.1-1.2,0.1-2.7v-11.1c0-2.1-0.2-3.6-0.7-4.5c-0.8-1.2-1.9-1.8-3.6-1.8c-1,0-2,0.3-3,0.8s-2.2,1.4-3.7,2.8l-0.1,0.3
		l0.1,1.2v12.3c0,1.8,0.1,2.9,0.3,3.3s0.6,0.8,1.1,1.1s1.5,0.4,2.8,0.4v1h-13.1v-1c1.4,0,2.4-0.2,3-0.5s0.9-0.8,1.1-1.5
		c0.1-0.3,0.1-1.3,0.1-2.8v-11.1c0-2.1-0.3-3.6-0.9-4.5c-0.8-1.2-2-1.8-3.5-1.8c-1,0-2,0.3-3,0.8c-1.6,0.8-2.8,1.8-3.7,2.8v13.9
		c0,1.7,0.1,2.8,0.4,3.3s0.6,0.9,1.1,1.1s1.4,0.4,2.8,0.4v1h-12.8v-1c1.2,0,2-0.1,2.5-0.4s0.8-0.7,1.1-1.2s0.4-1.6,0.4-3.3v-9.9
		c0-2.9-0.1-4.7-0.3-5.5c-0.1-0.6-0.3-1.1-0.6-1.3s-0.7-0.4-1.2-0.4s-1.2,0.1-1.9,0.4l-0.4-1l7.8-3.2h1.2L520.3,1219.3L520.3,1219.3
		z"/>
	<path class="st2" d="M576.2,1202h20.6v1.1l-12.8,38.1h-3.2l11.5-34.6h-10.5c-2.1,0-3.7,0.2-4.6,0.7c-1.6,0.9-2.8,2.2-3.8,4
		l-0.8-0.3L576.2,1202z"/>
	<path class="st2" d="M655,1202v1.1c-1.3,0.3-2.4,0.7-3.1,1.3c-1,0.9-1.9,2.4-2.7,4.3l-13.4,32.7h-1l-14.4-33.1
		c-0.8-1.7-1.3-2.8-1.6-3.1c-0.5-0.6-1-1-1.7-1.4s-1.6-0.5-2.8-0.6v-1.1H630v1.1c-1.8,0.2-2.9,0.5-3.4,0.9s-0.8,1-0.8,1.7
		c0,1,0.4,2.4,1.3,4.4l9.7,22.5l9.1-22.2c0.9-2.2,1.3-3.7,1.3-4.6c0-0.5-0.3-1.1-0.8-1.6s-1.5-0.8-2.8-1c-0.1,0-0.3-0.1-0.5-0.1
		v-1.1H655V1202z"/>
	<path class="st2" d="M661.9,1224.3c0,3.9,0.9,6.9,2.8,9.1c1.9,2.2,4.1,3.3,6.6,3.3c1.7,0,3.2-0.5,4.4-1.4s2.3-2.5,3.1-4.8l0.9,0.6
		c-0.4,2.6-1.5,4.9-3.4,7.1s-4.3,3.2-7.2,3.2c-3.1,0-5.8-1.2-8-3.6s-3.3-5.7-3.3-9.8c0-4.4,1.1-7.9,3.4-10.4s5.1-3.7,8.6-3.7
		c2.9,0,5.3,1,7.2,2.9s2.8,4.5,2.8,7.7h-17.9L661.9,1224.3L661.9,1224.3z M661.9,1222.6h12c-0.1-1.7-0.3-2.8-0.6-3.5
		c-0.5-1.1-1.2-1.9-2.1-2.5s-1.9-0.9-2.9-0.9c-1.6,0-3,0.6-4.2,1.8S662.1,1220.5,661.9,1222.6z"/>
	<path class="st2" d="M705.3,1230.6c-0.7,3.4-2.1,6.1-4.1,7.9s-4.3,2.8-6.8,2.8c-3,0-5.5-1.2-7.7-3.7s-3.3-5.8-3.3-10
		c0-4.1,1.2-7.4,3.6-9.9s5.3-3.8,8.7-3.8c2.6,0,4.7,0.7,6.3,2s2.5,2.7,2.5,4.2c0,0.7-0.2,1.3-0.7,1.7s-1.1,0.7-1.9,0.7
		c-1.1,0-1.9-0.4-2.5-1.1c-0.3-0.4-0.5-1.2-0.6-2.3s-0.5-2-1.1-2.5c-0.7-0.6-1.6-0.8-2.7-0.8c-1.9,0-3.4,0.7-4.6,2.1
		c-1.5,1.9-2.3,4.3-2.3,7.3c0,3.1,0.8,5.8,2.3,8.2s3.6,3.6,6.2,3.6c1.9,0,3.5-0.6,5-1.9c1.1-0.9,2.1-2.4,3-4.7L705.3,1230.6z"/>
	<path class="st2" d="M717.9,1213.7v20.8c0,1.6,0.1,2.7,0.4,3.3s0.6,0.9,1,1.2s1.3,0.4,2.5,0.4v1h-12.6v-1c1.3,0,2.1-0.1,2.5-0.4
		s0.8-0.7,1-1.2s0.4-1.7,0.4-3.3v-10c0-2.8-0.1-4.6-0.2-5.4c-0.1-0.6-0.4-1-0.6-1.3s-0.7-0.4-1.2-0.4s-1.1,0.1-1.9,0.4l-0.4-1
		l7.8-3.2L717.9,1213.7L717.9,1213.7z M715.6,1200.2c0.8,0,1.5,0.3,2,0.8s0.8,1.2,0.8,2s-0.3,1.4-0.8,2s-1.2,0.9-2,0.9
		s-1.5-0.3-2-0.9s-0.8-1.2-0.8-2s0.3-1.5,0.8-2S714.8,1200.2,715.6,1200.2z"/>
	<path class="st2" d="M732.6,1219.2c3-3.7,6-5.5,8.7-5.5c1.4,0,2.6,0.4,3.6,1.1s1.8,1.9,2.4,3.5c0.4,1.1,0.6,2.9,0.6,5.2v11
		c0,1.6,0.1,2.8,0.4,3.3c0.2,0.5,0.5,0.8,1,1.1s1.3,0.4,2.5,0.4v1H739v-1h0.6c1.2,0,2-0.2,2.5-0.5s0.8-0.9,1-1.6
		c0.1-0.3,0.1-1.2,0.1-2.7v-10.6c0-2.3-0.3-4-0.9-5.1s-1.7-1.6-3.1-1.6c-2.2,0-4.5,1.2-6.7,3.7v13.6c0,1.8,0.1,2.8,0.3,3.3
		c0.3,0.5,0.7,0.9,1.1,1.2s1.4,0.4,2.8,0.4v1H724v-1h0.6c1.3,0,2.2-0.3,2.7-1s0.7-2,0.7-3.8v-9.6c0-3.1-0.1-5-0.2-5.7
		s-0.4-1.1-0.7-1.4s-0.7-0.4-1.2-0.4s-1.2,0.1-1.9,0.4l-0.4-1l7.8-3.2h1.2L732.6,1219.2L732.6,1219.2z"/>
	<path class="st2" d="M772.3,1237.5c-1.3,1.3-2.5,2.3-3.7,2.8s-2.5,0.9-3.9,0.9c-2.8,0-5.3-1.2-7.4-3.6s-3.2-5.4-3.2-9.1
		s1.2-7.1,3.5-10.2s5.3-4.6,9-4.6c2.3,0,4.2,0.7,5.7,2.2v-4.8c0-3-0.1-4.8-0.2-5.4s-0.4-1.1-0.7-1.4s-0.7-0.4-1.1-0.4
		c-0.5,0-1.1,0.2-1.9,0.5l-0.4-1l7.7-3.2h1.3v30c0,3,0.1,4.9,0.2,5.6s0.4,1.1,0.7,1.4s0.7,0.4,1.1,0.4c0.5,0,1.2-0.2,2-0.5l0.3,1
		l-7.7,3.2h-1.3L772.3,1237.5L772.3,1237.5z M772.3,1235.5v-13.4c-0.1-1.3-0.4-2.5-1-3.5s-1.3-1.9-2.2-2.4s-1.8-0.8-2.7-0.8
		c-1.7,0-3.2,0.8-4.5,2.2c-1.7,1.9-2.6,4.8-2.6,8.6c0,3.8,0.8,6.7,2.5,8.8s3.5,3,5.6,3C769.1,1238.1,770.8,1237.2,772.3,1235.5z"/>
	<path class="st2" d="M797.7,1236.7c-2.6,2-4.3,3.2-5,3.6c-1,0.5-2.1,0.7-3.3,0.7c-1.8,0-3.3-0.6-4.4-1.8s-1.7-2.8-1.7-4.9
		c0-1.3,0.3-2.4,0.8-3.3c0.8-1.3,2.1-2.5,4-3.6s5.1-2.5,9.5-4.1v-1c0-2.6-0.4-4.3-1.2-5.3s-2-1.4-3.6-1.4c-1.2,0-2.1,0.3-2.8,0.9
		c-0.7,0.7-1.1,1.4-1.1,2.2l0.1,1.7c0,0.9-0.2,1.5-0.7,2s-1,0.7-1.7,0.7s-1.3-0.2-1.7-0.7s-0.7-1.2-0.7-2c0-1.6,0.8-3.1,2.5-4.5
		s4-2,7-2c2.3,0,4.2,0.4,5.7,1.2c1.1,0.6,1.9,1.5,2.5,2.7c0.3,0.8,0.5,2.5,0.5,5v8.8c0,2.5,0,4,0.1,4.5s0.3,0.9,0.5,1.1
		s0.5,0.3,0.8,0.3s0.6-0.1,0.8-0.2c0.4-0.2,1.2-0.9,2.3-2v1.6c-2.1,2.8-4.2,4.2-6.1,4.2c-0.9,0-1.6-0.3-2.2-0.9
		S797.7,1238.2,797.7,1236.7z M797.7,1234.8v-9.9c-2.8,1.1-4.7,2-5.5,2.4c-1.5,0.8-2.5,1.7-3.2,2.6s-1,1.9-1,3
		c0,1.4,0.4,2.5,1.2,3.4s1.7,1.4,2.8,1.4C793.5,1237.7,795.4,1236.7,797.7,1234.8z"/>
	<path class="st2" d="M816.3,1213.7v5.8c2.2-3.9,4.4-5.8,6.7-5.8c1.1,0,1.9,0.3,2.6,0.9s1,1.4,1,2.2c0,0.8-0.2,1.4-0.7,1.9
		s-1.1,0.8-1.7,0.8s-1.4-0.3-2.2-1s-1.4-1-1.8-1c-0.4,0-0.7,0.2-1.1,0.6c-0.8,0.8-1.7,2-2.6,3.8v12.4c0,1.4,0.2,2.5,0.6,3.2
		c0.2,0.5,0.7,0.9,1.3,1.3s1.5,0.5,2.7,0.5v1h-13.3v-1c1.3,0,2.3-0.2,2.9-0.6c0.5-0.3,0.8-0.8,1-1.4c0.1-0.3,0.1-1.2,0.1-2.7v-10.1
		c0-3-0.1-4.8-0.2-5.4s-0.3-1-0.7-1.3s-0.7-0.4-1.2-0.4c-0.6,0-1.2,0.1-2,0.4l-0.3-1l7.8-3.2L816.3,1213.7L816.3,1213.7z"/>
	<path class="st2" d="M837,1213.7v20.8c0,1.6,0.1,2.7,0.4,3.3s0.6,0.9,1,1.2s1.3,0.4,2.5,0.4v1h-12.6v-1c1.3,0,2.1-0.1,2.5-0.4
		s0.8-0.7,1-1.2s0.4-1.7,0.4-3.3v-10c0-2.8-0.1-4.6-0.2-5.4c-0.1-0.6-0.4-1-0.6-1.3s-0.7-0.4-1.2-0.4s-1.1,0.1-1.9,0.4l-0.4-1
		l7.8-3.2L837,1213.7L837,1213.7z M834.6,1200.2c0.8,0,1.5,0.3,2,0.8s0.8,1.2,0.8,2s-0.3,1.4-0.8,2s-1.2,0.9-2,0.9s-1.5-0.3-2-0.9
		s-0.8-1.2-0.8-2s0.3-1.5,0.8-2S833.8,1200.2,834.6,1200.2z"/>
	<path class="st2" d="M856.8,1213.7c3.9,0,7.1,1.5,9.5,4.5c2,2.6,3,5.5,3,8.8c0,2.3-0.6,4.7-1.7,7s-2.6,4.2-4.6,5.4
		s-4.1,1.8-6.5,1.8c-3.9,0-7-1.6-9.3-4.7c-1.9-2.6-2.9-5.6-2.9-8.8c0-2.4,0.6-4.8,1.8-7.1s2.7-4.1,4.6-5.2
		S854.7,1213.7,856.8,1213.7z M855.9,1215.6c-1,0-2,0.3-3,0.9s-1.8,1.6-2.5,3.1s-0.9,3.4-0.9,5.7c0,3.8,0.8,7,2.2,9.8
		s3.5,4.1,5.9,4.1c1.8,0,3.3-0.8,4.5-2.2s1.8-4.1,1.8-7.8c0-4.6-1-8.2-3-10.9C859.7,1216.5,858,1215.6,855.9,1215.6z"/>
	<path class="st2" d="M905.9,1237.5c-1.3,1.3-2.5,2.3-3.7,2.8s-2.5,0.9-3.9,0.9c-2.8,0-5.3-1.2-7.4-3.6s-3.2-5.4-3.2-9.1
		s1.2-7.1,3.5-10.2s5.3-4.6,9-4.6c2.3,0,4.2,0.7,5.7,2.2v-4.8c0-3-0.1-4.8-0.2-5.4s-0.4-1.1-0.7-1.4s-0.7-0.4-1.1-0.4
		c-0.5,0-1.1,0.2-1.9,0.5l-0.4-1l7.7-3.2h1.3v30c0,3,0.1,4.9,0.2,5.6s0.4,1.1,0.7,1.4s0.7,0.4,1.1,0.4c0.5,0,1.2-0.2,2-0.5l0.3,1
		l-7.7,3.2h-1.3L905.9,1237.5L905.9,1237.5z M905.9,1235.5v-13.4c-0.1-1.3-0.4-2.5-1-3.5s-1.3-1.9-2.2-2.4s-1.8-0.8-2.7-0.8
		c-1.7,0-3.2,0.8-4.5,2.2c-1.7,1.9-2.6,4.8-2.6,8.6c0,3.8,0.8,6.7,2.5,8.8s3.5,3,5.6,3C902.7,1238.1,904.3,1237.2,905.9,1235.5z"/>
	<path class="st2" d="M920.9,1224.3c0,3.9,0.9,6.9,2.8,9.1c1.9,2.2,4.1,3.3,6.6,3.3c1.7,0,3.2-0.5,4.4-1.4s2.3-2.5,3.1-4.8l0.9,0.6
		c-0.4,2.6-1.5,4.9-3.4,7.1s-4.3,3.2-7.2,3.2c-3.1,0-5.8-1.2-8-3.6s-3.3-5.7-3.3-9.8c0-4.4,1.1-7.9,3.4-10.4s5.1-3.7,8.6-3.7
		c2.9,0,5.3,1,7.2,2.9s2.8,4.5,2.8,7.7h-17.9L920.9,1224.3L920.9,1224.3z M920.9,1222.6h12c-0.1-1.7-0.3-2.8-0.6-3.5
		c-0.5-1.1-1.2-1.9-2.1-2.5s-1.9-0.9-2.9-0.9c-1.6,0-3,0.6-4.2,1.8S921.1,1220.5,920.9,1222.6z"/>
	<path class="st2" d="M981.6,1201.2v13.3h-1.1c-0.3-2.6-0.9-4.6-1.8-6.1s-2.1-2.7-3.8-3.6s-3.3-1.3-5-1.3c-1.9,0-3.6,0.6-4.9,1.8
		s-1.9,2.6-1.9,4.1c0,1.2,0.4,2.2,1.2,3.2c1.2,1.4,3.9,3.3,8.3,5.7c3.6,1.9,6,3.4,7.3,4.4s2.3,2.2,3,3.6s1.1,2.9,1.1,4.4
		c0,2.9-1.1,5.4-3.4,7.5s-5.1,3.2-8.7,3.2c-1.1,0-2.2-0.1-3.2-0.2c-0.6-0.1-1.8-0.4-3.6-1s-3-0.9-3.5-0.9s-0.8,0.1-1.1,0.4
		s-0.5,0.9-0.6,1.8h-1v-13.1h1c0.5,2.7,1.2,4.8,2,6.2s2.1,2.5,3.8,3.4s3.6,1.4,5.6,1.4c2.3,0,4.2-0.6,5.6-1.9s2.1-2.7,2.1-4.4
		c0-0.9-0.3-1.9-0.8-2.8s-1.3-1.9-2.4-2.7c-0.7-0.6-2.7-1.8-6-3.6s-5.6-3.3-7-4.4s-2.4-2.3-3.2-3.6s-1.1-2.8-1.1-4.3
		c0-2.8,1.1-5.1,3.2-7.1s4.8-3,8.1-3c2,0,4.2,0.5,6.5,1.5c1.1,0.5,1.8,0.7,2.2,0.7c0.5,0,0.9-0.1,1.2-0.4s0.6-0.9,0.8-1.8h1.1
		L981.6,1201.2L981.6,1201.2z"/>
	<path class="st2" d="M1001.7,1213.7c3.9,0,7.1,1.5,9.5,4.5c2,2.6,3,5.5,3,8.8c0,2.3-0.6,4.7-1.7,7s-2.6,4.2-4.6,5.4
		s-4.1,1.8-6.5,1.8c-3.9,0-7-1.6-9.3-4.7c-1.9-2.6-2.9-5.6-2.9-8.8c0-2.4,0.6-4.8,1.8-7.1s2.7-4.1,4.6-5.2
		S999.6,1213.7,1001.7,1213.7z M1000.8,1215.6c-1,0-2,0.3-3,0.9s-1.8,1.6-2.5,3.1s-0.9,3.4-0.9,5.7c0,3.8,0.8,7,2.2,9.8
		s3.5,4.1,5.9,4.1c1.8,0,3.3-0.8,4.5-2.2s1.8-4.1,1.8-7.8c0-4.6-1-8.2-3-10.9C1004.6,1216.5,1002.9,1215.6,1000.8,1215.6z"/>
	<path class="st2" d="M1026.9,1200.2v34.4c0,1.6,0.1,2.7,0.4,3.3s0.6,0.9,1.1,1.2s1.4,0.4,2.7,0.4v1h-12.7v-1c1.2,0,2-0.1,2.4-0.4
		s0.8-0.7,1-1.2s0.4-1.7,0.4-3.3V1211c0-2.9-0.1-4.7-0.2-5.4s-0.3-1.1-0.6-1.4s-0.7-0.4-1.1-0.4c-0.5,0-1.1,0.2-1.9,0.5l-0.5-1
		l7.7-3.2L1026.9,1200.2L1026.9,1200.2z"/>
	<path class="st2" d="M1043.1,1213.7v20.8c0,1.6,0.1,2.7,0.4,3.3s0.6,0.9,1,1.2s1.3,0.4,2.5,0.4v1h-12.6v-1c1.3,0,2.1-0.1,2.5-0.4
		s0.8-0.7,1-1.2s0.4-1.7,0.4-3.3v-10c0-2.8-0.1-4.6-0.2-5.4c-0.1-0.6-0.4-1-0.6-1.3s-0.7-0.4-1.2-0.4s-1.1,0.1-1.9,0.4l-0.4-1
		l7.8-3.2L1043.1,1213.7L1043.1,1213.7z M1040.7,1200.2c0.8,0,1.5,0.3,2,0.8s0.8,1.2,0.8,2s-0.3,1.4-0.8,2s-1.2,0.9-2,0.9
		s-1.5-0.3-2-0.9s-0.8-1.2-0.8-2s0.3-1.5,0.8-2S1039.9,1200.2,1040.7,1200.2z"/>
	<path class="st2" d="M1072.9,1214.5v15.7c0,3,0.1,4.8,0.2,5.5s0.4,1.1,0.7,1.4s0.7,0.4,1.1,0.4c0.6,0,1.3-0.2,2-0.5l0.4,1l-7.8,3.2
		h-1.3v-5.5c-2.2,2.4-3.9,3.9-5.1,4.6s-2.4,0.9-3.7,0.9c-1.5,0-2.7-0.4-3.8-1.3s-1.8-1.9-2.2-3.3s-0.6-3.2-0.6-5.6v-11.6
		c0-1.2-0.1-2.1-0.4-2.5s-0.6-0.8-1.2-1.1s-1.5-0.4-2.8-0.4v-1h9.1v17.3c0,2.4,0.4,4,1.3,4.8s1.9,1.1,3,1.1c0.8,0,1.7-0.3,2.8-0.8
		s2.2-1.5,3.7-2.9v-14.7c0-1.5-0.3-2.5-0.8-3s-1.7-0.8-3.3-0.8v-1h8.7L1072.9,1214.5L1072.9,1214.5z"/>
	<path class="st2" d="M1095.9,1213.7v8.8h-0.9c-0.7-2.8-1.7-4.7-2.8-5.7s-2.6-1.5-4.3-1.5c-1.3,0-2.4,0.4-3.2,1.1s-1.2,1.5-1.2,2.3
		c0,1.1,0.3,2,0.9,2.7c0.6,0.8,1.8,1.6,3.6,2.5l4.1,2c3.8,1.9,5.8,4.3,5.8,7.4c0,2.3-0.9,4.2-2.7,5.7s-3.8,2.2-6,2.2
		c-1.6,0-3.4-0.3-5.4-0.9c-0.6-0.2-1.1-0.3-1.5-0.3s-0.8,0.2-1,0.7h-0.9v-9.2h0.9c0.5,2.6,1.6,4.6,3,6s3.2,2,5,2
		c1.3,0,2.3-0.4,3.2-1.1s1.2-1.7,1.2-2.8c0-1.3-0.5-2.4-1.4-3.3s-2.7-2-5.5-3.4s-4.5-2.6-5.4-3.7c-0.8-1.1-1.3-2.4-1.3-4.1
		c0-2.1,0.7-3.9,2.2-5.3s3.3-2.1,5.7-2.1c1,0,2.3,0.2,3.7,0.6c1,0.3,1.6,0.4,1.9,0.4s0.5-0.1,0.7-0.2s0.4-0.4,0.6-0.9h1
		L1095.9,1213.7L1095.9,1213.7z"/>
	<path class="st2" d="M1103.1,1250.1v-1.3c1.9-0.6,3.4-1.6,4.5-3s1.6-2.8,1.6-4.3c0-0.4-0.1-0.7-0.2-0.9c-0.1-0.2-0.2-0.2-0.4-0.2
		c-0.2,0-0.7,0.2-1.4,0.6c-0.3,0.2-0.7,0.3-1.1,0.3c-0.9,0-1.7-0.3-2.2-0.8s-0.8-1.3-0.8-2.3c0-0.9,0.4-1.7,1.1-2.4s1.6-1,2.6-1
		c1.3,0,2.4,0.5,3.3,1.6s1.4,2.5,1.4,4.3c0,1.9-0.7,3.8-2,5.4S1106,1249.1,1103.1,1250.1z"/>
	<path class="st2" d="M176.7,1287.6v13.3h-1.1c-0.3-2.6-0.9-4.6-1.8-6.1s-2.1-2.7-3.8-3.6c-1.6-0.9-3.3-1.3-5-1.3
		c-1.9,0-3.6,0.6-4.9,1.8c-1.3,1.2-1.9,2.6-1.9,4.1c0,1.2,0.4,2.2,1.2,3.2c1.2,1.4,3.9,3.3,8.3,5.7c3.6,1.9,6,3.4,7.3,4.4
		s2.3,2.2,3,3.6s1.1,2.9,1.1,4.4c0,2.9-1.1,5.4-3.4,7.5s-5.1,3.2-8.7,3.2c-1.1,0-2.2-0.1-3.2-0.2c-0.6-0.1-1.8-0.4-3.6-1
		s-3-0.9-3.5-0.9s-0.8,0.1-1.1,0.4s-0.5,0.9-0.6,1.8h-1v-13.1h1c0.5,2.7,1.2,4.8,2,6.2c0.8,1.4,2.1,2.5,3.8,3.4s3.6,1.4,5.6,1.4
		c2.3,0,4.2-0.6,5.6-1.9s2.1-2.7,2.1-4.4c0-0.9-0.3-1.9-0.8-2.8c-0.5-1-1.3-1.9-2.4-2.7c-0.7-0.6-2.7-1.8-6-3.6
		c-3.3-1.8-5.6-3.3-7-4.4s-2.4-2.3-3.2-3.6c-0.7-1.3-1.1-2.8-1.1-4.3c0-2.8,1.1-5.1,3.2-7.1s4.8-3,8.1-3c2,0,4.2,0.5,6.5,1.5
		c1.1,0.5,1.8,0.7,2.2,0.7c0.5,0,0.9-0.1,1.2-0.4s0.6-0.9,0.8-1.8h1.1L176.7,1287.6L176.7,1287.6z"/>
	<path class="st2" d="M198.6,1286.6l-13.9,41.1h-2.3l13.9-41.1H198.6z"/>
	<path class="st2" d="M197.7,1288.4h10.4l23.4,28.8v-22.1c0-2.4-0.3-3.8-0.8-4.4c-0.7-0.8-1.8-1.2-3.3-1.2h-1.3v-1.1h13.4v1.1h-1.3
		c-1.6,0-2.8,0.5-3.5,1.5c-0.4,0.6-0.6,2-0.6,4.1v32.3h-1l-25.3-30.9v23.6c0,2.3,0.3,3.8,0.8,4.4c0.7,0.8,1.8,1.2,3.3,1.2h1.4v1.1
		h-13.4v-1.1h1.3c1.7,0,2.8-0.5,3.5-1.5c0.4-0.6,0.6-2,0.6-4.1v-26.7c-1.1-1.3-1.9-2.2-2.5-2.6s-1.4-0.8-2.5-1.2
		c-0.5-0.2-1.4-0.2-2.5-0.2L197.7,1288.4L197.7,1288.4z"/>
	<path class="st2" d="M243.5,1336.5v-1.3c1.9-0.6,3.4-1.6,4.5-3s1.6-2.8,1.6-4.3c0-0.4-0.1-0.7-0.2-0.9c-0.1-0.2-0.2-0.2-0.4-0.2
		s-0.7,0.2-1.4,0.6c-0.3,0.2-0.7,0.3-1.1,0.3c-0.9,0-1.7-0.3-2.2-0.8c-0.5-0.6-0.8-1.3-0.8-2.3c0-0.9,0.4-1.7,1.1-2.4s1.6-1,2.6-1
		c1.3,0,2.4,0.5,3.3,1.6s1.4,2.5,1.4,4.3c0,1.9-0.7,3.8-2,5.4S246.4,1335.5,243.5,1336.5z"/>
	<path class="st2" d="M276.1,1292.2l9.4-4.5h0.9v32.4c0,2.1,0.1,3.5,0.3,4s0.6,0.9,1.1,1.2s1.7,0.5,3.4,0.5v1.1h-14.4v-1.1
		c1.8,0,3-0.2,3.5-0.5s0.9-0.7,1.1-1.1s0.3-1.8,0.3-4.1v-20.7c0-2.8-0.1-4.6-0.3-5.4c-0.1-0.6-0.4-1-0.7-1.3s-0.8-0.4-1.3-0.4
		c-0.7,0-1.7,0.3-2.9,0.9L276.1,1292.2z"/>
	<path class="st2" d="M304.1,1288.4h20.6v1.1l-12.8,38.1h-3.2l11.5-34.6h-10.5c-2.1,0-3.7,0.2-4.6,0.7c-1.6,0.9-2.8,2.2-3.8,4
		l-0.8-0.3L304.1,1288.4z"/>
	<path class="st2" d="M353.8,1319.4l-2.7,7.4h-22.6v-1.1c6.7-6.1,11.4-11,14.1-14.9s4.1-7.4,4.1-10.5c0-2.4-0.7-4.4-2.2-6
		s-3.3-2.4-5.3-2.4c-1.9,0-3.6,0.6-5.1,1.7s-2.6,2.7-3.3,4.9h-1.1c0.5-3.5,1.7-6.2,3.6-8s4.4-2.8,7.3-2.8c3.1,0,5.7,1,7.8,3
		s3.1,4.4,3.1,7c0,1.9-0.5,3.9-1.4,5.8c-1.4,3.1-3.6,6.3-6.8,9.7c-4.7,5.1-7.6,8.2-8.8,9.3h10c2,0,3.5-0.1,4.3-0.2s1.6-0.4,2.2-0.9
		s1.2-1.1,1.7-2H353.8z"/>
	<path class="st2" d="M383.2,1312.7v4h-5.1v10.1h-4.7v-10.1h-16.2v-3.6l17.8-25.4h3.1v25H383.2z M373.4,1312.7v-19l-13.5,19H373.4z"
		/>
	<path class="st2" d="M411.2,1287.7v1.1c-2.5,0.2-4.5,0.7-6.1,1.5s-3.1,1.9-4.7,3.4s-2.8,3.2-3.8,5.1s-1.9,4.1-2.5,6.7
		c2.7-1.9,5.4-2.8,8.2-2.8c2.6,0,4.9,1.1,6.8,3.2s2.9,4.8,2.9,8.2c0,3.2-1,6.1-2.9,8.8c-2.3,3.2-5.4,4.8-9.3,4.8
		c-2.6,0-4.9-0.9-6.7-2.6c-3.6-3.4-5.4-7.7-5.4-13.1c0-3.4,0.7-6.7,2.1-9.8s3.3-5.8,5.9-8.2s5-4,7.3-4.8s4.5-1.2,6.5-1.2h1.7V1287.7
		z M393.6,1307.5c-0.3,2.6-0.5,4.6-0.5,6.2c0,1.8,0.3,3.8,1,5.9s1.7,3.8,3,5c1,0.9,2.1,1.3,3.5,1.3c1.6,0,3.1-0.8,4.4-2.3
		s1.9-3.8,1.9-6.6c0-3.2-0.6-6-1.9-8.4s-3.1-3.5-5.5-3.5c-0.7,0-1.5,0.2-2.3,0.5S395.2,1306.5,393.6,1307.5z"/>
	<path class="st2" d="M417.3,1336.5v-1.3c1.9-0.6,3.4-1.6,4.5-3s1.6-2.8,1.6-4.3c0-0.4-0.1-0.7-0.2-0.9c-0.1-0.2-0.2-0.2-0.4-0.2
		c-0.2,0-0.7,0.2-1.4,0.6c-0.3,0.2-0.7,0.3-1.1,0.3c-0.9,0-1.7-0.3-2.2-0.8s-0.8-1.3-0.8-2.3c0-0.9,0.4-1.7,1.1-2.4s1.6-1,2.6-1
		c1.3,0,2.4,0.5,3.3,1.6s1.4,2.5,1.4,4.3c0,1.9-0.7,3.8-2,5.4S420.2,1335.5,417.3,1336.5z"/>
	<path class="st2" d="M919.3,1336.5v-1.3c1.9-0.6,3.4-1.6,4.5-3s1.6-2.8,1.6-4.3c0-0.4-0.1-0.7-0.2-0.9c-0.1-0.2-0.2-0.2-0.4-0.2
		s-0.7,0.2-1.4,0.6c-0.3,0.2-0.7,0.3-1.1,0.3c-0.9,0-1.7-0.3-2.2-0.8s-0.8-1.3-0.8-2.3c0-0.9,0.4-1.7,1.1-2.4c0.7-0.7,1.6-1,2.6-1
		c1.3,0,2.4,0.5,3.3,1.6s1.4,2.5,1.4,4.3c0,1.9-0.7,3.8-2,5.4C924.4,1334.1,922.2,1335.5,919.3,1336.5z"/>
	<path class="st2" d="M469.7,1287.6v13.3h-1.1c-0.3-2.6-0.9-4.6-1.8-6.1s-2.1-2.7-3.8-3.6s-3.3-1.3-5-1.3c-1.9,0-3.6,0.6-4.9,1.8
		s-1.9,2.6-1.9,4.1c0,1.2,0.4,2.2,1.2,3.2c1.2,1.4,3.9,3.3,8.3,5.7c3.6,1.9,6,3.4,7.3,4.4s2.3,2.2,3,3.6s1.1,2.9,1.1,4.4
		c0,2.9-1.1,5.4-3.4,7.5s-5.1,3.2-8.7,3.2c-1.1,0-2.2-0.1-3.2-0.2c-0.6-0.1-1.8-0.4-3.6-1s-3-0.9-3.5-0.9s-0.8,0.1-1.1,0.4
		s-0.5,0.9-0.6,1.8h-1v-13.1h1c0.5,2.7,1.2,4.8,2,6.2s2.1,2.5,3.8,3.4s3.6,1.4,5.6,1.4c2.3,0,4.2-0.6,5.6-1.9s2.1-2.7,2.1-4.4
		c0-0.9-0.3-1.9-0.8-2.8s-1.3-1.9-2.4-2.7c-0.7-0.6-2.7-1.8-6-3.6s-5.6-3.3-7-4.4s-2.4-2.3-3.2-3.6s-1.1-2.8-1.1-4.3
		c0-2.8,1.1-5.1,3.2-7.1s4.8-3,8.1-3c2,0,4.2,0.5,6.5,1.5c1.1,0.5,1.8,0.7,2.2,0.7c0.5,0,0.9-0.1,1.2-0.4s0.6-0.9,0.8-1.8h1.1
		L469.7,1287.6L469.7,1287.6z"/>
	<path class="st2" d="M491.9,1323.1c-2.6,2-4.3,3.2-5,3.6c-1,0.5-2.1,0.7-3.3,0.7c-1.8,0-3.3-0.6-4.4-1.8s-1.7-2.8-1.7-4.9
		c0-1.3,0.3-2.4,0.8-3.3c0.8-1.3,2.1-2.5,4-3.6s5.1-2.5,9.5-4.1v-1c0-2.6-0.4-4.3-1.2-5.3s-2-1.4-3.6-1.4c-1.2,0-2.1,0.3-2.8,0.9
		c-0.7,0.7-1.1,1.4-1.1,2.2l0.1,1.7c0,0.9-0.2,1.5-0.7,2s-1,0.7-1.7,0.7s-1.3-0.2-1.7-0.7s-0.7-1.2-0.7-2c0-1.6,0.8-3.1,2.5-4.5
		s4-2,7-2c2.3,0,4.2,0.4,5.7,1.2c1.1,0.6,1.9,1.5,2.5,2.7c0.3,0.8,0.5,2.5,0.5,5v8.8c0,2.5,0,4,0.1,4.5s0.3,0.9,0.5,1.1
		s0.5,0.3,0.8,0.3s0.6-0.1,0.8-0.2c0.4-0.2,1.2-0.9,2.3-2v1.6c-2.1,2.8-4.2,4.2-6.1,4.2c-0.9,0-1.6-0.3-2.2-0.9
		S491.9,1324.6,491.9,1323.1z M491.9,1321.2v-9.9c-2.8,1.1-4.7,2-5.5,2.4c-1.5,0.8-2.5,1.7-3.2,2.6s-1,1.9-1,3
		c0,1.4,0.4,2.5,1.2,3.4s1.7,1.4,2.8,1.4C487.6,1324.1,489.5,1323.1,491.9,1321.2z"/>
	<path class="st2" d="M510.5,1305.6c3-3.7,6-5.5,8.7-5.5c1.4,0,2.6,0.4,3.6,1.1s1.8,1.9,2.4,3.5c0.4,1.1,0.6,2.9,0.6,5.2v11
		c0,1.6,0.1,2.8,0.4,3.3c0.2,0.5,0.5,0.8,1,1.1s1.3,0.4,2.5,0.4v1H517v-1h0.6c1.2,0,2-0.2,2.5-0.5s0.8-0.9,1-1.6
		c0.1-0.3,0.1-1.2,0.1-2.7v-10.6c0-2.3-0.3-4-0.9-5.1c-0.6-1.1-1.7-1.6-3.1-1.6c-2.2,0-4.5,1.2-6.7,3.7v13.6c0,1.8,0.1,2.8,0.3,3.3
		c0.3,0.5,0.7,0.9,1.1,1.2s1.4,0.4,2.8,0.4v1h-12.8v-1h0.6c1.3,0,2.2-0.3,2.7-1s0.7-2,0.7-3.8v-9.6c0-3.1-0.1-5-0.2-5.7
		s-0.4-1.1-0.7-1.4s-0.7-0.4-1.2-0.4s-1.2,0.1-1.9,0.4l-0.4-1l7.8-3.2h1.2L510.5,1305.6L510.5,1305.6z"/>
	<path class="st2" d="M539.4,1292.4v8.5h6v2h-6v16.8c0,1.7,0.2,2.8,0.7,3.4s1.1,0.9,1.8,0.9c0.6,0,1.2-0.2,1.8-0.6s1-1,1.4-1.7h1.1
		c-0.7,1.9-1.6,3.2-2.8,4.2s-2.4,1.4-3.7,1.4c-0.9,0-1.7-0.2-2.6-0.7s-1.4-1.2-1.8-2.1s-0.6-2.3-0.6-4.1V1303h-4.1v-0.9
		c1-0.4,2.1-1.1,3.2-2.1s2.1-2.2,2.9-3.5c0.4-0.7,1.1-2,1.8-3.9h0.9L539.4,1292.4L539.4,1292.4z"/>
	<path class="st2" d="M562.7,1323.1c-2.6,2-4.3,3.2-5,3.6c-1,0.5-2.1,0.7-3.3,0.7c-1.8,0-3.3-0.6-4.4-1.8s-1.7-2.8-1.7-4.9
		c0-1.3,0.3-2.4,0.8-3.3c0.8-1.3,2.1-2.5,4-3.6s5.1-2.5,9.5-4.1v-1c0-2.6-0.4-4.3-1.2-5.3s-2-1.4-3.6-1.4c-1.2,0-2.1,0.3-2.8,0.9
		c-0.7,0.7-1.1,1.4-1.1,2.2l0.1,1.7c0,0.9-0.2,1.5-0.7,2s-1,0.7-1.7,0.7s-1.3-0.2-1.7-0.7s-0.7-1.2-0.7-2c0-1.6,0.8-3.1,2.5-4.5
		s4-2,7-2c2.3,0,4.2,0.4,5.7,1.2c1.1,0.6,1.9,1.5,2.5,2.7c0.3,0.8,0.5,2.5,0.5,5v8.8c0,2.5,0,4,0.1,4.5s0.3,0.9,0.5,1.1
		s0.5,0.3,0.8,0.3s0.6-0.1,0.8-0.2c0.4-0.2,1.2-0.9,2.3-2v1.6c-2.1,2.8-4.2,4.2-6.1,4.2c-0.9,0-1.6-0.3-2.2-0.9
		S562.7,1324.6,562.7,1323.1z M562.7,1321.2v-9.9c-2.8,1.1-4.7,2-5.5,2.4c-1.5,0.8-2.5,1.7-3.2,2.6s-1,1.9-1,3
		c0,1.4,0.4,2.5,1.2,3.4s1.7,1.4,2.8,1.4C558.4,1324.1,560.3,1323.1,562.7,1321.2z"/>
	<path class="st2" d="M621.3,1287.6l0.9,13.1h-0.9c-1.2-3.9-2.8-6.7-5-8.5s-4.8-2.6-7.8-2.6c-2.6,0-4.9,0.7-6.9,2s-3.7,3.4-4.9,6.2
		s-1.8,6.3-1.8,10.6c0,3.5,0.6,6.5,1.7,9s2.8,4.5,5,5.9s4.8,2,7.6,2c2.5,0,4.7-0.5,6.6-1.6s4-3.2,6.3-6.3l0.8,0.6
		c-1.9,3.4-4.2,5.9-6.7,7.5s-5.6,2.4-9.1,2.4c-6.4,0-11.3-2.4-14.8-7.1c-2.6-3.5-3.9-7.7-3.9-12.4c0-3.8,0.9-7.3,2.6-10.5
		s4.1-5.7,7.1-7.5s6.3-2.7,9.9-2.7c2.8,0,5.5,0.7,8.2,2c0.8,0.4,1.4,0.6,1.7,0.6c0.5,0,1-0.2,1.3-0.5c0.5-0.5,0.8-1.2,1-2.1
		L621.3,1287.6L621.3,1287.6z"/>
	<path class="st2" d="M634.5,1300.1v5.8c2.2-3.9,4.4-5.8,6.7-5.8c1.1,0,1.9,0.3,2.6,0.9s1,1.4,1,2.2c0,0.8-0.2,1.4-0.7,1.9
		s-1.1,0.8-1.7,0.8s-1.4-0.3-2.2-1s-1.4-1-1.8-1c-0.4,0-0.7,0.2-1.1,0.6c-0.8,0.8-1.7,2-2.6,3.8v12.4c0,1.4,0.2,2.5,0.6,3.2
		c0.2,0.5,0.7,0.9,1.3,1.3s1.5,0.5,2.7,0.5v1H626v-1c1.3,0,2.3-0.2,2.9-0.6c0.5-0.3,0.8-0.8,1-1.4c0.1-0.3,0.1-1.2,0.1-2.7v-10.1
		c0-3-0.1-4.8-0.2-5.4s-0.3-1-0.7-1.3s-0.7-0.4-1.2-0.4c-0.6,0-1.2,0.1-2,0.4l-0.3-1l7.8-3.2L634.5,1300.1L634.5,1300.1z"/>
	<path class="st2" d="M655.1,1300.1v20.8c0,1.6,0.1,2.7,0.4,3.3s0.6,0.9,1,1.2s1.3,0.4,2.5,0.4v1h-12.6v-1c1.3,0,2.1-0.1,2.5-0.4
		s0.8-0.7,1-1.2s0.4-1.7,0.4-3.3v-10c0-2.8-0.1-4.6-0.2-5.4c-0.1-0.6-0.4-1-0.6-1.3s-0.7-0.4-1.2-0.4s-1.1,0.1-1.9,0.4l-0.4-1
		l7.8-3.2L655.1,1300.1L655.1,1300.1z M652.8,1286.6c0.8,0,1.5,0.3,2,0.8s0.8,1.2,0.8,2s-0.3,1.4-0.8,2s-1.2,0.9-2,0.9
		s-1.5-0.3-2-0.9s-0.8-1.2-0.8-2s0.3-1.5,0.8-2S652,1286.6,652.8,1286.6z"/>
	<path class="st2" d="M679,1300.1v8.8h-0.9c-0.7-2.8-1.7-4.7-2.8-5.7s-2.6-1.5-4.3-1.5c-1.3,0-2.4,0.4-3.2,1.1s-1.2,1.5-1.2,2.3
		c0,1.1,0.3,2,0.9,2.7c0.6,0.8,1.8,1.6,3.6,2.5l4.1,2c3.8,1.9,5.8,4.3,5.8,7.4c0,2.3-0.9,4.2-2.7,5.7s-3.8,2.2-6,2.2
		c-1.6,0-3.4-0.3-5.4-0.9c-0.6-0.2-1.1-0.3-1.5-0.3s-0.8,0.2-1,0.7h-0.9v-9.2h0.9c0.5,2.6,1.6,4.6,3,6s3.2,2,5,2
		c1.3,0,2.3-0.4,3.2-1.1s1.2-1.7,1.2-2.8c0-1.3-0.5-2.4-1.4-3.3s-2.7-2-5.5-3.4s-4.5-2.6-5.4-3.7c-0.8-1.1-1.3-2.4-1.3-4.1
		c0-2.1,0.7-3.9,2.2-5.3s3.3-2.1,5.7-2.1c1,0,2.3,0.2,3.7,0.6c1,0.3,1.6,0.4,1.9,0.4s0.5-0.1,0.7-0.2s0.4-0.4,0.6-0.9h1L679,1300.1
		L679,1300.1z"/>
	<path class="st2" d="M692.4,1292.4v8.5h6v2h-6v16.8c0,1.7,0.2,2.8,0.7,3.4s1.1,0.9,1.8,0.9c0.6,0,1.2-0.2,1.8-0.6s1-1,1.4-1.7h1.1
		c-0.7,1.9-1.6,3.2-2.8,4.2s-2.4,1.4-3.7,1.4c-0.9,0-1.7-0.2-2.6-0.7s-1.4-1.2-1.8-2.1s-0.6-2.3-0.6-4.1V1303h-4.1v-0.9
		c1-0.4,2.1-1.1,3.2-2.1s2.1-2.2,2.9-3.5c0.4-0.7,1.1-2,1.8-3.9h0.9L692.4,1292.4L692.4,1292.4z"/>
	<path class="st2" d="M709.9,1300.1v20.8c0,1.6,0.1,2.7,0.4,3.3s0.6,0.9,1,1.2s1.3,0.4,2.5,0.4v1h-12.6v-1c1.3,0,2.1-0.1,2.5-0.4
		s0.8-0.7,1-1.2s0.4-1.7,0.4-3.3v-10c0-2.8-0.1-4.6-0.2-5.4c-0.1-0.6-0.4-1-0.6-1.3s-0.7-0.4-1.2-0.4s-1.1,0.1-1.9,0.4l-0.4-1
		l7.8-3.2L709.9,1300.1L709.9,1300.1z M707.6,1286.6c0.8,0,1.5,0.3,2,0.8s0.8,1.2,0.8,2s-0.3,1.4-0.8,2s-1.2,0.9-2,0.9
		s-1.5-0.3-2-0.9s-0.8-1.2-0.8-2s0.3-1.5,0.8-2S706.7,1286.6,707.6,1286.6z"/>
	<path class="st2" d="M724.6,1305.6c3-3.7,6-5.5,8.7-5.5c1.4,0,2.6,0.4,3.6,1.1s1.8,1.9,2.4,3.5c0.4,1.1,0.6,2.9,0.6,5.2v11
		c0,1.6,0.1,2.8,0.4,3.3c0.2,0.5,0.5,0.8,1,1.1s1.3,0.4,2.5,0.4v1H731v-1h0.6c1.2,0,2-0.2,2.5-0.5s0.8-0.9,1-1.6
		c0.1-0.3,0.1-1.2,0.1-2.7v-10.6c0-2.3-0.3-4-0.9-5.1s-1.7-1.6-3.1-1.6c-2.2,0-4.5,1.2-6.7,3.7v13.6c0,1.8,0.1,2.8,0.3,3.3
		c0.3,0.5,0.7,0.9,1.1,1.2s1.4,0.4,2.8,0.4v1H716v-1h0.6c1.3,0,2.2-0.3,2.7-1s0.7-2,0.7-3.8v-9.6c0-3.1-0.1-5-0.2-5.7
		s-0.4-1.1-0.7-1.4s-0.7-0.4-1.2-0.4s-1.2,0.1-1.9,0.4l-0.4-1l7.8-3.2h1.2L724.6,1305.6L724.6,1305.6z"/>
	<path class="st2" d="M760.7,1323.1c-2.6,2-4.3,3.2-5,3.6c-1,0.5-2.1,0.7-3.3,0.7c-1.8,0-3.3-0.6-4.4-1.8s-1.7-2.8-1.7-4.9
		c0-1.3,0.3-2.4,0.8-3.3c0.8-1.3,2.1-2.5,4-3.6s5.1-2.5,9.5-4.1v-1c0-2.6-0.4-4.3-1.2-5.3s-2-1.4-3.6-1.4c-1.2,0-2.1,0.3-2.8,0.9
		c-0.7,0.7-1.1,1.4-1.1,2.2l0.1,1.7c0,0.9-0.2,1.5-0.7,2s-1,0.7-1.7,0.7s-1.3-0.2-1.7-0.7s-0.7-1.2-0.7-2c0-1.6,0.8-3.1,2.5-4.5
		s4-2,7-2c2.3,0,4.2,0.4,5.7,1.2c1.1,0.6,1.9,1.5,2.5,2.7c0.3,0.8,0.5,2.5,0.5,5v8.8c0,2.5,0,4,0.1,4.5s0.3,0.9,0.5,1.1
		s0.5,0.3,0.8,0.3s0.6-0.1,0.8-0.2c0.4-0.2,1.2-0.9,2.3-2v1.6c-2.1,2.8-4.2,4.2-6.1,4.2c-0.9,0-1.6-0.3-2.2-0.9
		S760.7,1324.6,760.7,1323.1z M760.7,1321.2v-9.9c-2.8,1.1-4.7,2-5.5,2.4c-1.5,0.8-2.5,1.7-3.2,2.6s-1,1.9-1,3
		c0,1.4,0.4,2.5,1.2,3.4s1.7,1.4,2.8,1.4C756.5,1324.1,758.4,1323.1,760.7,1321.2z"/>
	<path class="st2" d="M804.6,1323.9c-1.3,1.3-2.5,2.3-3.7,2.8s-2.5,0.9-3.9,0.9c-2.8,0-5.3-1.2-7.4-3.6s-3.2-5.4-3.2-9.1
		s1.2-7.1,3.5-10.2s5.3-4.6,9-4.6c2.3,0,4.2,0.7,5.7,2.2v-4.8c0-3-0.1-4.8-0.2-5.4s-0.4-1.1-0.7-1.4s-0.7-0.4-1.1-0.4
		c-0.5,0-1.1,0.2-1.9,0.5l-0.4-1l7.7-3.2h1.3v30c0,3,0.1,4.9,0.2,5.6s0.4,1.1,0.7,1.4s0.7,0.4,1.1,0.4c0.5,0,1.2-0.2,2-0.5l0.3,1
		l-7.7,3.2h-1.3L804.6,1323.9L804.6,1323.9z M804.6,1321.9v-13.4c-0.1-1.3-0.4-2.5-1-3.5s-1.3-1.9-2.2-2.4s-1.8-0.8-2.7-0.8
		c-1.7,0-3.2,0.8-4.5,2.2c-1.7,1.9-2.6,4.8-2.6,8.6c0,3.8,0.8,6.7,2.5,8.8s3.5,3,5.6,3C801.3,1324.5,803,1323.6,804.6,1321.9z"/>
	<path class="st2" d="M817.9,1304.1l-1.5-8.4c-0.4-2.3-0.7-3.9-0.7-4.7c0-1.2,0.2-2.1,0.7-2.7s1.2-0.8,2-0.8c0.9,0,1.6,0.3,2.1,0.8
		s0.8,1.3,0.8,2.2c0,0.7-0.2,2.4-0.7,5.1l-1.5,8.4L817.9,1304.1L817.9,1304.1z"/>
	<path class="st2" d="M850.4,1314h-14.8l-2.6,6c-0.7,1.5-1,2.6-1,3.3c0,0.6,0.3,1.1,0.8,1.5s1.8,0.7,3.6,0.8v1.1h-12.1v-1.1
		c1.6-0.3,2.6-0.6,3.1-1.1c1-0.9,2-2.8,3.2-5.5l13.5-31.6h1l13.4,32c1.1,2.6,2,4.2,2.9,5s2.1,1.2,3.7,1.3v1.1h-15.2v-1.1
		c1.5-0.1,2.6-0.3,3.1-0.8s0.8-1,0.8-1.6c0-0.8-0.4-2.1-1.1-3.9L850.4,1314z M849.6,1311.9l-6.5-15.5l-6.7,15.5H849.6z"/>
	<path class="st2" d="M875.1,1300.1v5.8c2.2-3.9,4.4-5.8,6.7-5.8c1.1,0,1.9,0.3,2.6,0.9s1,1.4,1,2.2c0,0.8-0.2,1.4-0.7,1.9
		s-1.1,0.8-1.7,0.8s-1.4-0.3-2.2-1s-1.4-1-1.8-1c-0.4,0-0.7,0.2-1.1,0.6c-0.8,0.8-1.7,2-2.6,3.8v12.4c0,1.4,0.2,2.5,0.6,3.2
		c0.2,0.5,0.7,0.9,1.3,1.3s1.5,0.5,2.7,0.5v1h-13.3v-1c1.3,0,2.3-0.2,2.9-0.6c0.5-0.3,0.8-0.8,1-1.4c0.1-0.3,0.1-1.2,0.1-2.7v-10.1
		c0-3-0.1-4.8-0.2-5.4s-0.3-1-0.7-1.3s-0.7-0.4-1.2-0.4c-0.6,0-1.2,0.1-2,0.4l-0.3-1l7.8-3.2L875.1,1300.1L875.1,1300.1z"/>
	<path class="st2" d="M899.5,1300.1c3.9,0,7.1,1.5,9.5,4.5c2,2.6,3,5.5,3,8.8c0,2.3-0.6,4.7-1.7,7s-2.6,4.2-4.6,5.4
		s-4.1,1.8-6.5,1.8c-3.9,0-7-1.6-9.3-4.7c-1.9-2.6-2.9-5.6-2.9-8.8c0-2.4,0.6-4.8,1.8-7.1s2.7-4.1,4.6-5.2
		S897.4,1300.1,899.5,1300.1z M898.6,1302c-1,0-2,0.3-3,0.9s-1.8,1.6-2.5,3.1s-0.9,3.4-0.9,5.7c0,3.8,0.8,7,2.2,9.8s3.5,4.1,5.9,4.1
		c1.8,0,3.3-0.8,4.5-2.2s1.8-4.1,1.8-7.8c0-4.6-1-8.2-3-10.9C902.4,1302.9,900.7,1302,898.6,1302z"/>
	<path class="st2" d="M973.4,1287.6l1,12.1h-1c-1-3-2.3-5.3-3.9-6.8c-2.3-2.2-5.2-3.3-8.8-3.3c-4.9,0-8.6,1.9-11.1,5.8
		c-2.1,3.3-3.2,7.1-3.2,11.6c0,3.7,0.7,7,2.1,10s3.3,5.2,5.6,6.6s4.6,2.1,7.1,2.1c1.4,0,2.8-0.2,4.1-0.5s2.6-0.9,3.8-1.6v-11.1
		c0-1.9-0.1-3.2-0.4-3.8s-0.7-1-1.4-1.4s-1.7-0.5-3.2-0.5v-1.1h14.8v1.1h-0.7c-1.5,0-2.5,0.5-3,1.5c-0.4,0.7-0.6,2.1-0.6,4.1v11.7
		c-2.2,1.2-4.3,2-6.4,2.6s-4.5,0.8-7,0.8c-7.4,0-13.1-2.4-16.9-7.1c-2.9-3.6-4.3-7.7-4.3-12.3c0-3.4,0.8-6.6,2.4-9.7
		c1.9-3.7,4.6-6.5,7.9-8.5c2.8-1.6,6.1-2.5,9.9-2.5c1.4,0,2.7,0.1,3.8,0.4s2.7,0.7,4.8,1.5c1.1,0.4,1.8,0.6,2.1,0.6
		c0.4,0,0.7-0.2,0.9-0.5s0.4-1,0.5-2h1.1L973.4,1287.6L973.4,1287.6z"/>
	<path class="st2" d="M990.4,1300.1v20.8c0,1.6,0.1,2.7,0.4,3.3s0.6,0.9,1,1.2s1.3,0.4,2.5,0.4v1h-12.6v-1c1.3,0,2.1-0.1,2.5-0.4
		s0.8-0.7,1-1.2s0.4-1.7,0.4-3.3v-10c0-2.8-0.1-4.6-0.2-5.4c-0.1-0.6-0.4-1-0.6-1.3s-0.7-0.4-1.2-0.4s-1.1,0.1-1.9,0.4l-0.4-1
		l7.8-3.2L990.4,1300.1L990.4,1300.1z M988.1,1286.6c0.8,0,1.5,0.3,2,0.8s0.8,1.2,0.8,2s-0.3,1.4-0.8,2s-1.2,0.9-2,0.9
		s-1.5-0.3-2-0.9s-0.8-1.2-0.8-2s0.3-1.5,0.8-2S987.2,1286.6,988.1,1286.6z"/>
	<path class="st2" d="M1005.1,1300.1v5.8c2.2-3.9,4.4-5.8,6.7-5.8c1.1,0,1.9,0.3,2.6,0.9s1,1.4,1,2.2c0,0.8-0.2,1.4-0.7,1.9
		s-1.1,0.8-1.7,0.8s-1.4-0.3-2.2-1s-1.4-1-1.8-1c-0.4,0-0.7,0.2-1.1,0.6c-0.8,0.8-1.7,2-2.6,3.8v12.4c0,1.4,0.2,2.5,0.6,3.2
		c0.2,0.5,0.7,0.9,1.3,1.3s1.5,0.5,2.7,0.5v1h-13.3v-1c1.3,0,2.3-0.2,2.9-0.6c0.5-0.3,0.8-0.8,1-1.4c0.1-0.3,0.1-1.2,0.1-2.7v-10.1
		c0-3-0.1-4.8-0.2-5.4s-0.3-1-0.7-1.3s-0.7-0.4-1.2-0.4c-0.6,0-1.2,0.1-2,0.4l-0.3-1l7.8-3.2L1005.1,1300.1L1005.1,1300.1z"/>
	<path class="st2" d="M1029.5,1300.1c3.9,0,7.1,1.5,9.5,4.5c2,2.6,3,5.5,3,8.8c0,2.3-0.6,4.7-1.7,7s-2.6,4.2-4.6,5.4
		s-4.1,1.8-6.5,1.8c-3.9,0-7-1.6-9.3-4.7c-1.9-2.6-2.9-5.6-2.9-8.8c0-2.4,0.6-4.8,1.8-7.1s2.7-4.1,4.6-5.2
		C1025.3,1300.7,1027.4,1300.1,1029.5,1300.1z M1028.7,1302c-1,0-2,0.3-3,0.9s-1.8,1.6-2.5,3.1s-0.9,3.4-0.9,5.7
		c0,3.8,0.8,7,2.2,9.8c1.4,2.8,3.5,4.1,5.9,4.1c1.8,0,3.3-0.8,4.5-2.2s1.8-4.1,1.8-7.8c0-4.6-1-8.2-3-10.9
		C1032.5,1302.9,1030.7,1302,1028.7,1302z"/>
	<path class="st2" d="M1053.4,1305.6c3-3.7,6-5.5,8.7-5.5c1.4,0,2.6,0.4,3.6,1.1s1.8,1.9,2.4,3.5c0.4,1.1,0.6,2.9,0.6,5.2v11
		c0,1.6,0.1,2.8,0.4,3.3c0.2,0.5,0.5,0.8,1,1.1s1.3,0.4,2.5,0.4v1h-12.8v-1h0.6c1.2,0,2-0.2,2.5-0.5s0.8-0.9,1-1.6
		c0.1-0.3,0.1-1.2,0.1-2.7v-10.6c0-2.3-0.3-4-0.9-5.1s-1.7-1.6-3.1-1.6c-2.2,0-4.5,1.2-6.7,3.7v13.6c0,1.8,0.1,2.8,0.3,3.3
		c0.3,0.5,0.7,0.9,1.1,1.2s1.4,0.4,2.8,0.4v1h-12.8v-1h0.6c1.3,0,2.2-0.3,2.7-1s0.7-2,0.7-3.8v-9.6c0-3.1-0.1-5-0.2-5.7
		s-0.4-1.1-0.7-1.4s-0.7-0.4-1.2-0.4s-1.2,0.1-1.9,0.4l-0.4-1l7.8-3.2h1.2v5.5L1053.4,1305.6L1053.4,1305.6z"/>
	<path class="st2" d="M1089.5,1323.1c-2.6,2-4.3,3.2-5,3.6c-1,0.5-2.1,0.7-3.3,0.7c-1.8,0-3.3-0.6-4.4-1.8s-1.7-2.8-1.7-4.9
		c0-1.3,0.3-2.4,0.8-3.3c0.8-1.3,2.1-2.5,4-3.6s5.1-2.5,9.5-4.1v-1c0-2.6-0.4-4.3-1.2-5.3s-2-1.4-3.6-1.4c-1.2,0-2.1,0.3-2.8,0.9
		c-0.7,0.7-1.1,1.4-1.1,2.2l0.1,1.7c0,0.9-0.2,1.5-0.7,2s-1,0.7-1.7,0.7s-1.3-0.2-1.7-0.7s-0.7-1.2-0.7-2c0-1.6,0.8-3.1,2.5-4.5
		s4-2,7-2c2.3,0,4.2,0.4,5.7,1.2c1.1,0.6,1.9,1.5,2.5,2.7c0.3,0.8,0.5,2.5,0.5,5v8.8c0,2.5,0,4,0.1,4.5s0.3,0.9,0.5,1.1
		s0.5,0.3,0.8,0.3s0.6-0.1,0.8-0.2c0.4-0.2,1.2-0.9,2.3-2v1.6c-2.1,2.8-4.2,4.2-6.1,4.2c-0.9,0-1.6-0.3-2.2-0.9
		S1089.5,1324.6,1089.5,1323.1z M1089.5,1321.2v-9.9c-2.8,1.1-4.7,2-5.5,2.4c-1.5,0.8-2.5,1.7-3.2,2.6s-1,1.9-1,3
		c0,1.4,0.4,2.5,1.2,3.4s1.7,1.4,2.8,1.4C1085.2,1324.1,1087.1,1323.1,1089.5,1321.2z"/>
</g>
<g>
	<path class="st2" d="M540.1,1412.3l-11.4,39.8c-0.6,2.4-1,4-1,5.1c0,0.9,0.3,1.6,0.9,2c0.6,0.5,2,0.8,4.2,0.9l-0.4,1.3h-18.2
		l0.5-1.3c1.9,0,3.2-0.2,3.8-0.4c1-0.4,1.7-1,2.2-1.7c0.8-1.1,1.5-3,2.3-5.9l8.2-28.6c0.5-1.7,0.8-2.7,0.8-3
		c0.1-0.5,0.1-0.9,0.1-1.4c0-0.8-0.2-1.5-0.7-1.9c-0.4-0.5-1.1-0.7-1.9-0.7c-0.6,0-1.6,0.1-2.9,0.4l-0.5-1.3l12-3.3H540.1z"/>
	<path class="st2" d="M557.2,1435.1v-1c5.7-0.9,10-2.6,12.8-5.1c2-1.8,3-3.9,3-6.4c0-1.9-0.6-3.4-1.8-4.6s-2.6-1.8-4.3-1.8
		c-2.6,0-5,1.6-7.1,4.9l-1.3-0.4c1.2-2.7,2.8-4.8,4.7-6.2c1.9-1.4,4-2.1,6.3-2.1c2.8,0,5.1,0.8,6.8,2.5s2.6,3.8,2.6,6.3
		c0,2.2-0.8,4.3-2.4,6.3c-1.6,2-4.4,3.8-8.4,5.4c2.5,1,4.3,2.5,5.6,4.4c1.2,1.9,1.9,4.2,1.9,6.9c0,3-0.9,5.9-2.6,8.9
		c-1.7,3-4,5.3-7,6.9s-6.1,2.4-9.3,2.4c-3,0-5.2-0.5-6.8-1.5c-1-0.7-1.5-1.5-1.5-2.5c0-0.9,0.3-1.6,0.9-2.2c0.6-0.6,1.3-0.9,2.2-0.9
		c0.6,0,1.2,0.1,1.8,0.3c0.4,0.1,1.3,0.6,2.8,1.4s2.6,1.4,3.5,1.6c0.8,0.3,1.7,0.4,2.6,0.4c2.1,0,3.9-1.2,5.3-3.7s2.1-5.1,2.1-7.9
		c0-2.3-0.5-4.3-1.4-6.1c-0.9-1.8-2.4-3.2-4.4-4.3C561.8,1435.8,559.6,1435.2,557.2,1435.1z"/>
	<path class="st2" d="M590.4,1454.9c1,0,1.8,0.4,2.5,1.1s1,1.6,1,2.6s-0.3,1.8-1,2.5s-1.5,1-2.5,1s-1.9-0.3-2.6-1
		c-0.7-0.7-1.1-1.5-1.1-2.5s0.4-1.9,1.1-2.6S589.4,1454.9,590.4,1454.9z M597.9,1429.3c1,0,1.9,0.3,2.6,1s1.1,1.5,1.1,2.5
		s-0.4,1.9-1.1,2.6c-0.7,0.7-1.6,1.1-2.6,1.1s-1.9-0.4-2.6-1.1c-0.7-0.7-1.1-1.6-1.1-2.6s0.4-1.8,1.1-2.5S596.9,1429.3,597.9,1429.3
		z"/>
	<path class="st2" d="M617.7,1435.1v-1c5.7-0.9,10-2.6,12.8-5.1c2-1.8,3-3.9,3-6.4c0-1.9-0.6-3.4-1.8-4.6s-2.6-1.8-4.3-1.8
		c-2.6,0-5,1.6-7.1,4.9l-1.3-0.4c1.2-2.7,2.8-4.8,4.7-6.2c1.9-1.4,4-2.1,6.3-2.1c2.8,0,5.1,0.8,6.8,2.5s2.6,3.8,2.6,6.3
		c0,2.2-0.8,4.3-2.4,6.3c-1.6,2-4.4,3.8-8.4,5.4c2.5,1,4.3,2.5,5.6,4.4c1.2,1.9,1.9,4.2,1.9,6.9c0,3-0.9,5.9-2.6,8.9
		c-1.7,3-4,5.3-7,6.9s-6.1,2.4-9.3,2.4c-3,0-5.2-0.5-6.8-1.5c-1-0.7-1.5-1.5-1.5-2.5c0-0.9,0.3-1.6,0.9-2.2c0.6-0.6,1.3-0.9,2.2-0.9
		c0.6,0,1.2,0.1,1.8,0.3c0.4,0.1,1.3,0.6,2.8,1.4s2.6,1.4,3.5,1.6c0.8,0.3,1.7,0.4,2.6,0.4c2.1,0,3.9-1.2,5.3-3.7s2.1-5.1,2.1-7.9
		c0-2.3-0.5-4.3-1.4-6.1c-0.9-1.8-2.4-3.2-4.4-4.3C622.3,1435.8,620.1,1435.2,617.7,1435.1z"/>
	<path class="st2" d="M668.1,1412.3c3,0,5.6,1.3,7.6,3.8c2.1,2.5,3.1,6.5,3.1,12c0,4.7-0.8,9.4-2.3,14.3s-3.7,9.1-6.5,12.7
		c-2.2,2.8-4.5,4.8-7,6.1c-1.4,0.7-3.1,1.1-4.9,1.1c-3.1,0-5.7-1.3-7.7-3.8c-2.1-2.5-3.1-6.5-3.1-12c0-5.4,1-10.8,3.1-16.3
		c2.4-6.4,5.6-11.2,9.3-14.5C662.2,1413.4,665,1412.3,668.1,1412.3z M668.1,1414.1c-1.4,0-2.8,0.5-4.2,1.6s-2.9,3.3-4.4,6.7
		c-1.5,3.4-2.9,7.8-4.3,13.2c-1.8,7-2.6,13-2.6,17.9c0,2.5,0.5,4.3,1.6,5.5s2.4,1.8,3.9,1.8c1.4,0,2.7-0.5,3.7-1.5
		c2.7-2.6,5-6.9,7-13.1c3.1-10.1,4.7-18.3,4.7-24.6c0-2.6-0.5-4.6-1.6-5.8C670.8,1414.8,669.5,1414.1,668.1,1414.1z"/>
	<path class="st2" d="M718.7,1410.9l-10,34.5c4.3-6.5,7.6-10.8,10-12.9s4.7-3.2,6.9-3.2c1.1,0,2.1,0.4,2.8,1.2s1.1,1.8,1.1,3.1
		c0,1.6-0.3,3.5-1,5.7l-4.3,14.9c-0.6,1.8-0.8,2.8-0.8,3c0,0.3,0.1,0.6,0.3,0.8c0.2,0.2,0.4,0.3,0.7,0.3s0.6-0.1,1.1-0.4
		c1.4-1.1,2.7-2.5,4-4.3l1.1,0.7c-0.8,1.3-1.9,2.6-3.4,4.1c-1.4,1.5-2.7,2.5-3.7,3.1s-1.9,0.9-2.7,0.9c-0.9,0-1.6-0.3-2.2-0.8
		c-0.6-0.6-0.8-1.3-0.8-2.1c0-1.1,0.4-3,1.2-5.8l4.1-14.2c0.5-1.8,0.7-3.2,0.7-4.2c0-0.5-0.1-0.9-0.4-1.1c-0.3-0.3-0.7-0.4-1.1-0.4
		c-0.7,0-1.5,0.3-2.3,0.8c-1.6,1-3.5,2.9-5.6,5.6c-0.6,0.7-2.5,3.7-5.7,8.9c-1,1.6-1.8,3.5-2.5,5.4l-2.2,7.3h-5.3l11.7-40.6l1.2-4.4
		c0-0.6-0.3-1.2-0.8-1.6c-0.5-0.5-1.1-0.7-1.9-0.7c-0.4,0-1.1,0.1-1.9,0.2l-0.7,0.1v-1.4L718.7,1410.9z"/>
</g>
<g>
	<g>
		<path class="st2" d="M578.1,761.9c0.3,0.2,0.6,0.4,0.8,0.5c-0.7,0.7-1.2,1.1-1.4,1.2c-3.4,0.9-7.2,1.4-11.6,1.6l-6.5,0.1l-6.5-0.1
			l-13.9-0.6c-7-0.5-13.4-0.7-19.2-0.7c-3,0-6.2,0.2-9.5,0.7c-11.4,1.5-19.6,7.2-24.7,16.9c-3.6,6.6-6.2,12.6-7.9,18.2l-8.2,26.3
			c-1.8,6.6-4.1,15.4-6.8,26.6l-8.8,34.1l-3.3,12.6l-2.6,9.8c-0.1,0.4-0.3,1.4-0.6,3c0.4,0.4,0.8,0.6,1.2,0.6c0.4,0,0.7,0,0.9-0.1
			c0.2-0.1,0.5-0.2,0.6-0.3l10.5-2.2c1.9-0.4,4.3-0.9,7.2-1.5c2.9-0.6,6.3-1.3,10.1-2c3.5-0.8,7-1.2,10.5-1.3
			c1.7-0.1,3.2,0.3,4.4,1.2c1.2,0.9,2,2.3,2.5,4.1v0.4c0,0.4-0.1,0.7-0.4,1c-0.2,0.2-0.5,0.3-0.8,0.2c-0.3,0-0.6-0.1-0.6-0.1l-1-0.7
			c-0.7-0.8-1.8-1.1-3.3-0.9c-2.6,0.4-4.4,0.6-5.5,0.7c-0.9,0.1-2,0.2-3.4,0.4s-3,0.5-4.8,0.9c-6,1.2-10.5,2.1-13.4,2.7l-13.6,2.7
			l-1.6,0.4c-1.2,0.3-2,1.1-2.5,2.5l-4.3,14.7l-1.3,4.6c-1.7,6.1-2.7,9.6-3,10.7c-0.2,0.6-0.8,2.8-1.9,6.7s-1.8,7.7-2.3,11.5
			c-0.1,0.5-0.2,1-0.3,1.7c-0.1,0.6-0.1,1.4-0.1,2.2c0,1.3,0.2,2.3,0.6,3.2c0.3,0.1,0.7,0.1,1.2,0.1s1,0,1.7-0.1
			c0.6-0.1,1.1-0.2,1.4-0.3l5.8-1.2c13.7-2.5,20.9-3.8,21.8-3.9c8.2-1.4,17.5-2.3,27.9-2.6l7.8-0.1c6.7-0.2,11.7-0.3,14.9-0.3
			c3.7,0,7.3,0.1,11,0.4c1.1,0.1,1.9,0.3,2.5,0.6s1.1,1,1.4,2c-0.8,0.6-1.3,0.9-1.6,1c-0.7,0.1-1.7,0.1-3.2,0.1
			c-1.7-0.1-4.4-0.1-7.9-0.1c-7,0-15.5,0.3-25.4,1c-16.6,1.1-33,3.4-49.4,6.9c-1.3,0.3-3.6,0.6-6.8,1c-2.9,0.4-5.6-0.6-8.2-2.9
			c-1.4-1.3-2.2-2.8-2.2-4.6v-2.2c0-1.2,0-2,0.1-2.6c0.5-3.8,1.2-7.4,2.1-11.1c0.9-3.6,2.1-8.1,3.7-13.5c1.3-4.4,3.2-11.1,5.9-19.9
			c0.1-0.3,0.1-0.8,0.1-1.4c-0.4-0.7-1.1-0.8-2.2-0.4l-9,2.7L424,925c-0.5,0-0.9-0.2-1.2-0.6c-0.3-0.4-0.6-1.1-1-2.2
			c1.4-1.1,3.1-2,4.8-2.7c1.8-0.8,3.6-1.4,5.4-2c2-0.6,4-1.3,6.1-2.2c0.8-1.2,1.3-2.6,1.7-4.4c0.4-1.8,0.7-3.1,1-4
			c3.7-12.4,7.8-28.1,12.6-47.1c1.5-6.5,4.8-18.5,9.7-35.8c4.9-17.3,8.8-29.3,11.6-36.2c1.8-4.7,3.9-9,6.4-12.7
			c5.4-8.5,13.2-13.6,23.4-15.3c2.9-0.6,6.5-0.9,10.8-0.9c3.1,0,5.4,0,6.9,0.1l34.1,2.2c3.1,0.3,6.2,0.4,9.2,0.4
			c2.7,0,5.4-0.1,8.2-0.4c0.9,0,2.1,0.1,3.6,0.3C577.5,761.6,577.8,761.7,578.1,761.9z"/>
		<path class="st2" d="M610.2,899.7c-0.9,0.2-1.3,0.2-1.4,0.1c-1.2-0.6-2.3-0.9-3.5-0.9c-1.1,0-2.1,0.1-3,0.4c-6,1.5-10.3,3-13,4.3
			s-4.5,2.7-5.3,4.2s-1.5,3.7-2.1,6.6c-0.7,3.2-1.4,6-2.2,8.6s-2.3,5.6-4.4,9c-7.1,11.6-14.7,21.4-22.8,29.5
			c-3.8,3.8-7.3,6.6-10.5,8.5c-1.3,0.8-3.5,1.7-6.4,2.9c-0.7,0.3-1.3,0.4-2,0.4s-1.6-0.2-2.7-0.6c-1.9-0.7-3.3-1.4-4-2.3
			c-0.8-0.9-1.2-2.1-1.2-3.8c0-3.5,0.9-7.2,2.7-11.1c3.6-7.5,8.5-14.6,14.7-21.4c7.6-8.3,17.7-16,30.2-23.1l3.3-1.9
			c0-1.3,0-2.3-0.1-2.9c-0.3-2-1.3-3.3-3.2-3.9c-3.4-1.2-6.6-1.8-9.5-1.9l-6.9-0.3c-2.9-0.2-5.3-1.3-7.1-3.3c-0.8-1-1.2-1.8-1.2-2.5
			c0-0.8,0.3-1.5,1-2.3c1.3-1.7,2.6-3.1,3.9-4c6.5-5.2,12.5-9.1,17.9-11.8c0.3-0.1,1.1-0.5,2.3-1.2c1.3-0.7,2.6-1,3.9-1
			c1.6,0,2.7,0.6,3.2,1.9c-7.9,4.9-13.6,8.7-17.1,11.4s-6.2,5.3-8.2,7.9c0.2,0.6,0.8,0.9,1.7,0.9c1.1,0,4,0.2,8.8,0.7
			c3.9,0.4,6.6,0.8,8.4,1.4c1.7,0.5,3.7,1.9,5.8,4l1,0.7l2.6-1c3.3-1.4,7.1-2.9,11.4-4.3c1.6-0.6,4.1-1.2,7.4-1.7
			c1.2-0.2,2.2-0.1,3.2,0.3c1,0.4,2.2,1,3.5,1.9C609.6,898.2,609.8,898.7,610.2,899.7z M573.7,919.9c0.6-1.3,1-2.7,1.3-4.3
			c-2.6,1.1-6.7,3.7-12.3,7.8s-9.7,7.6-12.4,10.3c-5.2,5.2-9.5,10.4-12.9,15.6c-2.2,3.5-4.2,8-5.9,13.6c-0.2,0.8-0.3,1.7-0.3,2.7
			c0,1.1,0,1.7,0,2s0.1,0.7,0.4,1.2c0.3,0.5,0.5,0.9,0.7,1.3c0.6-0.4,1.3-0.8,2.1-1.2s1.5-0.7,2-1c1.3-1,3.3-2.5,5.8-4.6
			c3.5-3,7.6-7.5,12.4-13.6c4-5.1,7.5-9.8,10.5-14.2c2.9-4.3,5.5-8.8,7.6-13.4C572.8,921.9,573.1,921.2,573.7,919.9z"/>
		<path class="st2" d="M667.8,896.3c0,0.1,0,0.3-0.1,0.4c-7,7-12.2,12.4-15.6,16l-7.3,8.2l-7.4,8.2c-5.5,6-11.2,10-17,12.1
			c-2.7,1.1-5.4,1.6-8.1,1.6c-2.6,0-5-0.5-7.2-1.6c-6.4-2.8-9.5-8.3-9.5-16.6c0-3.2,0.6-6.8,1.7-11c1.6-5.7,4.2-11.4,7.8-17.2
			c2.5-4,5.6-7.8,9.2-11.1c3.2-2.9,6.6-4.7,10.4-5.5c1.2-0.2,2-0.3,2.5-0.3c2.7,0,5.1,1.1,7.1,3.3c1.3,1.3,2,3.2,2,5.6l-0.1,4.2
			l-1.2,0.7c-0.2-0.7-0.4-1.3-0.5-2s-0.3-1.3-0.5-2c-0.9-2.2-1.6-3.9-2.3-5.2c-0.8-1.3-1.9-1.8-3.5-1.3c-1.3,0.4-2.3,0.9-3.2,1.4
			c-2.9,1.9-5,3.5-6.2,4.8c-4.6,4.6-8.3,10-11.1,16.2c-2.7,5.9-4.5,11.8-5.5,17.6c-0.1,0.6-0.1,1.4-0.1,2.5c0,1.9,0.3,4.4,1,7.5
			c0.1,0.6,0.4,1.3,0.9,2c1.7,3.1,4,4.6,6.9,4.6c0.5,0,1.2-0.1,2.2-0.3c4.1-0.9,7.9-2.6,11.4-5.3c4-3.2,7.7-6.5,11-10.1
			c6.4-6.9,12.9-13.7,19.5-20.4l3.8-3.5c2.6-2.3,3.9-3.5,4-3.6c0.5-0.5,1-0.8,1.6-0.9c0.6-0.1,1.2-0.1,1.7-0.1c0.6,0,1,0,1.2,0
			s0.4,0.2,0.6,0.6C667.7,896,667.7,896.1,667.8,896.3z"/>
		<path class="st2" d="M729.3,896.2c0.6,0,1.2,0.3,1.9,0.9c-2.6,2.5-5,5.2-7.2,8.1c-2.2,2.9-4.7,6.5-7.6,10.7l-3.6,5.2
			c-4.7,6.8-8,11.5-10,14c-1.2,1.5-2.8,3.2-4.9,4.9c-1.2,1.1-2.6,1.6-4.3,1.6c-1.2,0-2.3-0.3-3.3-0.9c-1.1-0.6-1.9-1.5-2.6-2.7
			c-1.1-1.8-1.6-3.9-1.6-6.4c0-5.7,0.4-10.2,1.3-13.6l0.4-3c-0.5,0.6-0.9,1.1-1.2,1.4c-0.3,0.4-0.6,0.8-0.9,1.2
			c-2.6,4.4-6.8,9.7-12.6,15.7c-2.2,2.4-4.6,4.2-7.1,5.3c-1.3,0.6-2.6,0.9-3.9,0.9c-1.7,0-3.5-0.6-5.2-1.7c-1.5-1.2-2.6-2.6-3.2-4.5
			c-0.8-2.6-1.2-5.2-1.2-7.7c0-7,1.9-14.4,5.6-22.2c3.8-7.9,8-13.8,12.7-17.8c2.1-1.8,4.2-3.4,6.4-4.6c1.5-1,3.1-1.4,4.6-1.4
			c1.6,0,3.2,0.4,4.6,1.3c3.4,1.6,5.1,4,5.1,7.2c0,1.3-0.1,2.7-0.3,4.3s-0.3,2.7-0.4,3.4h0.4c0.6,0,1.1-0.4,1.4-1.3
			c0.9-2.2,2-4.6,3.3-7.2l1.3-2.7c0.4-0.9,0.9-2,1.4-3.3c0.6-1.3,1.2-2.5,1.7-3.3c1.3,0.2,2.2,0.4,2.5,0.6c0.3,0.2,1,0.8,2,1.7
			c-0.5,1.4-0.8,2.4-1,2.7c-4.6,9.3-8.5,21.2-11.6,35.5c-0.6,2.7-1.1,6.9-1.4,12.6c-0.1,1.6,0.1,3.7,0.6,6.1c0.1,1,0.6,1.4,1.6,1.4
			c0.4,0,0.8-0.1,1.2-0.4c1.6-1.2,3.1-2.5,4.5-4c1.1-1.1,2.1-2.4,3.2-4.1c1.1-1.7,2-2.9,2.5-3.7l7.1-9.8l6.9-9.8
			c1.2-1.7,3.4-4.3,6.5-7.8c0.7-0.8,1.6-1.5,2.7-2.2C728.3,896.4,728.8,896.2,729.3,896.2z M686.6,900.3c0.7-4.5,1-8.4,1-11.7
			c0-1.1-0.1-2.1-0.4-3c-0.5-1.6-1.3-2.5-2.6-2.5c-0.2,0-0.7,0.1-1.4,0.3c-2.4,0.9-4.8,2.5-7.2,4.9c-8.1,8.1-13.8,18.3-17.2,30.6
			c-0.8,2.8-1.2,5.4-1.2,7.9c0,1.8,0.2,3.5,0.6,5.1c0.5,2.1,1.3,3.7,2.5,4.8c3-1.2,6-3.4,9.1-6.6c2.7-2.8,5.1-5.7,7.1-8.6
			c2-2.9,4.7-7.1,7.9-12.5c0.7-1.2,1.1-2.4,1.3-3.8L686.6,900.3z"/>
		<path class="st2" d="M785.5,767.1c0.3,0.2,0.5,0.5,0.5,0.8s-0.1,0.7-0.4,1.3l-5.8,10.4c-4.6,8.5-8.6,16.1-12,23
			c-3.5,7-8.2,17.8-14.2,32.2c-8.6,20.8-15,39.1-19.2,54.7c-0.4,1.3-2.4,9.2-6.1,23.7c-0.9,4-1.5,6.6-1.9,7.9
			c-1.4,5.9-2.4,11.4-2.7,16.5c-0.1,1.2-0.1,2.2-0.1,3.1c0,0.9,0.1,1.7,0.1,2.4c1.7,0.3,2.6,0.4,2.7,0.4c1.1,0.5,1.6,1.1,1.6,1.7
			c0,0.4-0.1,0.8-0.4,1.2c-1.3,1.9-2.9,2.7-4.9,2.3c-2.5-0.6-3.9-1.8-4.3-3.8c-0.4-2.1-0.6-3.7-0.6-4.8c0-3.4,0.5-8.4,1.4-15.2
			c0.2-0.7,0.4-1.9,0.6-3.6c1.4-10.5,4.3-22.8,8.5-36.8c5.3-17.2,10.5-32.2,15.7-44.8c4.6-11.2,11.4-25.7,20.2-43.5
			c3.3-6.5,6.8-12.6,10.5-18.3c3.3-5,6-8.6,8.2-10.8l1-0.7C784.7,766.7,785.2,766.9,785.5,767.1z"/>
		<path class="st2" d="M815.8,896.2c0.6,0,1.2,0.3,1.9,0.9c-2.6,2.5-5,5.2-7.2,8.1c-2.2,2.9-4.7,6.5-7.6,10.7l-3.6,5.2
			c-4.7,6.8-8,11.5-10,14c-1.2,1.5-2.8,3.2-4.9,4.9c-1.2,1.1-2.6,1.6-4.3,1.6c-1.2,0-2.3-0.3-3.3-0.9c-1.1-0.6-1.9-1.5-2.6-2.7
			c-1.1-1.8-1.6-3.9-1.6-6.4c0-5.7,0.4-10.2,1.3-13.6l0.4-3c-0.5,0.6-0.9,1.1-1.2,1.4c-0.3,0.4-0.6,0.8-0.9,1.2
			c-2.6,4.4-6.8,9.7-12.6,15.7c-2.2,2.4-4.6,4.2-7.1,5.3c-1.3,0.6-2.6,0.9-3.9,0.9c-1.7,0-3.5-0.6-5.2-1.7c-1.5-1.2-2.6-2.6-3.2-4.5
			c-0.8-2.6-1.2-5.2-1.2-7.7c0-7,1.9-14.4,5.6-22.2c3.8-7.9,8-13.8,12.7-17.8c2.1-1.8,4.2-3.4,6.4-4.6c1.5-1,3.1-1.4,4.6-1.4
			c1.6,0,3.2,0.4,4.6,1.3c3.4,1.6,5.1,4,5.1,7.2c0,1.3-0.1,2.7-0.3,4.3s-0.3,2.7-0.4,3.4h0.4c0.6,0,1.1-0.4,1.4-1.3
			c0.9-2.2,2-4.6,3.3-7.2l1.3-2.7c0.4-0.9,0.9-2,1.4-3.3c0.6-1.3,1.2-2.5,1.7-3.3c1.3,0.2,2.2,0.4,2.5,0.6c0.3,0.2,1,0.8,2,1.7
			c-0.5,1.4-0.8,2.4-1,2.7c-4.6,9.3-8.5,21.2-11.6,35.5c-0.6,2.7-1.1,6.9-1.4,12.6c-0.1,1.6,0.1,3.7,0.6,6.1c0.1,1,0.6,1.4,1.6,1.4
			c0.4,0,0.8-0.1,1.2-0.4c1.6-1.2,3.1-2.5,4.5-4c1.1-1.1,2.1-2.4,3.2-4.1c1.1-1.7,2-2.9,2.5-3.7l7.1-9.8l6.9-9.8
			c1.2-1.7,3.4-4.3,6.5-7.8c0.7-0.8,1.6-1.5,2.7-2.2C814.8,896.4,815.3,896.2,815.8,896.2z M773.2,900.3c0.7-4.5,1-8.4,1-11.7
			c0-1.1-0.1-2.1-0.4-3c-0.5-1.6-1.3-2.5-2.6-2.5c-0.2,0-0.7,0.1-1.4,0.3c-2.4,0.9-4.8,2.5-7.2,4.9c-8.1,8.1-13.8,18.3-17.2,30.6
			c-0.8,2.8-1.2,5.4-1.2,7.9c0,1.8,0.2,3.5,0.6,5.1c0.5,2.1,1.3,3.7,2.5,4.8c3-1.2,6-3.4,9.1-6.6c2.7-2.8,5.1-5.7,7.1-8.6
			c2-2.9,4.7-7.1,7.9-12.5c0.7-1.2,1.1-2.4,1.3-3.8L773.2,900.3z"/>
	</g>
</g>
</svg>
