<?xml version="1.0" encoding="utf-8"?>
<!-- Generator: Adobe Illustrator 25.4.1, SVG Export Plug-In . SVG Version: 6.00 Build 0)  -->
<svg version="1.1" id="Capa_1" xmlns="http://www.w3.org/2000/svg" xmlns:xlink="http://www.w3.org/1999/xlink" x="0px" y="0px"
	 viewBox="0 0 1242 2208" style="enable-background:new 0 0 1242 2208;" xml:space="preserve">
<style type="text/css">
	.st0{fill:#775F3B;}
	.st1{fill:#62391B;}
	.st2{fill:#A63434;stroke:#A63434;stroke-miterlimit:10;}
	.st3{fill:none;}
	.st4{fill:#805F36;}
</style>
<g id="fondo">
</g>
<g id="Capa_2_00000171000038569402273490000012704646517353608069_">
</g>
<g id="Capa_4">
</g>
<g id="onda_sola_grande">
	<g id="_x35_">
		<g>
			<path class="st0" d="M-15.3,1796.9c0.6,0.7,1.4,1.1,2.3,1.6c8.8-3.5,17.4-7.4,25.9-11.7c0.2-0.6,0.3-1.1,0.3-1.6l-2.5-2.1
				c1.9,0.4,2.5,1.1,2.5,2.1l1.1,0.9c0.6-0.3,1.2-0.6,1.7-0.9c1.6-3,2.5-5.1,7.5-7.6c0.2,1.5,0.9,2.3,2,2.6
				c69.5-37.5,134.4-91.4,216.3-67.5c8.4-4.4-0.7-3.5,9.5-6.4c-107-26.1-180.3,53.3-266.4,88.2c0.4,0.2,0.8,0.7,1.4,1.4
				L-15.3,1796.9z"/>
			<path class="st0" d="M-130.5,1804.6c-2.8,2,5.1,1.7,9.3,2.2c2.4,0.7,4.8,1.3,7.2,1.8c0-0.2,0.1-0.4,0.1-0.6
				C-119.4,1807.2-124.9,1806.1-130.5,1804.6z"/>
			<path class="st0" d="M-64.2,1811.1c0.1,0.2,0.1,0.4,0.2,0.6c16.4-1.7,32.3-6,47.7-11.8c-0.7-0.3-1.5-0.6-2.3-0.8
				c1.3-0.8,1.6-2.8,2.1-3.9c-6.5,2.6-13,4.9-19.6,6.9c0.2,1.2-1.1,1-2.5,0.7c-5.6,1.6-11.3,3-17,4.1l2.1,2.9l-4.3-2.4
				c-1.2,0.2-2.4,0.4-3.6,0.6c0.6,0.7,1.2,1.4,1.7,2C-60.6,1810.5-62.9,1810.5-64.2,1811.1z"/>
			<path class="st0" d="M-64.2,1811.1c-0.4-0.9-0.9-1.7-1.6-2.5c-6.8,0.9-13.7,1.4-20.8,1.5c-0.2,0.2-0.5,0.4-0.7,0.6l2.9,1.8
				c6.6,0.2,13,0,19.4-0.7C-64.9,1811.4-64.6,1811.2-64.2,1811.1z"/>
			<path class="st0" d="M-120,1856.2c2.3,0.6,4.7,1.1,7,1.6C-108.2,1854.7-111,1854.6-120,1856.2z"/>
			<path class="st0" d="M122.9,1781.4c41.4-19.5,85.6-31.4,137.6-18.8c-5.3-1.5,3.4-3.7-6.6-3.7c-41.7-12.5-79.3-4.1-115.8,12.3
				l0.4,1.1l-2.5,1.5l0.2-1.8c-5.2,2.4-10.3,4.9-15.5,7.5C121.9,1779.9,122.7,1780.3,122.9,1781.4z"/>
			<path class="st0" d="M55.3,1818.5c4.2-2.4,8.4-4.9,12.6-7.3c-0.3-0.5-0.6-0.9-0.9-1.3c-4.3,2.5-8.5,4.9-12.8,7.4
				C54.6,1817.5,55,1817.9,55.3,1818.5z"/>
			<path class="st0" d="M120,1782.7c-0.6-0.3-0.9-1.2-1-2.3c-16.1,8.3-32.1,17.8-48.2,27.2c-0.2,0.8-0.3,1.5-0.5,2.1
				C86.7,1800.3,103.2,1790.9,120,1782.7z"/>
			<path class="st0" d="M-13.3,1851.6c1.2-0.8,3.3-2.4,5.4-3.1c-0.2-0.3-0.3-0.5-0.5-0.8c-3.6,1.3-7.2,2.6-10.8,3.8
				c1.3,0.4,2.5,1.4,3.6,2.2c1.3-0.5,2.7-1,4-1.5C-11.8,1851.9-12.3,1851.7-13.3,1851.6z"/>
			<path class="st0" d="M-113,1857.8c-1.1,0.7-2.6,1.6-4.5,2.6c16.4,4.3,32,5.7,47.1,5c1.4-1.4,2.7-2.9,3.8-4.5
				C-81.4,1861.9-96.9,1861.1-113,1857.8z"/>
			<path class="st0" d="M42.9,1823.6c0,0.4,0.3,0.8,1.2,1.3c1.8-1,3.7-2.1,5.5-3.1c-0.4-0.4-0.8-0.8-1.2-1.2
				C46.5,1821.6,44.7,1822.6,42.9,1823.6z"/>
			<path class="st0" d="M-65.2,1860.8c-0.4,1.3-0.8,2.5-1.5,3.4c0.6,0.3,1.2,0.6,1.7,0.9c3.1-0.3,6.2-0.6,9.3-1
				c0.8-1.3,1.4-2.9,2-4.5C-57.5,1860.1-61.3,1860.5-65.2,1860.8z"/>
			<path class="st0" d="M-3.1,1845.7c-0.9,0.3-1.7,0.7-2.6,1c0.2,0.5,0.5,1.1,0.8,1.6c0.5,0.1,0.9,0.3,1.3,0.6
				c0.7-0.3,1.4-0.6,2-0.9C-1.8,1847.2-2.3,1846.3-3.1,1845.7z"/>
			<path class="st0" d="M-22.1,1852.4c-0.8,0.3-1.6,0.5-2.4,0.8c-0.3,1.2-0.5,2.4-0.7,3.6c0.1,0.1,0.3,0.1,0.4,0.1
				c1.6-0.5,3.1-1,4.7-1.5c0.4-0.3,0.7-0.7,0.9-1.2L-22.1,1852.4z"/>
			<path class="st0" d="M3,1844.1c-1.8,0.7-2.5,1.9-2.6,3.2c1-0.4,2-0.9,3-1.3c0.4-0.5,0.7-1,1-1.6C4,1844.2,3.5,1844.1,3,1844.1z"
				/>
			<path class="st0" d="M114.3,1844.1l0.8,0.3c15.6-8.8,31.1-16.9,47-23.2c0-0.1-0.1-0.2-0.1-0.2c0.1,0.1,0.2,0.1,0.2,0.2
				c29-11.5,59-16.9,91.9-9.7c-0.1-0.9,0.4-2.1,2-3.5c0.3,0.9,0.3,4.1,2.3,4.1c0.9-1.5,0.2-3.3-0.2-4.9
				c-37.6-7.4-71.2-0.1-103.4,13.4c-0.8,1.5-2,2.4-4.3,1.8c-0.2,0.1-0.5,0.2-0.7,0.3c0,0.1,0.1,0.2,0.1,0.3l-0.1-0.3
				c-12.1,5.3-23.9,11.5-35.7,18.1c0.1,0,0.1,0,0.2,0C114.8,1842.7,114.8,1842.7,114.3,1844.1z"/>
			<path class="st0" d="M72.8,1869c0-0.2-0.1-0.4-0.1-0.6c-0.2-1.1-0.4-2.3-0.6-3.5c-15.2,8.7-30.5,17.2-46.2,24.5l2.3,3.3
				C43.5,1885.7,58.3,1877.5,72.8,1869z"/>
			<path class="st0" d="M-5.4,1901.9c-2.1,0.7-4.1,1.3-6.2,1.9c0.8,0.5,1,1.2-0.5,2.7c-4.7-1-7.7,1.1-9.8,3.7
				c7.3-1.7,14.5-3.7,21.6-6.1c-1.5,0.4-3.3,0.3-5.8-0.2C-5.8,1903.3-5.6,1902.6-5.4,1901.9z"/>
			<path class="st0" d="M81.4,1864c-0.3-1.2-0.5-2.4,0.9-3.2c0,0.9,0.2,1.7,0.3,2.5c10.2-6,20.4-12.1,30.5-17.8l-2.4-0.2
				c0.5-1.3,0.8-2.4,1.2-3.2c-12.2,6.8-24.3,14-36.6,21.1c0.8,1.1,1.7,2.2,2.7,2.9C79.1,1865.3,80.3,1864.7,81.4,1864z"/>
			<path class="st0" d="M8.5,1901.1c3.8-1.4,7.5-3,11.3-4.6c-1.3-0.2-2.3-1-2.6-3.1c-3.7,1.6-7.4,3.1-11.1,4.5
				c-0.1,0.2-0.3,0.4-0.4,0.7L8.5,1901.1z"/>
			<path class="st0" d="M23.5,1890.6c-0.6,0.3-1.2,0.5-1.8,0.8C22.4,1891.4,23.1,1891.2,23.5,1890.6z"/>
			<path class="st0" d="M0.9,1903.8c1.5-0.5,3-1,4.5-1.6c0.2-1.1,0.4-2.3,0-3.4C4,1901.1,2.9,1902.9,0.9,1903.8z"/>
			<path class="st0" d="M259.4,1809.3l-0.9,3.3c2.4,0.6,4.9,1.3,7.4,2c3.5-1.8-1.8-2.4,3.8-4.8c-1.9-0.5-3.8-1-5.7-1.4
				c-0.1,0.5-0.2,1-0.4,1.5C262.2,1811.8,261.7,1810.1,259.4,1809.3z"/>
			<path class="st0" d="M7.9,1956.3c-0.5-0.9-0.9-1.8-1.4-2.7c-3.8,1.2-7.7,2.2-11.5,3.2l-2,3.8C-1.9,1959.4,3,1957.9,7.9,1956.3z"
				/>
			<path class="st0" d="M161,1877.6c36.9-16.5,76.7-25.9,123.5-16.4c-1.1-0.4-1.6-1,0.2-2c-44-12.7-82.9-3.4-120.3,13.9
				C163.6,1874.5,162.3,1876,161,1877.6z"/>
			<path class="st0" d="M12.3,1954.8c51-18,96-53.2,146-76c-0.3-0.8-0.6-1.6-0.9-2.5c-41.2,20.1-80.8,48.7-123.9,67.3
				c-0.9,0.9-2,1.3-3.2,1.4c-5.3,2.2-10.7,4.3-16.2,6.2c0,0.1,0,0.3,0,0.4C13,1952.1,12.5,1953.4,12.3,1954.8z"/>
			<path class="st0" d="M-26.6,1964.5c0.5-0.1,1-0.2,1.5-0.2c2.5-1.7,5.8-2.7,8-4.9c-4.6,0.8-9.3,1.4-14.1,1.9
				C-29.8,1962.7-28.2,1963.8-26.6,1964.5z"/>
			<path class="st0" d="M286.5,1861.6c0.7,0.1,1.3,0.3,2,0.4C288.7,1861.8,287.7,1861.8,286.5,1861.6z"/>
			<path class="st0" d="M284.4,1861.2c0.6,0.2,1.4,0.3,2.1,0.4C285.8,1861.4,285.1,1861.3,284.4,1861.2z"/>
			<path class="st0" d="M290.9,1911.7c1.3,0.6,7.1,1.7,14.5,1.2c-8.8-2-17.3-3.3-25.7-4.1C283.4,1909.6,287.1,1910.5,290.9,1911.7z"
				/>
			<path class="st0" d="M-52.7,2014.1c0.6-1.2,1.2-2,2-2.4c-1.6-0.2-3.2-0.4-4.8-0.7C-54.9,2012.7-54.2,2014.2-52.7,2014.1z"/>
			<path class="st0" d="M206,1912.8c-29.6,8.9-58.2,25.1-87,41.9c-0.8,1.9-2.9,3.8-2.6,5.2c28.2-16.3,56.7-32.4,87.5-42.2
				C205,1916.3,206.2,1914.7,206,1912.8z"/>
			<path class="st0" d="M206.1,1912.8l1.2,3.8c22.6-6.8,46.5-10.3,72.4-7.9C254.2,1903.1,229.9,1905.6,206.1,1912.8z"/>
			<path class="st0" d="M-74.6,2007.8c-4.7,1.9,3,0.6-2.1,4.3c1.4,0.3,2.7,0.6,4.1,0.9C-73,2010.7-73.6,2008.7-74.6,2007.8z"/>
			<path class="st0" d="M-15,2011.9c1.6,1.1,7.1-2,8.7,2.2c44.1-7.8,83.1-31.2,122.6-54.1l-2.4-2.3C72.4,1982,30.5,2006.7-15,2011.9
				z"/>
			<path class="st0" d="M-38.8,2013.8c2.2-0.6,4.4-1.8,3.7,2.4c0.2,0.3,0.5,0.4,0.7,0.6c0.7,0,1.3,0,2,0c0.7-0.8,1.1-2.4,1.5-3.9
				c-3.7,0-7.4-0.1-11.1-0.3C-41.5,2014.2-40.2,2014.1-38.8,2013.8z"/>
			<path class="st0" d="M-63.7,2011.8c-1.8-2.1-2.7,0-3.5,2.2c1.6,0.3,3.2,0.6,4.8,0.8C-62.7,2013.6-63.1,2012.6-63.7,2011.8z"/>
		</g>
	</g>
</g>
<g>
	<g>
		<g>
			<path class="st1" d="M631.5,449.3c-3.4,0-6.5-1.9-8.2-4.9l-54.7-105.8c-9.9-21.7-8.4-46.8,3.9-67.1c12.1-19.9,32.2-32,55.1-33.2
				l0,0c2.5-0.1,5.1-0.1,7.7,0c22.9,1.2,43,13.2,55.1,33.2c12.4,20.4,13.9,45.4,4,66.9l-54.8,106C638,447.4,634.9,449.3,631.5,449.3
				L631.5,449.3z M628,245.6c-20.5,1-38.4,11.9-49.2,29.7c-11.1,18.3-12.5,40.8-3.6,60.2L629.8,441c0.5,0.9,1.4,1,1.7,1
				c0.4,0,1.3-0.1,1.8-1.1l54.6-105.7c8.8-19.2,7.4-41.7-3.7-60c-10.8-17.8-28.8-28.6-49.2-29.7C632.7,245.4,630.3,245.4,628,245.6
				L628,245.6z"/>
		</g>
		<path class="st2" d="M650.9,287c-7-1.6-14.6,1.5-19.4,7.9c-4.8-6.4-12.4-9.6-19.4-7.9c-7.7,1.8-12.8,8.5-13,17.1
			c-0.4,24.2,31.7,44,32,44.1c0.1,0,0.2,0.1,0.4,0.1c0.1,0,0.2,0,0.4-0.1c0.3-0.1,32.4-20,32-44.1
			C663.7,295.5,658.6,288.8,650.9,287z"/>
	</g>
</g>
<g>
	<g>
		<g>
			<path class="st1" d="M331,1357.5c3.8-21.6,26.6-32.1,45.2-34.3c1.7-0.3,3.5-0.4,5.5-0.4c10.6-12.9,24.7-17.2,31.1-18.2
				c16.4-2.5,25.1,6.9,16.1,13.3c-6.4,4.5-26.5,5-41.7,5.9c-8.4,10.5-11.9,21.4-10.5,28.6c2,9.7,8.4,12.3,24.5,5.9
				c12.3-4.9,24.1-22.4,28.2-29.4c0.6-1.3,1-2,1-2c1.8-1.1,3.4,0.4,2.8,6.3c0,0-9.7,26.2-19.9,47.8c5.3,0.8,10.6,1.8,19.1,2.5
				c16.8,1.4,25.5-1.3,35.4-5c-9.8,4.5-20.3,9.2-53.1,3.6c-0.6-0.1-1.3-0.3-2-0.4c-4.3,9.2-9,17.5-12.9,22.6
				c-9.1,11.3-20.3,14.1-28.7,13.4c-14.4-1.1-14.8-14-10.6-21c6.2-10.6,22.3-16.5,37-16.9c4.1-0.1,7.6,0,10.6,0.4
				c1.5-3.5,2.8-7.1,4.3-10.9c5.2-13.4,9.8-24,12.9-31c-5.9,9.1-15.5,18.9-27.3,22.8c-27.5,9.1-30-15.5-21-31.2
				c1.1-2,2.4-3.8,3.8-5.6C354.3,1326.2,337.3,1338.1,331,1357.5z M369.8,1389.1c-14.1,9.1-13.2,25.9,0.6,27.3
				c17.8,1.7,27.7-13.6,37-35.3C390.4,1379.6,378.8,1383.5,369.8,1389.1z M392.5,1317.8c-1.5,1.4-2.8,2.9-4.2,4.5
				c13-0.8,28.9-1.4,34.9-3.4c13.9-4.3,6.3-12.9-2-13.2C409.6,1305.2,399.8,1310.7,392.5,1317.8z"/>
			<path class="st1" d="M443.4,1343.7c4.5-0.1,8.3,2.7,8.3,9.9c0,2.1-0.4,5.2-1.3,8c1.4-0.6,2.9-1.5,4.5-2.8c6-4.9,7.6-9.9,10.6-9.5
				c-3.4,2.5-6.2,8.5-12,12c-1.1,0.7-2.4,1.1-3.6,1.7c-2.2,6.7-6.6,13.7-11.6,13.4c-7.1-0.3-7.7-9.7-4.3-16.2
				c0.4-0.8,0.8-1.7,1.1-2.4C431,1350,437.8,1343.9,443.4,1343.7z M438.6,1361.7c-1.1,1.8-1.8,3.6-2.4,5.5c-1.3,5,1.1,10.5,5.6,6.6
				c2.1-2,4.5-5.9,6.3-10.5C444.9,1364.1,441.4,1363.6,438.6,1361.7z M441.8,1349.5c2.8-0.4,3.1,2.2,2.8,3.8c0,0.1-2.9,3.2-5.3,7.4
				c2.4,1.8,5.7,2.5,9.4,1.7c2.1-6,2.8-12.9-0.8-15.7c-4.8-4.1-10.6,0.6-11.5,4.1c-0.4,2-0.4,3.8,0,5.5
				C438.9,1351.9,441,1349.5,441.8,1349.5z"/>
			<path class="st1" d="M465.6,1343.7c4.5-0.1,8.3,2.7,8.3,9.9c0,2.1-0.4,5.2-1.3,8c1.4-0.6,2.9-1.5,4.5-2.8c6-4.9,7.6-9.9,10.6-9.5
				c-3.4,2.5-6.2,8.5-12,12c-1.1,0.7-2.4,1.1-3.6,1.7c-2.2,6.7-6.6,13.7-11.6,13.4c-7.1-0.3-7.7-9.7-4.3-16.2
				c0.4-0.8,0.8-1.7,1.1-2.4C453.3,1350,460,1343.9,465.6,1343.7z M460.9,1361.7c-1.1,1.8-1.8,3.6-2.4,5.5c-1.3,5,1.1,10.5,5.6,6.6
				c2.1-2,4.5-5.9,6.3-10.5C467,1364.1,463.5,1363.6,460.9,1361.7z M464.1,1349.5c2.8-0.4,3.1,2.2,2.8,3.8c0,0.1-2.9,3.2-5.3,7.4
				c2.4,1.8,5.7,2.5,9.4,1.7c2.1-6,2.8-12.9-0.8-15.7c-4.8-4.1-10.6,0.6-11.5,4.1c-0.4,2-0.4,3.8,0,5.5
				C461.2,1351.9,463.3,1349.5,464.1,1349.5z"/>
			<path class="st1" d="M489.3,1367.7c3.9-1.1,7.1-1,9.5,0.3c9.8-6.2,15.4-10.5,19.9-18.6c-1,6.6-8.8,13-18.6,19.3
				c4.3,2.9,5.3,9.5,4.3,14.7c-2,9.7-7.7,17.8-18.2,24.5c-8,5-18.6,6.2-22.8,3.4c-10.6-7.4,4.5-23.8,16-31.1
				c7-4.5,12.9-8.3,17.7-11.2c-1.8-0.7-3.9-1-6.9-0.4c-4.8,1.1-8.1,2.5-8.1,2.5S485,1368.8,489.3,1367.7z M480.2,1381.3
				c-24.5,16.2-24.1,36.1-4.1,27c22.7-10.6,25.8-26.5,24.8-33.3c-0.4-1.8-1.1-3.8-2.8-5C492.5,1373.6,486.2,1377.2,480.2,1381.3z
				 M499.1,1347.9c0.4,0.4,1.1,0.8,1.4,1.7c1.8,5.2-4.3,13.2-11.6,17.1c-6.6,3.6-11.1,2.1-12-3.5c-1.7-9.1,9.1-16.2,13.9-17.5
				c2.1-0.6,3.8-0.7,5.2-0.7C499.1,1345.4,500,1347.1,499.1,1347.9z M485.1,1354.5c-5.2,5.6-6.4,12.5-2.2,12.2c4.3-0.4,9-3.5,13-8.5
				c3.2-4.1,3.1-8.3,2.1-9.9C496.2,1348.2,490.4,1349.3,485.1,1354.5z"/>
			<path class="st1" d="M512.7,1377.9c-0.4,2.9,0.1,5.2,2.8,1.5c8-11.2,17.7-26.5,25.9-30c-5.6,5.2-12.9,13.4-18.6,22
				c-8,11.8-9.1,12.5-11.3,11.3c-4.2-2.1-2.1-14.3,0.4-22.6c3.1-9.9,11.2-29.7,20.2-42.9c4.3-6.3,8.3-11.3,12.2-13.9
				c3.1-2.1,6.9-2.9,9.1,0.1c4.5,6.7-20.7,35.6-28.3,42.4c-1.4,1.3-2.4,2.2-3.2,2.8C515,1363.9,513.3,1372.5,512.7,1377.9z
				 M525.9,1339.1c-1.1,2.5-2.4,5-3.4,7.3c3.9-4.1,11.3-11.9,15.5-17.4c9.9-12.6,12.9-18.9,13.6-21.7c1.8-7.1-5.5,0.4-7.6,2.5
				C540.9,1313.6,534.3,1321.9,525.9,1339.1z"/>
			<path class="st1" d="M536.4,1359.7c-1.7,8,2.7,10.9,7.1,9.1c7.6-2.9,14.7-19.5,20-19.3c-5.2,4.8-5.6,6.3-9.2,10.9
				c-4.6,5.9-9.7,11.3-15.4,10.6c-7.7-0.8-8.5-10.5-6.6-14.8c2-4.6,6-9.9,12.6-10.5c5.2-0.4,7.4,4.6,2.2,9.1
				c-3.1,2.5-7.6,3.8-10.6,4.3C536.5,1359,536.4,1359.4,536.4,1359.7z M540.7,1356.6c8.3-2.8,9.8-9.1,5.3-8c0,0-6.7,0.8-9.2,9.1
				C537.9,1357.5,539.3,1357.2,540.7,1356.6z"/>
			<path class="st1" d="M603.1,1353.8c0.1,2.1-2.4,7-2.8,8c0.4,0,1.1-1.4,3.4-4.2c2.8-3.5,5.9-5.9,8.1-5.6c3.2,1.1,3.5,3.8,2.1,6.9
				c-1.3,3.1-2.8,9.1,0.4,5.2c2.4-2.9,12.9-16.7,17.1-18.6c3.5-1.7,7.6,1,5.2,7.6c-0.7,2.5-3.1,6.7-7,12.9
				c-5.9,8.8-5.9,17.7,0.4,12.5c9.9-8,14-29.3,23.4-28.9c-7.7,3.5-10.6,13.4-14,19.1c-6.3,10.9-11.6,14.4-15.4,11.8
				c-3.8-2.7-4.8-7.3-0.3-14.7c6.3-10.2,11.5-22.6,6.7-18.6c-6.6,5.6-14.1,16.5-16.2,18.6c-1.8,1.8-3.6,1.8-5,0.4
				c-1.1-1.1-1.8-3.8,0.7-9.9c2.2-5.5-0.7-2.8-3.1-0.7c-4.3,3.9-10.1,15.3-11.5,17.4c-2.2,3.5-5.3-1-4.1-4.5
				c0.3-0.6,7.6-16.7,6.6-18.5C599.3,1348.9,602.9,1348.8,603.1,1353.8z"/>
			<path class="st1" d="M665.4,1373.6c5.9-8.5,13-23.3,17.9-24.4c-5.2,5.9-6.4,8.5-9.4,13.2c-5.6,9.1-8.7,15.3-12,14.7
				c-3.6-0.6-7-5.3-3.2-15.7c0.1-0.4,0.4-0.8,0.4-1.1c-4.2,5.2-8.3,9.9-12.2,5.6c-3.9-4.5-0.1-12.6,3.5-16c2.7-2.5,7.7-4.5,13-3.2
				c5.9,1.5,1.4,1.5,1.4,1.5s-7.6-1.7-13,7c-3.9,6.4-1.8,12.3,1.4,9.2c1.8-1.7,5.5-6.4,8.5-10.2c1.5-2.5,3.1-5.3,4.6-5.3
				c1.5-0.1,5.2,0.4,2,4.6C659.2,1365.6,659.1,1382.7,665.4,1373.6z"/>
			<path class="st1" d="M641.2,1413.8c-1-13.4,23.8-35.6,27.9-39.2c1.5-1.4,2.8-2.5,3.8-3.1c1.8-5.9,2.9-10.2,3.5-11.5
				c3.2-9.5,5.2-10.8,6.6-10.4c1.8,0.8,1.7,2.8,0.6,5.9c3.2-3.9,7.6-8,13.3-8c7-0.3,9.1,6.6,6.7,14.6c5.3-1.8,10.6-4.9,15.4-12.3
				c-2.5,8.1-9,11.2-15.8,13.4c-0.8,2.4-2.1,5-3.8,7.4c-7.6,10.6-17.1,9.2-18.2,5.9c-1-2.9,1-5.6,4.1-7.7c4.3-2.8,9-3.8,13.4-5.2
				c2.4-6.3,2.9-13.9-1.5-14.3c-5.9-0.6-11.1,4.6-14.7,9.5c-1.7,4.2-4.1,9.8-5.9,16.2c-3.5,12-8.5,26.5-14.7,36
				C653.5,1423.5,641.9,1423.2,641.2,1413.8z M666.1,1379.5c-8.5,8-14.3,14.6-19.3,23.1c-5.5,9.2-4.5,16.9,0.4,16.4
				c10.6-1,20-28.4,25.2-45.7C671,1374.6,669,1376.5,666.1,1379.5z M686,1369.2c-3.6,2.4-4.5,5.3-3.6,6.7c2.1,3.5,8.7-0.7,13-7
				c1-1.1,1.8-2.7,2.4-4.3C693.8,1366,689.6,1367.1,686,1369.2z"/>
			<path class="st1" d="M721,1350.3c-0.4,1.4-0.4,3.5,1,5.9c1.8,3.1,3.8,5.9,4.5,8.3c10.2-5,12.7-8,17.8-14.7
				c-2.2,6.9-9.4,12-17.7,15.8c1.5,4.8,1.3,8.7-1.8,13.4c-5.2,8.3-16.2,10.9-19.9,6.6c-4.9-6,2.8-12.9,14.1-17.8
				c1.7-0.7,2.9-1.4,4.3-2c-0.4-2-1.1-3.8-2.4-5.9c-4.9-7.7-4.1-8.5-3.9-10.4c0.3-3.2,4.1-6.6,4.1-6.6c2.2-1.7,2.8,1.7,2.4,3.5
				C722.6,1347.2,721.4,1348.8,721,1350.3z M722.4,1367c-9.5,4.1-17.8,9.5-17.1,14.7c0.4,3.5,3.5,4.6,7.4,2.5
				c3.8-2.1,12.2-9,11.3-17.8C723.4,1366.9,722.8,1366.9,722.4,1367z"/>
			<path class="st1" d="M774.7,1377.9c-0.4,2.9,0.1,5.2,2.8,1.5c8-11.2,17.7-26.5,25.9-30c-5.6,5.2-12.9,13.4-18.6,22
				c-8,11.8-9.1,12.5-11.3,11.3c-4.2-2.1-2.1-14.3,0.4-22.6c3.1-9.9,11.2-29.7,20.2-42.9c4.3-6.3,8.3-11.3,12.2-13.9
				c3.1-2.1,6.9-2.9,9.1,0.1c4.5,6.7-20.7,35.6-28.3,42.4c-1.4,1.3-2.4,2.2-3.2,2.8C777.2,1363.9,775.4,1372.5,774.7,1377.9z
				 M788.1,1339.1c-1.1,2.5-2.4,5-3.4,7.3c3.9-4.1,11.3-11.9,15.5-17.4c9.9-12.6,12.9-18.9,13.6-21.7c1.8-7.1-5.5,0.4-7.6,2.5
				C803,1313.6,796.5,1321.9,788.1,1339.1z"/>
			<path class="st1" d="M810.2,1361.4c-4.6,6.2-8.4,10.1-12.3,9c-6.3-2-1-17.8,3.5-20.9c2-1,3.1,0.1,2.8,1.7
				c-0.4,2.5-3.1,6.3-4.3,10.8c-0.8,3.4-1.8,7.3,0.7,6.9c3.1-0.4,9.1-9.2,13-14.3c3.4-4.2,4.3-5.3,6.6-5.3
				C817,1351,814.4,1355.8,810.2,1361.4z M805.2,1345.3c-1.1-0.4-1.3-1.1-0.4-2.8c1-2,0.4-2.4,2-3.2c1.1-0.6,4.8-0.3,3.5,2.4
				C809.1,1344.2,806.6,1345.6,805.2,1345.3z"/>
			<path class="st1" d="M823.5,1352.7c0.1,3.4-1,5-2.8,9c4.3-6,14.1-16,21-17.8c3.8-1,5.6,2.5,5.2,5.2c-0.4,3.9-11.9,19.5-13.3,25.2
				c-2,8.5,3.2,5.7,4.9,4.5c4.9-3.6,14.1-20.2,18.2-25.1c5.2-5.9,7-3.9,7-3.9c-8.1,2-17.8,28-26.9,31.5c-2.7,1.1-6.7,0.4-8-3.8
				c-2.4-8.5,13.2-28.4,13.7-31.4c0.4-3.4-9.4,2.7-16.2,10.6c-4.6,5.3-7.1,9.5-9.2,12.7c-0.4,0.7-2.8,0.7-3.8-1
				c-0.4-0.7-1.7-2.4,2.1-10.1c4.2-8.5,2.4-8.3,2.4-8.3C818.9,1348.6,823.5,1349.5,823.5,1352.7z"/>
			<path class="st1" d="M901,1306.2c-1,12.2-27.3,37.1-36,44c-2.1,3.8-2.4,5.9-3.9,10.1c1.5-2.8,10.9-14.3,18.5-12.9
				c7,1.4,4.3,9.2-1.1,12.3c-3.8,2.1-10.8,4.6-11.1,5.5c7.7,3.4,1.8,12.6,5.2,16.2c5.9,3.8,15.4-25.6,27.3-32.1
				c-1.3,1.1-2.4,3.1-4.2,5.2c-8.5,9.5-12.9,21.4-17.8,26.5c-2.4,2.4-5.2,2.1-6.4,1.3c-8-4.5-0.6-15.1-5.9-16.2
				c-1.1-0.3-2.1-2.1-0.8-3.5c2-2.1,8.8-4.1,13.4-7.6c7.7-5.5,1.7-9.2-5.9-3.9c-9.7,6.7-11.3,12.9-14.6,22.6c-4.3,0-4.2-3.6-3.5-7.6
				c0.3-1,9.9-30.5,19.3-44.5c9.1-14.7,17.2-18.9,19.1-19.6C897.5,1300.3,901.3,1302.7,901,1306.2z M894.3,1305.6
				c-12.3,8-23.4,29.1-28.7,42.2c13.2-10.9,32.5-32.9,33.6-40.2C899.9,1304.4,897.4,1303.7,894.3,1305.6z"/>
		</g>
	</g>
</g>
<g>
	<a xlink:href="https://goo.gl/maps/YU1qC2ULXyci4QYj6"  pointer-events="all" target="_blank">
		<rect x="527.1" y="1437.2" class="st3" width="203" height="252.1"/>
		<path class="st1" d="M713.9,1479.2c-12.7-28.9-51.3-36.1-73.7-14c-1,0.8-1.8,1.3-3.1,1.3c-22.4,0-44.8,0-67.2,0
			c-12.2,0-21.6,9.4-21.6,21.6c0,37.5,0,74.8,0,112.3c0,1.4,0.1,3.1,0.4,4.5c2.4,10.5,10.6,17.1,21.4,17.1c18.6,0,37.1,0,55.8,0
			s37.1,0,55.8,0c2.4,0,5-0.4,7.3-1.1c9.1-3.1,14.7-10.9,14.7-20.6c0-21.6,0-43.1,0-64.6c0-1,0.4-2,0.8-2.8
			c2.2-3.5,4.5-6.9,6.6-10.6C719,1508.2,720.5,1493.9,713.9,1479.2z M643.4,1534.1c10.5,14.3,19.5,29.7,23.7,47.6
			c-12-12-24-24-35.7-35.6C635.3,1542.1,639.3,1538.2,643.4,1534.1z M559.6,1606.3c-0.4,0.4-0.7,0.8-1.4,1.3
			c-0.1-0.8-0.1-1.1-0.1-1.7c0-40.5,0-81,0-121.7c0-5,3.2-8.3,8.1-8.3c22,0,44.3,0,66.3,0c0.4,0,0.7,0,0.8,0
			c-1,3.9-2.2,7.7-2.8,11.6c-2.1,12,0.6,23.5,6.3,34c0.6,1,0.8,2.1,1.7,2.8c1.3,1.5,0.7,2.5-0.6,3.9
			C611.6,1554.3,585.7,1580.3,559.6,1606.3z M565.2,1613.4c20-20,40.2-40.2,60.4-60.2c19.8,19.8,39.9,39.9,60.2,60.2
			C645.4,1613.4,605,1613.4,565.2,1613.4z M694.5,1602.6c0,1.7-0.6,3.4-1,4.9c-8.3-8.3-16.2-16.2-24.2-24.2c0.8-0.1,1.7-0.1,2.7-0.3
			c6.2-1.1,9.2-5.2,10.5-10.9c2.2-9.8,5.7-19.2,10.4-28.2c0.3-0.7,0.7-1.4,1.3-2.2c0.1,0.8,0.3,1.3,0.3,1.7
			C694.7,1563,694.7,1582.7,694.5,1602.6z M702.2,1512.3c-3.1,5.6-6.6,10.8-10.1,16.1c-7.7,11.2-14.3,23-19.3,35.6
			c-0.1,0.4-0.4,0.7-0.6,1.3c-1.7-3.8-3.2-7.3-4.8-10.8c-5.2-11.3-12-21.6-19.1-31.8c-3.8-5.5-7.1-11.2-9.1-17.7
			c-5.7-19.1,7-39.9,26.8-43.3c18.2-3.2,34.9,7.4,39.6,25.4C707.8,1495.7,706.6,1504.3,702.2,1512.3z"/>
		<path class="st1" d="M605.7,1493.6c-1.7,1.7-3.2,3.2-5,4.9c-7.4-4.9-13.2-5.2-18.5-1c-4.9,3.8-6.7,10.1-4.6,16
			c2,5.6,7.6,9.4,13.4,9.2c4.9-0.1,10.5-3.2,11.5-7c-3.9,0-7.7,0-11.6,0c0-2.4,0-4.6,0-7c7,0,13.9,0,20.9,0
			c1.8,5.9-4.8,16.1-12.5,19.3c-9.9,4.3-21.7,0.4-27-9.1s-2.5-21.4,6.4-27.7C587.9,1485.1,599.7,1487.3,605.7,1493.6z"/>
		<path class="st1" d="M661.6,1498c0-5.9,4.8-10.6,10.6-10.5c5.9,0,10.5,4.8,10.5,10.6s-4.8,10.6-10.6,10.6
			C666.2,1508.8,661.5,1504,661.6,1498z"/>
	</a>
	<g>
		<path class="st4" d="M593.1,1675.1v0.8c-2.2-1.1-4.1-2.4-5.5-3.9c-2.1-2.1-3.8-4.6-4.9-7.6c-1.1-3-1.7-5.9-1.7-9
			c0-4.5,1.1-8.7,3.4-12.5c2.2-3.8,5.2-6.4,8.7-8v1c-1.8,1-3.2,2.4-4.3,4.1s-2.1,3.9-2.5,6.6c-0.6,2.7-0.8,5.3-0.8,8.3
			c0,3.2,0.3,6,0.7,8.5c0.4,2.1,0.8,3.6,1.4,4.9c0.4,1.3,1.3,2.4,2.2,3.5C590.4,1673.1,591.6,1674.1,593.1,1675.1z"/>
		<path class="st4" d="M613.1,1658.8c-0.4,2.7-1.5,4.8-3.2,6c-1.5,1.4-3.2,2.2-5.2,2.2c-2.4,0-4.2-1-6-2.9c-1.7-2-2.5-4.5-2.5-7.8
			c0-3.2,1-5.7,2.8-7.7s4.2-2.9,6.9-2.9c2,0,3.6,0.4,4.9,1.5c1.3,1.1,2,2.2,2,3.2c0,0.6-0.1,1-0.4,1.4c-0.4,0.4-0.8,0.4-1.4,0.4
			c-0.8,0-1.4-0.3-2-0.8c-0.3-0.4-0.4-0.8-0.4-1.7c-0.1-0.8-0.4-1.5-0.8-2c-0.4-0.5-1.3-0.6-2.1-0.6c-1.4,0-2.7,0.4-3.5,1.5
			c-1.3,1.4-1.8,3.2-1.8,5.7c0,2.4,0.6,4.5,1.7,6.3c1.3,1.8,2.8,2.8,4.8,2.8c1.4,0,2.7-0.4,3.9-1.4c0.8-0.7,1.5-2,2.4-3.6
			L613.1,1658.8z"/>
		<path class="st4" d="M623.5,1635.2v26.6c0,1.3,0.1,2.1,0.3,2.5c0.1,0.4,0.4,0.7,0.8,1s1.1,0.4,2.1,0.4v0.7h-9.8v-0.7
			c1,0,1.5-0.1,2-0.3c0.4-0.3,0.6-0.4,0.7-1c0.1-0.6,0.3-1.4,0.3-2.5v-18.2c0-2.4,0-3.6-0.1-4.1c-0.1-0.4-0.3-0.8-0.4-1.1
			c-0.3-0.3-0.4-0.3-0.8-0.3c-0.4,0-0.8,0.1-1.4,0.4l-0.4-0.7l6-2.4h1.1L623.5,1635.2L623.5,1635.2z"/>
		<path class="st4" d="M636.5,1645.8v16.2c0,1.3,0.1,2.1,0.3,2.5c0.1,0.4,0.4,0.7,0.8,1c0.4,0.3,1,0.4,2,0.4v0.7h-9.8v-0.7
			c1,0,1.5-0.1,2-0.3c0.4-0.3,0.6-0.4,0.7-1c0.3-0.4,0.3-1.4,0.3-2.5v-7.8c0-2.2-0.1-3.5-0.3-4.2c-0.1-0.4-0.3-0.8-0.4-1
			c-0.3-0.1-0.4-0.3-0.8-0.3c-0.4,0-0.8,0.1-1.4,0.4l-0.4-0.7l6-2.4h1.1L636.5,1645.8L636.5,1645.8z M634.6,1635.2
			c0.6,0,1.1,0.3,1.5,0.6c0.4,0.4,0.6,1,0.6,1.5c0,0.6-0.3,1.1-0.6,1.5c-0.4,0.4-1,0.6-1.5,0.6c-0.6,0-1.1-0.3-1.5-0.6
			c-0.4-0.4-0.6-1-0.6-1.5c0-0.6,0.3-1.1,0.6-1.5C633.4,1635.4,634.1,1635.2,634.6,1635.2z"/>
		<path class="st4" d="M659.6,1658.8c-0.4,2.7-1.5,4.8-3.2,6c-1.5,1.4-3.2,2.2-5.2,2.2c-2.4,0-4.2-1-6-2.9c-1.7-2-2.5-4.5-2.5-7.8
			c0-3.2,1-5.7,2.8-7.7s4.2-2.9,6.9-2.9c2,0,3.6,0.4,4.9,1.5c1.3,1.1,2,2.2,2,3.2c0,0.6-0.1,1-0.4,1.4c-0.4,0.4-0.8,0.4-1.4,0.4
			c-0.8,0-1.4-0.3-2-0.8c-0.3-0.4-0.4-0.8-0.4-1.7c-0.1-0.8-0.4-1.5-0.8-2c-0.4-0.5-1.3-0.6-2.1-0.6c-1.4,0-2.7,0.4-3.5,1.5
			c-1.3,1.4-1.8,3.2-1.8,5.7c0,2.4,0.6,4.5,1.7,6.3c1.3,1.8,2.8,2.8,4.8,2.8c1.4,0,2.7-0.4,3.9-1.4c0.8-0.7,1.5-2,2.4-3.6
			L659.6,1658.8z"/>
		<path class="st4" d="M662.6,1636.1v-1c2.2,1.1,4.1,2.4,5.6,3.9c2.1,2.1,3.6,4.6,4.9,7.6c1.1,2.9,1.7,5.9,1.7,9
			c0,4.5-1.1,8.7-3.2,12.5c-2.2,3.8-5.2,6.4-8.7,8v-0.8c1.8-1,3.2-2.4,4.3-4.1c1.3-1.7,2.1-3.9,2.5-6.6c0.6-2.7,0.8-5.5,0.8-8.3
			c0-3.2-0.3-6-0.7-8.5c-0.4-2.1-0.8-3.6-1.4-4.9c-0.4-1.3-1.3-2.4-2.2-3.5C665.3,1638.2,664.2,1637.1,662.6,1636.1z"/>
	</g>
</g>
<g>
	<path class="st1" d="M226.6,759.6h17.5c4.6,0,8.1,1,10.3,3c2.3,2,3.4,4.4,3.4,7.3c0,2.3-0.7,4.4-2.2,6.6c-1.4,2.1-3.6,3.8-6.4,5.2
		c-2.9,1.3-5.9,2-9.2,2c-2.1,0-4.7-0.4-7.9-1.1l-3.5,12.2c-0.8,2.9-1.3,4.8-1.3,5.7c0,0.7,0.3,1.3,0.9,1.7c0.6,0.4,2,0.7,4.3,0.9
		l-0.4,1.2h-17.7l0.3-1.2c2.3,0,4-0.4,4.9-1.2s1.9-3,2.9-6.6l7.4-25.4c0.9-3,1.3-5.1,1.3-6.1c0-0.8-0.3-1.4-0.9-1.9
		c-0.6-0.5-2-0.8-4.1-0.9L226.6,759.6z M232.7,780.4c2.5,0.7,4.5,1,6,1c2.4,0,4.5-0.5,6.5-1.5s3.5-2.5,4.6-4.4s1.7-4,1.7-6.1
		c0-2.2-0.7-4-2-5.2c-1.4-1.3-3.4-1.9-6.2-1.9c-1.5,0-3.3,0.2-5.4,0.5L232.7,780.4z"/>
	<path class="st1" d="M288.8,774.4l-6.4,22.3l-0.7,3c-0.1,0.3-0.1,0.5-0.1,0.7c0,0.4,0.1,0.7,0.3,0.9c0.2,0.2,0.4,0.3,0.7,0.3
		c0.3,0,0.6-0.2,1.1-0.5c0.8-0.6,2-1.9,3.4-3.9l1.1,0.8c-1.5,2.3-3,4-4.7,5.2c-1.6,1.2-3.1,1.8-4.4,1.8c-0.9,0-1.6-0.2-2.1-0.7
		s-0.7-1.1-0.7-2c0-1.1,0.2-2.5,0.7-4.2l0.7-2.5c-2.9,3.8-5.5,6.4-7.9,7.9c-1.7,1.1-3.4,1.6-5.1,1.6c-1.6,0-3-0.7-4.1-2
		s-1.7-3.1-1.7-5.4c0-3.5,1-7.2,3.1-11c2.1-3.9,4.7-7,8-9.3c2.5-1.8,4.9-2.8,7.1-2.8c1.4,0,2.5,0.4,3.4,1.1c0.9,0.7,1.6,1.9,2,3.5
		l1.2-3.8L288.8,774.4z M277.1,776.2c-1.4,0-2.9,0.7-4.4,2c-2.3,1.9-4.3,4.6-6,8.3s-2.6,7-2.6,9.9c0,1.5,0.4,2.6,1.1,3.5
		s1.6,1.3,2.6,1.3c2.4,0,5-1.8,7.8-5.3c3.8-4.7,5.6-9.5,5.6-14.4c0-1.9-0.4-3.2-1.1-4C279.3,776.6,278.3,776.2,277.1,776.2z"/>
	<path class="st1" d="M294.3,776.3l11.3-1.9l-4.7,16c3.8-6.6,7.3-11.1,10.4-13.8c1.8-1.5,3.2-2.2,4.3-2.2c0.7,0,1.3,0.2,1.7,0.7
		c0.4,0.4,0.6,1.1,0.6,1.9c0,1.4-0.4,2.8-1.1,4.1c-0.5,1-1.3,1.5-2.3,1.5c-0.5,0-0.9-0.2-1.3-0.5s-0.6-0.8-0.7-1.5
		c0-0.4-0.1-0.7-0.3-0.8c-0.2-0.2-0.4-0.2-0.6-0.2c-0.4,0-0.7,0.1-1.1,0.2c-0.6,0.3-1.4,1.2-2.6,2.6c-1.8,2.2-3.8,4.9-5.9,8.3
		c-0.9,1.4-1.7,3.1-2.4,4.9c-0.9,2.5-1.4,4-1.6,4.5l-1.1,4.1h-5l6.1-20.4c0.7-2.4,1-4.1,1-5.1c0-0.4-0.2-0.7-0.5-1
		c-0.4-0.4-1-0.5-1.7-0.5c-0.5,0-1.3,0.1-2.5,0.3L294.3,776.3z"/>
	<path class="st1" d="M320.5,776.3l11.3-1.9l-4.7,16c3.8-6.6,7.3-11.1,10.4-13.8c1.8-1.5,3.2-2.2,4.3-2.2c0.7,0,1.3,0.2,1.7,0.7
		c0.4,0.4,0.6,1.1,0.6,1.9c0,1.4-0.4,2.8-1.1,4.1c-0.5,1-1.3,1.5-2.3,1.5c-0.5,0-0.9-0.2-1.3-0.5s-0.6-0.8-0.7-1.5
		c0-0.4-0.1-0.7-0.3-0.8c-0.2-0.2-0.4-0.2-0.6-0.2c-0.4,0-0.7,0.1-1.1,0.2c-0.6,0.3-1.4,1.2-2.6,2.6c-1.8,2.2-3.8,4.9-5.9,8.3
		c-0.9,1.4-1.7,3.1-2.4,4.9c-0.9,2.5-1.4,4-1.6,4.5l-1.1,4.1h-5l6.1-20.4c0.7-2.4,1-4.1,1-5.1c0-0.4-0.2-0.7-0.5-1
		c-0.4-0.4-1-0.5-1.7-0.5c-0.5,0-1.3,0.1-2.5,0.3L320.5,776.3z"/>
	<path class="st1" d="M374.3,784.7c0,3.3-0.9,6.6-2.6,9.8s-4.2,5.8-7.3,7.7c-3.1,1.9-6.1,2.8-9.1,2.8s-5.4-1-7.3-2.9
		s-2.9-4.4-2.9-7.4c0-3.2,0.9-6.5,2.8-9.7s4.3-5.8,7.4-7.7s6.1-2.8,9-2.8s5.3,1,7.2,2.9C373.4,779.2,374.3,781.7,374.3,784.7z
		 M368.9,782.5c0-2-0.5-3.6-1.5-4.7c-1-1.1-2.3-1.6-3.9-1.6c-3.2,0-6.2,2.3-8.9,6.9c-2.7,4.6-4.1,9.2-4.1,13.8
		c0,2.1,0.5,3.7,1.6,4.8s2.4,1.7,4,1.7c3.1,0,6-2.3,8.7-6.9C367.5,791.9,368.9,787.2,368.9,782.5z"/>
	<path class="st1" d="M408.8,774.4L398,811.6c-0.5,1.7-0.7,2.8-0.7,3.3s0.1,0.9,0.4,1.3c0.2,0.4,0.6,0.6,1,0.8
		c0.7,0.3,1.6,0.4,2.7,0.4l-0.4,1.2h-15.7l0.3-1.2c2.1-0.2,3.5-0.4,4-0.6c0.8-0.3,1.5-0.9,2.1-1.6c0.5-0.7,1.1-2.3,1.8-4.7l4.5-16.2
		c-2.9,4.2-5.6,7.2-8.1,8.9c-1.8,1.2-3.4,1.8-4.9,1.8c-2.2,0-3.9-0.9-5-2.7s-1.7-3.7-1.7-5.8c0-3.3,1-6.8,3.1-10.4
		c2-3.6,4.7-6.6,8-9c2.6-1.8,4.9-2.7,7.1-2.7c1.6,0,2.8,0.4,3.8,1.1c1,0.8,1.8,2,2.2,3.6l1-3.7L408.8,774.4z M401.3,780.9
		c0-1.4-0.4-2.5-1.3-3.4s-1.9-1.3-3.2-1.3c-2.7,0-5.5,2.3-8.4,6.9c-3,4.6-4.4,8.9-4.4,13c0,1.6,0.4,2.9,1.1,3.7
		c0.7,0.9,1.6,1.3,2.7,1.3c1.4,0,2.9-0.7,4.6-2.2c2.6-2.3,4.7-5.2,6.4-8.7C400.4,786.5,401.3,783.5,401.3,780.9z"/>
	<path class="st1" d="M442.2,775.3l-5.7,19.6c-0.8,2.9-1.3,4.7-1.3,5.5c0,0.4,0.1,0.7,0.2,0.9s0.3,0.3,0.6,0.3
		c0.4,0,0.8-0.2,1.2-0.5c0.4-0.3,1.6-1.7,3.4-4.1l1,0.8c-1.7,2.7-3.5,4.7-5.3,6c-1.2,0.8-2.4,1.2-3.5,1.2c-0.9,0-1.5-0.2-2-0.7
		s-0.7-1.1-0.7-1.9c0-0.8,0.1-1.8,0.4-3c0.4-1.6,1.4-5.1,3-10.6c-3.7,6.1-6.8,10.3-9.3,12.7c-2.5,2.3-4.8,3.5-7,3.5
		c-1,0-1.9-0.3-2.6-1s-1.1-1.6-1.1-2.7c0-1.6,0.5-4.1,1.4-7.6l2.9-10.2c0.7-2.4,1-3.9,1-4.5c0-0.2-0.1-0.5-0.3-0.7
		c-0.2-0.2-0.4-0.3-0.6-0.3c-0.5,0-0.9,0.2-1.4,0.5s-1.5,1.5-3.1,3.6l-1-0.7c1.7-2.6,3.4-4.4,5.2-5.6c1.4-1,2.7-1.4,3.9-1.4
		c0.8,0,1.5,0.3,2,0.8s0.8,1.2,0.8,2c0,1.2-0.4,3.3-1.3,6.3l-3.1,10.6c-0.8,2.9-1.3,4.7-1.3,5.5c0,0.4,0.1,0.7,0.4,1
		s0.6,0.4,1.1,0.4c0.7,0,1.6-0.4,2.8-1.1c1.2-0.7,2.7-2.3,4.7-4.8c1.9-2.5,3.5-4.8,4.8-7s2.6-5.6,4-10.4l0.7-2.5h5.1V775.3z"/>
	<path class="st1" d="M459.6,774.4l-6.5,23.1c-0.4,1.6-0.7,2.5-0.7,2.8c0,0.4,0.1,0.6,0.3,0.9c0.2,0.2,0.4,0.3,0.7,0.3
		c0.4,0,0.7-0.2,1.2-0.5c1.3-1,2.5-2.4,3.8-4.2l1.1,0.8c-1.5,2.3-3.3,4.2-5.3,5.8c-1.5,1.1-2.9,1.7-4.2,1.7c-0.9,0-1.6-0.3-2.2-0.8
		s-0.9-1.2-0.9-2s0.3-2.2,0.8-4l4.3-14.7c0.7-2.4,1-3.9,1-4.5c0-0.5-0.2-0.9-0.5-1.2s-0.8-0.5-1.4-0.5c-0.5,0-1.5,0.1-3,0.4v-1.3
		L459.6,774.4z M459.2,761.4c0.9,0,1.7,0.3,2.3,1c0.6,0.6,0.9,1.4,0.9,2.3c0,0.9-0.3,1.7-1,2.3c-0.6,0.7-1.4,1-2.3,1s-1.7-0.3-2.3-1
		c-0.7-0.7-1-1.4-1-2.3c0-0.9,0.3-1.7,1-2.3C457.5,761.7,458.3,761.4,459.2,761.4z"/>
	<path class="st1" d="M494.4,774.4l-6.4,22.3l-0.7,3c-0.1,0.3-0.1,0.5-0.1,0.7c0,0.4,0.1,0.7,0.3,0.9c0.2,0.2,0.4,0.3,0.7,0.3
		c0.3,0,0.6-0.2,1.1-0.5c0.8-0.6,2-1.9,3.4-3.9l1.1,0.8c-1.5,2.3-3,4-4.7,5.2c-1.6,1.2-3.1,1.8-4.4,1.8c-0.9,0-1.6-0.2-2.1-0.7
		s-0.7-1.1-0.7-2c0-1.1,0.2-2.5,0.7-4.2l0.7-2.5c-2.9,3.8-5.5,6.4-7.9,7.9c-1.7,1.1-3.4,1.6-5.1,1.6c-1.6,0-3-0.7-4.1-2
		c-1.2-1.3-1.7-3.1-1.7-5.4c0-3.5,1-7.2,3.1-11c2.1-3.9,4.7-7,8-9.3c2.5-1.8,4.9-2.8,7.1-2.8c1.4,0,2.5,0.4,3.4,1.1
		c0.9,0.7,1.6,1.9,2,3.5l1.2-3.8L494.4,774.4z M482.7,776.2c-1.4,0-2.9,0.7-4.4,2c-2.3,1.9-4.3,4.6-6,8.3s-2.6,7-2.6,9.9
		c0,1.5,0.4,2.6,1.1,3.5s1.6,1.3,2.6,1.3c2.4,0,5-1.8,7.8-5.3c3.8-4.7,5.6-9.5,5.6-14.4c0-1.9-0.4-3.2-1.1-4
		C484.9,776.6,484,776.2,482.7,776.2z"/>
	<path class="st1" d="M549.7,757.5l-11.3,38.8c-0.6,2.1-0.9,3.5-0.9,4.2c0,0.2,0.1,0.4,0.3,0.6c0.2,0.2,0.4,0.3,0.6,0.3
		c0.3,0,0.6-0.1,1-0.4c0.8-0.5,2-1.9,3.8-4l1.1,0.7c-1.6,2.2-3.2,3.9-4.8,5.3c-1.6,1.4-3.1,2-4.5,2c-0.8,0-1.4-0.3-1.9-0.8
		s-0.7-1.3-0.7-2.2c0-1.3,0.3-2.9,1-5l1.3-4.1c-3.2,4.9-6,8.3-8.7,10.2c-1.8,1.3-3.5,1.9-5.1,1.9c-1.7,0-3.1-0.7-4.4-2.2
		c-1.2-1.5-1.9-3.5-1.9-6c0-3.3,1-6.7,3.1-10.4s4.8-6.7,8.3-9c2.7-1.9,5.2-2.8,7.4-2.8c1.2,0,2.2,0.2,3,0.7c0.9,0.5,1.7,1.3,2.6,2.4
		l3.2-11.4c0.2-0.8,0.4-1.5,0.6-2c0.3-0.9,0.4-1.6,0.4-2.2c0-0.5-0.2-0.8-0.5-1.1c-0.5-0.4-1.1-0.6-1.8-0.6c-0.5,0-1.3,0.1-2.5,0.2
		v-1.2L549.7,757.5z M537.5,780.8c0-1.4-0.4-2.5-1.2-3.4c-0.8-0.8-1.8-1.3-3.1-1.3c-2.8,0-5.7,2.3-8.6,6.8c-3,4.5-4.5,8.9-4.5,13.1
		c0,1.7,0.4,2.9,1.1,3.8c0.7,0.9,1.6,1.3,2.6,1.3c2.3,0,5.1-2.5,8.6-7.4C535.8,788.8,537.5,784.5,537.5,780.8z"/>
	<path class="st1" d="M554.9,791.8c-0.1,1.1-0.2,2-0.2,2.7c0,2,0.7,3.6,2.1,5c1.4,1.4,3.1,2.1,5,2.1c1.6,0,3.1-0.3,4.6-1
		s3.6-2.1,6.5-4.3l0.7,0.9c-5.2,5.1-10.2,7.7-14.9,7.7c-3.2,0-5.6-1-7.2-3c-1.6-2-2.4-4.2-2.4-6.7c0-3.3,1-6.6,3-10s4.5-6.1,7.6-8
		c3-1.9,6.2-2.9,9.4-2.9c2.3,0,4,0.5,5.1,1.4c1.1,1,1.7,2.1,1.7,3.3c0,1.8-0.7,3.6-2.2,5.2c-1.9,2.2-4.7,3.9-8.4,5.3
		C562.8,790.6,559.4,791.3,554.9,791.8z M555.1,790.2c3.2-0.4,5.9-1,7.9-1.9c2.7-1.2,4.7-2.6,6.1-4.3c1.3-1.7,2-3.3,2-4.8
		c0-0.9-0.3-1.6-0.9-2.2c-0.6-0.6-1.4-0.9-2.5-0.9c-2.2,0-4.6,1.2-7.1,3.6C558.2,782,556.3,785.5,555.1,790.2z"/>
	<path class="st1" d="M612.9,759.6l13.8,34.9l7.5-26.1c0.6-2.1,0.9-3.8,0.9-5c0-0.8-0.3-1.5-0.9-1.9c-0.6-0.5-1.6-0.7-3.2-0.7
		c-0.3,0-0.5,0-0.8,0l0.4-1.2h14.3l-0.4,1.2c-1.5,0-2.6,0.1-3.3,0.4c-1,0.5-1.8,1.1-2.3,1.8c-0.7,1-1.4,2.8-2.1,5.4l-10.5,36.7H625
		l-14.8-37.6l-7.9,27.8c-0.6,2.1-0.9,3.7-0.9,4.9c0,0.8,0.3,1.4,0.8,1.9c0.5,0.4,1.8,0.7,3.8,0.9l-0.3,1.2h-14l0.4-1.2
		c1.8,0,3-0.2,3.6-0.4c0.9-0.4,1.6-0.9,2-1.6c0.6-1,1.3-2.8,2.1-5.6l8.8-31c-0.8-1.3-1.8-2.2-2.7-2.7c-1-0.5-2.5-0.8-4.5-0.9
		l0.4-1.2L612.9,759.6L612.9,759.6z"/>
	<path class="st1" d="M670.2,775.3l-5.7,19.6c-0.8,2.9-1.3,4.7-1.3,5.5c0,0.4,0.1,0.7,0.2,0.9c0.1,0.2,0.3,0.3,0.6,0.3
		c0.4,0,0.8-0.2,1.2-0.5s1.6-1.7,3.4-4.1l1,0.8c-1.7,2.7-3.5,4.7-5.3,6c-1.2,0.8-2.4,1.2-3.5,1.2c-0.9,0-1.5-0.2-2-0.7
		s-0.7-1.1-0.7-1.9c0-0.8,0.1-1.8,0.4-3c0.4-1.6,1.4-5.1,3-10.6c-3.7,6.1-6.8,10.3-9.3,12.7c-2.5,2.3-4.8,3.5-7,3.5
		c-1,0-1.9-0.3-2.6-1c-0.7-0.7-1.1-1.6-1.1-2.7c0-1.6,0.5-4.1,1.4-7.6l2.9-10.2c0.7-2.4,1-3.9,1-4.5c0-0.2-0.1-0.5-0.3-0.7
		s-0.4-0.3-0.6-0.3c-0.5,0-0.9,0.2-1.4,0.5s-1.5,1.5-3.1,3.6l-1-0.7c1.7-2.6,3.4-4.4,5.2-5.6c1.4-1,2.7-1.4,3.9-1.4
		c0.8,0,1.5,0.3,2,0.8s0.8,1.2,0.8,2c0,1.2-0.4,3.3-1.3,6.3l-3.1,10.6c-0.8,2.9-1.3,4.7-1.3,5.5c0,0.4,0.1,0.7,0.4,1
		c0.3,0.3,0.6,0.4,1.1,0.4c0.7,0,1.6-0.4,2.8-1.1c1.2-0.7,2.7-2.3,4.7-4.8c1.9-2.5,3.5-4.8,4.8-7s2.6-5.6,4-10.4l0.7-2.5h5.1V775.3z
		"/>
	<path class="st1" d="M680.1,791.8c-0.1,1.1-0.2,2-0.2,2.7c0,2,0.7,3.6,2.1,5c1.4,1.4,3.1,2.1,5,2.1c1.6,0,3.1-0.3,4.6-1
		s3.6-2.1,6.5-4.3l0.7,0.9c-5.2,5.1-10.2,7.7-14.9,7.7c-3.2,0-5.6-1-7.2-3c-1.6-2-2.4-4.2-2.4-6.7c0-3.3,1-6.6,3-10s4.5-6.1,7.6-8
		c3-1.9,6.2-2.9,9.4-2.9c2.3,0,4,0.5,5.1,1.4c1.1,1,1.7,2.1,1.7,3.3c0,1.8-0.7,3.6-2.2,5.2c-1.9,2.2-4.7,3.9-8.4,5.3
		C688,790.6,684.6,791.3,680.1,791.8z M680.4,790.2c3.2-0.4,5.9-1,7.9-1.9c2.7-1.2,4.7-2.6,6.1-4.3c1.3-1.7,2-3.3,2-4.8
		c0-0.9-0.3-1.6-0.9-2.2c-0.6-0.6-1.4-0.9-2.5-0.9c-2.2,0-4.6,1.2-7.1,3.6C683.4,782,681.6,785.5,680.4,790.2z"/>
	<path class="st1" d="M726.4,774.4l-2,10.1h-1.2c-0.1-2.9-0.7-5.1-1.9-6.4c-1.1-1.3-2.6-2-4.2-2c-1.3,0-2.4,0.4-3.2,1.1
		c-0.8,0.7-1.2,1.6-1.2,2.7c0,0.7,0.2,1.4,0.5,2.1c0.3,0.7,1,1.6,2.1,2.8c2.8,3.1,4.7,5.5,5.5,7c0.8,1.6,1.2,3.1,1.2,4.5
		c0,2.3-0.9,4.3-2.8,6.1c-1.9,1.8-4.3,2.6-7.2,2.6c-1.6,0-3.4-0.4-5.5-1.1c-0.7-0.3-1.3-0.4-1.7-0.4c-1,0-1.7,0.5-2.2,1.5h-1.2
		l2-10.7h1.2c0.1,3.3,0.8,5.7,2,7.1c1.3,1.4,3,2.1,5.1,2.1c1.7,0,3-0.5,4-1.4s1.5-2.1,1.5-3.4c0-0.9-0.2-1.7-0.5-2.4
		c-0.6-1.3-1.9-3.1-3.9-5.4c-2-2.3-3.2-4.1-3.8-5.2c-0.6-1.2-0.8-2.3-0.8-3.5c0-2.1,0.8-3.9,2.3-5.4c1.6-1.5,3.5-2.2,6-2.2
		c0.7,0,1.3,0.1,1.9,0.2c0.3,0.1,1,0.3,2.1,0.8c1.1,0.4,1.9,0.6,2.3,0.6c0.9,0,1.7-0.5,2.4-1.6h1.2V774.4z"/>
	<path class="st1" d="M745.7,766.3l-2.6,8.9h5.2l-0.6,2.1h-5.1l-5.7,19.3c-0.6,2.1-0.9,3.4-0.9,4c0,0.4,0.1,0.7,0.2,0.9
		c0.2,0.2,0.4,0.3,0.6,0.3c0.5,0,1.3-0.4,2.2-1.2c0.5-0.4,1.7-1.8,3.6-4l1.1,0.9c-2,2.9-3.9,5-5.7,6.2c-1.2,0.8-2.5,1.2-3.7,1.2
		c-1,0-1.7-0.3-2.3-0.9c-0.6-0.6-0.9-1.4-0.9-2.3c0-1.2,0.3-3,1-5.4l5.5-19h-5l0.3-1.3c2.4-0.7,4.4-1.6,6-2.9
		c1.6-1.3,3.4-3.6,5.4-6.8H745.7z"/>
	<path class="st1" d="M750.4,776.3l11.3-1.9l-4.7,16c3.8-6.6,7.3-11.1,10.4-13.8c1.8-1.5,3.2-2.2,4.3-2.2c0.7,0,1.3,0.2,1.7,0.7
		c0.4,0.4,0.6,1.1,0.6,1.9c0,1.4-0.4,2.8-1.1,4.1c-0.5,1-1.3,1.5-2.3,1.5c-0.5,0-0.9-0.2-1.3-0.5c-0.4-0.3-0.6-0.8-0.7-1.5
		c0-0.4-0.1-0.7-0.3-0.8c-0.2-0.2-0.4-0.2-0.6-0.2c-0.4,0-0.7,0.1-1.1,0.2c-0.6,0.3-1.4,1.2-2.6,2.6c-1.8,2.2-3.8,4.9-5.9,8.3
		c-0.9,1.4-1.7,3.1-2.4,4.9c-0.9,2.5-1.4,4-1.6,4.5l-1.1,4.1h-5l6.1-20.4c0.7-2.4,1-4.1,1-5.1c0-0.4-0.2-0.7-0.5-1
		c-0.4-0.4-1-0.5-1.7-0.5c-0.5,0-1.3,0.1-2.5,0.3L750.4,776.3z"/>
	<path class="st1" d="M804.7,774.4l-6.4,22.3l-0.7,3c-0.1,0.3-0.1,0.5-0.1,0.7c0,0.4,0.1,0.7,0.3,0.9s0.4,0.3,0.7,0.3
		s0.6-0.2,1.1-0.5c0.8-0.6,2-1.9,3.4-3.9l1.1,0.8c-1.5,2.3-3,4-4.7,5.2c-1.6,1.2-3.1,1.8-4.4,1.8c-0.9,0-1.6-0.2-2.1-0.7
		s-0.7-1.1-0.7-2c0-1.1,0.2-2.5,0.7-4.2l0.7-2.5c-2.9,3.8-5.5,6.4-7.9,7.9c-1.7,1.1-3.4,1.6-5.1,1.6c-1.6,0-3-0.7-4.1-2
		c-1.2-1.3-1.7-3.1-1.7-5.4c0-3.5,1-7.2,3.1-11c2.1-3.9,4.7-7,8-9.3c2.5-1.8,4.9-2.8,7.1-2.8c1.4,0,2.5,0.4,3.4,1.1
		c0.9,0.7,1.6,1.9,2,3.5l1.2-3.8L804.7,774.4z M793,776.2c-1.4,0-2.9,0.7-4.4,2c-2.3,1.9-4.3,4.6-6,8.3s-2.6,7-2.6,9.9
		c0,1.5,0.4,2.6,1.1,3.5c0.7,0.9,1.6,1.3,2.6,1.3c2.4,0,5-1.8,7.8-5.3c3.8-4.7,5.6-9.5,5.6-14.4c0-1.9-0.4-3.2-1.1-4
		C795.2,776.6,794.2,776.2,793,776.2z"/>
	<path class="st1" d="M824,805.2l3.7-16.5h1.1c-0.2,1.6-0.2,2.9-0.2,4c0,3,1,5.5,2.9,7.3c1.9,1.9,4.4,2.8,7.5,2.8
		c2.9,0,5-0.9,6.5-2.6c1.5-1.8,2.2-3.8,2.2-6.1c0-1.5-0.3-2.9-1-4.1c-1-1.8-3.8-5-8.3-9.6c-2.1-2.2-3.5-3.8-4.2-4.9
		c-1-1.8-1.5-3.6-1.5-5.6c0-3.1,1.2-5.8,3.5-8s5.3-3.3,8.9-3.3c1.3,0,2.4,0.1,3.5,0.4c0.7,0.1,1.9,0.6,3.7,1.3
		c1.3,0.5,1.9,0.8,2.1,0.8c0.3,0.1,0.7,0.1,1,0.1c0.7,0,1.2-0.2,1.7-0.5c0.4-0.3,1-1,1.6-2.1h1.3l-3.4,14.8h-1.1
		c0.1-1.3,0.2-2.4,0.2-3.2c0-2.7-0.9-4.8-2.6-6.5c-1.8-1.7-4.1-2.5-7-2.5c-2.3,0-4.1,0.7-5.5,2s-2.1,2.9-2.1,4.7
		c0,1.5,0.5,3,1.4,4.4s3,3.7,6.3,6.8s5.4,5.6,6.3,7.4c1,1.8,1.4,3.6,1.4,5.6c0,2.3-0.6,4.4-1.8,6.6c-1.2,2.1-2.9,3.8-5.1,4.9
		c-2.2,1.2-4.7,1.7-7.3,1.7c-1.3,0-2.5-0.1-3.7-0.4c-1.1-0.2-3-0.8-5.5-1.8c-0.8-0.3-1.6-0.5-2.1-0.5c-1.3,0-2.3,0.9-3,2.6
		L824,805.2L824,805.2z"/>
	<path class="st1" d="M865.2,791.8c-0.1,1.1-0.2,2-0.2,2.7c0,2,0.7,3.6,2.1,5c1.4,1.4,3.1,2.1,5,2.1c1.6,0,3.1-0.3,4.6-1
		s3.6-2.1,6.5-4.3l0.7,0.9c-5.2,5.1-10.2,7.7-14.9,7.7c-3.2,0-5.6-1-7.2-3c-1.6-2-2.4-4.2-2.4-6.7c0-3.3,1-6.6,3-10s4.5-6.1,7.6-8
		c3-1.9,6.2-2.9,9.4-2.9c2.3,0,4,0.5,5.1,1.4c1.1,1,1.7,2.1,1.7,3.3c0,1.8-0.7,3.6-2.2,5.2c-1.9,2.2-4.7,3.9-8.4,5.3
		C873.1,790.6,869.7,791.3,865.2,791.8z M865.4,790.2c3.2-0.4,5.9-1,7.9-1.9c2.7-1.2,4.7-2.6,6.1-4.3c1.3-1.7,2-3.3,2-4.8
		c0-0.9-0.3-1.6-0.9-2.2c-0.6-0.6-1.4-0.9-2.5-0.9c-2.2,0-4.6,1.2-7.1,3.6C868.5,782,866.6,785.5,865.4,790.2z"/>
	<path class="st1" d="M901.9,774.4l-4.4,15c4.1-6.1,7.2-10.1,9.4-12.1c2.2-1.9,4.3-2.9,6.3-2.9c1.1,0,2,0.4,2.7,1.1
		c0.7,0.7,1.1,1.7,1.1,2.8c0,1.3-0.3,3.1-0.9,5.3l-4,13.8c-0.5,1.6-0.7,2.6-0.7,2.9c0,0.3,0.1,0.6,0.3,0.8s0.4,0.3,0.6,0.3
		c0.2,0,0.6-0.1,0.9-0.4c1.2-0.9,2.4-2.3,3.8-4.2l1,0.6c-2,2.9-4,5-5.8,6.2c-1.3,0.8-2.4,1.3-3.4,1.3c-0.8,0-1.5-0.2-1.9-0.7
		c-0.5-0.5-0.7-1.1-0.7-2c0-1.1,0.4-2.9,1.1-5.4l3.8-13.2c0.5-1.6,0.7-2.9,0.7-3.8c0-0.4-0.1-0.8-0.4-1.1c-0.3-0.3-0.6-0.4-1-0.4
		c-0.6,0-1.3,0.3-2.2,0.8c-1.6,1-3.3,2.6-5,4.9c-1.8,2.3-3.6,5.2-5.6,8.7c-1,1.9-1.9,3.9-2.6,6.1l-1.6,5.4h-4.9l6-20.6
		c0.7-2.5,1.1-4,1.1-4.4c0-0.5-0.2-0.9-0.6-1.3c-0.4-0.4-0.9-0.6-1.4-0.6c-0.3,0-0.7,0.1-1.4,0.2l-1.3,0.2l-0.2-1.2L901.9,774.4z
		 M919.1,759.4h1c0,2.8-0.6,4.9-1.8,6.4s-2.6,2.2-4.2,2.2c-1.6,0-3.4-0.7-5.5-2s-3.4-2.1-3.9-2.3c-0.4-0.2-0.8-0.3-1.3-0.3
		c-0.8,0-1.4,0.3-1.9,0.9c-0.5,0.6-0.9,1.8-1.2,3.6h-1.1c0.2-3.1,0.8-5.3,2-6.6s2.6-2,4.2-2c1.6,0,3.5,0.8,5.8,2.3s3.9,2.3,4.8,2.3
		c0.8,0,1.4-0.3,1.9-0.9C918.5,762.3,918.9,761.1,919.1,759.4z"/>
	<path class="st1" d="M951.8,784.7c0,3.3-0.9,6.6-2.6,9.8c-1.7,3.2-4.2,5.8-7.3,7.7s-6.1,2.8-9.1,2.8s-5.4-1-7.3-2.9
		c-1.9-1.9-2.9-4.4-2.9-7.4c0-3.2,0.9-6.5,2.8-9.7c1.9-3.2,4.3-5.8,7.4-7.7c3.1-1.9,6.1-2.8,9-2.8s5.3,1,7.2,2.9
		C950.9,779.2,951.8,781.7,951.8,784.7z M946.4,782.5c0-2-0.5-3.6-1.5-4.7c-1-1.1-2.3-1.6-3.9-1.6c-3.2,0-6.2,2.3-8.9,6.9
		c-2.7,4.6-4.1,9.2-4.1,13.8c0,2.1,0.5,3.7,1.6,4.8s2.4,1.7,4,1.7c3.1,0,6-2.3,8.7-6.9C945,791.9,946.4,787.2,946.4,782.5z"/>
	<path class="st1" d="M957.8,776.3l11.3-1.9l-4.7,16c3.8-6.6,7.3-11.1,10.4-13.8c1.8-1.5,3.2-2.2,4.3-2.2c0.7,0,1.3,0.2,1.7,0.7
		c0.4,0.4,0.6,1.1,0.6,1.9c0,1.4-0.4,2.8-1.1,4.1c-0.5,1-1.3,1.5-2.3,1.5c-0.5,0-0.9-0.2-1.3-0.5c-0.4-0.3-0.6-0.8-0.7-1.5
		c0-0.4-0.1-0.7-0.3-0.8c-0.2-0.2-0.4-0.2-0.6-0.2c-0.4,0-0.7,0.1-1.1,0.2c-0.6,0.3-1.4,1.2-2.6,2.6c-1.8,2.2-3.8,4.9-5.9,8.3
		c-0.9,1.4-1.7,3.1-2.4,4.9c-0.9,2.5-1.4,4-1.6,4.5l-1.1,4.1h-5l6.1-20.4c0.7-2.4,1-4.1,1-5.1c0-0.4-0.2-0.7-0.5-1
		c-0.4-0.4-1-0.5-1.7-0.5c-0.5,0-1.3,0.1-2.5,0.3L957.8,776.3z"/>
	<path class="st1" d="M1012.1,774.4l-6.4,22.3l-0.7,3c-0.1,0.3-0.1,0.5-0.1,0.7c0,0.4,0.1,0.7,0.3,0.9s0.4,0.3,0.7,0.3
		s0.6-0.2,1.1-0.5c0.8-0.6,2-1.9,3.4-3.9l1.1,0.8c-1.5,2.3-3,4-4.7,5.2c-1.6,1.2-3.1,1.8-4.4,1.8c-0.9,0-1.6-0.2-2.1-0.7
		s-0.7-1.1-0.7-2c0-1.1,0.2-2.5,0.7-4.2l0.7-2.5c-2.9,3.8-5.5,6.4-7.9,7.9c-1.7,1.1-3.4,1.6-5.1,1.6c-1.6,0-3-0.7-4.1-2
		c-1.2-1.3-1.7-3.1-1.7-5.4c0-3.5,1-7.2,3.1-11c2.1-3.9,4.7-7,8-9.3c2.5-1.8,4.9-2.8,7.1-2.8c1.4,0,2.5,0.4,3.4,1.1
		c0.9,0.7,1.6,1.9,2,3.5l1.2-3.8L1012.1,774.4z M1000.4,776.2c-1.4,0-2.9,0.7-4.4,2c-2.3,1.9-4.3,4.6-6,8.3s-2.6,7-2.6,9.9
		c0,1.5,0.4,2.6,1.1,3.5c0.7,0.9,1.6,1.3,2.6,1.3c2.4,0,5-1.8,7.8-5.3c3.8-4.7,5.6-9.5,5.6-14.4c0-1.9-0.4-3.2-1.1-4
		C1002.7,776.6,1001.7,776.2,1000.4,776.2z"/>
	<path class="st1" d="M124.6,857.8l-11.3,38.8c-0.6,2.1-0.9,3.5-0.9,4.2c0,0.2,0.1,0.4,0.3,0.6c0.2,0.2,0.4,0.3,0.6,0.3
		c0.3,0,0.6-0.1,1-0.4c0.8-0.5,2-1.9,3.8-4l1.1,0.7c-1.6,2.2-3.2,3.9-4.8,5.3c-1.6,1.4-3.1,2-4.5,2c-0.8,0-1.4-0.3-1.9-0.8
		s-0.7-1.3-0.7-2.2c0-1.3,0.3-2.9,1-5l1.3-4.1c-3.2,4.9-6,8.3-8.7,10.2c-1.8,1.3-3.5,1.9-5.1,1.9c-1.7,0-3.1-0.7-4.4-2.2
		c-1.2-1.5-1.9-3.5-1.9-6c0-3.3,1-6.7,3.1-10.4s4.8-6.7,8.3-9c2.7-1.9,5.2-2.8,7.4-2.8c1.2,0,2.2,0.2,3,0.7c0.9,0.5,1.7,1.3,2.6,2.4
		l3.2-11.4c0.2-0.8,0.4-1.5,0.6-2c0.3-0.9,0.4-1.6,0.4-2.2c0-0.5-0.2-0.8-0.5-1.1c-0.5-0.4-1.1-0.6-1.8-0.6c-0.5,0-1.3,0.1-2.5,0.2
		v-1.2L124.6,857.8z M112.4,881.1c0-1.4-0.4-2.5-1.2-3.4c-0.8-0.8-1.8-1.3-3.1-1.3c-2.8,0-5.7,2.3-8.6,6.8c-3,4.5-4.5,8.9-4.5,13.1
		c0,1.7,0.4,2.9,1.1,3.8c0.7,0.9,1.6,1.3,2.6,1.3c2.3,0,5.1-2.5,8.6-7.4C110.7,889.1,112.4,884.8,112.4,881.1z"/>
	<path class="st1" d="M129.8,892.1c-0.1,1.1-0.2,2-0.2,2.7c0,2,0.7,3.6,2.1,5c1.4,1.4,3.1,2.1,5,2.1c1.6,0,3.1-0.3,4.6-1
		s3.6-2.1,6.5-4.3l0.7,0.9c-5.2,5.1-10.1,7.7-14.9,7.7c-3.2,0-5.6-1-7.2-3c-1.6-2-2.4-4.2-2.4-6.7c0-3.3,1-6.6,3-10
		c2-3.4,4.5-6.1,7.6-8c3-1.9,6.2-2.9,9.4-2.9c2.3,0,4,0.5,5.1,1.4c1.1,1,1.7,2.1,1.7,3.3c0,1.8-0.7,3.6-2.2,5.2
		c-1.9,2.2-4.7,3.9-8.4,5.3C137.7,890.9,134.3,891.6,129.8,892.1z M130,890.5c3.2-0.4,5.9-1,7.9-1.9c2.7-1.2,4.7-2.6,6.1-4.3
		c1.3-1.7,2-3.3,2-4.8c0-0.9-0.3-1.6-0.9-2.2c-0.6-0.6-1.4-0.9-2.5-0.9c-2.2,0-4.6,1.2-7.1,3.6C133.1,882.3,131.2,885.9,130,890.5z"
		/>
	<path class="st1" d="M188.5,857.8l-11.2,39.1c-0.5,2-0.8,3.2-0.8,3.6c0,0.3,0.1,0.6,0.3,0.8s0.5,0.3,0.8,0.3c0.4,0,0.9-0.2,1.3-0.6
		c1.1-0.9,2.3-2.3,3.6-4.2l1,1c-2.1,2.9-4,5-5.8,6.2c-1.3,0.8-2.5,1.2-3.7,1.2c-0.8,0-1.5-0.3-2.1-0.9c-0.6-0.6-0.8-1.2-0.8-2
		s0.3-2.4,1-4.9l8.9-30.8c0.7-2.5,1.1-4,1.1-4.3c0-0.5-0.2-1-0.6-1.3c-0.4-0.3-1.1-0.5-1.9-0.5c-0.5,0-1.3,0.1-2.3,0.2v-1.2
		L188.5,857.8z"/>
	<path class="st1" d="M218.3,885c0,3.3-0.9,6.6-2.6,9.8c-1.7,3.2-4.2,5.8-7.3,7.7s-6.1,2.8-9.1,2.8s-5.4-1-7.3-2.9
		c-1.9-1.9-2.9-4.4-2.9-7.4c0-3.2,0.9-6.5,2.8-9.7c1.9-3.2,4.3-5.8,7.4-7.7c3.1-1.9,6.1-2.8,9-2.8s5.3,1,7.2,2.9
		C217.4,879.5,218.3,882,218.3,885z M212.9,882.8c0-2-0.5-3.6-1.5-4.7c-1-1.1-2.3-1.6-3.9-1.6c-3.2,0-6.2,2.3-8.9,6.9
		c-2.7,4.6-4.1,9.2-4.1,13.8c0,2.1,0.5,3.7,1.6,4.8s2.4,1.7,4,1.7c3.1,0,6-2.3,8.7-6.9C211.5,892.2,212.9,887.5,212.9,882.8z"/>
	<path class="st1" d="M245.2,874.8l-2,10.1H242c-0.1-2.9-0.7-5.1-1.9-6.4c-1.1-1.3-2.6-2-4.2-2c-1.3,0-2.4,0.4-3.2,1.1
		c-0.8,0.7-1.2,1.6-1.2,2.7c0,0.7,0.2,1.4,0.5,2.1c0.3,0.7,1,1.6,2.1,2.8c2.8,3.1,4.7,5.5,5.5,7c0.8,1.6,1.2,3.1,1.2,4.5
		c0,2.3-0.9,4.3-2.8,6.1s-4.3,2.6-7.2,2.6c-1.6,0-3.4-0.4-5.5-1.1c-0.7-0.3-1.3-0.4-1.7-0.4c-1,0-1.7,0.5-2.2,1.5h-1.2l2-10.7h1.2
		c0.1,3.3,0.8,5.7,2,7.1c1.3,1.4,3,2.1,5.1,2.1c1.7,0,3-0.5,4-1.4s1.5-2.1,1.5-3.4c0-0.9-0.2-1.7-0.5-2.4c-0.6-1.3-1.9-3.1-3.9-5.4
		c-2-2.3-3.2-4.1-3.8-5.2c-0.6-1.2-0.8-2.3-0.8-3.5c0-2.1,0.8-3.9,2.3-5.4c1.6-1.5,3.5-2.2,6-2.2c0.7,0,1.3,0.1,1.9,0.2
		c0.3,0.1,1,0.3,2.1,0.8c1.1,0.4,1.9,0.6,2.3,0.6c0.9,0,1.7-0.5,2.4-1.6h1.2V874.8z"/>
	<path class="st1" d="M298.5,858.9l-3.4,37.1c-0.2,1.7-0.2,2.8-0.2,3.4c0,0.9,0.2,1.5,0.5,2c0.4,0.7,1,1.1,1.7,1.4
		c0.7,0.3,1.9,0.4,3.6,0.4l-0.4,1.2h-17.6l0.4-1.2h0.7c1.4,0,2.6-0.3,3.5-0.9c0.6-0.4,1.1-1.1,1.5-2.1c0.2-0.7,0.5-2.3,0.7-4.8
		l0.5-5.6h-12.8l-4.5,6.2c-1,1.4-1.7,2.3-1.9,2.9c-0.3,0.6-0.4,1.2-0.4,1.7c0,0.7,0.3,1.3,0.9,1.8s1.5,0.8,2.8,0.8l-0.4,1.2h-13.2
		l0.4-1.2c1.6-0.1,3.1-0.6,4.3-1.6c1.2-1,3.1-3.2,5.5-6.5l26.6-36.2L298.5,858.9L298.5,858.9z M292,869.9l-12.9,17.6h11.2L292,869.9
		z M305.4,845.3l-9.6,11.3h-1.1l3.4-11.3H305.4z"/>
	<path class="st1" d="M319.8,874.8l-4.4,15c4.1-6.1,7.2-10.1,9.4-12.1c2.2-1.9,4.3-2.9,6.3-2.9c1.1,0,2,0.4,2.7,1.1
		c0.7,0.7,1.1,1.7,1.1,2.8c0,1.3-0.3,3.1-0.9,5.3l-4,13.8c-0.5,1.6-0.7,2.6-0.7,2.9c0,0.3,0.1,0.6,0.3,0.8c0.2,0.2,0.4,0.3,0.6,0.3
		s0.6-0.1,0.9-0.4c1.2-0.9,2.4-2.3,3.8-4.2l1,0.6c-2,2.9-4,5-5.8,6.2c-1.3,0.8-2.4,1.3-3.4,1.3c-0.8,0-1.5-0.2-1.9-0.7
		c-0.5-0.5-0.7-1.1-0.7-2c0-1.1,0.4-2.9,1.1-5.4L329,884c0.5-1.6,0.7-2.9,0.7-3.8c0-0.4-0.1-0.8-0.4-1.1s-0.6-0.4-1-0.4
		c-0.6,0-1.3,0.3-2.2,0.8c-1.6,1-3.3,2.6-5,4.9c-1.8,2.3-3.6,5.2-5.6,8.7c-1,1.9-1.9,3.9-2.6,6.1l-1.6,5.4h-4.9l6-20.6
		c0.7-2.5,1.1-4,1.1-4.4c0-0.5-0.2-0.9-0.6-1.3c-0.4-0.4-0.9-0.6-1.4-0.6c-0.3,0-0.7,0.1-1.4,0.2l-1.3,0.2l-0.2-1.2L319.8,874.8z"/>
	<path class="st1" d="M373.6,876.8l-0.9,3.4h-5.5c0.4,1.2,0.6,2.3,0.6,3.3c0,2.9-1.2,5.5-3.7,7.8c-2.5,2.2-5.9,3.5-10.2,3.7
		c-2.3,0.7-4.1,1.6-5.2,2.5c-0.4,0.3-0.7,0.7-0.7,1.1c0,0.4,0.2,0.8,0.6,1.2s1.4,0.7,3,1.1l6.4,1.5c3.5,0.8,5.8,1.8,7,2.9
		c1.1,1.2,1.7,2.5,1.7,4c0,1.8-0.7,3.4-2,4.9s-3.3,2.7-5.8,3.5c-2.6,0.8-5.4,1.3-8.4,1.3c-2.7,0-5.2-0.3-7.4-1
		c-2.2-0.7-3.8-1.5-4.8-2.6s-1.4-2.2-1.4-3.4c0-0.9,0.3-1.9,0.9-2.9s1.4-1.9,2.3-2.5c0.6-0.4,2.3-1.4,5-3c-1-0.8-1.5-1.7-1.5-2.6
		c0-0.9,0.4-1.8,1.3-2.8s2.8-2.1,5.6-3.3c-2.4-0.5-4.3-1.5-5.7-3c-1.4-1.6-2.1-3.3-2.1-5.2c0-3.1,1.4-5.9,4.1-8.3
		c2.7-2.5,6.4-3.7,10.9-3.7c1.6,0,3,0.2,4,0.5s2.1,0.9,3.1,1.5L373.6,876.8L373.6,876.8z M346.5,904.5c-1.8,0.8-3.1,1.9-4,3.1
		c-0.9,1.3-1.4,2.5-1.4,3.7c0,1.4,0.7,2.6,2,3.6c1.9,1.4,4.7,2,8.3,2c3.1,0,5.8-0.5,8-1.6s3.3-2.4,3.3-4.1c0-0.9-0.4-1.7-1.2-2.4
		c-0.8-0.8-2.4-1.4-4.8-1.9C355.4,906.7,352,905.9,346.5,904.5z M362.3,882c0-1.8-0.5-3.2-1.5-4.2s-2.3-1.5-3.8-1.5
		c-2.5,0-4.5,1.2-6.1,3.7s-2.4,5.1-2.4,7.8c0,1.7,0.5,3.1,1.5,4.1c1,1.1,2.3,1.6,3.7,1.6c1.2,0,2.3-0.3,3.4-1c1.1-0.6,2-1.5,2.7-2.6
		s1.3-2.5,1.8-4.3C362,884,362.3,882.7,362.3,882z"/>
	<path class="st1" d="M380.2,892.1c-0.1,1.1-0.2,2-0.2,2.7c0,2,0.7,3.6,2.1,5s3.1,2.1,5,2.1c1.6,0,3.1-0.3,4.6-1s3.6-2.1,6.5-4.3
		l0.7,0.9c-5.2,5.1-10.1,7.7-14.9,7.7c-3.2,0-5.6-1-7.2-3s-2.4-4.2-2.4-6.7c0-3.3,1-6.6,3-10s4.5-6.1,7.6-8c3-1.9,6.2-2.9,9.4-2.9
		c2.3,0,4,0.5,5.1,1.4c1.1,1,1.7,2.1,1.7,3.3c0,1.8-0.7,3.6-2.2,5.2c-1.9,2.2-4.7,3.9-8.4,5.3C388.1,890.9,384.7,891.6,380.2,892.1z
		 M380.5,890.5c3.2-0.4,5.9-1,7.9-1.9c2.7-1.2,4.7-2.6,6.1-4.3c1.3-1.7,2-3.3,2-4.8c0-0.9-0.3-1.6-0.9-2.2c-0.6-0.6-1.4-0.9-2.5-0.9
		c-2.2,0-4.6,1.2-7.1,3.6C383.5,882.3,381.7,885.9,380.5,890.5z"/>
	<path class="st1" d="M422.1,857.8l-11.2,39.1c-0.5,2-0.8,3.2-0.8,3.6c0,0.3,0.1,0.6,0.3,0.8c0.2,0.2,0.5,0.3,0.8,0.3
		c0.4,0,0.9-0.2,1.3-0.6c1.1-0.9,2.3-2.3,3.6-4.2l1,1c-2.1,2.9-4,5-5.8,6.2c-1.3,0.8-2.5,1.2-3.7,1.2c-0.8,0-1.5-0.3-2.1-0.9
		c-0.6-0.6-0.8-1.2-0.8-2s0.3-2.4,1-4.9l8.9-30.8c0.7-2.5,1.1-4,1.1-4.3c0-0.5-0.2-1-0.6-1.3s-1.1-0.5-1.9-0.5
		c-0.5,0-1.3,0.1-2.3,0.2v-1.2L422.1,857.8z"/>
	<path class="st1" d="M428.8,892.1c-0.1,1.1-0.2,2-0.2,2.7c0,2,0.7,3.6,2.1,5s3.1,2.1,5,2.1c1.6,0,3.1-0.3,4.6-1s3.6-2.1,6.5-4.3
		l0.7,0.9c-5.2,5.1-10.1,7.7-14.9,7.7c-3.2,0-5.6-1-7.2-3s-2.4-4.2-2.4-6.7c0-3.3,1-6.6,3-10s4.5-6.1,7.6-8c3-1.9,6.2-2.9,9.4-2.9
		c2.3,0,4,0.5,5.1,1.4c1.1,1,1.7,2.1,1.7,3.3c0,1.8-0.7,3.6-2.2,5.2c-1.9,2.2-4.7,3.9-8.4,5.3C436.7,890.9,433.2,891.6,428.8,892.1z
		 M429,890.5c3.2-0.4,5.9-1,7.9-1.9c2.7-1.2,4.7-2.6,6.1-4.3c1.3-1.7,2-3.3,2-4.8c0-0.9-0.3-1.6-0.9-2.2c-0.6-0.6-1.4-0.9-2.5-0.9
		c-2.2,0-4.6,1.2-7.1,3.6C432.1,882.3,430.2,885.9,429,890.5z"/>
	<path class="st1" d="M475.1,874.8l-2,10.1h-1.2c-0.1-2.9-0.7-5.1-1.9-6.4c-1.1-1.3-2.6-2-4.2-2c-1.3,0-2.4,0.4-3.2,1.1
		c-0.8,0.7-1.2,1.6-1.2,2.7c0,0.7,0.2,1.4,0.5,2.1c0.3,0.7,1,1.6,2.1,2.8c2.8,3.1,4.7,5.5,5.5,7c0.8,1.6,1.2,3.1,1.2,4.5
		c0,2.3-0.9,4.3-2.8,6.1s-4.3,2.6-7.2,2.6c-1.6,0-3.4-0.4-5.5-1.1c-0.7-0.3-1.3-0.4-1.7-0.4c-1,0-1.7,0.5-2.2,1.5H450l2-10.7h1.2
		c0.1,3.3,0.8,5.7,2,7.1c1.3,1.4,3,2.1,5.1,2.1c1.7,0,3-0.5,4-1.4s1.5-2.1,1.5-3.4c0-0.9-0.2-1.7-0.5-2.4c-0.6-1.3-1.9-3.1-3.9-5.4
		c-2-2.3-3.2-4.1-3.8-5.2c-0.6-1.2-0.8-2.3-0.8-3.5c0-2.1,0.8-3.9,2.3-5.4c1.6-1.5,3.5-2.2,6-2.2c0.7,0,1.3,0.1,1.9,0.2
		c0.3,0.1,1,0.3,2.1,0.8c1.1,0.4,1.9,0.6,2.3,0.6c0.9,0,1.7-0.5,2.4-1.6h1.3V874.8z"/>
	<path class="st1" d="M530.1,857.8l-11.3,38.8c-0.6,2.1-0.9,3.5-0.9,4.2c0,0.2,0.1,0.4,0.3,0.6c0.2,0.2,0.4,0.3,0.6,0.3
		c0.3,0,0.6-0.1,1-0.4c0.8-0.5,2-1.9,3.8-4l1.1,0.7c-1.6,2.2-3.2,3.9-4.8,5.3c-1.6,1.4-3.1,2-4.5,2c-0.8,0-1.4-0.3-1.9-0.8
		s-0.7-1.3-0.7-2.2c0-1.3,0.3-2.9,1-5l1.3-4.1c-3.2,4.9-6,8.3-8.7,10.2c-1.8,1.3-3.5,1.9-5.1,1.9c-1.7,0-3.1-0.7-4.4-2.2
		c-1.2-1.5-1.9-3.5-1.9-6c0-3.3,1-6.7,3.1-10.4s4.8-6.7,8.3-9c2.7-1.9,5.2-2.8,7.4-2.8c1.2,0,2.2,0.2,3,0.7c0.9,0.5,1.7,1.3,2.6,2.4
		l3.2-11.4c0.2-0.8,0.4-1.5,0.6-2c0.3-0.9,0.4-1.6,0.4-2.2c0-0.5-0.2-0.8-0.5-1.1c-0.5-0.4-1.1-0.6-1.8-0.6c-0.5,0-1.3,0.1-2.5,0.2
		v-1.2L530.1,857.8z M517.9,881.1c0-1.4-0.4-2.5-1.2-3.4c-0.8-0.8-1.8-1.3-3.1-1.3c-2.8,0-5.7,2.3-8.6,6.8c-3,4.5-4.5,8.9-4.5,13.1
		c0,1.7,0.4,2.9,1.1,3.8c0.7,0.9,1.6,1.3,2.6,1.3c2.3,0,5.1-2.5,8.6-7.4C516.2,889.1,517.9,884.8,517.9,881.1z"/>
	<path class="st1" d="M535.3,892.1c-0.1,1.1-0.2,2-0.2,2.7c0,2,0.7,3.6,2.1,5c1.4,1.4,3.1,2.1,5,2.1c1.6,0,3.1-0.3,4.6-1
		s3.6-2.1,6.5-4.3l0.7,0.9c-5.2,5.1-10.1,7.7-14.9,7.7c-3.2,0-5.6-1-7.2-3c-1.6-2-2.4-4.2-2.4-6.7c0-3.3,1-6.6,3-10s4.5-6.1,7.6-8
		c3-1.9,6.2-2.9,9.4-2.9c2.3,0,4,0.5,5.1,1.4c1.1,1,1.7,2.1,1.7,3.3c0,1.8-0.7,3.6-2.2,5.2c-1.9,2.2-4.7,3.9-8.4,5.3
		C543.2,890.9,539.8,891.6,535.3,892.1z M535.6,890.5c3.2-0.4,5.9-1,7.9-1.9c2.7-1.2,4.7-2.6,6.1-4.3c1.3-1.7,2-3.3,2-4.8
		c0-0.9-0.3-1.6-0.9-2.2c-0.6-0.6-1.4-0.9-2.5-0.9c-2.2,0-4.6,1.2-7.1,3.6C538.6,882.3,536.8,885.9,535.6,890.5z"/>
	<path class="st1" d="M574.5,905.5l3.7-16.5h1.1c-0.2,1.6-0.2,2.9-0.2,4c0,3,1,5.5,2.9,7.3c1.9,1.9,4.4,2.8,7.5,2.8
		c2.9,0,5-0.9,6.5-2.6c1.5-1.8,2.2-3.8,2.2-6.1c0-1.5-0.3-2.9-1-4.1c-1-1.8-3.8-5-8.3-9.6c-2.2-2.2-3.5-3.8-4.2-4.9
		c-1-1.8-1.5-3.6-1.5-5.6c0-3.1,1.2-5.8,3.5-8s5.3-3.3,8.9-3.3c1.3,0,2.4,0.1,3.5,0.4c0.7,0.1,1.9,0.6,3.7,1.3
		c1.3,0.5,1.9,0.8,2.1,0.8c0.3,0.1,0.7,0.1,1,0.1c0.7,0,1.2-0.2,1.7-0.5c0.4-0.3,1-1,1.6-2.1h1.3l-3.4,14.8H606
		c0.1-1.3,0.2-2.4,0.2-3.2c0-2.7-0.9-4.8-2.6-6.5c-1.8-1.7-4.1-2.5-7-2.5c-2.3,0-4.1,0.7-5.5,2s-2.1,2.9-2.1,4.7
		c0,1.5,0.5,3,1.4,4.4s3,3.7,6.3,6.8s5.4,5.6,6.3,7.4c1,1.8,1.4,3.6,1.4,5.6c0,2.3-0.6,4.4-1.8,6.6c-1.2,2.1-2.9,3.8-5.1,4.9
		c-2.2,1.2-4.7,1.7-7.3,1.7c-1.3,0-2.5-0.1-3.7-0.4c-1.1-0.2-3-0.8-5.5-1.8c-0.8-0.3-1.6-0.5-2.1-0.5c-1.3,0-2.3,0.9-3,2.6
		L574.5,905.5L574.5,905.5z"/>
	<path class="st1" d="M639.2,874.8l-6.4,22.3l-0.7,3c-0.1,0.3-0.1,0.5-0.1,0.7c0,0.4,0.1,0.7,0.3,0.9s0.4,0.3,0.7,0.3
		s0.6-0.2,1.1-0.5c0.8-0.6,2-1.9,3.4-3.9l1.1,0.8c-1.5,2.3-3,4-4.7,5.2c-1.6,1.2-3.1,1.8-4.4,1.8c-0.9,0-1.6-0.2-2.1-0.7
		s-0.7-1.1-0.7-2c0-1.1,0.2-2.5,0.7-4.2l0.7-2.5c-2.9,3.8-5.5,6.4-7.9,7.9c-1.7,1.1-3.4,1.6-5.1,1.6c-1.6,0-3-0.7-4.1-2
		c-1.2-1.3-1.7-3.1-1.7-5.4c0-3.5,1-7.2,3.1-11c2.1-3.9,4.7-7,8-9.3c2.5-1.9,4.9-2.8,7.1-2.8c1.4,0,2.5,0.4,3.4,1.1
		c0.9,0.7,1.6,1.9,2,3.5l1.2-3.8L639.2,874.8z M627.5,876.5c-1.4,0-2.9,0.7-4.4,2c-2.3,1.9-4.3,4.6-6,8.3s-2.6,7-2.6,9.9
		c0,1.5,0.4,2.6,1.1,3.5c0.7,0.9,1.6,1.3,2.6,1.3c2.4,0,5-1.8,7.8-5.3c3.8-4.7,5.6-9.5,5.6-14.4c0-1.8-0.4-3.2-1.1-4
		C629.8,876.9,628.8,876.5,627.5,876.5z"/>
	<path class="st1" d="M656.1,874.8l-4.4,15c4.1-6.1,7.2-10.1,9.4-12.1c2.2-1.9,4.3-2.9,6.3-2.9c1.1,0,2,0.4,2.7,1.1
		c0.7,0.7,1.1,1.7,1.1,2.8c0,1.3-0.3,3.1-0.9,5.3l-4,13.8c-0.5,1.6-0.7,2.6-0.7,2.9c0,0.3,0.1,0.6,0.3,0.8s0.4,0.3,0.6,0.3
		c0.2,0,0.6-0.1,0.9-0.4c1.2-0.9,2.4-2.3,3.8-4.2l1,0.6c-2,2.9-4,5-5.8,6.2c-1.3,0.8-2.4,1.3-3.4,1.3c-0.8,0-1.5-0.2-1.9-0.7
		c-0.5-0.5-0.7-1.1-0.7-2c0-1.1,0.4-2.9,1.1-5.4l3.8-13.2c0.5-1.6,0.7-2.9,0.7-3.8c0-0.4-0.1-0.8-0.4-1.1c-0.3-0.3-0.6-0.4-1-0.4
		c-0.6,0-1.3,0.3-2.2,0.8c-1.6,1-3.3,2.6-5,4.9c-1.8,2.3-3.6,5.2-5.6,8.7c-1,1.9-1.9,3.9-2.6,6.1l-1.6,5.4h-4.9l6-20.6
		c0.7-2.5,1.1-4,1.1-4.4c0-0.5-0.2-0.9-0.6-1.3c-0.4-0.4-0.9-0.6-1.4-0.6c-0.3,0-0.7,0.1-1.4,0.2l-1.3,0.2l-0.2-1.2L656.1,874.8z"/>
	<path class="st1" d="M692.4,866.6l-2.6,8.9h5.2l-0.6,2.1h-5.1l-5.7,19.3c-0.6,2.1-0.9,3.4-0.9,4c0,0.4,0.1,0.7,0.2,0.9
		c0.2,0.2,0.4,0.3,0.6,0.3c0.5,0,1.3-0.4,2.2-1.2c0.5-0.4,1.7-1.8,3.6-4l1.1,0.9c-2,2.9-3.9,5-5.7,6.2c-1.2,0.8-2.5,1.2-3.7,1.2
		c-1,0-1.7-0.3-2.3-0.9c-0.6-0.6-0.9-1.4-0.9-2.3c0-1.2,0.3-3,1-5.4l5.5-19h-5l0.3-1.3c2.4-0.7,4.4-1.6,6-2.9
		c1.6-1.3,3.4-3.6,5.4-6.8H692.4z"/>
	<path class="st1" d="M732.3,862.3L727,880h5.9c2.6,0,4.6-0.4,5.9-1.2c1.3-0.8,2.7-2.5,4-5.2h1.2l-4.6,16.2h-1.3
		c0.3-1.3,0.5-2.4,0.5-3.2c0-1.3-0.4-2.4-1.3-3.1c-0.9-0.7-2.6-1.1-5-1.1h-5.9l-3.9,13.4c-0.7,2.4-1.1,4-1.1,4.8s0.3,1.4,0.9,1.9
		c0.6,0.4,2.1,0.7,4.4,0.9l-0.4,1.2h-17.6l0.4-1.2c1.7,0,2.9-0.2,3.4-0.4c0.9-0.4,1.5-0.9,1.9-1.5c0.6-0.9,1.3-2.7,2.1-5.6l7.8-26.9
		c0.7-2.2,1-3.9,1-5.1c0-0.6-0.1-1.1-0.4-1.4c-0.3-0.4-0.7-0.7-1.3-0.9s-1.7-0.3-3.3-0.3l0.4-1.2h34.6l-3.3,11.3h-1.3
		c0.2-1.4,0.4-2.5,0.4-3.4c0-1.4-0.4-2.6-1.2-3.4c-0.8-0.8-1.8-1.4-3.1-1.8c-0.9-0.2-2.8-0.3-5.9-0.3h-8.6V862.3z"/>
	<path class="st1" d="M759.5,892.1c-0.1,1.1-0.2,2-0.2,2.7c0,2,0.7,3.6,2.1,5c1.4,1.4,3.1,2.1,5,2.1c1.6,0,3.1-0.3,4.6-1
		s3.6-2.1,6.5-4.3l0.7,0.9c-5.2,5.1-10.2,7.7-14.9,7.7c-3.2,0-5.6-1-7.2-3c-1.6-2-2.4-4.2-2.4-6.7c0-3.3,1-6.6,3-10s4.5-6.1,7.6-8
		c3-1.9,6.2-2.9,9.4-2.9c2.3,0,4,0.5,5.1,1.4c1.1,1,1.7,2.1,1.7,3.3c0,1.8-0.7,3.6-2.2,5.2c-1.9,2.2-4.7,3.9-8.4,5.3
		C767.4,890.9,764,891.6,759.5,892.1z M759.8,890.5c3.2-0.4,5.9-1,7.9-1.9c2.7-1.2,4.7-2.6,6.1-4.3c1.3-1.7,2-3.3,2-4.8
		c0-0.9-0.3-1.6-0.9-2.2s-1.4-0.9-2.5-0.9c-2.2,0-4.6,1.2-7.1,3.6C762.8,882.3,761,885.9,759.8,890.5z"/>
	<path class="st1" d="M801.4,857.8l-11.2,39.1c-0.5,2-0.8,3.2-0.8,3.6c0,0.3,0.1,0.6,0.3,0.8s0.5,0.3,0.8,0.3c0.4,0,0.9-0.2,1.3-0.6
		c1.1-0.9,2.3-2.3,3.6-4.2l1,1c-2.1,2.9-4,5-5.8,6.2c-1.3,0.8-2.5,1.2-3.7,1.2c-0.8,0-1.5-0.3-2.1-0.9c-0.6-0.6-0.8-1.2-0.8-2
		s0.3-2.4,1-4.9l8.9-30.8c0.7-2.5,1.1-4,1.1-4.3c0-0.5-0.2-1-0.6-1.3c-0.4-0.3-1.1-0.5-1.9-0.5c-0.5,0-1.3,0.1-2.3,0.2v-1.2
		L801.4,857.8z"/>
	<path class="st1" d="M815.6,874.8l-6.5,23.1c-0.4,1.6-0.7,2.5-0.7,2.8c0,0.4,0.1,0.6,0.3,0.9c0.2,0.2,0.4,0.3,0.7,0.3
		c0.4,0,0.7-0.2,1.2-0.5c1.3-1,2.5-2.4,3.8-4.2l1.1,0.8c-1.5,2.3-3.3,4.2-5.3,5.8c-1.5,1.1-2.9,1.7-4.2,1.7c-0.9,0-1.6-0.3-2.2-0.8
		c-0.6-0.5-0.9-1.2-0.9-2s0.3-2.2,0.8-4L808,884c0.7-2.4,1-3.9,1-4.5c0-0.5-0.2-0.9-0.5-1.2s-0.8-0.5-1.4-0.5c-0.5,0-1.5,0.1-3,0.4
		v-1.3L815.6,874.8z M815.1,861.7c0.9,0,1.7,0.3,2.3,1c0.6,0.6,0.9,1.4,0.9,2.3c0,0.9-0.3,1.7-1,2.3c-0.6,0.7-1.4,1-2.3,1
		c-0.9,0-1.7-0.3-2.3-1c-0.7-0.7-1-1.4-1-2.3c0-0.9,0.3-1.7,1-2.3C813.4,862.1,814.2,861.7,815.1,861.7z"/>
	<path class="st1" d="M850.5,875.6l-5.7,19.6c-0.8,2.9-1.3,4.7-1.3,5.5c0,0.4,0.1,0.7,0.2,0.9c0.1,0.2,0.3,0.3,0.6,0.3
		c0.4,0,0.8-0.2,1.2-0.5s1.6-1.7,3.4-4.1l1,0.8c-1.7,2.7-3.5,4.7-5.3,6c-1.2,0.8-2.4,1.2-3.5,1.2c-0.9,0-1.5-0.2-2-0.7
		s-0.7-1.1-0.7-1.9c0-0.8,0.1-1.8,0.4-3c0.4-1.6,1.4-5.1,3-10.6c-3.7,6.1-6.8,10.3-9.3,12.7c-2.5,2.3-4.8,3.5-7,3.5
		c-1,0-1.9-0.3-2.6-1c-0.7-0.7-1.1-1.6-1.1-2.7c0-1.6,0.5-4.1,1.4-7.6l2.9-10.2c0.7-2.4,1-3.9,1-4.5c0-0.2-0.1-0.5-0.3-0.7
		s-0.4-0.3-0.6-0.3c-0.5,0-0.9,0.2-1.4,0.5s-1.5,1.5-3.1,3.6l-1-0.7c1.7-2.6,3.4-4.4,5.2-5.6c1.4-1,2.7-1.4,3.9-1.4
		c0.8,0,1.5,0.3,2,0.8s0.8,1.2,0.8,2c0,1.2-0.4,3.3-1.3,6.3l-3.1,10.6c-0.8,2.9-1.3,4.7-1.3,5.5c0,0.4,0.1,0.7,0.4,1
		c0.3,0.3,0.6,0.4,1.1,0.4c0.7,0,1.6-0.4,2.8-1.1c1.2-0.7,2.7-2.3,4.7-4.8c1.9-2.5,3.5-4.8,4.8-7s2.6-5.6,4-10.4l0.7-2.5h5.1V875.6z
		"/>
	<path class="st1" d="M905.6,857.8l-11.3,38.8c-0.6,2.1-0.9,3.5-0.9,4.2c0,0.2,0.1,0.4,0.3,0.6c0.2,0.2,0.4,0.3,0.6,0.3
		c0.3,0,0.6-0.1,1-0.4c0.8-0.5,2-1.9,3.8-4l1.1,0.7c-1.6,2.2-3.2,3.9-4.8,5.3c-1.6,1.4-3.1,2-4.5,2c-0.8,0-1.4-0.3-1.9-0.8
		s-0.7-1.3-0.7-2.2c0-1.3,0.3-2.9,1-5l1.3-4.1c-3.2,4.9-6,8.3-8.7,10.2c-1.8,1.3-3.5,1.9-5.1,1.9c-1.7,0-3.1-0.7-4.4-2.2
		c-1.2-1.5-1.9-3.5-1.9-6c0-3.3,1-6.7,3.1-10.4s4.8-6.7,8.3-9c2.7-1.9,5.2-2.8,7.4-2.8c1.2,0,2.2,0.2,3,0.7c0.9,0.5,1.7,1.3,2.6,2.4
		l3.2-11.4c0.2-0.8,0.4-1.5,0.6-2c0.3-0.9,0.4-1.6,0.4-2.2c0-0.5-0.2-0.8-0.5-1.1c-0.5-0.4-1.1-0.6-1.8-0.6c-0.5,0-1.3,0.1-2.5,0.2
		v-1.2L905.6,857.8z M893.4,881.1c0-1.4-0.4-2.5-1.2-3.4c-0.8-0.8-1.8-1.3-3.1-1.3c-2.8,0-5.7,2.3-8.6,6.8c-3,4.5-4.5,8.9-4.5,13.1
		c0,1.7,0.4,2.9,1.1,3.8c0.7,0.9,1.6,1.3,2.6,1.3c2.3,0,5.1-2.5,8.6-7.4C891.7,889.1,893.4,884.8,893.4,881.1z"/>
	<path class="st1" d="M910.9,892.1c-0.1,1.1-0.2,2-0.2,2.7c0,2,0.7,3.6,2.1,5c1.4,1.4,3.1,2.1,5,2.1c1.6,0,3.1-0.3,4.6-1
		s3.6-2.1,6.5-4.3l0.7,0.9c-5.2,5.1-10.2,7.7-14.9,7.7c-3.2,0-5.6-1-7.2-3c-1.6-2-2.4-4.2-2.4-6.7c0-3.3,1-6.6,3-10s4.5-6.1,7.6-8
		c3-1.9,6.2-2.9,9.4-2.9c2.3,0,4,0.5,5.1,1.4c1.1,1,1.7,2.1,1.7,3.3c0,1.8-0.7,3.6-2.2,5.2c-1.9,2.2-4.7,3.9-8.4,5.3
		C918.8,890.9,915.3,891.6,910.9,892.1z M911.1,890.5c3.2-0.4,5.9-1,7.9-1.9c2.7-1.2,4.7-2.6,6.1-4.3c1.3-1.7,2-3.3,2-4.8
		c0-0.9-0.3-1.6-0.9-2.2s-1.4-0.9-2.5-0.9c-2.2,0-4.6,1.2-7.1,3.6C914.2,882.3,912.3,885.9,911.1,890.5z"/>
	<path class="st1" d="M998,858.9l-3.3,14h-1.2c0.2-1.6,0.3-2.8,0.3-3.6c0-2.1-0.9-4.1-2.8-5.7c-1.9-1.7-4.5-2.5-7.9-2.5
		c-6.8,0-12.4,3.2-16.7,9.6c-3.4,5.1-5.1,10.7-5.1,17c0,4.2,1.1,7.8,3.2,10.8c2.1,3,5.4,4.5,9.8,4.5c1.1,0,2.1-0.1,3.1-0.3
		s2.4-0.6,4.4-1.3l3.3-11.5c0.5-1.6,0.7-2.8,0.7-3.8c0-0.8-0.3-1.4-0.9-1.8c-0.9-0.7-2.4-1-4.5-1h-0.9l0.4-1.3h18.5l-0.3,1.3
		c-1.7,0-2.9,0.2-3.7,0.6c-0.8,0.4-1.4,1-2,1.9c-0.4,0.6-1,2.3-1.8,5.2l-3.3,11.3c-3,1.3-5.4,2.1-7.2,2.6c-1.8,0.4-3.8,0.7-5.8,0.7
		c-4.7,0-8.5-0.9-11.4-2.7s-5.1-4.1-6.5-7s-2.1-5.8-2.1-8.7c0-3.8,0.8-7.5,2.4-11c1.6-3.5,3.6-6.4,6.1-8.8c2.4-2.4,5.1-4.3,7.9-5.7
		c3.9-1.9,8-2.9,12.4-2.9c3.2,0,6,0.5,8.6,1.6c1,0.4,1.8,0.6,2.2,0.6c0.5,0,1-0.1,1.4-0.4c0.4-0.2,0.9-0.9,1.5-1.8h1.2V858.9z"/>
	<path class="st1" d="M1029.8,875.6l-5.7,19.6c-0.8,2.9-1.3,4.7-1.3,5.5c0,0.4,0.1,0.7,0.2,0.9c0.1,0.2,0.3,0.3,0.6,0.3
		c0.4,0,0.8-0.2,1.2-0.5c0.4-0.3,1.6-1.7,3.4-4.1l1,0.8c-1.7,2.7-3.5,4.7-5.3,6c-1.2,0.8-2.4,1.2-3.5,1.2c-0.9,0-1.5-0.2-2-0.7
		s-0.7-1.1-0.7-1.9c0-0.8,0.1-1.8,0.4-3c0.4-1.6,1.4-5.1,3-10.6c-3.7,6.1-6.8,10.3-9.3,12.7c-2.5,2.3-4.8,3.5-7,3.5
		c-1,0-1.9-0.3-2.6-1c-0.7-0.7-1.1-1.6-1.1-2.7c0-1.6,0.5-4.1,1.4-7.6l2.9-10.2c0.7-2.4,1-3.9,1-4.5c0-0.2-0.1-0.5-0.3-0.7
		s-0.4-0.3-0.6-0.3c-0.5,0-0.9,0.2-1.4,0.5s-1.5,1.5-3.1,3.6l-1-0.7c1.7-2.6,3.4-4.4,5.2-5.6c1.4-1,2.7-1.4,3.9-1.4
		c0.8,0,1.5,0.3,2,0.8s0.8,1.2,0.8,2c0,1.2-0.4,3.3-1.3,6.3l-3.1,10.6c-0.8,2.9-1.3,4.7-1.3,5.5c0,0.4,0.1,0.7,0.4,1
		c0.3,0.3,0.6,0.4,1.1,0.4c0.7,0,1.6-0.4,2.8-1.1c1.2-0.7,2.7-2.3,4.7-4.8c1.9-2.5,3.5-4.8,4.8-7s2.6-5.6,4-10.4l0.7-2.5h5.1V875.6z
		"/>
	<path class="st1" d="M1047.3,874.8l-6.5,23.1c-0.4,1.6-0.7,2.5-0.7,2.8c0,0.4,0.1,0.6,0.3,0.9c0.2,0.2,0.4,0.3,0.7,0.3
		c0.4,0,0.7-0.2,1.2-0.5c1.3-1,2.5-2.4,3.8-4.2l1.1,0.8c-1.5,2.3-3.3,4.2-5.3,5.8c-1.5,1.1-2.9,1.7-4.2,1.7c-0.9,0-1.6-0.3-2.2-0.8
		s-0.9-1.2-0.9-2s0.3-2.2,0.8-4l4.3-14.7c0.7-2.4,1-3.9,1-4.5c0-0.5-0.2-0.9-0.5-1.2s-0.8-0.5-1.4-0.5c-0.5,0-1.5,0.1-3,0.4v-1.3
		L1047.3,874.8z M1054.3,858.4l-9.6,11.3h-1.1l3.4-11.3H1054.3z"/>
	<path class="st1" d="M1062.2,874.8c1.1,1.1,1.9,2.3,2.4,3.4c0.4,0.8,1.1,2.9,2,6.2l2.9-4.3c0.8-1.1,1.7-2.1,2.8-3
		c1.1-1,2.1-1.6,2.9-1.9c0.5-0.2,1.1-0.4,1.8-0.4c0.9,0,1.7,0.3,2.2,0.8c0.6,0.5,0.8,1.1,0.8,1.8c0,0.8-0.2,1.4-0.5,1.7
		c-0.6,0.5-1.3,0.8-2.1,0.8c-0.5,0-1-0.1-1.5-0.3c-1-0.4-1.7-0.5-2-0.5c-0.5,0-1.2,0.3-1.9,0.9c-1.4,1.1-3,3.3-4.9,6.6l2.7,11.3
		c0.4,1.7,0.8,2.8,1,3.1c0.3,0.3,0.6,0.5,0.8,0.5c0.5,0,1-0.3,1.6-0.8c1.2-1,2.2-2.3,3.1-3.9l1.1,0.6c-1.4,2.6-3.1,4.7-5.3,6.4
		c-1.2,1-2.2,1.4-3.1,1.4c-1.2,0-2.2-0.7-2.9-2c-0.5-0.9-1.4-4.6-2.9-11.1c-3.4,5.9-6.1,9.8-8.2,11.5c-1.3,1.1-2.6,1.6-3.9,1.6
		c-0.9,0-1.7-0.3-2.4-0.9c-0.5-0.5-0.8-1.1-0.8-2c0-0.7,0.2-1.3,0.7-1.8s1.1-0.7,1.8-0.7c0.7,0,1.5,0.4,2.2,1.1
		c0.6,0.5,1,0.8,1.3,0.8s0.6-0.2,1-0.5c1-0.8,2.4-2.6,4.2-5.4c1.8-2.8,2.9-4.8,3.5-6c-1.3-5.3-2.1-8.1-2.2-8.4c-0.5-1.4-1.2-2.4-2-3
		s-2-0.9-3.6-0.9c-0.5,0-1.1,0-1.8,0v-1.2L1062.2,874.8z"/>
	<path class="st1" d="M1111.5,885c0,3.3-0.9,6.6-2.6,9.8s-4.2,5.8-7.3,7.7s-6.1,2.8-9.1,2.8s-5.4-1-7.3-2.9s-2.9-4.4-2.9-7.4
		c0-3.2,0.9-6.5,2.8-9.7s4.3-5.8,7.4-7.7s6.1-2.8,9-2.8s5.3,1,7.2,2.9C1110.5,879.5,1111.5,882,1111.5,885z M1106,882.8
		c0-2-0.5-3.6-1.5-4.7c-1-1.1-2.3-1.6-3.9-1.6c-3.2,0-6.2,2.3-8.9,6.9c-2.7,4.6-4.1,9.2-4.1,13.8c0,2.1,0.5,3.7,1.6,4.8
		s2.4,1.7,4,1.7c3.1,0,6-2.3,8.7-6.9C1104.7,892.2,1106,887.5,1106,882.8z"/>
	<path class="st1" d="M1134,857.8l-11.2,39.1c-0.5,2-0.8,3.2-0.8,3.6c0,0.3,0.1,0.6,0.3,0.8c0.2,0.2,0.5,0.3,0.8,0.3
		c0.4,0,0.9-0.2,1.3-0.6c1.1-0.9,2.3-2.3,3.6-4.2l1,1c-2.1,2.9-4,5-5.8,6.2c-1.3,0.8-2.5,1.2-3.7,1.2c-0.8,0-1.5-0.3-2.1-0.9
		c-0.6-0.6-0.8-1.2-0.8-2s0.3-2.4,1-4.9l8.9-30.8c0.7-2.5,1.1-4,1.1-4.3c0-0.5-0.2-1-0.6-1.3s-1.1-0.5-1.9-0.5
		c-0.5,0-1.3,0.1-2.3,0.2v-1.2L1134,857.8z"/>
	<path class="st1" d="M1157.1,874.8l-2,10.1h-1.2c-0.1-2.9-0.7-5.1-1.9-6.4c-1.1-1.3-2.6-2-4.2-2c-1.3,0-2.4,0.4-3.2,1.1
		c-0.8,0.7-1.2,1.6-1.2,2.7c0,0.7,0.2,1.4,0.5,2.1c0.3,0.7,1,1.6,2.1,2.8c2.8,3.1,4.7,5.5,5.5,7c0.8,1.6,1.2,3.1,1.2,4.5
		c0,2.3-0.9,4.3-2.8,6.1s-4.3,2.6-7.2,2.6c-1.6,0-3.4-0.4-5.5-1.1c-0.7-0.3-1.3-0.4-1.7-0.4c-1,0-1.7,0.5-2.2,1.5h-1.2l2-10.7h1.2
		c0.1,3.3,0.8,5.7,2,7.1c1.3,1.4,3,2.1,5.1,2.1c1.7,0,3-0.5,4-1.4s1.5-2.1,1.5-3.4c0-0.9-0.2-1.7-0.5-2.4c-0.6-1.3-1.9-3.1-3.9-5.4
		c-2-2.3-3.2-4.1-3.8-5.2c-0.6-1.2-0.8-2.3-0.8-3.5c0-2.1,0.8-3.9,2.3-5.4c1.6-1.5,3.5-2.2,6-2.2c0.7,0,1.3,0.1,1.9,0.2
		c0.3,0.1,1,0.3,2.1,0.8c1.1,0.4,1.9,0.6,2.3,0.6c0.9,0,1.7-0.5,2.4-1.6h1.2V874.8z"/>
</g>
<g>
	<path class="st1" d="M394.3,1001.6v12.1c0,2.6,0.3,4.2,0.9,4.9c0.8,0.9,1.9,1.3,3.5,1.3h1.6v1.1h-17.8v-1.1h1.6
		c1.8,0,3-0.6,3.8-1.7c0.4-0.6,0.6-2.1,0.6-4.5v-26.8c0-2.6-0.3-4.2-0.8-4.9c-0.8-0.9-2-1.4-3.6-1.4h-1.6v-1.1h15.2
		c3.7,0,6.7,0.4,8.8,1.2c2.1,0.8,3.9,2.1,5.4,3.9c1.5,1.8,2.2,4,2.2,6.4c0,3.4-1.1,6.2-3.3,8.3c-2.2,2.1-5.4,3.2-9.5,3.2
		c-1,0-2.1-0.1-3.3-0.2C396.8,1002.1,395.6,1001.9,394.3,1001.6z M394.3,999.9c1.1,0.2,2.1,0.4,2.9,0.5s1.5,0.2,2.1,0.2
		c2.1,0,4-0.8,5.5-2.5c1.5-1.6,2.3-3.8,2.3-6.4c0-1.8-0.4-3.4-1.1-5c-0.7-1.5-1.8-2.7-3.1-3.5c-1.3-0.8-2.9-1.1-4.6-1.1
		c-1,0-2.4,0.2-4,0.6L394.3,999.9L394.3,999.9z"/>
	<path class="st1" d="M427.9,977.5v37.2c0,1.8,0.1,2.9,0.4,3.5s0.6,1,1.2,1.3c0.5,0.3,1.5,0.4,3,0.4v1.1h-13.7v-1.1
		c1.3,0,2.2-0.1,2.6-0.4c0.5-0.3,0.8-0.7,1.1-1.3c0.3-0.6,0.4-1.8,0.4-3.5v-25.4c0-3.2-0.1-5.1-0.2-5.8s-0.4-1.2-0.7-1.5
		c-0.3-0.3-0.7-0.4-1.2-0.4s-1.2,0.2-2,0.5l-0.5-1.1l8.4-3.4L427.9,977.5L427.9,977.5z"/>
	<path class="st1" d="M451.5,1017c-2.9,2.2-4.7,3.5-5.4,3.8c-1.1,0.5-2.3,0.8-3.5,0.8c-1.9,0-3.5-0.7-4.8-2s-1.9-3.1-1.9-5.2
		c0-1.4,0.3-2.5,0.9-3.5c0.8-1.4,2.3-2.7,4.4-3.9s5.5-2.7,10.3-4.5v-1.1c0-2.8-0.4-4.7-1.3-5.7s-2.2-1.6-3.9-1.6c-1.3,0-2.3,0.3-3,1
		c-0.8,0.7-1.2,1.5-1.2,2.4l0.1,1.8c0,0.9-0.2,1.7-0.7,2.2s-1.1,0.8-1.9,0.8s-1.4-0.3-1.9-0.8s-0.7-1.3-0.7-2.2
		c0-1.7,0.9-3.4,2.7-4.8c1.8-1.5,4.3-2.2,7.6-2.2c2.5,0,4.5,0.4,6.1,1.3c1.2,0.6,2.1,1.6,2.7,3c0.4,0.9,0.5,2.7,0.5,5.4v9.5
		c0,2.7,0.1,4.3,0.2,4.9c0.1,0.6,0.3,1,0.5,1.2s0.5,0.3,0.8,0.3s0.6-0.1,0.8-0.2c0.4-0.3,1.3-1,2.5-2.2v1.7c-2.3,3-4.5,4.6-6.6,4.6
		c-1,0-1.8-0.3-2.4-1C451.9,1019.9,451.5,1018.7,451.5,1017z M451.5,1015v-10.7c-3.1,1.2-5.1,2.1-6,2.6c-1.6,0.9-2.7,1.8-3.4,2.8
		s-1,2.1-1,3.2c0,1.5,0.4,2.7,1.3,3.7s1.9,1.5,3,1.5C446.9,1018.1,449,1017.1,451.5,1015z"/>
	<path class="st1" d="M487.3,1010.4c-0.8,3.7-2.2,6.5-4.4,8.5c-2.2,2-4.6,3-7.3,3c-3.2,0-6-1.3-8.3-4c-2.4-2.7-3.6-6.3-3.6-10.9
		c0-4.4,1.3-8,3.9-10.7s5.8-4.1,9.4-4.1c2.8,0,5,0.7,6.8,2.2s2.7,3,2.7,4.5c0,0.8-0.3,1.4-0.8,1.9s-1.2,0.7-2.1,0.7
		c-1.2,0-2.1-0.4-2.7-1.1c-0.3-0.4-0.6-1.2-0.7-2.5c-0.1-1.2-0.5-2.1-1.2-2.8c-0.7-0.6-1.7-0.9-3-0.9c-2.1,0-3.7,0.7-4.9,2.2
		c-1.6,2-2.5,4.7-2.5,7.9c0,3.3,0.8,6.3,2.5,8.9c1.6,2.6,3.9,3.8,6.7,3.8c2,0,3.8-0.7,5.4-2.1c1.1-0.9,2.2-2.6,3.3-5.1L487.3,1010.4
		z M475.9,1020.6h1.8l-1.5,2.4c1.3,0.3,2.2,0.9,2.9,1.7c0.6,0.8,1,1.7,1,2.8c0,1.5-0.6,2.8-1.8,3.9s-2.8,1.7-4.8,1.7
		c-0.8,0-1.7-0.1-2.9-0.2v-1.3c0.6,0.1,1,0.1,1.4,0.1c1,0,1.9-0.3,2.6-1s1.1-1.5,1.1-2.4c0-0.6-0.2-1.1-0.7-1.6
		c-0.5-0.4-1.1-0.7-1.8-0.7c-0.2,0-0.5,0-0.8,0L475.9,1020.6z"/>
	<path class="st1" d="M507.2,1017c-2.9,2.2-4.7,3.5-5.4,3.8c-1.1,0.5-2.3,0.8-3.5,0.8c-1.9,0-3.5-0.7-4.8-2s-1.9-3.1-1.9-5.2
		c0-1.4,0.3-2.5,0.9-3.5c0.8-1.4,2.3-2.7,4.4-3.9s5.5-2.7,10.3-4.5v-1.1c0-2.8-0.4-4.7-1.3-5.7s-2.2-1.6-3.9-1.6c-1.3,0-2.3,0.3-3,1
		c-0.8,0.7-1.2,1.5-1.2,2.4l0.1,1.8c0,0.9-0.2,1.7-0.7,2.2s-1.1,0.8-1.9,0.8s-1.4-0.3-1.9-0.8s-0.7-1.3-0.7-2.2
		c0-1.7,0.9-3.4,2.7-4.8c1.8-1.5,4.3-2.2,7.6-2.2c2.5,0,4.5,0.4,6.1,1.3c1.2,0.6,2.1,1.6,2.7,3c0.4,0.9,0.5,2.7,0.5,5.4v9.5
		c0,2.7,0.1,4.3,0.2,4.9c0.1,0.6,0.3,1,0.5,1.2s0.5,0.3,0.8,0.3s0.6-0.1,0.8-0.2c0.4-0.3,1.3-1,2.5-2.2v1.7c-2.3,3-4.5,4.6-6.6,4.6
		c-1,0-1.8-0.3-2.4-1C507.5,1019.9,507.2,1018.7,507.2,1017z M507.2,1015v-10.7c-3.1,1.2-5.1,2.1-6,2.6c-1.6,0.9-2.7,1.8-3.4,2.8
		s-1,2.1-1,3.2c0,1.5,0.4,2.7,1.3,3.7s1.9,1.5,3,1.5C502.6,1018.1,504.6,1017.1,507.2,1015z"/>
	<path class="st1" d="M554.6,1017.9c-1.4,1.4-2.7,2.4-4,3.1c-1.3,0.6-2.7,1-4.2,1c-3.1,0-5.7-1.3-8-3.9c-2.3-2.6-3.4-5.9-3.4-9.9
		s1.3-7.7,3.8-11s5.8-5,9.8-5c2.5,0,4.5,0.8,6.1,2.4v-5.2c0-3.2-0.1-5.2-0.2-5.9c-0.2-0.7-0.4-1.2-0.7-1.5s-0.7-0.4-1.2-0.4
		s-1.2,0.2-2.1,0.5l-0.4-1.1l8.4-3.4h1.4v32.4c0,3.3,0.1,5.3,0.2,6c0.2,0.7,0.4,1.2,0.7,1.5s0.7,0.4,1.2,0.4s1.3-0.2,2.2-0.5
		l0.3,1.1l-8.3,3.5h-1.4v-4.1H554.6z M554.6,1015.8v-14.4c-0.1-1.4-0.5-2.7-1.1-3.8s-1.4-2-2.4-2.6s-2-0.9-2.9-0.9
		c-1.8,0-3.4,0.8-4.8,2.4c-1.8,2.1-2.8,5.2-2.8,9.3s0.9,7.3,2.7,9.5s3.8,3.3,6,3.3C551.1,1018.6,552.9,1017.6,554.6,1015.8z"/>
	<path class="st1" d="M570.8,1003.6c0,4.2,1,7.5,3,9.8c2.1,2.4,4.4,3.5,7.2,3.5c1.8,0,3.5-0.5,4.8-1.5c1.4-1,2.5-2.7,3.4-5.2l1,0.6
		c-0.4,2.8-1.7,5.3-3.7,7.6c-2.1,2.3-4.6,3.5-7.8,3.5c-3.4,0-6.3-1.3-8.6-3.9c-2.4-2.6-3.6-6.2-3.6-10.6c0-4.8,1.2-8.5,3.7-11.2
		s5.6-4,9.3-4c3.1,0,5.7,1,7.7,3.1s3,4.8,3,8.3L570.8,1003.6L570.8,1003.6z M570.8,1001.8h13c-0.1-1.8-0.3-3.1-0.6-3.8
		c-0.5-1.1-1.3-2-2.3-2.7s-2.1-1-3.2-1c-1.7,0-3.2,0.7-4.6,2C571.8,997.6,571,999.5,570.8,1001.8z"/>
	<path class="st1" d="M603.6,977.5v37.2c0,1.8,0.1,2.9,0.4,3.5c0.3,0.6,0.6,1,1.2,1.3c0.5,0.3,1.5,0.4,3,0.4v1.1h-13.7v-1.1
		c1.3,0,2.2-0.1,2.6-0.4c0.5-0.3,0.8-0.7,1.1-1.3s0.4-1.8,0.4-3.5v-25.4c0-3.2-0.1-5.1-0.2-5.8c-0.1-0.7-0.4-1.2-0.7-1.5
		s-0.7-0.4-1.2-0.4s-1.2,0.2-2,0.5L594,981l8.4-3.4L603.6,977.5L603.6,977.5z"/>
	<path class="st1" d="M650.7,1021.1l-16-34.9v27.7c0,2.5,0.3,4.1,0.8,4.8c0.7,0.9,1.9,1.3,3.6,1.3h1.4v1.1h-14.4v-1.1h1.5
		c1.7,0,3-0.5,3.7-1.6c0.5-0.6,0.7-2.1,0.7-4.4v-27.1c0-1.8-0.2-3.2-0.6-4c-0.3-0.6-0.8-1.1-1.6-1.5s-2-0.6-3.7-0.6v-1.1h11.7
		l15.1,32.5l14.8-32.5h11.7v1.1H678c-1.8,0-3,0.5-3.8,1.6c-0.4,0.7-0.6,2.2-0.6,4.5v27.1c0,2.5,0.3,4.1,0.8,4.8
		c0.8,0.9,2,1.3,3.6,1.3h1.4v1.1h-17.6v-1.1h1.4c1.8,0,3-0.5,3.7-1.6c0.5-0.6,0.7-2.1,0.7-4.4v-27.7l-16,34.9h-0.9V1021.1z"/>
	<path class="st1" d="M696.4,992.2c4.3,0,7.7,1.6,10.2,4.8c2.2,2.8,3.3,5.9,3.3,9.5c0,2.5-0.6,5-1.8,7.6s-2.9,4.5-5,5.8
		s-4.5,2-7.1,2c-4.2,0-7.6-1.7-10.1-5.1c-2.1-2.8-3.1-6-3.1-9.5c0-2.6,0.6-5.1,1.9-7.7c1.3-2.5,2.9-4.4,5-5.6
		C691.9,992.8,694.1,992.2,696.4,992.2z M695.5,994.2c-1.1,0-2.1,0.3-3.3,1c-1.1,0.6-2,1.8-2.7,3.4c-0.7,1.6-1,3.7-1,6.2
		c0,4.1,0.8,7.6,2.4,10.5c1.6,3,3.8,4.4,6.4,4.4c2,0,3.6-0.8,4.9-2.4c1.3-1.6,1.9-4.4,1.9-8.4c0-5-1.1-8.9-3.2-11.8
		C699.6,995.2,697.7,994.2,695.5,994.2z"/>
	<path class="st1" d="M722.2,998.1c3.3-4,6.4-5.9,9.4-5.9c1.5,0,2.8,0.4,3.9,1.1c1.1,0.8,2,2,2.6,3.8c0.4,1.2,0.6,3.1,0.6,5.7v11.9
		c0,1.8,0.2,3,0.5,3.6c0.2,0.5,0.6,0.9,1.1,1.2s1.4,0.4,2.8,0.4v1.1h-13.9v-1.1h0.6c1.3,0,2.2-0.2,2.7-0.6c0.5-0.4,0.9-1,1.1-1.8
		c0.1-0.3,0.2-1.3,0.2-2.9v-11.5c0-2.5-0.3-4.4-1-5.5c-0.7-1.2-1.8-1.7-3.4-1.7c-2.4,0-4.9,1.3-7.3,4v14.7c0,1.9,0.1,3.1,0.3,3.5
		c0.3,0.6,0.7,1,1.2,1.3s1.5,0.4,3,0.4v1.1h-13.8v-1.1h0.6c1.4,0,2.4-0.4,2.9-1.1c0.5-0.7,0.8-2.1,0.8-4.2v-10.4
		c0-3.4-0.1-5.4-0.2-6.2c-0.2-0.7-0.4-1.2-0.7-1.5s-0.7-0.4-1.3-0.4s-1.3,0.2-2.1,0.5l-0.5-1.1l8.4-3.4h1.3v6.1H722.2z"/>
	<path class="st1" d="M750.1,1003.6c0,4.2,1,7.5,3,9.8c2.1,2.4,4.4,3.5,7.2,3.5c1.8,0,3.5-0.5,4.8-1.5s2.5-2.7,3.4-5.2l1,0.6
		c-0.4,2.8-1.7,5.3-3.7,7.6c-2.1,2.3-4.6,3.5-7.8,3.5c-3.4,0-6.3-1.3-8.6-3.9c-2.4-2.6-3.6-6.2-3.6-10.6c0-4.8,1.2-8.5,3.7-11.2
		s5.5-4,9.3-4c3.1,0,5.7,1,7.7,3.1s3,4.8,3,8.3L750.1,1003.6L750.1,1003.6z M750.1,1001.8h13c-0.1-1.8-0.3-3.1-0.6-3.8
		c-0.5-1.1-1.3-2-2.3-2.7s-2.1-1-3.2-1c-1.7,0-3.2,0.7-4.6,2C751.1,997.6,750.3,999.5,750.1,1001.8z"/>
	<path class="st1" d="M791.3,992.2v9.5h-1c-0.8-3-1.8-5-3-6.1s-2.8-1.6-4.6-1.6c-1.4,0-2.6,0.4-3.5,1.1c-0.9,0.8-1.3,1.6-1.3,2.5
		c0,1.1,0.3,2.1,1,2.9c0.6,0.8,1.9,1.7,3.9,2.7l4.4,2.2c4.2,2,6.2,4.7,6.2,8c0,2.5-1,4.6-2.9,6.2c-1.9,1.6-4.1,2.4-6.5,2.4
		c-1.7,0-3.6-0.3-5.9-1c-0.7-0.2-1.2-0.3-1.7-0.3s-0.8,0.3-1.1,0.8h-1v-10h1c0.6,2.9,1.7,5,3.3,6.5c1.6,1.4,3.4,2.2,5.4,2.2
		c1.4,0,2.5-0.4,3.4-1.2s1.3-1.8,1.3-3c0-1.4-0.5-2.6-1.5-3.6s-3-2.2-5.9-3.6c-3-1.5-4.9-2.8-5.8-4c-0.9-1.2-1.4-2.6-1.4-4.4
		c0-2.3,0.8-4.2,2.4-5.8c1.6-1.5,3.6-2.3,6.1-2.3c1.1,0,2.5,0.2,4,0.7c1,0.3,1.7,0.5,2.1,0.5c0.3,0,0.6-0.1,0.8-0.2
		c0.2-0.1,0.4-0.4,0.7-0.9h1.1V992.2z"/>
	<path class="st1" d="M805.8,983.8v9.2h6.5v2.1h-6.5v18.2c0,1.8,0.3,3.1,0.8,3.7c0.5,0.6,1.2,1,2,1c0.7,0,1.3-0.2,1.9-0.6
		c0.6-0.4,1.1-1,1.5-1.9h1.2c-0.7,2-1.7,3.5-3,4.5s-2.6,1.5-4,1.5c-1,0-1.9-0.3-2.8-0.8c-0.9-0.5-1.5-1.3-2-2.2
		c-0.4-1-0.6-2.5-0.6-4.5v-18.9h-4.4v-1c1.1-0.4,2.3-1.2,3.4-2.3c1.2-1.1,2.2-2.4,3.1-3.8c0.5-0.8,1.1-2.2,2-4.3L805.8,983.8
		L805.8,983.8z"/>
	<path class="st1" d="M824.7,992.2v22.5c0,1.8,0.1,2.9,0.4,3.5c0.3,0.6,0.6,1,1.1,1.3s1.4,0.4,2.8,0.4v1.1h-13.6v-1.1
		c1.4,0,2.3-0.1,2.8-0.4c0.5-0.3,0.8-0.7,1.1-1.3s0.4-1.8,0.4-3.5v-10.8c0-3-0.1-5-0.3-5.9c-0.2-0.7-0.4-1.1-0.7-1.4
		c-0.3-0.3-0.7-0.4-1.3-0.4s-1.2,0.2-2.1,0.5l-0.5-1.1l8.4-3.4L824.7,992.2L824.7,992.2z M822.2,977.5c0.9,0,1.6,0.3,2.2,0.9
		c0.6,0.6,0.9,1.3,0.9,2.2c0,0.8-0.3,1.6-0.9,2.2c-0.6,0.6-1.3,0.9-2.2,0.9s-1.6-0.3-2.2-0.9c-0.6-0.6-0.9-1.3-0.9-2.2
		s0.3-1.6,0.9-2.2C820.5,977.8,821.3,977.5,822.2,977.5z"/>
	<path class="st1" d="M840.6,992.2v6.3c2.4-4.2,4.8-6.3,7.2-6.3c1.1,0,2.1,0.3,2.8,1s1.1,1.5,1.1,2.4c0,0.8-0.3,1.5-0.8,2
		s-1.1,0.8-1.9,0.8c-0.7,0-1.5-0.3-2.4-1s-1.5-1-1.9-1s-0.8,0.2-1.2,0.6c-0.9,0.8-1.9,2.2-2.9,4.1v13.5c0,1.5,0.2,2.7,0.6,3.5
		c0.3,0.6,0.7,1,1.4,1.4s1.6,0.6,2.9,0.6v1.1h-14.3v-1.1c1.4,0,2.5-0.2,3.2-0.7c0.5-0.3,0.9-0.8,1.1-1.6c0.1-0.3,0.2-1.3,0.2-3
		v-10.9c0-3.2-0.1-5.2-0.2-5.8c-0.1-0.6-0.4-1.1-0.7-1.4c-0.4-0.3-0.8-0.4-1.3-0.4c-0.6,0-1.3,0.2-2.1,0.5l-0.3-1.1l8.5-3.4
		L840.6,992.2L840.6,992.2z"/>
	<path class="st1" d="M854.7,1031.5v-1.4c2.1-0.7,3.7-1.8,4.8-3.2c1.2-1.5,1.7-3,1.7-4.7c0-0.4-0.1-0.7-0.3-1
		c-0.1-0.2-0.3-0.3-0.4-0.3c-0.2,0-0.7,0.2-1.5,0.6c-0.4,0.2-0.7,0.3-1.1,0.3c-1,0-1.8-0.3-2.4-0.9c-0.6-0.6-0.9-1.4-0.9-2.5
		c0-1,0.4-1.9,1.1-2.6c0.8-0.7,1.7-1.1,2.8-1.1c1.4,0,2.6,0.6,3.6,1.8s1.6,2.7,1.6,4.7c0,2.1-0.7,4.1-2.2,5.9
		C860.2,1029,857.9,1030.5,854.7,1031.5z"/>
	<path class="st1" d="M170.3,1077l10.1-4.9h1v35c0,2.3,0.1,3.7,0.3,4.3c0.2,0.6,0.6,1,1.2,1.3c0.6,0.3,1.8,0.5,3.7,0.5v1.1H171v-1.1
		c2,0,3.2-0.2,3.8-0.5s1-0.7,1.2-1.2s0.3-2,0.3-4.5v-22.4c0-3-0.1-5-0.3-5.8c-0.2-0.6-0.4-1.1-0.8-1.4c-0.4-0.3-0.8-0.5-1.4-0.5
		c-0.8,0-1.8,0.3-3.2,1L170.3,1077z"/>
	<path class="st1" d="M200.6,1073h22.2v1.2l-13.8,41.2h-3.4L218,1078h-11.4c-2.3,0-4,0.3-4.9,0.8c-1.7,0.9-3.1,2.4-4.1,4.4l-0.9-0.3
		L200.6,1073z"/>
	<path class="st1" d="M254.4,1106.5l-2.9,8H227v-1.1c7.2-6.6,12.3-11.9,15.2-16.1s4.4-8,4.4-11.4c0-2.6-0.8-4.8-2.4-6.5
		c-1.6-1.7-3.5-2.5-5.8-2.5c-2.1,0-3.9,0.6-5.5,1.8c-1.6,1.2-2.8,2.9-3.6,5.2h-1.1c0.5-3.8,1.8-6.7,3.9-8.7s4.7-3,7.9-3
		c3.4,0,6.2,1.1,8.4,3.2s3.4,4.7,3.4,7.6c0,2.1-0.5,4.2-1.5,6.3c-1.5,3.3-3.9,6.8-7.3,10.5c-5.1,5.6-8.2,8.9-9.5,10h10.8
		c2.2,0,3.8-0.1,4.6-0.2c0.9-0.2,1.7-0.5,2.4-1s1.3-1.2,1.9-2.1L254.4,1106.5L254.4,1106.5z"/>
	<path class="st1" d="M285.7,1106.5l-2.9,8h-24.5v-1.1c7.2-6.6,12.3-11.9,15.2-16.1c2.9-4.2,4.4-8,4.4-11.4c0-2.6-0.8-4.8-2.4-6.5
		s-3.5-2.5-5.8-2.5c-2.1,0-3.9,0.6-5.5,1.8c-1.6,1.2-2.8,2.9-3.6,5.2h-1.1c0.5-3.8,1.8-6.7,3.9-8.7s4.7-3,7.9-3
		c3.4,0,6.2,1.1,8.4,3.2c2.3,2.2,3.4,4.7,3.4,7.6c0,2.1-0.5,4.2-1.5,6.3c-1.5,3.3-3.9,6.8-7.3,10.5c-5.1,5.6-8.2,8.9-9.5,10h10.8
		c2.2,0,3.8-0.1,4.6-0.2c0.9-0.2,1.7-0.5,2.4-1c0.7-0.5,1.3-1.2,1.9-2.1L285.7,1106.5L285.7,1106.5z"/>
	<path class="st1" d="M290.6,1094c0-4.7,0.7-8.8,2.1-12.2c1.4-3.4,3.3-6,5.7-7.6c1.8-1.3,3.7-2,5.7-2c3.2,0,6.1,1.6,8.6,4.9
		c3.2,4,4.8,9.5,4.8,16.3c0,4.8-0.7,8.9-2.1,12.3s-3.2,5.8-5.3,7.3c-2.2,1.5-4.2,2.3-6.2,2.3c-4,0-7.2-2.3-9.9-7
		C291.7,1104.3,290.6,1099.6,290.6,1094z M296.5,1094.8c0,5.7,0.7,10.4,2.1,14c1.2,3,2.9,4.6,5.2,4.6c1.1,0,2.2-0.5,3.4-1.5
		c1.2-1,2.1-2.6,2.7-5c0.9-3.5,1.4-8.5,1.4-14.9c0-4.7-0.5-8.7-1.5-11.8c-0.7-2.4-1.7-4-2.9-5c-0.8-0.7-1.8-1-3-1
		c-1.4,0-2.6,0.6-3.7,1.9c-1.5,1.7-2.5,4.4-3,8C296.8,1087.7,296.5,1091.2,296.5,1094.8z"/>
	<path class="st1" d="M364,1072v14.4h-1.1c-0.4-2.8-1-5-2-6.6s-2.3-2.9-4.1-3.9c-1.8-1-3.6-1.4-5.5-1.4c-2.1,0-3.9,0.6-5.2,1.9
		c-1.4,1.3-2.1,2.8-2.1,4.4c0,1.3,0.4,2.4,1.3,3.5c1.3,1.5,4.3,3.6,9,6.1c3.9,2.1,6.5,3.7,7.9,4.8c1.4,1.1,2.5,2.4,3.3,3.9
		s1.1,3.1,1.1,4.7c0,3.1-1.2,5.9-3.6,8.1c-2.4,2.3-5.6,3.4-9.4,3.4c-1.2,0-2.4-0.1-3.4-0.3c-0.6-0.1-1.9-0.5-3.9-1.1s-3.3-1-3.8-1
		s-0.9,0.2-1.2,0.5c-0.3,0.3-0.5,0.9-0.7,1.9h-1.1v-14.2h1.1c0.5,3,1.2,5.2,2.1,6.7s2.3,2.7,4.1,3.7c1.9,1,3.9,1.5,6.1,1.5
		c2.5,0,4.5-0.7,6-2s2.2-2.9,2.2-4.8c0-1-0.3-2-0.8-3.1c-0.6-1-1.4-2-2.6-2.9c-0.8-0.6-3-1.9-6.5-3.9s-6.1-3.6-7.6-4.8
		c-1.5-1.2-2.6-2.5-3.4-3.9s-1.2-3-1.2-4.7c0-3,1.1-5.6,3.4-7.7c2.3-2.2,5.2-3.2,8.7-3.2c2.2,0,4.5,0.5,7,1.6c1.1,0.5,2,0.8,2.4,0.8
		c0.5,0,0.9-0.2,1.3-0.5c0.3-0.3,0.6-1,0.8-1.9H364z"/>
	<path class="st1" d="M387.9,1110.5c-2.9,2.2-4.7,3.5-5.4,3.8c-1.1,0.5-2.3,0.8-3.5,0.8c-1.9,0-3.5-0.7-4.8-2s-1.9-3.1-1.9-5.2
		c0-1.4,0.3-2.5,0.9-3.5c0.8-1.4,2.3-2.7,4.4-3.9c2.1-1.2,5.5-2.7,10.3-4.5v-1.1c0-2.8-0.4-4.7-1.3-5.7s-2.2-1.6-3.9-1.6
		c-1.3,0-2.3,0.3-3,1c-0.8,0.7-1.2,1.5-1.2,2.4l0.1,1.8c0,0.9-0.2,1.7-0.7,2.2s-1.1,0.8-1.9,0.8s-1.4-0.3-1.9-0.8s-0.7-1.3-0.7-2.2
		c0-1.7,0.9-3.4,2.7-4.8c1.8-1.5,4.3-2.2,7.6-2.2c2.5,0,4.5,0.4,6.1,1.3c1.2,0.6,2.1,1.6,2.7,3c0.4,0.9,0.5,2.7,0.5,5.4v9.5
		c0,2.7,0.1,4.3,0.2,4.9s0.3,1,0.5,1.2s0.5,0.3,0.8,0.3s0.6-0.1,0.8-0.2c0.4-0.3,1.3-1,2.5-2.2v1.7c-2.3,3-4.5,4.6-6.6,4.6
		c-1,0-1.8-0.3-2.4-1C388.3,1113.3,388,1112.1,387.9,1110.5z M387.9,1108.4v-10.7c-3.1,1.2-5.1,2.1-6,2.6c-1.6,0.9-2.7,1.8-3.4,2.8
		c-0.7,1-1,2.1-1,3.2c0,1.5,0.4,2.7,1.3,3.7s1.9,1.5,3,1.5C383.4,1111.5,385.4,1110.5,387.9,1108.4z"/>
	<path class="st1" d="M408.1,1091.6c3.3-4,6.4-5.9,9.4-5.9c1.5,0,2.8,0.4,3.9,1.1c1.1,0.8,2,2,2.6,3.8c0.4,1.2,0.6,3.1,0.6,5.7v11.9
		c0,1.8,0.2,3,0.5,3.6c0.2,0.5,0.6,0.9,1.1,1.2c0.5,0.3,1.4,0.4,2.8,0.4v1.1h-13.9v-1.1h0.6c1.3,0,2.2-0.2,2.7-0.6s0.9-1,1.1-1.8
		c0.1-0.3,0.2-1.3,0.2-2.9v-11.5c0-2.5-0.3-4.4-1-5.5c-0.7-1.2-1.8-1.7-3.4-1.7c-2.4,0-4.9,1.3-7.3,4v14.7c0,1.9,0.1,3.1,0.3,3.5
		c0.3,0.6,0.7,1,1.2,1.3s1.5,0.4,3,0.4v1.1h-13.8v-1.1h0.6c1.4,0,2.4-0.4,2.9-1.1s0.8-2.1,0.8-4.2v-10.4c0-3.4-0.1-5.4-0.2-6.2
		c-0.2-0.7-0.4-1.2-0.7-1.5c-0.3-0.3-0.7-0.4-1.3-0.4c-0.6,0-1.3,0.2-2.1,0.5l-0.5-1.1l8.4-3.4h1.3v6.1H408.1z"/>
	<path class="st1" d="M439.4,1077.2v9.2h6.5v2.1h-6.5v18.2c0,1.8,0.3,3.1,0.8,3.7s1.2,1,2,1c0.7,0,1.3-0.2,1.9-0.6s1.1-1,1.5-1.9
		h1.2c-0.7,2-1.7,3.5-3,4.5s-2.6,1.5-4,1.5c-1,0-1.9-0.3-2.8-0.8s-1.5-1.3-2-2.2c-0.4-1-0.6-2.5-0.6-4.5v-18.9H430v-1
		c1.1-0.4,2.3-1.2,3.4-2.3c1.2-1.1,2.2-2.3,3.1-3.8c0.5-0.8,1.1-2.2,2-4.3h0.9V1077.2z"/>
	<path class="st1" d="M475.1,1075.3v16.3h7.6c1.7,0,3-0.4,3.8-1.1c0.8-0.8,1.3-2.3,1.6-4.6h1.1v14.1h-1.1c0-1.6-0.2-2.8-0.6-3.6
		c-0.4-0.7-1-1.3-1.7-1.7c-0.7-0.4-1.7-0.6-3.1-0.6h-7.6v13c0,2.1,0.1,3.5,0.4,4.1c0.2,0.5,0.6,1,1.3,1.3c0.9,0.5,1.8,0.7,2.8,0.7
		h1.5v1.1h-17.8v-1.1h1.4c1.7,0,3-0.5,3.7-1.5c0.5-0.7,0.8-2.2,0.8-4.7v-26.8c0-2.1-0.1-3.5-0.4-4.2c-0.2-0.5-0.6-0.9-1.3-1.3
		c-0.9-0.5-1.8-0.8-2.8-0.8h-1.4v-1.1h30.9l0.4,9.1h-1.1c-0.5-1.9-1.1-3.3-1.8-4.3c-0.7-0.9-1.6-1.6-2.6-2s-2.6-0.6-4.8-0.6h-9.2
		V1075.3z"/>
	<path class="st1" d="M503.8,1097c0,4.2,1,7.5,3,9.8c2.1,2.4,4.4,3.5,7.2,3.5c1.8,0,3.5-0.5,4.8-1.5c1.4-1,2.5-2.7,3.4-5.2l1,0.6
		c-0.4,2.8-1.7,5.3-3.7,7.6c-2.1,2.3-4.6,3.5-7.8,3.5c-3.4,0-6.3-1.3-8.6-3.9c-2.4-2.6-3.6-6.2-3.6-10.6c0-4.8,1.2-8.5,3.7-11.2
		s5.6-4,9.3-4c3.1,0,5.7,1,7.7,3.1s3,4.8,3,8.3L503.8,1097L503.8,1097z M503.8,1095.3h13c-0.1-1.8-0.3-3.1-0.6-3.8
		c-0.5-1.1-1.3-2-2.3-2.7s-2.1-1-3.2-1c-1.7,0-3.2,0.7-4.6,2C504.9,1091.1,504.1,1092.9,503.8,1095.3z"/>
	<path class="st1" d="M536.6,1071v37.2c0,1.8,0.1,2.9,0.4,3.5c0.3,0.6,0.6,1,1.2,1.3c0.5,0.3,1.5,0.4,3,0.4v1.1h-13.7v-1.1
		c1.3,0,2.2-0.1,2.6-0.4c0.5-0.3,0.8-0.7,1.1-1.3s0.4-1.8,0.4-3.5v-25.4c0-3.2-0.1-5.1-0.2-5.8c-0.1-0.7-0.4-1.2-0.7-1.5
		s-0.7-0.4-1.2-0.4s-1.2,0.2-2,0.5l-0.5-1.1l8.4-3.4L536.6,1071L536.6,1071z"/>
	<path class="st1" d="M554.1,1085.6v22.5c0,1.8,0.1,2.9,0.4,3.5c0.3,0.6,0.6,1,1.1,1.3s1.4,0.4,2.8,0.4v1.1h-13.6v-1.1
		c1.4,0,2.3-0.1,2.8-0.4s0.8-0.7,1.1-1.3s0.4-1.8,0.4-3.5v-10.8c0-3-0.1-5-0.3-5.9c-0.2-0.7-0.4-1.1-0.7-1.4s-0.7-0.4-1.3-0.4
		s-1.2,0.2-2.1,0.5l-0.5-1.1l8.4-3.4L554.1,1085.6L554.1,1085.6z M551.5,1071c0.9,0,1.6,0.3,2.2,0.9c0.6,0.6,0.9,1.3,0.9,2.2
		c0,0.8-0.3,1.6-0.9,2.2c-0.6,0.6-1.3,0.9-2.2,0.9s-1.6-0.3-2.2-0.9c-0.6-0.6-0.9-1.3-0.9-2.2c0-0.9,0.3-1.6,0.9-2.2
		S550.6,1071,551.5,1071z"/>
	<path class="st1" d="M586.4,1086.5v17c0,3.2,0.1,5.2,0.2,6c0.2,0.7,0.4,1.2,0.7,1.5s0.7,0.4,1.2,0.4c0.6,0,1.4-0.2,2.2-0.5l0.4,1.1
		l-8.4,3.5h-1.4v-6c-2.4,2.6-4.2,4.3-5.5,4.9c-1.3,0.7-2.6,1-4,1c-1.6,0-2.9-0.5-4.1-1.4c-1.2-0.9-2-2.1-2.4-3.5
		c-0.5-1.4-0.7-3.5-0.7-6.1v-12.5c0-1.3-0.1-2.2-0.4-2.8s-0.7-0.9-1.3-1.2c-0.6-0.3-1.6-0.4-3-0.4v-1.1h9.8v18.7
		c0,2.6,0.5,4.3,1.4,5.2c0.9,0.8,2,1.2,3.3,1.2c0.9,0,1.9-0.3,3-0.8c1.1-0.6,2.4-1.6,4-3.2v-15.9c0-1.6-0.3-2.7-0.9-3.2
		c-0.6-0.6-1.8-0.9-3.6-0.9v-1.1h9.5V1086.5z"/>
	<path class="st1" d="M628.6,1111.3c-1.4,1.4-2.7,2.4-4,3.1s-2.7,1-4.2,1c-3.1,0-5.7-1.3-8-3.9s-3.4-5.9-3.4-9.9s1.3-7.7,3.8-11
		s5.8-5,9.8-5c2.5,0,4.5,0.8,6.1,2.4v-5.2c0-3.2-0.1-5.2-0.2-5.9c-0.2-0.7-0.4-1.2-0.7-1.5s-0.7-0.4-1.2-0.4s-1.2,0.2-2.1,0.5
		l-0.4-1.1l8.4-3.4h1.4v32.4c0,3.3,0.1,5.3,0.2,6c0.2,0.7,0.4,1.2,0.7,1.5s0.7,0.4,1.2,0.4s1.3-0.2,2.2-0.5l0.3,1.1l-8.3,3.5h-1.4
		v-4.1H628.6z M628.6,1109.2v-14.4c-0.1-1.4-0.5-2.7-1.1-3.8c-0.6-1.1-1.4-2-2.4-2.6s-2-0.9-2.9-0.9c-1.8,0-3.4,0.8-4.8,2.4
		c-1.9,2.1-2.8,5.2-2.8,9.3c0,4.1,0.9,7.3,2.7,9.5s3.8,3.3,6,3.3C625.1,1112,626.8,1111.1,628.6,1109.2z"/>
	<path class="st1" d="M644.8,1097c0,4.2,1,7.5,3,9.8c2.1,2.4,4.4,3.5,7.2,3.5c1.8,0,3.5-0.5,4.8-1.5c1.4-1,2.5-2.7,3.4-5.2l1,0.6
		c-0.4,2.8-1.7,5.3-3.7,7.6c-2.1,2.3-4.6,3.5-7.8,3.5c-3.4,0-6.3-1.3-8.6-3.9c-2.4-2.6-3.6-6.2-3.6-10.6c0-4.8,1.2-8.5,3.7-11.2
		s5.5-4,9.3-4c3.1,0,5.7,1,7.7,3.1s3,4.8,3,8.3L644.8,1097L644.8,1097z M644.8,1095.3h13c-0.1-1.8-0.3-3.1-0.6-3.8
		c-0.5-1.1-1.3-2-2.3-2.7s-2.1-1-3.2-1c-1.7,0-3.2,0.7-4.6,2C645.8,1091.1,645,1092.9,644.8,1095.3z"/>
	<path class="st1" d="M720.1,1072l1.1,13.1h-1.1c-1.1-3.3-2.5-5.7-4.2-7.4c-2.5-2.4-5.7-3.6-9.5-3.6c-5.3,0-9.3,2.1-12.1,6.3
		c-2.3,3.5-3.5,7.7-3.5,12.6c0,4,0.8,7.6,2.3,10.9s3.5,5.6,6,7.2c2.5,1.5,5,2.3,7.7,2.3c1.5,0,3-0.2,4.4-0.6s2.8-1,4.1-1.7v-12
		c0-2.1-0.2-3.4-0.5-4.1c-0.3-0.6-0.8-1.1-1.5-1.5c-0.7-0.3-1.8-0.5-3.5-0.5v-1.2h16v1.2H725c-1.6,0-2.7,0.5-3.3,1.6
		c-0.4,0.8-0.6,2.2-0.6,4.4v12.7c-2.4,1.3-4.7,2.2-7,2.8c-2.3,0.6-4.8,0.9-7.6,0.9c-8,0-14.1-2.6-18.3-7.7
		c-3.1-3.9-4.7-8.3-4.7-13.3c0-3.6,0.9-7.1,2.6-10.5c2.1-4,4.9-7,8.6-9.2c3-1.8,6.6-2.7,10.8-2.7c1.5,0,2.9,0.1,4.1,0.4
		c1.2,0.3,3,0.8,5.2,1.6c1.1,0.4,1.9,0.6,2.3,0.6c0.4,0,0.7-0.2,1-0.5c0.3-0.4,0.4-1.1,0.5-2.1L720.1,1072L720.1,1072z"/>
	<path class="st1" d="M753.4,1086.5v17c0,3.2,0.1,5.2,0.2,6c0.2,0.7,0.4,1.2,0.7,1.5s0.7,0.4,1.2,0.4c0.6,0,1.4-0.2,2.2-0.5l0.4,1.1
		l-8.4,3.5h-1.4v-6c-2.4,2.6-4.2,4.3-5.5,4.9c-1.3,0.7-2.6,1-4,1c-1.6,0-2.9-0.5-4.1-1.4c-1.2-0.9-2-2.1-2.4-3.5
		c-0.5-1.4-0.7-3.5-0.7-6.1v-12.5c0-1.3-0.1-2.2-0.4-2.8s-0.7-0.9-1.3-1.2c-0.6-0.3-1.6-0.4-3-0.4v-1.1h9.8v18.7
		c0,2.6,0.5,4.3,1.4,5.2c0.9,0.8,2,1.2,3.3,1.2c0.9,0,1.9-0.3,3-0.8c1.1-0.6,2.4-1.6,4-3.2v-15.9c0-1.6-0.3-2.7-0.9-3.2
		c-0.6-0.6-1.8-0.9-3.6-0.9v-1.1h9.5V1086.5z"/>
	<path class="st1" d="M769.8,1085.6v22.5c0,1.8,0.1,2.9,0.4,3.5c0.3,0.6,0.6,1,1.1,1.3s1.4,0.4,2.8,0.4v1.1h-13.6v-1.1
		c1.4,0,2.3-0.1,2.8-0.4s0.8-0.7,1.1-1.3s0.4-1.8,0.4-3.5v-10.8c0-3-0.1-5-0.3-5.9c-0.2-0.7-0.4-1.1-0.7-1.4s-0.7-0.4-1.3-0.4
		s-1.2,0.2-2.1,0.5l-0.5-1.1l8.4-3.4L769.8,1085.6L769.8,1085.6z M773.5,1072l-9,10.6h-1l3.2-10.6H773.5z"/>
	<path class="st1" d="M776.5,1086.5h13.2v1.1c-0.8,0-1.4,0.1-1.8,0.4c-0.3,0.3-0.5,0.7-0.5,1.1c0,0.5,0.4,1.3,1.1,2.3
		c0.2,0.3,0.6,0.8,1,1.5l2,3.2l2.3-3.2c1.5-2,2.2-3.3,2.2-3.8c0-0.4-0.2-0.8-0.5-1.1c-0.4-0.3-0.9-0.5-1.7-0.5v-1.1h9.5v1.1
		c-1,0.1-1.9,0.4-2.6,0.8c-1,0.7-2.4,2.2-4.1,4.5l-3.8,5.1l7,10c1.7,2.5,2.9,3.9,3.6,4.4c0.7,0.5,1.7,0.8,2.9,0.8v1.1H793v-1.1
		c0.9,0,1.7-0.2,2.2-0.6c0.4-0.3,0.6-0.7,0.6-1.1c0-0.5-0.6-1.6-1.9-3.5l-4.1-6l-4.5,6c-1.4,1.9-2.1,3-2.1,3.3
		c0,0.5,0.2,0.9,0.7,1.3s1.1,0.6,2.1,0.7v1.1h-9.2v-1.1c0.7-0.1,1.4-0.4,1.9-0.8c0.8-0.6,2.1-2.1,3.9-4.5l5.9-7.8l-5.3-7.7
		c-1.5-2.2-2.7-3.6-3.5-4.2s-1.9-0.9-3.1-0.9v-0.8H776.5z"/>
	<path class="st1" d="M822.6,1085.6c4.3,0,7.7,1.6,10.2,4.8c2.2,2.8,3.3,5.9,3.3,9.5c0,2.5-0.6,5-1.8,7.6s-2.9,4.5-5,5.8
		s-4.5,2-7.1,2c-4.2,0-7.6-1.7-10.1-5.1c-2.1-2.8-3.1-6-3.1-9.5c0-2.6,0.6-5.1,1.9-7.7c1.3-2.5,2.9-4.4,5-5.6
		C818.1,1086.2,820.3,1085.6,822.6,1085.6z M821.7,1087.6c-1.1,0-2.1,0.3-3.3,1c-1.1,0.6-2,1.8-2.7,3.4s-1,3.7-1,6.2
		c0,4.1,0.8,7.6,2.4,10.5c1.6,3,3.8,4.4,6.4,4.4c2,0,3.6-0.8,4.9-2.4c1.3-1.6,1.9-4.4,1.9-8.4c0-5-1.1-8.9-3.2-11.8
		C825.8,1088.6,823.9,1087.6,821.7,1087.6z"/>
	<path class="st1" d="M849.9,1071v37.2c0,1.8,0.1,2.9,0.4,3.5c0.3,0.6,0.6,1,1.2,1.3c0.5,0.3,1.5,0.4,3,0.4v1.1h-13.7v-1.1
		c1.3,0,2.2-0.1,2.6-0.4c0.5-0.3,0.8-0.7,1.1-1.3s0.4-1.8,0.4-3.5v-25.4c0-3.2-0.1-5.1-0.2-5.8c-0.1-0.7-0.4-1.2-0.7-1.5
		s-0.7-0.4-1.2-0.4s-1.2,0.2-2,0.5l-0.5-1.1l8.4-3.4L849.9,1071L849.9,1071z"/>
	<path class="st1" d="M875.8,1085.6v9.5h-1c-0.8-3-1.8-5-3-6.1s-2.8-1.6-4.6-1.6c-1.4,0-2.6,0.4-3.5,1.1c-0.9,0.8-1.3,1.6-1.3,2.5
		c0,1.1,0.3,2.1,1,2.9c0.6,0.8,1.9,1.7,3.9,2.7l4.4,2.2c4.2,2,6.2,4.7,6.2,8c0,2.5-1,4.6-2.9,6.2s-4.1,2.4-6.5,2.4
		c-1.7,0-3.6-0.3-5.9-1c-0.7-0.2-1.2-0.3-1.7-0.3s-0.8,0.3-1.1,0.8h-1v-10h1c0.6,2.9,1.7,5,3.3,6.5c1.6,1.4,3.4,2.2,5.4,2.2
		c1.4,0,2.5-0.4,3.4-1.2c0.9-0.8,1.3-1.8,1.3-3c0-1.4-0.5-2.6-1.5-3.6s-3-2.2-5.9-3.6s-4.9-2.8-5.8-4c-0.9-1.2-1.4-2.6-1.4-4.4
		c0-2.3,0.8-4.2,2.4-5.8s3.6-2.3,6.1-2.3c1.1,0,2.5,0.2,4,0.7c1,0.3,1.7,0.5,2.1,0.5c0.3,0,0.6-0.1,0.8-0.2s0.4-0.4,0.7-0.9h1.1
		V1085.6z"/>
	<path class="st1" d="M883.5,1124.9v-1.4c2.1-0.7,3.7-1.8,4.8-3.2c1.2-1.5,1.7-3,1.7-4.7c0-0.4-0.1-0.7-0.3-1
		c-0.1-0.2-0.3-0.3-0.4-0.3c-0.2,0-0.7,0.2-1.5,0.6c-0.4,0.2-0.7,0.3-1.1,0.3c-1,0-1.8-0.3-2.4-0.9c-0.6-0.6-0.9-1.4-0.9-2.5
		c0-1,0.4-1.9,1.1-2.6c0.8-0.7,1.7-1.1,2.8-1.1c1.4,0,2.6,0.6,3.6,1.8c1,1.2,1.6,2.7,1.6,4.7c0,2.1-0.7,4.1-2.2,5.9
		C888.9,1122.5,886.6,1123.9,883.5,1124.9z"/>
	<path class="st1" d="M949.9,1072l1.1,13.1h-1.1c-1.1-3.3-2.5-5.7-4.2-7.4c-2.5-2.4-5.7-3.6-9.5-3.6c-5.3,0-9.3,2.1-12.1,6.3
		c-2.3,3.5-3.5,7.7-3.5,12.6c0,4,0.8,7.6,2.3,10.9s3.5,5.6,6,7.2c2.5,1.5,5,2.3,7.7,2.3c1.5,0,3-0.2,4.4-0.6s2.8-1,4.1-1.7v-12
		c0-2.1-0.2-3.4-0.5-4.1c-0.3-0.6-0.8-1.1-1.5-1.5c-0.7-0.3-1.8-0.5-3.5-0.5v-1.2h16v1.2H955c-1.6,0-2.7,0.5-3.3,1.6
		c-0.4,0.8-0.6,2.2-0.6,4.4v12.7c-2.4,1.3-4.7,2.2-7,2.8c-2.3,0.6-4.8,0.9-7.6,0.9c-8,0-14.1-2.6-18.3-7.7
		c-3.1-3.9-4.7-8.3-4.7-13.3c0-3.6,0.9-7.1,2.6-10.5c2.1-4,4.9-7,8.6-9.2c3-1.8,6.6-2.7,10.8-2.7c1.5,0,2.9,0.1,4.1,0.4
		c1.2,0.3,3,0.8,5.2,1.6c1.1,0.4,1.9,0.6,2.3,0.6c0.4,0,0.7-0.2,1-0.5c0.3-0.4,0.4-1.1,0.5-2.1L949.9,1072L949.9,1072z"/>
	<path class="st1" d="M968.3,1085.6v22.5c0,1.8,0.1,2.9,0.4,3.5c0.3,0.6,0.6,1,1.1,1.3s1.4,0.4,2.8,0.4v1.1H959v-1.1
		c1.4,0,2.3-0.1,2.8-0.4s0.8-0.7,1.1-1.3s0.4-1.8,0.4-3.5v-10.8c0-3-0.1-5-0.3-5.9c-0.2-0.7-0.4-1.1-0.7-1.4s-0.7-0.4-1.3-0.4
		s-1.2,0.2-2.1,0.5l-0.5-1.1l8.4-3.4L968.3,1085.6L968.3,1085.6z M965.8,1071c0.9,0,1.6,0.3,2.2,0.9c0.6,0.6,0.9,1.3,0.9,2.2
		c0,0.8-0.3,1.6-0.9,2.2c-0.6,0.6-1.3,0.9-2.2,0.9s-1.6-0.3-2.2-0.9c-0.6-0.6-0.9-1.3-0.9-2.2c0-0.9,0.3-1.6,0.9-2.2
		S964.9,1071,965.8,1071z"/>
	<path class="st1" d="M984.3,1085.6v6.3c2.4-4.2,4.8-6.3,7.2-6.3c1.1,0,2.1,0.3,2.8,1s1.1,1.5,1.1,2.4c0,0.8-0.3,1.5-0.8,2
		s-1.1,0.8-1.9,0.8c-0.7,0-1.5-0.3-2.4-1s-1.5-1-1.9-1s-0.8,0.2-1.2,0.6c-0.9,0.8-1.9,2.2-2.9,4.1v13.5c0,1.5,0.2,2.7,0.6,3.5
		c0.3,0.6,0.7,1,1.4,1.4s1.6,0.6,2.9,0.6v1.1h-14.3v-1.1c1.4,0,2.5-0.2,3.2-0.7c0.5-0.3,0.9-0.8,1.1-1.6c0.1-0.3,0.2-1.3,0.2-3
		v-10.9c0-3.2-0.1-5.2-0.2-5.8c-0.1-0.6-0.4-1.1-0.7-1.4c-0.4-0.3-0.8-0.4-1.3-0.4c-0.6,0-1.3,0.2-2.1,0.5l-0.3-1.1l8.5-3.4
		L984.3,1085.6L984.3,1085.6z"/>
	<path class="st1" d="M1010.6,1085.6c4.3,0,7.7,1.6,10.2,4.8c2.2,2.8,3.3,5.9,3.3,9.5c0,2.5-0.6,5-1.8,7.6s-2.9,4.5-5,5.8
		s-4.5,2-7.1,2c-4.2,0-7.6-1.7-10.1-5.1c-2.1-2.8-3.1-6-3.1-9.5c0-2.6,0.6-5.1,1.9-7.7c1.3-2.5,2.9-4.4,5-5.6
		C1006.1,1086.2,1008.3,1085.6,1010.6,1085.6z M1009.7,1087.6c-1.1,0-2.1,0.3-3.3,1c-1.1,0.6-2,1.8-2.7,3.4s-1,3.7-1,6.2
		c0,4.1,0.8,7.6,2.4,10.5c1.6,3,3.8,4.4,6.4,4.4c2,0,3.6-0.8,4.9-2.4c1.3-1.6,1.9-4.4,1.9-8.4c0-5-1.1-8.9-3.2-11.8
		C1013.8,1088.6,1011.9,1087.6,1009.7,1087.6z"/>
	<path class="st1" d="M1036.4,1091.6c3.3-4,6.4-5.9,9.4-5.9c1.5,0,2.8,0.4,3.9,1.1c1.1,0.8,2,2,2.6,3.8c0.4,1.2,0.6,3.1,0.6,5.7
		v11.9c0,1.8,0.2,3,0.5,3.6c0.2,0.5,0.6,0.9,1.1,1.2c0.5,0.3,1.4,0.4,2.8,0.4v1.1h-13.9v-1.1h0.6c1.3,0,2.2-0.2,2.7-0.6
		s0.9-1,1.1-1.8c0.1-0.3,0.2-1.3,0.2-2.9v-11.5c0-2.5-0.3-4.4-1-5.5c-0.7-1.2-1.8-1.7-3.4-1.7c-2.4,0-4.9,1.3-7.3,4v14.7
		c0,1.9,0.1,3.1,0.3,3.5c0.3,0.6,0.7,1,1.2,1.3s1.5,0.4,3,0.4v1.1H1027v-1.1h0.6c1.4,0,2.4-0.4,2.9-1.1s0.8-2.1,0.8-4.2v-10.4
		c0-3.4-0.1-5.4-0.2-6.2c-0.2-0.7-0.4-1.2-0.7-1.5c-0.3-0.3-0.7-0.4-1.3-0.4c-0.6,0-1.3,0.2-2.1,0.5l-0.5-1.1l8.4-3.4h1.3v6.1
		H1036.4z"/>
	<path class="st1" d="M1075.5,1110.5c-2.9,2.2-4.7,3.5-5.4,3.8c-1.1,0.5-2.3,0.8-3.5,0.8c-1.9,0-3.5-0.7-4.8-2s-1.9-3.1-1.9-5.2
		c0-1.4,0.3-2.5,0.9-3.5c0.8-1.4,2.3-2.7,4.4-3.9c2.1-1.2,5.5-2.7,10.3-4.5v-1.1c0-2.8-0.4-4.7-1.3-5.7s-2.2-1.6-3.9-1.6
		c-1.3,0-2.3,0.3-3,1c-0.8,0.7-1.2,1.5-1.2,2.4l0.1,1.8c0,0.9-0.2,1.7-0.7,2.2s-1.1,0.8-1.9,0.8s-1.4-0.3-1.9-0.8s-0.7-1.3-0.7-2.2
		c0-1.7,0.9-3.4,2.7-4.8c1.8-1.5,4.3-2.2,7.6-2.2c2.5,0,4.5,0.4,6.1,1.3c1.2,0.6,2.1,1.6,2.7,3c0.4,0.9,0.5,2.7,0.5,5.4v9.5
		c0,2.7,0.1,4.3,0.2,4.9s0.3,1,0.5,1.2s0.5,0.3,0.8,0.3s0.6-0.1,0.8-0.2c0.4-0.3,1.3-1,2.5-2.2v1.7c-2.3,3-4.5,4.6-6.6,4.6
		c-1,0-1.8-0.3-2.4-1C1075.8,1113.3,1075.5,1112.1,1075.5,1110.5z M1075.5,1108.4v-10.7c-3.1,1.2-5.1,2.1-6,2.6
		c-1.6,0.9-2.7,1.8-3.4,2.8c-0.7,1-1,2.1-1,3.2c0,1.5,0.4,2.7,1.3,3.7s1.9,1.5,3,1.5C1070.9,1111.5,1072.9,1110.5,1075.5,1108.4z"/>
</g>
<g>
	<path class="st1" d="M538.1,1182l-10.9,38.1c-0.6,2.3-0.9,3.9-0.9,4.9c0,0.8,0.3,1.5,0.9,1.9c0.6,0.5,1.9,0.7,4,0.9l-0.3,1.3h-17.5
		l0.5-1.3c1.9,0,3.1-0.2,3.7-0.4c1-0.4,1.7-1,2.2-1.6c0.7-1,1.5-2.9,2.2-5.6l7.9-27.4c0.5-1.7,0.7-2.6,0.8-2.8
		c0.1-0.5,0.1-0.9,0.1-1.4c0-0.8-0.2-1.4-0.6-1.9s-1-0.7-1.8-0.7c-0.6,0-1.5,0.1-2.7,0.4l-0.5-1.2l11.5-3.2L538.1,1182L538.1,1182z"
		/>
	<path class="st1" d="M567.9,1229.1h-23v-1.3c11.7-10.3,19.4-18.3,23.2-24.1c1.7-2.7,2.6-5.5,2.6-8.5c0-2.4-0.7-4.3-2.2-5.8
		s-3.3-2.2-5.6-2.2c-3.2,0-5.8,1.5-7.9,4.6l-1.2-0.5c1.2-2.9,2.8-5.2,5.1-6.8c2.2-1.6,4.6-2.4,7.2-2.4c2.9,0,5.4,1,7.4,3
		s3,4.4,3,7.3c0,2-0.4,3.8-1.1,5.5c-1.1,2.6-3.1,5.6-6,8.9c-4.4,5-10.4,10.8-17.8,17.4h11.6c1.9,0,3.4-0.4,4.6-1.1
		c1.2-0.8,2.1-1.8,2.6-3.1h1.4L567.9,1229.1z"/>
	<path class="st1" d="M586.3,1222.9c0.9,0,1.7,0.3,2.4,1s1,1.5,1,2.5c0,0.9-0.3,1.7-1,2.4c-0.7,0.7-1.5,1-2.4,1c-1,0-1.8-0.3-2.5-1
		s-1-1.5-1-2.4c0-1,0.3-1.8,1-2.5C584.5,1223.2,585.4,1222.9,586.3,1222.9z M593.5,1198.3c1,0,1.8,0.3,2.5,1s1,1.5,1,2.4
		s-0.3,1.8-1,2.5s-1.5,1-2.5,1s-1.8-0.3-2.5-1s-1-1.5-1-2.5s0.3-1.8,1-2.4C591.7,1198.6,592.5,1198.3,593.5,1198.3z"/>
	<path class="st1" d="M626,1182c2.9,0,5.3,1.2,7.3,3.6s3,6.3,3,11.5c0,4.5-0.7,9.1-2.2,13.7c-1.5,4.7-3.6,8.7-6.2,12.2
		c-2.1,2.7-4.3,4.7-6.7,5.8c-1.4,0.7-3,1-4.7,1c-3,0-5.4-1.2-7.4-3.6s-3-6.3-3-11.5s1-10.4,3-15.6c2.3-6.1,5.3-10.8,9-14
		C620.4,1183,623.1,1182,626,1182z M626.1,1183.8c-1.3,0-2.7,0.5-4,1.5c-1.4,1-2.7,3.2-4.2,6.4c-1.4,3.3-2.8,7.5-4.1,12.6
		c-1.7,6.7-2.5,12.5-2.5,17.2c0,2.4,0.5,4.1,1.5,5.3c1,1.2,2.3,1.8,3.7,1.8s2.6-0.5,3.6-1.4c2.6-2.5,4.8-6.6,6.7-12.6
		c3-9.7,4.5-17.5,4.5-23.6c0-2.5-0.5-4.4-1.5-5.6C628.6,1184.4,627.4,1183.8,626.1,1183.8z"/>
	<path class="st1" d="M660.8,1182c2.9,0,5.3,1.2,7.3,3.6s3,6.3,3,11.5c0,4.5-0.7,9.1-2.2,13.7c-1.5,4.7-3.6,8.7-6.2,12.2
		c-2.1,2.7-4.3,4.7-6.7,5.8c-1.4,0.7-3,1-4.7,1c-3,0-5.4-1.2-7.4-3.6s-3-6.3-3-11.5s1-10.4,3-15.6c2.3-6.1,5.3-10.8,9-14
		C655.2,1183,657.9,1182,660.8,1182z M660.9,1183.8c-1.3,0-2.7,0.5-4,1.5c-1.4,1-2.7,3.2-4.2,6.4c-1.4,3.3-2.8,7.5-4.1,12.6
		c-1.7,6.7-2.5,12.5-2.5,17.2c0,2.4,0.5,4.1,1.5,5.3c1,1.2,2.3,1.8,3.7,1.8s2.6-0.5,3.6-1.4c2.6-2.5,4.8-6.6,6.7-12.6
		c3-9.7,4.5-17.5,4.5-23.6c0-2.5-0.5-4.4-1.5-5.6C663.5,1184.4,662.3,1183.8,660.9,1183.8z"/>
	<path class="st1" d="M709.5,1180.7l-9.6,33.1c4.1-6.2,7.3-10.4,9.6-12.4s4.5-3.1,6.6-3.1c1.1,0,2,0.4,2.7,1.1
		c0.7,0.8,1.1,1.8,1.1,3c0,1.5-0.3,3.3-0.9,5.5l-4.1,14.2c-0.5,1.7-0.8,2.7-0.8,2.9c0,0.3,0.1,0.6,0.3,0.8c0.2,0.2,0.4,0.3,0.7,0.3
		s0.6-0.1,1-0.4c1.3-1,2.6-2.4,3.8-4.1l1.1,0.6c-0.8,1.2-1.9,2.5-3.2,4c-1.4,1.4-2.5,2.4-3.5,3s-1.9,0.8-2.6,0.8
		c-0.8,0-1.5-0.3-2.1-0.8c-0.5-0.5-0.8-1.2-0.8-2c0-1,0.4-2.9,1.2-5.6l3.9-13.6c0.5-1.7,0.7-3.1,0.7-4c0-0.5-0.1-0.8-0.4-1.1
		c-0.3-0.3-0.6-0.4-1.1-0.4c-0.6,0-1.4,0.3-2.2,0.8c-1.6,1-3.3,2.7-5.3,5.3c-0.6,0.7-2.4,3.5-5.5,8.5c-1,1.6-1.7,3.3-2.4,5.2l-2.2,7
		h-5.1l11.2-38.9l1.2-4.2c0-0.6-0.2-1.1-0.7-1.6s-1.1-0.7-1.8-0.7c-0.4,0-1,0.1-1.9,0.2l-0.7,0.1v-1.3L709.5,1180.7z"/>
</g>
<g>
	<path class="st1" d="M451,529c0.4-1.1,0.7-1.9,1-2.5c1.9-3.2,5-7,9.4-11.3c12.8-13.2,27.9-23.3,45.4-30.1
		c11.1-4.2,21.7-6.3,31.7-6.3c19,0,34.9,4.8,47.8,14.3c11,8.2,17.3,19.7,18.9,34.7c0.2,1.6,0.3,3.9,0.3,7c0,8.4-1.4,17.8-4.3,27.9
		c-3.9,13.6-10.5,28.1-19.5,43.5c-7.6,12.8-17.3,26.2-29,40c-4,4.9-10.6,11.8-19.5,20.8c-8,7.9-16.4,15.2-25.2,21.9
		c-14.7,11.4-29.2,20.1-43.6,26.3c-9.4,3.9-17.8,6.2-25.3,7c-2.6,0.3-5.1,0.4-7.6,0.4c-5.4,0-10-0.8-13.9-2.3
		c-12.4-5.1-18.6-15-18.6-29.4c0-5,0.7-9.5,2.2-13.6c1-2.6,1.8-4.3,2.3-5.1c0.9-1.6,2-2.3,3.3-2.3c0.6,0,1.1,0.1,1.8,0.4
		c2.1,0.7,3.5,2.4,4.1,5c0.9,4,1.6,7.1,1.9,9.1c0.3,1.5,0.6,3.4,1,5.9l0.8,5.8c0.1,0.9,0.3,2,0.6,3.4c0.3,1.3,0.6,2.4,0.8,3.1
		l0.3,1.4c-0.5,0.3-0.8,0.4-1.1,0.4c-0.3,0-0.6-0.1-0.8-0.4c-1.5-1.7-2.4-3.9-2.9-6.9c-0.6-2.7-1.4-7.5-2.6-14.6
		c-0.4-1.7-0.9-3.7-1.5-6.1c-0.1-0.3-0.2-0.5-0.3-0.7c-0.1-0.2-0.2-0.4-0.3-0.6c-0.7,0.1-1.2,0.4-1.4,0.9c-0.2,0.5-0.3,0.8-0.3,0.9
		c-1.9,5.2-2.9,10.4-2.9,15.4c0,4.8,0.9,9.2,2.8,13.2c2.8,6.8,7.5,10.9,14,12.2c2.6,0.6,5.5,1,8.7,1c1.1,0,2.7-0.1,4.7-0.3
		c6.8-0.6,13.9-2.4,21.5-5.4c10.5-4.1,21.2-9.8,32.1-16.9c10.9-7.2,21.2-15.1,31-23.9c3.4-3,8.3-7.8,14.9-14.3
		c6.3-6.1,13.3-13.9,20.8-23.3c8.4-10.5,16.1-21.6,23.1-33.3c5.2-8.7,9.8-17.7,13.6-26.8c6.3-15.5,9.5-29.9,9.5-43.1
		c0-6.4-0.8-12.2-2.5-17.2c-2.4-7.9-7.1-14.3-14-19.3c-6.8-4.8-14.9-8.3-24.2-10.5c-6.7-1.6-13.3-2.3-19.7-2.3
		c-5.8,0-11.5,0.6-17.1,1.8c-7.3,1.6-15.1,4.2-23.3,7.8c-7.8,3.7-15,7.9-21.6,12.7c-8.4,5.8-16.3,12.8-23.5,21.1c-1,1.2-2,2.5-3,3.9
		L451,529z M434.6,651c2.8-13.4,5.3-24.3,7.6-32.8c2.4-9.2,5.7-20.2,9.9-33c4.3-12.9,9-25.3,14.2-37.2c2.3-5.3,4.3-9.7,5.9-13.3
		c1.7-3.5,3.4-7,5.4-10.4c1.3-2.1,3.3-5.3,6.1-9.5c0.6-1,1.3-1.7,1.9-2.1c0.4-0.4,1-0.4,1.8-0.1c0.5,0.2,0.7,0.5,0.7,0.8
		s0,0.5-0.1,0.7c-0.2,0.5-0.4,1-0.8,1.7c-0.3,0.7-0.8,1.5-1.3,2.4c-3,5.7-6,12-8.8,18.9l-4.3,10.5c-3.4,8.3-5.5,13.5-6.2,15.6
		c-3.2,8.4-6.3,17.2-9.2,26.3c-3.3,9.8-6.6,21.2-9.9,34.3c-4.1,15.3-7.2,31.3-9.4,47.9c-0.2,1.3-0.3,2.3-0.3,3
		c0,0.9,0.1,1.8,0.4,2.6c0.3,0.9,0.1,2.2-0.4,3.7c-0.2,0.7-0.7,1.3-1.7,1.7L435,683c-0.8,0-1.6-0.3-2.2-0.8s-1.1-1.1-1.2-1.9
		c-0.2-0.9-0.3-1.6-0.3-2.1l0.1-1.4c0.1-0.9,0.2-2.5,0.3-4.7c0.1-2.2,0.3-4.2,0.6-6.1C432.8,663.5,433.5,658.5,434.6,651z"/>
	<path class="st1" d="M636.4,632.9c0.9,0,1.7,0.4,2.3,1.1c0,0.6,0,0.9-0.1,1c-1.7,1.7-4.3,3.7-7.7,5.9c-3.1,2-5.4,3.7-6.9,5.1
		c-1.4,1.2-5.3,5-11.8,11.3l-5.9,5.6c-2.5,2.4-5.8,5.1-10,8.1c-2.8,1.7-5.6,2.6-8.3,2.6c-2.3,0-4.4-0.7-6.4-2.1
		c-2-1.4-3.2-3.2-3.6-5.4c-0.7-2.9-1.1-5.6-1.1-8c0-2.9,0.3-5.7,0.8-8.3c0.6-2.6,1.4-6.3,2.6-11.1l0.7-2.1c0.2-0.5,0.3-1.2,0.4-2.3
		c0.1-1.1,0.3-1.9,0.5-2.5s0.7-1.1,1.4-1.4l1.8-3.2l1.7-3.2c0.6-1.3,1.8-3.2,3.4-5.8c1.7-2.3,3.1-4.1,4.4-5.4
		c1.1-1.1,2.4-2.2,3.9-3.4s2.6-2.1,3.2-2.6c0.6-0.5,1.6-1,2.9-1.5c1.3-0.4,2.3-0.6,3-0.6c2.3,0,4.2,0.8,5.8,2.3s2.4,3.5,2.4,6
		c0,1.7-0.3,3.2-0.8,4.4c-3.2,8.3-8,14.6-14.4,19.1c-3.7,2.7-6.9,4-9.8,4c-1,0-2-0.1-2.9-0.4h-0.4l-1.4,0.1
		c-1.9,6.1-2.9,12.2-2.9,18.3c0,2.1,0,3.7,0.1,4.7c0.2,1.8,0.6,3.3,1.1,4.3c0.7,1.7,1.6,2.5,2.6,2.5c0.3,0,0.8-0.2,1.5-0.6
		c2.9-1.5,5.1-2.8,6.5-4l8.7-7.4c2.3-2.1,4.6-4.1,6.9-6.1c6.1-5.2,12.1-10.4,17.9-15.4c1.4-1,3.3-2.1,5.8-3.3
		C635.2,633,635.9,632.9,636.4,632.9z M587.5,636.2c0,0.4,0.2,0.8,0.7,1.2c3.9-0.3,7.5-2,10.6-5.1c4.4-4.3,8.3-9.4,11.6-15.4
		c0.8-1.4,1.4-2.8,1.7-4.3c0.1-0.6,0.1-1.2,0.1-1.7s-0.1-1-0.1-1.4c-0.8-0.3-1.6-0.4-2.3-0.4c-1,0-1.9,0.3-2.6,0.8
		c-3.4,2.2-5.5,3.6-6.2,4.3c-2.9,2.5-5.4,5.4-7.4,8.9c-2,3.4-3.9,7.5-5.7,12.2C587.6,635.6,587.5,635.9,587.5,636.2z"/>
	<path class="st1" d="M691,637.1c-0.8,0.2-1.3,0.2-1.4,0.1c-1.1-0.6-2.2-0.8-3.3-0.8c-1,0-2,0.1-2.9,0.4c-5.7,1.5-9.8,2.8-12.4,4.1
		c-2.6,1.2-4.2,2.6-5,4s-1.4,3.5-2,6.3c-0.6,3-1.4,5.8-2.1,8.2c-0.8,2.4-2.2,5.3-4.2,8.6c-6.8,11-14,20.4-21.7,28.1
		c-3.6,3.6-6.9,6.3-10,8.1c-1.3,0.7-3.3,1.7-6.1,2.8c-0.6,0.3-1.3,0.4-1.9,0.4c-0.6,0-1.5-0.2-2.6-0.6c-1.8-0.6-3.1-1.4-3.9-2.2
		c-0.7-0.8-1.1-2-1.1-3.6c0-3.3,0.9-6.8,2.6-10.6c3.4-7.2,8.1-13.9,14-20.4c7.2-7.9,16.8-15.2,28.8-22l3.2-1.8c0-1.3,0-2.2-0.1-2.8
		c-0.3-1.9-1.3-3.2-3-3.7c-3.2-1.1-6.2-1.7-9.1-1.8l-6.6-0.3c-2.8-0.2-5-1.2-6.7-3.2c-0.7-0.9-1.1-1.7-1.1-2.3c0-0.7,0.3-1.5,1-2.2
		c1.3-1.7,2.5-2.9,3.7-3.9c6.2-5,11.9-8.7,17.1-11.3c0.3-0.1,1-0.5,2.2-1.1s2.4-1,3.7-1c1.6,0,2.6,0.6,3,1.8
		c-7.5,4.7-13,8.3-16.3,10.9c-3.4,2.6-5.9,5.1-7.8,7.6c0.2,0.6,0.7,0.8,1.7,0.8s3.8,0.2,8.4,0.7c3.7,0.4,6.3,0.8,8,1.3
		s3.5,1.8,5.5,3.8l1,0.7l2.5-1c3.1-1.4,6.7-2.8,10.9-4.1c1.6-0.6,3.9-1.1,7-1.7c1.1-0.2,2.1-0.1,3.1,0.3c1,0.4,2.1,1,3.4,1.8
		C690.3,635.7,690.6,636.2,691,637.1z M656.2,656.4c0.6-1.2,1-2.6,1.2-4.1c-2.5,1-6.4,3.5-11.7,7.4s-9.3,7.2-11.8,9.8
		c-5,5-9,9.9-12.2,14.9c-2.1,3.3-4,7.6-5.6,12.9c-0.2,0.7-0.3,1.6-0.3,2.6s0,1.7,0,1.9s0.1,0.6,0.4,1.1c0.3,0.5,0.5,0.9,0.7,1.2
		c0.6-0.4,1.2-0.7,2-1.1c0.8-0.4,1.4-0.7,1.9-1c1.3-0.9,3.1-2.4,5.5-4.4c3.3-2.8,7.2-7.2,11.8-12.9c3.9-4.9,7.2-9.4,10-13.5
		s5.2-8.4,7.2-12.8C655.3,658.3,655.6,657.6,656.2,656.4z"/>
	<path class="st1" d="M785.4,559.8c0.5,0.6,0.9,1.7,1.2,3.3c-1.1,0-1.9,0-2.3-0.1c-9.5-1.9-18.7-2.9-27.5-3
		c-14.1-0.2-24.7-0.3-31.8-0.3l-5.2,0.1c-0.2,0.5-0.4,0.9-0.7,1.3c-0.3,0.4-0.5,0.8-0.7,1.3c-2.4,5.7-5.8,14.3-10.2,25.9l-1,2.6
		c-6.2,16.2-11.1,30.5-14.6,42.8c-3.9,13.4-6.7,23.5-8.4,30.3c-1.6,5.9-3.1,12.2-4.5,19.1c-0.2,0.8-0.4,2.1-0.5,3.7
		c-0.1,0.5-0.1,1.2-0.1,2.2c0,1.5,0.3,2.6,1,3.4c-0.6,1-1.5,1.5-2.5,1.5c-0.5,0-1.2-0.2-2.3-0.6c-1.4-0.5-2.2-1.5-2.3-3.2l-0.1-1.5
		c0-0.6,0.1-1.3,0.3-2.2c0.3-1.3,0.7-3.7,1.4-7.3c0.7-3.9,1.4-7,1.9-9.2l1.2-5.2c2.9-11.5,5.4-20.6,7.3-27.5
		c4.9-16.8,9.9-31.6,15.1-44.4l4.4-11c2.3-6.1,4.8-12.3,7.4-18.6c0.2-0.5,0.5-1.5,1-3c-0.6-0.4-1.6-0.6-2.9-0.6
		c-3.6,0-8.9,0.1-16.1,0.3c-7.3,0.2-12.8,0.3-16.4,0.3c-0.6,0-1.6-0.1-2.9-0.3c-1-0.1-1.7-0.8-2.1-2.2c1.7-0.6,3.9-1.1,6.7-1.4
		c2.8-0.3,7.7-0.6,14.4-0.9l21.3-0.8c0.8-0.6,1.5-1.5,1.9-2.6c0.5-1.1,0.7-1.8,0.8-2.1c2.8-6.8,6.5-13.9,11.1-21.5
		c0.9-1.5,1.7-2.5,2.2-3c0.3-0.3,0.7-0.4,1.2-0.4c1,0,1.3,0.6,1,1.8l-0.7,1.9l-5.4,12.7l-3.3,7.4l-1.8,4.7c0.3,0.7,0.8,1.1,1.5,1.1
		c3.2,0,5.6,0,7.3-0.1c1.2,0,2.7,0,4.5-0.1c1.8,0,3.9,0,6.3,0.1l6.7,0.1c9.9,0.2,17.3,0.6,22.2,1.2c3.6,0.5,7.7,1.3,12.2,2.6
		C784.1,558.8,784.9,559.2,785.4,559.8z"/>
	<path class="st1" d="M714.3,625.5c0.2,0.3,0.3,0.8,0.1,1.6c-0.3,1.6-1,4.3-2.2,8.1c-1.4,4.6-2.6,9.2-3.6,14
		c-1.1,4.7-2.3,10.5-3.6,17.4c-0.1,0.5-0.1,1.2-0.1,2.2l0.1,4.7c-0.6,0.4-1.3,0.6-1.9,0.6c-0.7,0-1.4-0.3-2.1-0.8
		c-1.4-1.1-2-2.2-1.9-3.4c0.4-3.6,0.7-6.4,1-8.4c2.1-13.6,5.2-24.9,9.2-33.9c0.1-0.3,0.3-0.8,0.6-1.6s0.9-1.4,1.7-1.9
		c0.2,0.1,0.4,0.1,0.6,0.1c0.2,0,0.5,0.1,0.9,0.3C713.6,624.8,714.1,625.2,714.3,625.5z M719.9,612.8c0,0.7-0.3,1.3-0.8,1.7
		s-1.1,0.5-1.7,0.3c-1.4-0.6-2.3-1.5-2.9-2.9c-0.3-0.6-0.4-1.1-0.4-1.5c0-0.7,0.4-1.6,1.1-2.5c1.2,0.2,2.3,0.8,3.4,1.9
		C719.5,610.7,719.9,611.7,719.9,612.8z"/>
	<path class="st1" d="M762.4,676.6c1.3,0,2.2,0.4,2.8,1.2c-1,1.5-2.5,2.1-4.4,1.8c-5-0.8-8.2-3.1-9.5-6.7c-0.5-1.4-1-3.5-1.5-6.5
		c-0.5-2.9-0.7-5.5-0.7-7.7c0-3.9,0.5-8.2,1.4-12.9c0.6-3.6,1.8-8.9,3.4-16.1c0.6-1.8,0.9-3.4,1.1-4.8c0.1-0.6,0.1-1.2,0.1-1.7
		s-0.1-0.9-0.1-1.2c-0.9,0-1.6,0-1.9,0.1c-3.7,1.8-6.9,4.3-9.8,7.4c-5,5.9-9.5,12.3-13.2,19.3c-3.2,6.1-5.9,12.6-8,19.5
		c-0.4,1.5-1.1,2.2-2.2,2.2c-0.6,0-1.1-0.2-1.8-0.6c-1.3-0.6-1.9-1.4-1.9-2.2c0-0.6,0.1-1.2,0.3-1.7c0.4-1.4,0.9-3,1.5-4.8
		s1.1-3.2,1.4-4l1.9-5.6c2.8-8,5-14.3,6.9-19c0.4-1,0.7-1.9,1.1-2.6c0.4-0.7,0.7-1.4,1-1.9c1.3-2.5,2.2-4.7,2.8-6.7
		c0.3-1.1,0.9-1.7,1.9-1.7c0.2,0.6,0.3,1,0.3,1.2c0,0.6-0.2,1.4-0.6,2.5c-0.9,3.1-1.7,5.5-2.2,7l-0.4,3.3c0.3-0.4,0.7-0.8,1.2-1.3
		s0.8-0.9,1-1.3c2.5-3.7,6-7.2,10.6-10.7c1.2-0.9,2.8-1.9,4.7-2.9c0.8-0.4,1.7-0.6,2.8-0.6c1.5,0,3,0.6,4.5,1.7
		c2.8,2.2,4.1,5,3.7,8.3c-0.4,3.5-0.7,6.1-1.1,8c-1.7,7.2-2.8,13.2-3.3,17.8c-0.3,2.3-0.4,4.6-0.4,7c0,3.7,0.3,7.1,1,10.2
		c0.3,1.6,0.7,3,1.2,4.3c0.3,0.8,0.7,1.5,1.4,1.9c0.6,0.5,1.4,0.6,2.3,0.6L762.4,676.6L762.4,676.6z"/>
	<path class="st1" d="M831.7,635.8c0,0.2-0.1,0.4-0.2,0.5c-0.2,0.2-0.6,0.3-1.2,0.3c-0.3,0-0.5-0.1-0.7-0.3l-1-0.8
		c-2.4-2.4-5.2-3.7-8.5-4c-0.9-0.1-2.6-0.2-5.1-0.4s-4.8-0.3-6.9-0.3c0.1,0.3,0.1,0.6,0.1,1.1s0,0.8,0.1,1.1c1.2,3,1.8,6.1,1.8,9.2
		c0,4.8-1.5,10-4.5,15.6c-3.4,6.1-7.1,10.7-11,13.6c-2.4,1.7-4.5,3.1-6.5,4c-2.2,1-4.3,1.5-6.2,1.5c-3.3,0-6.2-1.1-8.7-3.3
		s-4.1-5.1-4.7-8.7c-0.2-0.8-0.3-2.2-0.3-4c0-5.9,1.6-12.5,4.7-20c1.9-4.6,3.7-8.4,5.4-11.4s3.6-5.7,5.9-8.2c2-2.2,3.8-3.8,5.4-4.7
		c0.7-0.5,1.3-0.7,1.8-0.7c0.6,0,1.1,0.3,1.5,1c0.6,0.8,1.3,1.5,2.3,2s1.6,0.9,2,1.2c0.7,0.5,3,2.1,6.9,5l10.6,1
		c2.5,0.2,4.5,0.5,6.2,1c5.2,1.6,8.9,4.3,10.9,8.1C831.7,635.4,831.7,635.6,831.7,635.8z M804.4,639.1c0-1.4-0.1-2.8-0.4-4.1
		c0-0.2-0.1-0.8-0.3-1.7c-0.2-1-0.6-1.9-1.4-2.7c-2.4,0-4.2,0-5.4-0.1c-2.4-0.2-4.4-0.6-6.1-1.1c-1.7-0.6-3.2-1.6-4.6-3
		c-1,1.2-1.6,1.9-1.7,2.1c-2.2,3.7-4.1,7.5-5.8,11.6c-2.4,5.7-4,11.7-4.8,18.2c-0.2,1.8-0.3,3.3-0.3,4.3c0,2.1,0.3,4.1,1,6.1
		c0.9,2.8,2.4,4.3,4.4,4.3c0.7,0,1.7-0.2,2.9-0.7c0.9-0.4,1.6-0.7,1.9-1c0.6-0.5,1.6-1.1,3-2.1c1.3-0.9,2.5-1.8,3.4-2.6
		c4.4-4.1,8-9,10.9-14.7C803.3,647.4,804.4,643.2,804.4,639.1z M796,624.9L796,624.9h-0.2H796z"/>
</g>
</svg>
